<?xml version="1.0" standalone="no"?>
<!DOCTYPE svg PUBLIC "-//W3C//DTD SVG 20010904//EN"
 "http://www.w3.org/TR/2001/REC-SVG-20010904/DTD/svg10.dtd">
<svg version="1.0" xmlns="http://www.w3.org/2000/svg"
 width="1024.000000pt" height="1024.000000pt" viewBox="0 0 1024.000000 1024.000000"
 preserveAspectRatio="xMidYMid meet">
<metadata>
Created by potrace 1.11, written by Peter Selinger 2001-2013
</metadata>
<g transform="translate(0.000000,1024.000000) scale(0.100000,-0.100000)"
fill="#000000" stroke="none">
<path d="M569 9495 c-210 -42 -394 -182 -492 -374 -85 -167 -78 234 -75 -4036
l3 -3800 28 -80 c81 -229 273 -406 503 -465 76 -20 134 -20 4579 -20 4468 0
4502 0 4581 20 253 64 444 249 521 505 17 57 18 230 21 3835 3 4235 10 3855
-73 4025 -91 186 -231 306 -440 377 l-70 23 -4510 2 c-3712 1 -4522 -1 -4576
-12z m2705 -2534 l1090 -1090 -302 -308 c-165 -169 -656 -663 -1091 -1097
l-789 -789 -324 303 c-177 167 -341 320 -363 342 l-40 38 729 729 729 729
-724 746 c-398 411 -726 752 -728 758 -3 9 706 728 719 728 3 0 495 -490 1094
-1089z m4054 -2963 l-3 -363 -1457 -3 -1458 -2 0 365 0 365 1460 0 1460 0 -2
-362z"/>
</g>
</svg>
