<svg id="a0dd6a69-f7d2-45f0-b612-bfa248db1932" data-name="Layer 1" xmlns="http://www.w3.org/2000/svg" viewBox="0 0 512 512"><defs><style>.a7581abc-3e79-4564-852a-19b92021dcd6{fill:#f05d4a;}.\34 aa16d38-b915-4d7c-934f-44f64f990cd9{fill:#d95443;}.\32 4f7d015-f938-42d9-b3e4-75b7615e10fd{fill:#fff;}.a47b8ac0-644c-4f4d-8106-00b118527013{fill:#f1f2f2;}</style></defs><title>rails</title><g id="cb67d2f1-6689-41cd-b50f-6cf1a7510752" data-name="social_6"><path class="a7581abc-3e79-4564-852a-19b92021dcd6" d="M511.67,255.93c0-141.38-114.61-256-256-256s-256,114.62-256,256,114.61,256,256,256S511.67,397.32,511.67,255.93Z" transform="translate(0.33 0.07)"/><path class="4aa16d38-b915-4d7c-934f-44f64f990cd9" d="M255.67,511.93c141.39,0,256-114.61,256-256A255.06,255.06,0,0,0,441.56,80L77.41,439.58A255.09,255.09,0,0,0,255.67,511.93Z" transform="translate(0.33 0.07)"/><path id="634cc89f-9bfb-4a47-bb24-9589dc60ca9d" data-name="Rails" class="24f7d015-f938-42d9-b3e4-75b7615e10fd" d="M139.69,403.35H286.17s-32.49-73.8-24.24-141.53,61.68-98.58,92-101.88,46.81,15.43,46.81,15.43l6.61-9.91s-43.5-44.06-98.58-39.09S215.67,167.66,192,211.71s-37.45,74.89-46.81,121.16-5.5,70.49-5.5,70.49h0Zm-29.19-73.8,28.63,2.21-5,28.63-27-3.31,3.31-27.53h0ZM155.66,269l7.71-21.47L138,237.59l-8.26,23.13Zm35.8-73.8,14.87-17.62-19.28-12.66L171.64,182Zm39.09-68.28,13.22,16,18.18-10.46-13.22-14.87ZM295,108.72l3.31,16,22.58-.56-2.21-14.31Zm76.55,17.07L371,135.69l15.43,8.26,3.31-5-18.16-13.22h0Zm-3.31,42.42v8.26l14.87,1.65v-6.61l-14.87-3.31h0Zm-47.35,7.16L328,188.57l10.46-8.26-2.2-8.81-15.41,3.86h0Zm-22.58,17.07,11,16.52-6.6,11.56-16-17.62Zm-22,45.71-7.16,14.31,18.72,16,4.41-18.18-16-12.12h0Zm-7.71,50.12-1.1,19.28,23.13,9.91-1.1-18.18-20.93-11h0Zm6.61,68.28,5.52,19.83L309.87,378,299.4,356.54H275.16Z" transform="translate(0.33 0.07)"/><polygon class="a47b8ac0-644c-4f4d-8106-00b118527013" points="289.81 299.32 268.88 288.31 268.88 288.32 267.78 307.59 290.9 317.5 289.81 299.32"/><polygon class="a47b8ac0-644c-4f4d-8106-00b118527013" points="288.15 268.49 292.56 250.31 279.52 240.41 271.56 248.27 269.43 252.52 288.15 268.49"/><polygon class="a47b8ac0-644c-4f4d-8106-00b118527013" points="275.49 356.6 275.49 356.61 275.5 356.61 275.49 356.6"/><path class="a47b8ac0-644c-4f4d-8106-00b118527013" d="M261.93,261.81c0.21-1.75.46-3.46,0.73-5.16L139.17,378.6c-0.81,16.35.52,24.76,0.52,24.76H286.17S253.68,329.55,261.93,261.81Z" transform="translate(0.33 0.07)"/><path class="a47b8ac0-644c-4f4d-8106-00b118527013" d="M377.44,143.32L361,159.55c25.74,0,39.7,15.8,39.7,15.8l6.61-9.91A152.11,152.11,0,0,0,377.44,143.32Z" transform="translate(0.33 0.07)"/><polygon class="a47b8ac0-644c-4f4d-8106-00b118527013" points="368.55 168.26 368.55 168.27 368.55 176.53 383.42 178.18 383.42 171.56 368.55 168.26"/><polygon class="a47b8ac0-644c-4f4d-8106-00b118527013" points="310.19 378.08 299.73 356.61 275.5 356.61 281.01 376.43 310.19 378.08"/><polygon class="a47b8ac0-644c-4f4d-8106-00b118527013" points="386.73 144.02 390.04 139.06 385.5 135.76 380.51 140.69 386.73 144.02"/><polygon class="a47b8ac0-644c-4f4d-8106-00b118527013" points="303.02 220.58 307.45 212.83 301.41 218.8 303.02 220.58"/></g></svg>