<svg id="3f7e0b68-df24-4079-8b4e-0502088e06db" data-name="Ebene 1" xmlns="http://www.w3.org/2000/svg" viewBox="0 0 220.47 114.92"><defs><style>.\38 84c79cd-256b-4d72-bf19-e71827a7a7f1{fill:#fff;}</style></defs><title>ios</title><g id="34cddf6a-54cd-4cad-bfac-0afc007b89dd" data-name="iOS"><path class="884c79cd-256b-4d72-bf19-e71827a7a7f1" d="M263.61,76.33V60.5h5.84V76.33h-5.84Zm0,93.87v-79h5.84v79h-5.84Z" transform="translate(-263.61 -57.89)"/><path class="884c79cd-256b-4d72-bf19-e71827a7a7f1" d="M388.52,115.35A70.26,70.26,0,0,1,385,137.86a54,54,0,0,1-10.22,18.28,47.5,47.5,0,0,1-16.36,12.21,56.59,56.59,0,0,1-44,0,47.29,47.29,0,0,1-16.44-12.21,54,54,0,0,1-10.22-18.28,73.44,73.44,0,0,1,0-45,54,54,0,0,1,10.22-18.28,47.35,47.35,0,0,1,16.44-12.21,56.59,56.59,0,0,1,44,0,47.56,47.56,0,0,1,16.36,12.21A54.06,54.06,0,0,1,385,92.85,70.27,70.27,0,0,1,388.52,115.35Zm-97.56,0a63.67,63.67,0,0,0,3.07,20,49,49,0,0,0,8.91,16.36A42.37,42.37,0,0,0,336.44,167a42.55,42.55,0,0,0,19.13-4.15,43.38,43.38,0,0,0,14.21-11.14,49.13,49.13,0,0,0,8.91-16.36,66.46,66.46,0,0,0,0-39.95A49.18,49.18,0,0,0,369.78,79a43.41,43.41,0,0,0-14.21-11.14,42.54,42.54,0,0,0-19.13-4.15A42.38,42.38,0,0,0,302.94,79,49.07,49.07,0,0,0,294,95.38,63.68,63.68,0,0,0,291,115.35Z" transform="translate(-263.61 -57.89)"/><path class="884c79cd-256b-4d72-bf19-e71827a7a7f1" d="M474.56,91.85a29.42,29.42,0,0,0-3-12.29,25.76,25.76,0,0,0-7.3-8.76,31.83,31.83,0,0,0-11-5.3,52,52,0,0,0-13.9-1.77,50.11,50.11,0,0,0-9.91,1.08,31.37,31.37,0,0,0-9.83,3.76,22.31,22.31,0,0,0-7.45,7.22,20.45,20.45,0,0,0-2.92,11.29q0,6.61,3.23,10.75a23.47,23.47,0,0,0,8.45,6.68,55.54,55.54,0,0,0,12,4.07q6.76,1.54,13.67,2.92,7.06,1.38,13.75,3.3a47.23,47.23,0,0,1,12,5.22,25.86,25.86,0,0,1,8.53,8.6q3.22,5.3,3.23,13.29,0,8.61-3.69,14.44a31.14,31.14,0,0,1-9.3,9.53,38.6,38.6,0,0,1-12.44,5.3,57.18,57.18,0,0,1-13.14,1.61,75.87,75.87,0,0,1-18.13-2.07A40.58,40.58,0,0,1,412.64,164a32.62,32.62,0,0,1-9.91-12.06q-3.61-7.37-3.46-18H406q-0.46,9.07,2.61,15.29a27.58,27.58,0,0,0,8.53,10.22A35.34,35.34,0,0,0,430,165.21,66.36,66.36,0,0,0,445.52,167,49.21,49.21,0,0,0,456,165.75a32.42,32.42,0,0,0,10.29-4.15,25.46,25.46,0,0,0,7.84-7.68,21.3,21.3,0,0,0,3.15-12q0-6.91-3.23-11.29a23.69,23.69,0,0,0-8.53-7.07,55,55,0,0,0-12-4.3q-6.68-1.61-13.75-3-6.91-1.38-13.67-3.23a47,47,0,0,1-12-5,25.67,25.67,0,0,1-8.45-8.14q-3.23-5-3.23-12.83a26,26,0,0,1,3.3-13.44,27,27,0,0,1,8.6-9.06,38.18,38.18,0,0,1,11.91-5.07,54.92,54.92,0,0,1,13.06-1.61,64.24,64.24,0,0,1,16.06,1.92,38.3,38.3,0,0,1,13.06,6,30,30,0,0,1,9,10.52,37.26,37.26,0,0,1,3.84,15.52h-6.76Z" transform="translate(-263.61 -57.89)"/></g></svg>