<svg id="533a2c91-f6f2-4ee3-b175-c58b0be87788" data-name="Ebene 1" xmlns="http://www.w3.org/2000/svg" viewBox="0 0 312.65 114.92"><defs><style>.\34 df43d4d-c211-43b1-b2af-cd51434ca093{fill:#fff;}</style></defs><title>tvos</title><g id="f3fc6261-c0b0-45f5-af7c-58ff94c3500a" data-name="tvOS"><path class="4df43d4d-c211-43b1-b2af-cd51434ca093" d="M471,321.14H453.8V376.3a21.3,21.3,0,0,0,1.08,7.53,8.59,8.59,0,0,0,3.3,4.23,11.71,11.71,0,0,0,5.38,1.77,54.54,54.54,0,0,0,7.3.15V395a54.76,54.76,0,0,1-8.68-.08,17.42,17.42,0,0,1-7.45-2.3,13.5,13.5,0,0,1-5.15-5.76q-1.92-3.84-1.61-10.6V321.14h-14.6v-5.07H448V291.49h5.84v24.58H471v5.07Z" transform="translate(-433.36 -282.73)"/><path class="4df43d4d-c211-43b1-b2af-cd51434ca093" d="M511.87,395h-7.22l-31.8-79h6.76l28.58,72.21h0.31l26.73-72.21h6.45Z" transform="translate(-433.36 -282.73)"/><path class="4df43d4d-c211-43b1-b2af-cd51434ca093" d="M650.45,340.19a70.27,70.27,0,0,1-3.53,22.51A54,54,0,0,1,636.7,381a47.5,47.5,0,0,1-16.36,12.21,56.58,56.58,0,0,1-44,0A47.29,47.29,0,0,1,559.88,381a54,54,0,0,1-10.22-18.28,73.44,73.44,0,0,1,0-45,54,54,0,0,1,10.22-18.28,47.35,47.35,0,0,1,16.44-12.21,56.59,56.59,0,0,1,44,0A47.56,47.56,0,0,1,636.7,299.4a54.06,54.06,0,0,1,10.22,18.28A70.27,70.27,0,0,1,650.45,340.19Zm-97.56,0a63.67,63.67,0,0,0,3.07,20,49,49,0,0,0,8.91,16.36,42.37,42.37,0,0,0,33.49,15.29,42.55,42.55,0,0,0,19.13-4.15,43.38,43.38,0,0,0,14.21-11.14,49.12,49.12,0,0,0,8.91-16.36,66.46,66.46,0,0,0,0-39.95,49.17,49.17,0,0,0-8.91-16.36,43.42,43.42,0,0,0-14.21-11.14,42.54,42.54,0,0,0-19.13-4.15,42.38,42.38,0,0,0-33.49,15.29A49.07,49.07,0,0,0,556,320.22,63.68,63.68,0,0,0,552.89,340.19Z" transform="translate(-433.36 -282.73)"/><path class="4df43d4d-c211-43b1-b2af-cd51434ca093" d="M736.49,316.68a29.42,29.42,0,0,0-3-12.29,25.76,25.76,0,0,0-7.3-8.76,31.84,31.84,0,0,0-11-5.3,52,52,0,0,0-13.9-1.77,50.08,50.08,0,0,0-9.91,1.08,31.37,31.37,0,0,0-9.83,3.76,22.3,22.3,0,0,0-7.45,7.22,20.45,20.45,0,0,0-2.92,11.29q0,6.61,3.23,10.75a23.47,23.47,0,0,0,8.45,6.68,55.57,55.57,0,0,0,12,4.07q6.76,1.54,13.67,2.92,7.06,1.38,13.75,3.3a47.21,47.21,0,0,1,12,5.22,25.86,25.86,0,0,1,8.53,8.6q3.23,5.3,3.23,13.29,0,8.61-3.69,14.44a31.14,31.14,0,0,1-9.3,9.53,38.6,38.6,0,0,1-12.44,5.3,57.21,57.21,0,0,1-13.14,1.61,75.87,75.87,0,0,1-18.13-2.07,40.59,40.59,0,0,1-14.75-6.76,32.62,32.62,0,0,1-9.91-12.06q-3.61-7.37-3.46-18H668q-0.46,9.07,2.61,15.29a27.58,27.58,0,0,0,8.53,10.22A35.33,35.33,0,0,0,691.93,390a66.36,66.36,0,0,0,15.52,1.77A49.24,49.24,0,0,0,718,390.58a32.43,32.43,0,0,0,10.29-4.15,25.46,25.46,0,0,0,7.84-7.68,21.3,21.3,0,0,0,3.15-12q0-6.91-3.23-11.29a23.7,23.7,0,0,0-8.53-7.07,55,55,0,0,0-12-4.3q-6.68-1.61-13.75-3-6.91-1.38-13.67-3.23a47,47,0,0,1-12-5,25.67,25.67,0,0,1-8.45-8.14q-3.23-5-3.23-12.83a26,26,0,0,1,3.3-13.44,27,27,0,0,1,8.6-9.06,38.17,38.17,0,0,1,11.91-5.07,54.92,54.92,0,0,1,13.06-1.61,64.24,64.24,0,0,1,16.06,1.92,38.3,38.3,0,0,1,13.06,6,30,30,0,0,1,9,10.52,37.26,37.26,0,0,1,3.84,15.52h-6.76Z" transform="translate(-433.36 -282.73)"/></g></svg>