<svg id="88083718-4c3d-4e54-99e9-a8c5c15bca60" data-name="Ebene 1" xmlns="http://www.w3.org/2000/svg" viewBox="0 0 191.75 37.4"><defs><style>.f69f6ff8-b691-4fa9-b8fa-9fc2ea3ae6b2{fill:#fff;}</style></defs><title>watchos</title><g id="04ab6858-61fa-4507-a025-9c2b9efc708a" data-name="watchOS"><path class="f69f6ff8-b691-4fa9-b8fa-9fc2ea3ae6b2" d="M310.08,158.27h0.1l7-23.5h2.55l7,23.5h0.1l7.2-23.5h2.1l-8.25,25.7h-2.35l-7.05-23.3h-0.1l-7.1,23.3h-2.4l-8.15-25.7h2.05Z" transform="translate(-300.78 -123.92)"/><path class="f69f6ff8-b691-4fa9-b8fa-9fc2ea3ae6b2" d="M355.93,155.37h-0.1a7.92,7.92,0,0,1-1.3,2.18,9.21,9.21,0,0,1-2.08,1.82,10.28,10.28,0,0,1-2.77,1.25,12.16,12.16,0,0,1-3.4.45,10,10,0,0,1-6.35-1.77q-2.25-1.77-2.25-5.48a6.42,6.42,0,0,1,3.17-5.93,9.76,9.76,0,0,1,3.05-1.17,30,30,0,0,1,3.22-.5l3-.25a17.39,17.39,0,0,0,3.23-.48,4.11,4.11,0,0,0,1.77-.9,2.56,2.56,0,0,0,.75-1.48,14,14,0,0,0,.15-2.25,4.75,4.75,0,0,0-.4-1.95,4.38,4.38,0,0,0-1.25-1.6,6.2,6.2,0,0,0-2.2-1.1,11.75,11.75,0,0,0-3.3-.4,8.66,8.66,0,0,0-5.58,1.7,6.73,6.73,0,0,0-2.32,5.15H339a8.41,8.41,0,0,1,2.72-6.37q2.52-2.12,7.18-2.12t6.77,1.82a6,6,0,0,1,2.13,4.77v15q0,0.55,0,1.1a3.68,3.68,0,0,0,.18,1,1.5,1.5,0,0,0,.5.73,1.58,1.58,0,0,0,1,.27,9.18,9.18,0,0,0,1.4-.15v1.6a6,6,0,0,1-1.55.2,4.57,4.57,0,0,1-1.82-.3,2.4,2.4,0,0,1-1-.8,2.94,2.94,0,0,1-.48-1.17,8.1,8.1,0,0,1-.12-1.48v-1.35Zm0-9.5a3.6,3.6,0,0,1-2.12,1.15,26.45,26.45,0,0,1-3.18.45l-3.2.3q-1.4.15-2.8,0.43a8.17,8.17,0,0,0-2.52.92,5.17,5.17,0,0,0-1.82,1.77,5.46,5.46,0,0,0-.7,2.93,5,5,0,0,0,1.8,4.23,8,8,0,0,0,5,1.38,9.74,9.74,0,0,0,5.15-1.18,9.1,9.1,0,0,0,2.9-2.7,8.31,8.31,0,0,0,1.28-3,12.67,12.67,0,0,0,.27-1.92v-4.8Z" transform="translate(-300.78 -123.92)"/><path class="f69f6ff8-b691-4fa9-b8fa-9fc2ea3ae6b2" d="M373.33,136.42h-5.6v17.95a6.94,6.94,0,0,0,.35,2.45,2.79,2.79,0,0,0,1.08,1.38,3.81,3.81,0,0,0,1.75.57,17.74,17.74,0,0,0,2.38.05v1.65a17.84,17.84,0,0,1-2.83,0,5.67,5.67,0,0,1-2.42-.75,4.39,4.39,0,0,1-1.68-1.87,7.08,7.08,0,0,1-.52-3.45V136.42h-4.75v-1.65h4.75v-8h1.9v8h5.6v1.65Z" transform="translate(-300.78 -123.92)"/><path class="f69f6ff8-b691-4fa9-b8fa-9fc2ea3ae6b2" d="M396.18,142.72a7.44,7.44,0,0,0-.87-3,6.69,6.69,0,0,0-1.87-2.15,8.53,8.53,0,0,0-2.67-1.3,11.53,11.53,0,0,0-3.27-.45,9,9,0,0,0-4.25,1,9.37,9.37,0,0,0-3.1,2.6,11.79,11.79,0,0,0-1.9,3.7,14.21,14.21,0,0,0-.65,4.27,18.2,18.2,0,0,0,.6,4.8A10.89,10.89,0,0,0,380,156a8.6,8.6,0,0,0,3.1,2.52,9.84,9.84,0,0,0,4.35.9,8.89,8.89,0,0,0,6-2.25,8.54,8.54,0,0,0,1.92-2.53,10.26,10.26,0,0,0,1-3.22h1.9a12.05,12.05,0,0,1-1.25,4.1,10,10,0,0,1-2.4,3,10.41,10.41,0,0,1-3.3,1.88,12.79,12.79,0,0,1-9.27-.48,10.28,10.28,0,0,1-3.65-3,12.84,12.84,0,0,1-2.1-4.37,19.58,19.58,0,0,1-.68-5.18,16.49,16.49,0,0,1,.77-5.1,12.47,12.47,0,0,1,2.28-4.2,10.8,10.8,0,0,1,3.7-2.85,11.59,11.59,0,0,1,5.05-1,14.14,14.14,0,0,1,3.92.52,10.17,10.17,0,0,1,3.25,1.57,8.22,8.22,0,0,1,2.33,2.68,9.54,9.54,0,0,1,1.1,3.77h-1.9Z" transform="translate(-300.78 -123.92)"/><path class="f69f6ff8-b691-4fa9-b8fa-9fc2ea3ae6b2" d="M404.68,124.77v15.5h0.1a8.23,8.23,0,0,1,1.43-2.57,9.46,9.46,0,0,1,4.82-3.12,11,11,0,0,1,3-.4,11.69,11.69,0,0,1,3.83.55,7.5,7.5,0,0,1,2.57,1.45,7,7,0,0,1,1.58,2,9.39,9.39,0,0,1,.82,2.27,13.48,13.48,0,0,1,.3,2.23q0,1.08,0,1.88v15.9h-1.9V144.22q0-.95-0.15-2.4a7.31,7.31,0,0,0-.87-2.77,6.37,6.37,0,0,0-2.2-2.28,7.49,7.49,0,0,0-4.07-.95,9.07,9.07,0,0,0-3.9.8,8.45,8.45,0,0,0-2.9,2.23,9.79,9.79,0,0,0-1.82,3.4,14.25,14.25,0,0,0-.62,4.33v13.9h-1.9v-35.7h1.9Z" transform="translate(-300.78 -123.92)"/><path class="f69f6ff8-b691-4fa9-b8fa-9fc2ea3ae6b2" d="M461.43,142.62a22.88,22.88,0,0,1-1.15,7.33A17.57,17.57,0,0,1,457,155.9a15.45,15.45,0,0,1-5.32,4,18.41,18.41,0,0,1-14.33,0,15.39,15.39,0,0,1-5.35-4,17.56,17.56,0,0,1-3.32-5.95,23.9,23.9,0,0,1,0-14.65,17.57,17.57,0,0,1,3.32-6,15.42,15.42,0,0,1,5.35-4,18.42,18.42,0,0,1,14.33,0,15.48,15.48,0,0,1,5.32,4,17.58,17.58,0,0,1,3.33,6A22.88,22.88,0,0,1,461.43,142.62Zm-31.75,0a20.72,20.72,0,0,0,1,6.5,16,16,0,0,0,2.9,5.33,13.79,13.79,0,0,0,10.9,5,13.84,13.84,0,0,0,6.23-1.35,14.11,14.11,0,0,0,4.63-3.62,16,16,0,0,0,2.9-5.33,21.63,21.63,0,0,0,0-13,16,16,0,0,0-2.9-5.32,14.12,14.12,0,0,0-4.62-3.62,13.84,13.84,0,0,0-6.23-1.35,13.79,13.79,0,0,0-10.9,5,16,16,0,0,0-2.9,5.32A20.73,20.73,0,0,0,429.68,142.62Z" transform="translate(-300.78 -123.92)"/><path class="f69f6ff8-b691-4fa9-b8fa-9fc2ea3ae6b2" d="M489.43,135a9.58,9.58,0,0,0-1-4,8.38,8.38,0,0,0-2.37-2.85,10.37,10.37,0,0,0-3.58-1.73,16.92,16.92,0,0,0-4.52-.57,16.3,16.3,0,0,0-3.23.35,10.21,10.21,0,0,0-3.2,1.22,7.26,7.26,0,0,0-2.43,2.35,6.66,6.66,0,0,0-.95,3.68,5.54,5.54,0,0,0,1,3.5A7.63,7.63,0,0,0,472,139.1a18.1,18.1,0,0,0,3.9,1.33q2.2,0.5,4.45.95t4.48,1.08a15.36,15.36,0,0,1,3.9,1.7,8.42,8.42,0,0,1,2.78,2.8,8.19,8.19,0,0,1,1,4.32,8.64,8.64,0,0,1-1.2,4.7,10.14,10.14,0,0,1-3,3.1,12.57,12.57,0,0,1-4.05,1.73,18.63,18.63,0,0,1-4.27.52,24.68,24.68,0,0,1-5.9-.68,13.21,13.21,0,0,1-4.8-2.2,10.62,10.62,0,0,1-3.22-3.93,12.77,12.77,0,0,1-1.12-5.85h2.2a10,10,0,0,0,.85,5,9,9,0,0,0,2.77,3.33,11.5,11.5,0,0,0,4.18,1.88,21.58,21.58,0,0,0,5,.58,16,16,0,0,0,3.43-.4,10.54,10.54,0,0,0,3.35-1.35,8.29,8.29,0,0,0,2.55-2.5,6.93,6.93,0,0,0,1-3.9,6,6,0,0,0-1-3.67,7.71,7.71,0,0,0-2.78-2.3,17.87,17.87,0,0,0-3.9-1.4q-2.18-.52-4.48-1t-4.45-1.05a15.29,15.29,0,0,1-3.9-1.62A8.36,8.36,0,0,1,467,137.6a7.57,7.57,0,0,1-1-4.17,8.47,8.47,0,0,1,1.08-4.37,8.79,8.79,0,0,1,2.8-3,12.43,12.43,0,0,1,3.88-1.65,17.86,17.86,0,0,1,4.25-.52,20.9,20.9,0,0,1,5.23.63,12.46,12.46,0,0,1,4.25,1.95,9.75,9.75,0,0,1,2.92,3.43,12.11,12.11,0,0,1,1.25,5h-2.2Z" transform="translate(-300.78 -123.92)"/></g></svg>