<?xml version="1.0" ?><!DOCTYPE svg  PUBLIC '-//W3C//DTD SVG 1.1//EN'  'http://www.w3.org/Graphics/SVG/1.1/DTD/svg11.dtd'><svg height="512px" id="Layer_1" style="enable-background:new 0 0 512 512;" version="1.1" viewBox="0 0 512 512" width="512px" xml:space="preserve" xmlns="http://www.w3.org/2000/svg" xmlns:xlink="http://www.w3.org/1999/xlink"><g id="Layer_1_1_"/><g><circle cx="257.289" cy="257.356" r="256" style="fill:#E6E7E8;"/><path d="M257.289,513.356c141.387,0,256-114.613,256-256c0-68.157-26.688-130.043-70.117-175.917   L79.031,441.009C125.126,485.759,187.968,513.356,257.289,513.356z" style="fill:#D1D3D4;"/><g><path d="M388.521,322.583c-7.951-2.509-14.756-6.921-20.633-12.744    c-10.904-10.81-18.648-23.495-22.033-38.574c-4.174-18.616-2.338-36.503,7.09-53.35c3.625-6.48,8.191-12.252,13.447-17.455    c3.908-3.869,8.023-7.529,12.049-11.281c0.369-0.344,0.75-0.672,1.18-1.055c-0.725-0.871-1.367-1.663-2.029-2.44    c-5.162-6.052-10.736-11.675-17.152-16.408c-9.285-6.853-19.666-11.104-31.041-13.011c-11.65-1.953-23.127-1.008-34.521,1.828    c-6.523,1.622-12.844,3.875-19.234,5.914c-5.15,1.645-10.361,3.059-15.674,4.115c-4.895,0.977-9.715,0.788-14.571-0.203    c-6.947-1.42-13.775-3.293-20.582-5.25c-7.76-2.23-15.594-4.101-23.609-5.133c-13.232-1.702-26.146-0.658-38.553,4.606    c-9.248,3.926-17.135,9.777-23.99,17.065c-10.352,11.005-17.434,23.892-21.932,38.253c-2.598,8.302-4.199,16.803-5.109,25.449    c-0.871,8.277-1.057,16.573-0.697,24.873c0.555,12.809,2.619,25.393,5.934,37.773c4.656,17.383,11.598,33.833,20.188,49.613    c5.223,9.593,10.842,18.938,17.445,27.661c5.025,6.639,10.514,12.85,16.979,18.141c5.5,4.498,11.463,8.188,18.371,10.104    c2.277,0.631,4.652,0.914,6.98,1.361c0.359,0.068,0.715,0.162,1.07,0.244c1.398,0,2.799,0,4.197,0    c1.609-0.236,3.227-0.437,4.828-0.715c6.324-1.107,12.346-3.211,18.264-5.642c6.264-2.569,12.646-4.733,19.307-6.063    c7.141-1.425,14.266-1.364,21.405-0.06c6.807,1.243,13.385,3.288,19.889,5.608c6.063,2.164,12.225,3.953,18.533,5.285    c10.869,2.297,20.811,0.137,30.07-5.772c6.025-3.844,11.24-8.617,16.027-13.886c7.02-7.728,12.945-16.262,18.402-25.135    c6.633-10.783,12.48-21.965,16.994-33.813c1.193-3.129,2.262-6.304,3.406-9.507C388.902,322.801,388.727,322.648,388.521,322.583z    " style="fill:#FFFFFF;"/><path d="M253.718,160.218c4.124-0.469,8.229-1.063,12.25-2.103c5.314-1.372,10.066-3.944,14.434-7.186    c15.592-11.574,26.105-26.651,31.141-45.474c1.523-5.699,2.461-11.48,2.445-17.391c-0.008-2.656-0.238-5.299-1.195-7.955    c-0.389,0.043-0.67,0.045-0.938,0.109c-9.371,2.242-18.438,5.316-26.906,9.988c-9.164,5.054-16.988,11.618-22.859,20.362    c-10.028,14.938-14.377,31.574-14.696,49.402c-0.006,0.26,0.088,0.521,0.15,0.879C249.646,160.64,251.685,160.448,253.718,160.218    z" style="fill:#FFFFFF;"/></g><path d="M154.488,382.833c5.025,6.639,10.516,12.85,16.979,18.141c5.5,4.498,11.465,8.188,18.371,10.104   c2.279,0.631,4.652,0.914,6.982,1.361c0.357,0.068,0.715,0.162,1.068,0.244h4.199c1.609-0.236,3.225-0.437,4.828-0.715   c6.324-1.107,12.344-3.211,18.262-5.642c6.264-2.569,12.646-4.733,19.309-6.063c7.141-1.425,14.264-1.364,21.403-0.06   c6.809,1.243,13.385,3.288,19.891,5.608c6.061,2.164,12.223,3.953,18.531,5.285c10.869,2.297,20.811,0.137,30.072-5.772   c6.025-3.844,11.238-8.617,16.025-13.886c7.021-7.728,12.945-16.262,18.402-25.135c6.635-10.783,12.482-21.965,16.996-33.813   c1.191-3.129,2.262-6.304,3.406-9.507c-0.314-0.185-0.49-0.337-0.693-0.401c-7.953-2.508-14.756-6.92-20.633-12.744   c-10.904-10.809-18.65-23.495-22.033-38.574c-4.174-18.616-2.338-36.503,7.088-53.35c3.627-6.48,8.193-12.252,13.449-17.455   c3.908-3.869,8.023-7.529,12.049-11.281c0.369-0.344,0.75-0.672,1.18-1.055c-0.725-0.871-1.367-1.663-2.029-2.44   c-5.162-6.052-10.736-11.675-17.152-16.407c-1.201-0.888-2.422-1.729-3.66-2.528L147.714,373.186   C149.865,376.47,152.111,379.692,154.488,382.833z" style="fill:#F1F2F2;"/></g></svg>