<svg id="166b629e-0b08-442d-af60-ec0907367b06" data-name="Layer 1" xmlns="http://www.w3.org/2000/svg" viewBox="0 0 512 512"><defs><style>.\37 aff3b92-cd45-4155-a490-6f108efc4e21{fill:#fdb443;}.fec911cf-e218-412d-a4c0-88d5696c6fe0{fill:#f3a53f;}.b4f72644-3670-47ce-bd73-469698357a27{fill:#fff;}.\39 7cefea8-de9d-4aee-9164-e8b58f74100e{fill:#f1f2f2;}</style></defs><title>html</title><circle class="7aff3b92-cd45-4155-a490-6f108efc4e21" cx="256" cy="256" r="256"/><path class="fec911cf-e218-412d-a4c0-88d5696c6fe0" d="M255.67,511.93c141.39,0,256-114.61,256-256A255.07,255.07,0,0,0,440.33,78.72L76.12,438.35A255.14,255.14,0,0,0,255.67,511.93Z"/><g id="17af8ddf-43ce-4b13-89ee-3bff1e6a157e" data-name="HTML 5"><path id="c0dab6b7-cd46-49db-972d-035be2d178ce" data-name="HTML5" class="b4f72644-3670-47ce-bd73-469698357a27" d="M128.42,111.08L151.64,372l104.21,29,104.5-29L383.6,111.07H128.42ZM176.66,173l-0.77-8.59h80v32H210.81l2.92,32.77h42.17v32H184.52L176.66,173h0Zm152.71,64.77L321.87,322l-0.48,5.4-65.53,18.19L190.4,327.39l-4.48-50.24H218l2.27,25.52,35.6,9.61,35.63-9.64,3.7-41.49H256v-32h74.15l-0.78,8.59h0ZM335.16,173l-1.45,16.22-0.64,7.19H256v-32h79.92Z"/><g id="b7229492-ae1a-4cc3-ab40-57259ae72d72" data-name="Overlay"><polygon class="97cefea8-de9d-4aee-9164-e8b58f74100e" points="334.17 184.09 333.71 189.21 333.07 196.4 321.7 196.4 288.52 229.16 330.12 229.16 329.34 237.75 329.37 237.75 321.87 321.98 321.38 327.39 255.85 345.58 190.4 327.39 190.29 326.15 151.01 364.94 151.64 371.95 255.85 400.93 360.35 371.91 381.23 137.62 334.17 184.09"/><polygon class="97cefea8-de9d-4aee-9164-e8b58f74100e" points="255.87 312.28 291.5 302.65 295.2 261.15 256.12 261.15 219.77 297.05 220.27 302.67 255.87 312.28"/></g></g></svg>