<svg id="8768e643-5543-4db9-a421-aa7b516f11ec" data-name="diamond" xmlns="http://www.w3.org/2000/svg" viewBox="0 0 195.66 195.66"><defs><style>.\38 ed4ab43-d1c3-47c5-8658-94dc21577673{fill:#25b7d3;}.\31 be6bc27-c219-4d2a-bc87-bdc9fbc2bea6{fill:#bd3e25;}.dc21d9ee-325b-42d6-88c3-08cd1d2b8a84{fill:#e25336;}.b33e007e-16f3-4006-8c0b-204c8c4864fe{fill:#f08362;}.ab8c3d77-987f-4205-a963-4d02b12b23d4{fill:#e05b49;}.fbf0e904-3490-408f-aee4-947594cb1f45{fill:#fff;fill-opacity:0.06;}.\31 a08c92e-ee11-4378-8602-914d13a03451{fill:#e46f56;}</style></defs><title>ruby2</title><circle id="7bb24375-bda7-47db-888c-eb699dba591f" data-name="round base" class="8ed4ab43-d1c3-47c5-8658-94dc21577673" cx="97.83" cy="97.83" r="97.83"/><path id="c28b4440-aca7-4f8b-b2cf-ad7950a02531" data-name="base" class="1be6bc27-c219-4d2a-bc87-bdc9fbc2bea6" d="M166.2,86.22c-0.46-.47-24.32-30.16-28.27-34.92-1.33-1.6-4.63-2-4.63-2l-35.12,0-35.45,0s-3,.37-4.29,2c-3.95,4.76-28.58,34.46-29,34.92-3.71,2.9-1,6.1,0,7.1S95.07,158,95.58,158.47a3.25,3.25,0,0,0,5.21,0L166.2,93.32C167.2,92.32,170,89.77,166.2,86.22Z" transform="translate(0 -0.5)"/><path id="3a8b44af-e668-4348-aa4b-b799d1a65913" data-name=" 1" class="dc21d9ee-325b-42d6-88c3-08cd1d2b8a84" d="M98,98H62.67c1,1,32.28,59.92,32.78,60.42a3.25,3.25,0,0,0,5.18,0C101.13,157.94,132,99,133,98H98Z" transform="translate(0 -0.5)"/><path id="b024b106-a512-4382-9762-9706de59b665" data-name=" 2" class="b33e007e-16f3-4006-8c0b-204c8c4864fe" d="M62.84,98.26l-0.09-2.86L94.87,49.33l6.18,0,32.21,45.81-0.05,3.06Z" transform="translate(0 -0.5)"/><path id="1cc2c92e-42f7-4b74-87a6-97b2ba8ad094" data-name=" 3" class="ab8c3d77-987f-4205-a963-4d02b12b23d4" d="M62.64,49.38s-3.26,0-4.59,1.57C54.11,55.7,29.76,85.67,29.29,86.14c-3.61,3.29-1.09,5.61-.09,6.61s33.14,5,33.64,5.51c0,0,33.4-48.91,33.4-48.91ZM166.08,86.14c-0.46-.47-24.68-30.42-28.63-35.17-1.32-1.59-4.52-1.59-4.52-1.59l-36.69,0s2.94,0,3,0c6.52,8.67,33.85,49,33.86,49,0.51-.5,32.08-4.61,33.07-5.61s3.45-3-.09-6.61h0Z" transform="translate(0 -0.5)"/><path id="00f910e1-fc30-49b8-a09b-6552d4c8e266" data-name=" 4" class="fbf0e904-3490-408f-aee4-947594cb1f45" d="M61.51,49.33L99.25,97.9l36.43-48.44Z" transform="translate(0 -0.5)"/><path id="e28d1138-6325-43f0-beb9-6dccf012aac5" data-name=" 5" class="1a08c92e-ee11-4378-8602-914d13a03451" d="M60.52,50.59c0.05,0.2,2.3,47.7,2.32,47.67S98.3,49.33,98.3,49.33l-35.8-.16A2.07,2.07,0,0,0,60.52,50.59Zm73.1-1.47-35.32.21s34.85,48.87,34.86,48.87,2.18-47.6,2.28-47.58A2.15,2.15,0,0,0,133.62,49.12Z" transform="translate(0 -0.5)"/></svg>