<svg id="2f72adad-8314-463b-b853-13d7092d12ff" data-name="Ebene 1" xmlns="http://www.w3.org/2000/svg" viewBox="0 0 295.9 325.28"><defs><style>.\37 9a0ac08-1fa2-49ea-9a61-114c3d0efe60{fill:#0d72b9;}.\33 6deceb3-13e2-401b-9162-eb02e25ab4a8{fill:#28a8e0;}.eb610069-4610-4d96-845e-728fc1909aca{fill:#fff;}</style></defs><title>appstore</title><polygon class="79a0ac08-1fa2-49ea-9a61-114c3d0efe60" points="0 0 295.9 0 270.23 291.04 147.95 325.28 26.89 293.48 0 0"/><polygon class="36deceb3-13e2-401b-9162-eb02e25ab4a8" points="143.86 22.82 264.52 22.82 243.32 267.38 143.86 295.1 143.86 22.82"/><path class="eb610069-4610-4d96-845e-728fc1909aca" d="M430.06,259.45l14.37-25a4,4,0,0,0-1.45-5.37l-10.22-5.85a3.93,3.93,0,0,0-5.35,1.44l-47.34,82.44a3.91,3.91,0,0,0,1.45,5.34l10.22,5.88a4,4,0,0,0,5.37-1.44Zm96.34-7.51H491.91c4.05,7.61,7.82,14.76,10.47,19.83,1.83,3.5,3.28,6.27,3.8,7.19a12.78,12.78,0,0,1,1.18,3h19a3.55,3.55,0,0,0,3.55-3.54v-23A3.55,3.55,0,0,0,526.4,252h0Zm-83.84,0L425.3,282h46.83c-3.4-6.71-7.9-16.31-14-30.06H442.56Zm-39,0H363.85a3.55,3.55,0,0,0-3.54,3.54v23a3.55,3.55,0,0,0,3.54,3.54H386.3ZM388.4,322.81L378.18,317a2.4,2.4,0,0,0-3.85,1.95l-1.77,15.39c-0.25,2.14,1,2.91,2.8,1.69l13.2-9C390.35,325.77,390.27,323.89,388.4,322.81ZM500,282.39c-0.06-.1-0.13-0.24-0.21-0.38h0c-1-1.75-3.33-6.33-6.45-12.25l-0.11-.22c-0.23-.46-0.48-0.91-0.73-1.39l-0.55-1c-0.15-.3-0.31-0.59-0.46-0.89-0.28-.52-0.56-1-0.84-1.59l-0.26-.5c-0.31-.61-0.64-1.21-1-1.83l-0.28-.53c-7.19-13.61-16.23-30.37-21.81-39.17-9.77-15.44-22.81-41.17-26.45-39.34-5.1,2.54,10.69,35.2,15.9,47.48s25.61,59.3,29.69,61.36,5.67,0.91,8.4-.22,7.62-4.92,5.13-9.47v0Zm11.65,24.23-4.86-9.34a4.34,4.34,0,0,0-5.76-1.92l-5.87,3a3.86,3.86,0,0,0-1.45,5.59l6.16,9.73a4.42,4.42,0,0,0,6,1.46l4.19-2.52a4.64,4.64,0,0,0,1.65-6h0Zm-1.5,13.53c-1.54,1.47-5.18,4.65-.76,10.84s14.22,6.48,15.51,10.6c0,0,3.08-31.51-14.75-21.45h0Z" transform="translate(-301.27 -112.06)"/></svg>