<svg id="569da435-b066-4c06-bbd5-2bb7daf6b14e" data-name="Ebene 1" xmlns="http://www.w3.org/2000/svg" viewBox="0 0 71.58 78.69"><defs><style>.\36 177baf2-ce2a-4bf6-9ea4-8dc033ef5481{fill:#eb6323;}.\33 1f79aa2-21ad-4b56-8598-09d857c333a1{fill:#e18c2f;}.ca0d3d51-7b8f-4b5e-af28-6627fc87c0a1{fill:#fff;}</style></defs><title>aws</title><polygon class="6177baf2-ce2a-4bf6-9ea4-8dc033ef5481" points="0 0 71.58 0 65.37 70.41 35.79 78.69 6.51 71 0 0"/><polygon class="31f79aa2-21ad-4b56-8598-09d857c333a1" points="35.77 5.04 64.96 5.04 59.83 64.2 35.77 70.91 35.77 5.04"/><g id="5e82405f-ef05-47c9-ae5b-9e9a3d34b19a" data-name="AWS"><path class="ca0d3d51-7b8f-4b5e-af28-6627fc87c0a1" d="M469.87,298.23l-5.82-2.09v-8.53l5.82,2v8.63Z" transform="translate(-444.17 -240.85)"/><path class="ca0d3d51-7b8f-4b5e-af28-6627fc87c0a1" d="M470.94,298.23l5.82-2.09v-8.53l-5.82,2v8.63Z" transform="translate(-444.17 -240.85)"/><path class="ca0d3d51-7b8f-4b5e-af28-6627fc87c0a1" d="M464.65,287l5.89-1.66,5.46,1.76-5.46,1.85Z" transform="translate(-444.17 -240.85)"/><path class="ca0d3d51-7b8f-4b5e-af28-6627fc87c0a1" d="M462.94,286.32l-5.82-2.09v-8.53l5.82,2v8.63Z" transform="translate(-444.17 -240.85)"/><path class="ca0d3d51-7b8f-4b5e-af28-6627fc87c0a1" d="M464,286.32l5.82-2.09v-8.53l-5.82,2v8.63Z" transform="translate(-444.17 -240.85)"/><path class="ca0d3d51-7b8f-4b5e-af28-6627fc87c0a1" d="M457.73,275.07l5.89-1.66,5.46,1.76L463.61,277Z" transform="translate(-444.17 -240.85)"/><path class="ca0d3d51-7b8f-4b5e-af28-6627fc87c0a1" d="M476.52,286.32l-5.82-2.09v-8.53l5.82,2v8.63Z" transform="translate(-444.17 -240.85)"/><path class="ca0d3d51-7b8f-4b5e-af28-6627fc87c0a1" d="M477.59,286.32l5.82-2.09v-8.53l-5.82,2v8.63Z" transform="translate(-444.17 -240.85)"/><path class="ca0d3d51-7b8f-4b5e-af28-6627fc87c0a1" d="M471.3,275.07l5.89-1.66,5.46,1.76L477.19,277Z" transform="translate(-444.17 -240.85)"/><path class="ca0d3d51-7b8f-4b5e-af28-6627fc87c0a1" d="M483.45,274.41l-5.82-2.09v-8.53l5.82,2v8.63Z" transform="translate(-444.17 -240.85)"/><path class="ca0d3d51-7b8f-4b5e-af28-6627fc87c0a1" d="M484.51,274.41l5.82-2.09v-8.53l-5.82,2v8.63Z" transform="translate(-444.17 -240.85)"/><path class="ca0d3d51-7b8f-4b5e-af28-6627fc87c0a1" d="M478.23,263.16l5.89-1.66,5.46,1.76-5.46,1.85Z" transform="translate(-444.17 -240.85)"/><path class="ca0d3d51-7b8f-4b5e-af28-6627fc87c0a1" d="M497,274.41l-5.82-2.09v-8.53l5.82,2v8.63Z" transform="translate(-444.17 -240.85)"/><path class="ca0d3d51-7b8f-4b5e-af28-6627fc87c0a1" d="M498.09,274.41l5.82-2.09v-8.53l-5.82,2v8.63Z" transform="translate(-444.17 -240.85)"/><path class="ca0d3d51-7b8f-4b5e-af28-6627fc87c0a1" d="M491.8,263.16l5.89-1.66,5.46,1.76-5.46,1.85Z" transform="translate(-444.17 -240.85)"/></g></svg>