<svg id="67c87488-9946-4292-9178-d422bd5e4b9b" data-name="Ebene 1" xmlns="http://www.w3.org/2000/svg" viewBox="0 0 72.58 79.78"><defs><style>.\39 2e100f5-319a-4143-b1a2-da986bdd7d03{fill:#007e77;}.deaa43bf-0502-4a90-a0ec-7174ceb111b2{fill:#da7027;}.fdbd2b83-1b5c-4d6b-ac6a-b15aa8fc731a{fill:#fff;}</style></defs><title>mysql</title><polygon class="92e100f5-319a-4143-b1a2-da986bdd7d03" points="0 0 72.58 0 66.28 71.39 36.29 79.78 6.6 71.98 0 0"/><polygon class="deaa43bf-0502-4a90-a0ec-7174ceb111b2" points="35.29 5.6 64.88 5.6 59.68 65.58 35.29 72.38 35.29 5.6"/><path class="fdbd2b83-1b5c-4d6b-ac6a-b15aa8fc731a" d="M500.5,297.85a7.56,7.56,0,0,0-1-1.32c-0.62-.73-1.39-1.58-2-2.25s-1-1.17-1-1.17-0.39-.39-0.94-1.06l-0.13-.17c-0.12-.15-0.24-0.31-0.34-0.47a3.9,3.9,0,0,1-.51-1,1,1,0,0,1-.05-0.38,0.34,0.34,0,0,1,.08-0.2l0.12-.11,0.15-.08a1.34,1.34,0,0,1,.47-0.08,5.34,5.34,0,0,1,1.38.23l0.82,0.23,0.45,0.12,0.25,0.05,0.13,0h0.2a2.18,2.18,0,0,0,.85,0,1.4,1.4,0,0,0,.69-0.43,1.5,1.5,0,0,0,.34-0.75,2.24,2.24,0,0,0,0-.44,3.25,3.25,0,0,0,0-.42,2.66,2.66,0,0,0-.07-0.31,2.52,2.52,0,0,0-.12-0.34,3.13,3.13,0,0,0-.32-0.56,5,5,0,0,0-.77-0.83,11.59,11.59,0,0,0-1.67-1.19c-0.57-.35-1.16-0.66-1.73-1l-0.83-.46-0.19-.12-0.07,0-0.09-.07-0.42-.29c-0.57-.39-1.15-0.75-1.71-1.1a18.26,18.26,0,0,1-1.58-1.08,7.64,7.64,0,0,1-1.28-1.27,8.57,8.57,0,0,1-.53-0.75,7.27,7.27,0,0,1-.43-0.79,16.21,16.21,0,0,1-.68-1.77c-0.42-1.23-.76-2.53-1.32-3.8l-0.11-.24L486.4,272l-0.21-.44q-0.22-.45-0.45-0.89c-0.31-.58-0.64-1.14-1-1.68a32.59,32.59,0,0,0-4.49-5.49c-1.23-1.23-2.14-2-2.18-2h0c-0.35-.31-1.08-0.95-2.07-1.71a29.17,29.17,0,0,0-3-2,16.59,16.59,0,0,0-1.73-.89,12.8,12.8,0,0,0-1.92-.65,34.2,34.2,0,0,0-3.95-.66c-0.65-.09-1.28-0.19-1.9-0.34l-0.46-.11L463,255l-0.07,0-0.17-.07a7.06,7.06,0,0,1-.78-0.45c-0.54-.35-1.09-0.76-1.67-1.16a20.33,20.33,0,0,0-1.84-1.2,6,6,0,0,0-1.13-.5,3.06,3.06,0,0,0-.74-0.14,2,2,0,0,0-.93.17,1.86,1.86,0,0,0-.76.65,2.61,2.61,0,0,0-.33.73,4.15,4.15,0,0,0-.13.66c0,0.11,0,.21,0,0.31V254h0a1.84,1.84,0,0,0,0,.25,3.61,3.61,0,0,0,.1.71c0,0.21.1,0.4,0.16,0.59,0.12,0.37.25,0.73,0.39,1.07,0.28,0.69.58,1.36,0.89,2,0.62,1.32,1.28,2.62,1.93,3.91,0.18,0.35.35,0.71,0.52,1l0.12,0.25,0.07,0.16,0,0.09,0,0.08a6,6,0,0,0,.37.58,17.41,17.41,0,0,0,1.64,1.9c0.56,0.58,1.11,1.13,1.61,1.69,0.25,0.28.49,0.56,0.7,0.84a3.88,3.88,0,0,1,.48.81,1.11,1.11,0,0,1,.08.31v0.07a1,1,0,0,1,0,.11,2.11,2.11,0,0,1,0,.22,4.35,4.35,0,0,1-.25.93c-0.24.65-.59,1.31-0.94,2a13,13,0,0,0-.91,2.27,6.84,6.84,0,0,0-.23,1.27,5.67,5.67,0,0,0,0,.66v0.17s0,0.07,0,.11l0,0.11,0.05,0.3c0.15,0.77.32,1.5,0.52,2.23s0.42,1.44.67,2.14a15.43,15.43,0,0,0,.9,2.07,6.84,6.84,0,0,0,.66,1,4.09,4.09,0,0,0,.46.49,2.52,2.52,0,0,0,.67.43,2,2,0,0,0,.45.13,1.77,1.77,0,0,0,1.41-.38,2.14,2.14,0,0,0,.54-0.66,3,3,0,0,0,.26-0.67,5.36,5.36,0,0,0,.15-1.18c0-.37,0-0.71,0-1.05s0-.66-0.08-1,0-.61-0.05-0.87a1.8,1.8,0,0,1,0-.31v0h0l-0.11,0-0.09,0-0.16-.07c-0.11,0,.78.18,0.41,0.08h0v0l0,0,0-.1a6.28,6.28,0,0,1,.33-0.72,2.53,2.53,0,0,1,.17-0.28v0h0l0,0,0.2,0.25c0.14,0.19.27,0.41,0.4,0.63,0.26,0.45.51,0.91,0.78,1.37,0.13,0.23.27,0.46,0.41,0.68l0.06,0.1,0.05,0.08,0.05,0.06,0.11,0.14,0.22,0.28,0.92,1.19,0.44,0.57s0.36,0.42.86,1,1.15,1.21,1.68,1.71a6.64,6.64,0,0,0,.91.76,7,7,0,0,0,1.15.73,1.43,1.43,0,0,0,.71.21c0.12,0,.09-0.14-0.1-0.39s-0.54-.62-1-1.22c-0.71-.88-1.53-2-2.06-2.82l-0.58-.85-0.45-.58-0.52-.67-0.31-.4-0.49-.63-0.06-.08,0,0h0l-0.08-.13-0.2-.33-0.4-.71c-0.27-.49-0.55-1-0.92-1.55-0.1-.14-0.2-0.28-0.32-0.42l-0.09-.11-0.12-.12a2.44,2.44,0,0,0-.34-0.29,1.64,1.64,0,0,0-.81-0.29,1.49,1.49,0,0,0-.84.2,2,2,0,0,0-.36.27l-0.16.17-0.14.17a4.33,4.33,0,0,0-.32.5,8,8,0,0,0-.44,1l0,0.12v0h0l0,0.09a2,2,0,0,0-.1.43,3.87,3.87,0,0,0,0,.61c0,0.37,0,.7.07,1a13.63,13.63,0,0,1,.08,1.88,2.67,2.67,0,0,1-.14.75,0.67,0.67,0,0,1-.11.19l0,0h0a0.46,0.46,0,0,1-.15-0.09,2.47,2.47,0,0,1-.51-0.58,9.72,9.72,0,0,1-.89-1.79,27.71,27.71,0,0,1-1.23-4.18c0-.18-0.07-0.36-0.1-0.54l0-.13V278h0c0-.08,0-0.16,0-0.24a4.52,4.52,0,0,1,.1-1,9.08,9.08,0,0,1,.73-2c0.32-.69.71-1.39,1-2.19a7.1,7.1,0,0,0,.41-1.3,4.65,4.65,0,0,0,.09-0.73c0-.06,0-0.12,0-0.2a2.35,2.35,0,0,0,0-.24,2.67,2.67,0,0,0-.09-0.43,4.59,4.59,0,0,0-.67-1.33,11.46,11.46,0,0,0-.82-1c-0.56-.63-1.14-1.21-1.7-1.79a17.12,17.12,0,0,1-1.52-1.73c-0.1-.15-0.2-0.29-0.28-0.43l-0.06-.1v0l0-.08-0.14-.29c-0.18-.38-0.37-0.74-0.55-1.11-0.66-1.3-1.31-2.58-1.91-3.87-0.3-.64-0.59-1.29-0.84-1.93-0.13-.32-0.25-0.64-0.34-0.95,0-.15-0.09-0.31-0.12-0.45a1.83,1.83,0,0,1,0-.34v0H456l0.13-.07h0v-0.09c0-.07,0-0.15,0-0.22a2.52,2.52,0,0,1,.08-0.38,0.82,0.82,0,0,1,.1-0.23l0,0a0.29,0.29,0,0,1,.11,0,1.29,1.29,0,0,1,.31.06,4.4,4.4,0,0,1,.8.36,19,19,0,0,1,1.67,1.09c0.56,0.4,1.12.81,1.73,1.21a7.83,7.83,0,0,0,1,.57l0.3,0.13,0.32,0.1,0.52,0.13c0.69,0.16,1.38.27,2.05,0.36a32.86,32.86,0,0,1,3.74.63,10.76,10.76,0,0,1,1.65.56,14.71,14.71,0,0,1,1.54.8,27.43,27.43,0,0,1,2.81,1.92c1.32,1,2.17,1.8,2.21,1.84h0c0.34,0.31,1,.93,1.87,1.77a31.11,31.11,0,0,1,4.21,5.11q0.48,0.74.91,1.54c0.14,0.26.28,0.53,0.41,0.81l0.4,0.84a35.49,35.49,0,0,1,1.25,3.57c0.21,0.63.43,1.28,0.72,1.93a9.91,9.91,0,0,0,.49,1c0.09,0.16.2,0.32,0.29,0.46s0.2,0.3.31,0.45a9.17,9.17,0,0,0,1.5,1.59,16,16,0,0,0,1.7,1.22c0.57,0.36,1.12.7,1.64,1l0.39,0.26,0.19,0.13,0.2,0.14,0.13,0.09,0.12,0.07,0.23,0.13,0.44,0.25c0.57,0.31,1.13.61,1.65,0.91a13.45,13.45,0,0,1,1.46,1,5.43,5.43,0,0,1,.58.52,2,2,0,0,1,.36.5l0,0.1v0.18l-0.17,0c-0.23-.05-0.49-0.13-0.76-0.2a12.4,12.4,0,0,0-1.7-.4,4.52,4.52,0,0,0-1,0,2.89,2.89,0,0,0-1.05.27,2.45,2.45,0,0,0-.49.31,2.37,2.37,0,0,0-.4.43,2.13,2.13,0,0,0-.39,1.13,2.84,2.84,0,0,0,.14,1,4.57,4.57,0,0,0,.32.75,8.47,8.47,0,0,0,.76,1.17L494.1,293l0.05,0.07,0.11,0.13,0.2,0.23,0.32,0.36,0.28,0.3s0.23,0.23.59,0.54,0.83,0.72,1.31,1.11c1,0.78,1.91,1.5,1.84,1.42,0.41,0.29.78,0.55,1.08,0.73a1.9,1.9,0,0,0,.63.31C500.62,298.26,500.64,298.13,500.5,297.85Z" transform="translate(-444.53 -241.25)"/><polygon class="fdbd2b83-1b5c-4d6b-ac6a-b15aa8fc731a" points="23.26 39.77 23.26 39.77 23.26 39.77 23.26 39.77"/><path class="fdbd2b83-1b5c-4d6b-ac6a-b15aa8fc731a" d="M467.86,261l0,0a2,2,0,0,0-.31-0.41,0.67,0.67,0,0,0-.29-0.16h0a1.67,1.67,0,0,0-.3.45,1.51,1.51,0,0,0-.13.53,1.54,1.54,0,0,0,.09.62,1.49,1.49,0,0,0,.33.53,1.44,1.44,0,0,0,.45.32,1.5,1.5,0,0,0,.51.13,1.65,1.65,0,0,0,.47-0.11,1,1,0,0,0,.36-0.21,0.4,0.4,0,0,0,.19-0.33c0-.09-0.14-0.12-0.37-0.12a2.59,2.59,0,0,1-.39-0.06l-0.16-.06a0.62,0.62,0,0,1-.22,0,0.58,0.58,0,0,1-.32-0.34,0.66,0.66,0,0,1,0-.5A0.71,0.71,0,0,1,467.86,261Z" transform="translate(-444.53 -241.25)"/></svg>