<svg id="97be2e71-971b-45b9-a78c-e944f77fa94d" data-name="Ebene 1" xmlns="http://www.w3.org/2000/svg" viewBox="0 0 72.58 79.78"><defs><style>.\33 df0b676-195e-4baa-a36b-ad4d5dc98b50{fill:#5868a5;}.\32 9c7780c-93a8-4403-bc03-dfc03a3e76aa{fill:#8798cb;}.c651d64d-78f2-4142-ad6d-c18623eab4cb{fill:#f4f5f5;}</style></defs><title>php</title><polygon class="3df0b676-195e-4baa-a36b-ad4d5dc98b50" points="0 0 72.58 0 66.28 71.39 36.29 79.78 6.6 71.98 0 0"/><polygon class="29c7780c-93a8-4403-bc03-dfc03a3e76aa" points="35.29 5.6 64.88 5.6 59.68 65.58 35.29 72.38 35.29 5.6"/><path class="c651d64d-78f2-4142-ad6d-c18623eab4cb" d="M454,264.08l1.15,14.43h8v9.62l4.59,0.6V264.08H454Zm4.59,4.81h4.59v4.81h-4Z" transform="translate(-444.02 -241.31)"/><path class="c651d64d-78f2-4142-ad6d-c18623eab4cb" d="M490.71,264.08v24.65l4.59-.6v-9.62h8l1.15-14.43H490.71Zm8.61,9.62h-4v-4.81h4.59Z" transform="translate(-444.02 -241.31)"/><polygon class="c651d64d-78f2-4142-ad6d-c18623eab4cb" points="27.17 22.78 28.32 46.83 32.91 47.43 32.91 37.21 37.5 37.21 37.5 47.43 42.1 46.83 43.24 22.78 37.5 22.78 37.5 32.4 32.91 32.4 32.91 22.78 27.17 22.78"/></svg>