<svg id="0cf8342b-503c-47ab-8b8d-c4a1ba6d3c0c" data-name="Ebene 1" xmlns="http://www.w3.org/2000/svg" viewBox="0 0 203.47 223.67"><defs><style>.\35 589a2df-06cb-451a-a330-e5000c6cb269{fill:#e34f26;}.\36 1449e75-86ee-4401-9d54-e1275dc2e0ee{fill:#ee652a;}.\36 1192867-2d05-4220-9d64-5f4182098868{fill:#f4f5f5;}</style></defs><title>swift</title><polygon class="5589a2df-06cb-451a-a330-e5000c6cb269" points="0 0 203.47 0 185.82 200.12 101.74 223.66 18.5 201.81 0 0"/><polygon class="61449e75-86ee-4401-9d54-e1275dc2e0ee" points="102.05 15.69 185.01 15.69 170.44 183.86 102.05 202.92 102.05 15.69"/><path class="61192867-2d05-4220-9d64-5f4182098868" d="M545.43,281.74S520.15,326.62,473.06,320a39.52,39.52,0,0,1-18.65-6.64c-9.48-6.32-20.86-5.61-29.08,7.31,0,0-6.64-14.58,9.17-31.64,0,0-14.22-44.88,37-76.8,0,0-21.78,27.73-12,56.59,0,0,18.52-2.79,59.74-44.56,0,0-20.84,30.71-29.85,39.72,0,0,24.49-15.49,42.17-34.37,0,0-19.59,34.77-54,60.69C477.48,290.28,505.3,309.56,545.43,281.74Z" transform="translate(-381.84 -165.05)"/></svg>