<svg xmlns="http://www.w3.org/2000/svg" xmlns:xlink="http://www.w3.org/1999/xlink" viewBox="0 0 827.51 305"><defs><style>.b589deaf-181e-4d31-b1b5-74512996d568{fill:none;}.ee667384-48f3-4f0f-83c1-8afce55e45a6{isolation:isolate;}.\34 37d7a4a-7607-4e30-a2cc-71aa39d8f752,.ce7de0ef-2dff-482e-9a3c-62d661f59a47{opacity:0.1;}.\33 c9fb26c-6839-407b-978e-19f5a0a696ee,.c1b171f0-b3a9-4925-a494-4acff401b013{fill:#83afb8;}.\33 c9fb26c-6839-407b-978e-19f5a0a696ee,.\36 0a24880-0790-4b6d-84d3-5ca6b7bef3c8,.\37 e2d7f3c-7815-41bb-b206-f6cecfc8a814{opacity:0.5;}.\33 c9fb26c-6839-407b-978e-19f5a0a696ee,.\36 0a24880-0790-4b6d-84d3-5ca6b7bef3c8,.\37 daf590d-ec2e-48b7-8f35-856b9589493e,.c1b171f0-b3a9-4925-a494-4acff401b013,.e3bd05de-eb5f-4172-b0a8-1dc3f5054699,.ec8fdc5e-abf6-4488-b9e4-e6c321ad3bf2{mix-blend-mode:multiply;}.\30 6760a8c-ffe2-4e25-ab9e-1b8b00381978,.\30 b85ee56-249a-476f-b8ca-a2daed745b3d,.\34 37d7a4a-7607-4e30-a2cc-71aa39d8f752,.\37 e2d7f3c-7815-41bb-b206-f6cecfc8a814,.ea05fc75-e78a-494b-86ac-25884df9d726,.f4b41784-62d0-4d9d-b4ff-d4e29fc570c5{fill:#fff;}.e3bd05de-eb5f-4172-b0a8-1dc3f5054699{opacity:0.75;}.\30 b85ee56-249a-476f-b8ca-a2daed745b3d,.c1b171f0-b3a9-4925-a494-4acff401b013{opacity:0.25;}.\30 70fb296-4e2b-435e-b698-ead6963b43cd{fill:#53677a;}.\38 2faed67-e303-4560-a634-13e6cb72cc2e{fill:#677383;}.dfdbdc24-5dd1-43e5-92cb-ad314a562bca,.ec8fdc5e-abf6-4488-b9e4-e6c321ad3bf2{fill:#e6e6e6;}.\30 8f33e29-b75d-4e87-8479-cce12b5f01fd{fill:#f2f2f2;}.e9d94989-fdf7-4c09-b59a-62cf9d3bd88f{fill:#b3b9c1;}.\32 b0d8ae6-c23c-4abd-979d-ee5f55b05b6b{fill:#f55f14;}.\37 9c58d44-8ebd-4148-9bee-ba7ec1ca59e6{fill:#313c4b;}.\37 daf590d-ec2e-48b7-8f35-856b9589493e,.fc2d19b4-360a-4382-b679-7a0d22170e3f{fill:#415064;}.\37 51d9cb0-ffb0-41ab-a0eb-5db10e3d9ef9{fill:#fc6;}.\31 8ddbe93-df4d-4ede-a9cf-2ff2553b4cb1{fill:#fb7a61;}.\33 54860c4-3326-43d4-b4b0-15a803cdfc5f{fill:#f28257;}.e92cfffa-3b02-4a9a-96f7-1c5d62fd95a3{fill:#ffebc2;}.\30 e4b03b4-6a9f-4d24-a759-bd1b47fb026c{fill:#2d3c50;}.\31 75f9ccc-274d-4a87-9550-d14718ce49a5{clip-path:url(#572a1f3e-ecc2-4b10-ba8b-b60642327b12);}.f7619ccb-e041-4ebb-ac57-9f38f2264f31{fill:#ccc;}.\34 5c1f73e-ffd2-4caa-92f2-36d4e5f24f16{fill:#505f73;}.\30 6760a8c-ffe2-4e25-ab9e-1b8b00381978,.\37 daf590d-ec2e-48b7-8f35-856b9589493e{opacity:0.15;}.\34 b45c86c-3629-445d-be32-300abc291d90{fill:#485569;}.ea05fc75-e78a-494b-86ac-25884df9d726{opacity:0.3;}.\38 ea1e15d-8b0b-47eb-a24a-1658dc1c7028{fill:#feded8;}.\36 6397191-f175-4b2d-9482-99fca2b3bb7a{fill:#f7f7f7;}.\36 7503a9d-c22c-419f-83cf-332a82db6d6a{fill:#8d96a2;}.a8eaa9e4-dead-4096-9c8d-94155e7f7eef{opacity:0.9;}.\39 bfce045-a066-4b62-83f2-f0783117b6ca{fill:#ededed;}</style><clipPath id="572a1f3e-ecc2-4b10-ba8b-b60642327b12" transform="translate(-12.03 -168.74)"><circle class="b589deaf-181e-4d31-b1b5-74512996d568" cx="340.48" cy="255.36" r="15.31" transform="translate(-80.66 316.8) rotate(-45.17)"/></clipPath></defs><title>top-banner_img_aboutme</title><g class="ee667384-48f3-4f0f-83c1-8afce55e45a6"><g id="d464eaad-1eb2-4267-86a6-eb37577e4623" data-name="Ebene 1"><g class="ce7de0ef-2dff-482e-9a3c-62d661f59a47"><path class="3c9fb26c-6839-407b-978e-19f5a0a696ee" d="M516.7,274.49l-7.1-6.57a22.12,22.12,0,0,0,0-3.32l7.27-6a1.94,1.94,0,0,0,.74-1.93l-1.71-4.49a1.94,1.94,0,0,0-1.84-.94l-9.91.39a22.07,22.07,0,0,0-1.92-2l0.94-9.73a1.94,1.94,0,0,0-.84-1.89l-4.39-2a1.93,1.93,0,0,0-2,.63L489.24,244a22.3,22.3,0,0,0-2.53-.09l-6.42-7.79a1.94,1.94,0,0,0-1.93-.75l-4.49,1.71a1.94,1.94,0,0,0-.94,1.84l0.38,9.78a22,22,0,0,0-2.29,2.06l-9.24-.89a1.93,1.93,0,0,0-1.89.84l-2,4.38a1.94,1.94,0,0,0,.63,2L465,263a22.28,22.28,0,0,0-.25,4l-6.93,5.7a1.94,1.94,0,0,0-.75,1.93l1.71,4.49a1.93,1.93,0,0,0,1.84.94l8.49-.33a22.42,22.42,0,0,0,3.08,3.39l-0.82,8.55a1.94,1.94,0,0,0,.83,1.89l4.39,2a1.94,1.94,0,0,0,2-.64l5.75-6.21a22.42,22.42,0,0,0,4.79.1l5.28,6.41a1.94,1.94,0,0,0,1.93.75l4.49-1.71a2,2,0,0,0,.94-1.84l-0.33-8.58a21.76,21.76,0,0,0,3-3l9.08,0.87a1.93,1.93,0,0,0,1.89-.83l2-4.39A2,2,0,0,0,516.7,274.49Zm-35.28,4.73a14.08,14.08,0,1,1,18.6-7.09A14.08,14.08,0,0,1,481.43,279.22Z" transform="translate(-12.03 -168.74)"/><polygon class="7e2d7f3c-7815-41bb-b206-f6cecfc8a814" points="616.39 305 718.46 115.7 666.77 33.35 0 305 616.39 305"/><g class="e3bd05de-eb5f-4172-b0a8-1dc3f5054699"><rect class="c1b171f0-b3a9-4925-a494-4acff401b013" x="275.87" y="101.65" width="29.24" height="3.61"/><rect class="c1b171f0-b3a9-4925-a494-4acff401b013" x="275.87" y="113.04" width="68.99" height="3.61"/><rect class="c1b171f0-b3a9-4925-a494-4acff401b013" x="275.87" y="125.48" width="68.99" height="3.61"/><rect class="c1b171f0-b3a9-4925-a494-4acff401b013" x="275.87" y="136.68" width="68.99" height="3.61"/><rect class="c1b171f0-b3a9-4925-a494-4acff401b013" x="275.87" y="148.06" width="68.99" height="3.61"/><rect class="c1b171f0-b3a9-4925-a494-4acff401b013" x="275.87" y="160.5" width="68.99" height="3.61"/><rect class="c1b171f0-b3a9-4925-a494-4acff401b013" x="275.87" y="171.08" width="68.99" height="3.61"/><rect class="c1b171f0-b3a9-4925-a494-4acff401b013" x="275.87" y="182.47" width="68.99" height="3.61"/><rect class="c1b171f0-b3a9-4925-a494-4acff401b013" x="275.87" y="194.91" width="68.99" height="3.61"/></g><g class="e3bd05de-eb5f-4172-b0a8-1dc3f5054699"><rect class="c1b171f0-b3a9-4925-a494-4acff401b013" x="610.27" y="163.65" width="38.29" height="3.61"/><rect class="c1b171f0-b3a9-4925-a494-4acff401b013" x="610.27" y="175.04" width="90.35" height="3.61"/><rect class="c1b171f0-b3a9-4925-a494-4acff401b013" x="610.27" y="187.47" width="90.35" height="3.61"/><rect class="c1b171f0-b3a9-4925-a494-4acff401b013" x="610.27" y="198.67" width="90.35" height="3.61"/><rect class="c1b171f0-b3a9-4925-a494-4acff401b013" x="610.27" y="210.06" width="90.35" height="3.61"/><rect class="c1b171f0-b3a9-4925-a494-4acff401b013" x="610.27" y="222.49" width="90.35" height="3.61"/><rect class="c1b171f0-b3a9-4925-a494-4acff401b013" x="610.27" y="233.08" width="90.35" height="3.61"/><rect class="c1b171f0-b3a9-4925-a494-4acff401b013" x="610.27" y="244.46" width="90.35" height="3.61"/><rect class="c1b171f0-b3a9-4925-a494-4acff401b013" x="610.27" y="256.9" width="90.35" height="3.61"/></g><g class="60a24880-0790-4b6d-84d3-5ca6b7bef3c8"><rect class="3c9fb26c-6839-407b-978e-19f5a0a696ee" x="380.07" y="35.34" width="0.75" height="14.25"/><rect class="3c9fb26c-6839-407b-978e-19f5a0a696ee" x="385.79" y="41.78" width="0.75" height="7.8"/><rect class="3c9fb26c-6839-407b-978e-19f5a0a696ee" x="391.19" y="35.34" width="0.75" height="14.25"/><rect class="3c9fb26c-6839-407b-978e-19f5a0a696ee" x="397.34" y="41.78" width="0.75" height="7.8"/><rect class="3c9fb26c-6839-407b-978e-19f5a0a696ee" x="402.75" y="35.34" width="0.75" height="14.25"/><rect class="3c9fb26c-6839-407b-978e-19f5a0a696ee" x="408.47" y="41.78" width="0.75" height="7.8"/><rect class="3c9fb26c-6839-407b-978e-19f5a0a696ee" x="414.09" y="35.34" width="0.75" height="14.25"/><rect class="3c9fb26c-6839-407b-978e-19f5a0a696ee" x="420.2" y="41.78" width="0.75" height="7.8"/><rect class="3c9fb26c-6839-407b-978e-19f5a0a696ee" x="425.81" y="35.34" width="0.75" height="14.25"/><rect class="3c9fb26c-6839-407b-978e-19f5a0a696ee" x="431.78" y="41.78" width="0.75" height="7.8"/><rect class="3c9fb26c-6839-407b-978e-19f5a0a696ee" x="437.39" y="35.34" width="0.75" height="14.25"/><rect class="3c9fb26c-6839-407b-978e-19f5a0a696ee" x="443.12" y="41.1" width="0.75" height="7.81"/><rect class="3c9fb26c-6839-407b-978e-19f5a0a696ee" x="448.53" y="34.66" width="0.75" height="14.25"/><rect class="3c9fb26c-6839-407b-978e-19f5a0a696ee" x="454.68" y="41.1" width="0.75" height="7.81"/><rect class="3c9fb26c-6839-407b-978e-19f5a0a696ee" x="460.08" y="34.66" width="0.75" height="14.25"/><rect class="3c9fb26c-6839-407b-978e-19f5a0a696ee" x="465.8" y="41.1" width="0.75" height="7.81"/><rect class="3c9fb26c-6839-407b-978e-19f5a0a696ee" x="471.42" y="34.66" width="0.75" height="14.25"/><rect class="3c9fb26c-6839-407b-978e-19f5a0a696ee" x="477.53" y="41.1" width="0.75" height="7.81"/><rect class="3c9fb26c-6839-407b-978e-19f5a0a696ee" x="483.14" y="34.66" width="0.75" height="14.25"/><rect class="3c9fb26c-6839-407b-978e-19f5a0a696ee" x="489.11" y="41.1" width="0.75" height="7.81"/><rect class="3c9fb26c-6839-407b-978e-19f5a0a696ee" x="494.73" y="34.66" width="0.75" height="14.25"/><rect class="3c9fb26c-6839-407b-978e-19f5a0a696ee" x="500.28" y="41.1" width="0.75" height="7.81"/><rect class="3c9fb26c-6839-407b-978e-19f5a0a696ee" x="505.69" y="34.66" width="0.75" height="14.25"/><rect class="3c9fb26c-6839-407b-978e-19f5a0a696ee" x="511.84" y="41.1" width="0.75" height="7.81"/><rect class="3c9fb26c-6839-407b-978e-19f5a0a696ee" x="517.25" y="34.66" width="0.75" height="14.25"/><rect class="3c9fb26c-6839-407b-978e-19f5a0a696ee" x="522.97" y="41.1" width="0.75" height="7.81"/><rect class="3c9fb26c-6839-407b-978e-19f5a0a696ee" x="528.59" y="34.66" width="0.75" height="14.25"/><rect class="3c9fb26c-6839-407b-978e-19f5a0a696ee" x="534.69" y="41.1" width="0.75" height="7.81"/><rect class="3c9fb26c-6839-407b-978e-19f5a0a696ee" x="540.31" y="34.66" width="0.75" height="14.25"/><rect class="3c9fb26c-6839-407b-978e-19f5a0a696ee" x="546.28" y="41.1" width="0.75" height="7.81"/><rect class="3c9fb26c-6839-407b-978e-19f5a0a696ee" x="551.89" y="34.66" width="0.75" height="14.25"/></g><rect class="070fb296-4e2b-435e-b698-ead6963b43cd" x="372.7" y="140.54" width="19.49" height="6.74"/><polygon class="070fb296-4e2b-435e-b698-ead6963b43cd" points="451.24 57.06 314.45 57.06 314.45 144.94 451.24 144.94 451.24 144.94 451.24 57.06 451.24 57.06"/><rect class="82faed67-e303-4560-a634-13e6cb72cc2e" x="375.89" y="57.06" width="13.67" height="87.88"/><rect class="ec8fdc5e-abf6-4488-b9e4-e6c321ad3bf2" x="321.42" y="57.06" width="122.67" height="86.21"/><path class="dfdbdc24-5dd1-43e5-92cb-ad314a562bca" d="M387.42,216.42H335.21v7.45h-0.06v86.35h59.72V223.87A7.46,7.46,0,0,0,387.42,216.42Z" transform="translate(-12.03 -168.74)"/><path class="08f33e29-b75d-4e87-8479-cce12b5f01fd" d="M387.42,302.77H335.21v7.45h59.66A7.46,7.46,0,0,0,387.42,302.77Z" transform="translate(-12.03 -168.74)"/><rect class="f4b41784-62d0-4d9d-b4ff-d4e29fc570c5" x="323.13" y="47.69" width="52.98" height="86.35"/><path class="f4b41784-62d0-4d9d-b4ff-d4e29fc570c5" d="M402.33,216.42h52.21v7.45h0.06v86.35H394.87V223.87A7.45,7.45,0,0,1,402.33,216.42Z" transform="translate(-12.03 -168.74)"/><path class="dfdbdc24-5dd1-43e5-92cb-ad314a562bca" d="M402.33,302.77h52.21v7.45H394.87A7.45,7.45,0,0,1,402.33,302.77Z" transform="translate(-12.03 -168.74)"/><rect class="08f33e29-b75d-4e87-8479-cce12b5f01fd" x="389.59" y="47.69" width="52.98" height="86.35"/><rect class="82faed67-e303-4560-a634-13e6cb72cc2e" x="394.31" y="53.18" width="42.33" height="1.27"/><rect class="e9d94989-fdf7-4c09-b59a-62cf9d3bd88f" x="394.31" y="55.79" width="7.18" height="1.27"/><rect class="e9d94989-fdf7-4c09-b59a-62cf9d3bd88f" x="425.3" y="55.79" width="5.57" height="1.27"/><rect class="e9d94989-fdf7-4c09-b59a-62cf9d3bd88f" x="402.33" y="55.79" width="21.75" height="1.27"/><rect class="e9d94989-fdf7-4c09-b59a-62cf9d3bd88f" x="417.29" y="61.32" width="5.57" height="1.27"/><rect class="e9d94989-fdf7-4c09-b59a-62cf9d3bd88f" x="425.3" y="61.32" width="11.34" height="1.27"/><rect class="2b0d8ae6-c23c-4abd-979d-ee5f55b05b6b" x="425.2" y="69.2" width="11.34" height="1.27"/><rect class="e9d94989-fdf7-4c09-b59a-62cf9d3bd88f" x="425.2" y="71.88" width="11.34" height="1.27"/><rect class="e9d94989-fdf7-4c09-b59a-62cf9d3bd88f" x="425.2" y="80.27" width="11.34" height="1.27"/><rect class="e9d94989-fdf7-4c09-b59a-62cf9d3bd88f" x="425.2" y="74.55" width="4.7" height="1.27"/><rect class="e9d94989-fdf7-4c09-b59a-62cf9d3bd88f" x="433.22" y="74.55" width="2.35" height="1.27"/><rect class="e9d94989-fdf7-4c09-b59a-62cf9d3bd88f" x="425.2" y="77.24" width="5.14" height="1.27"/><rect class="e9d94989-fdf7-4c09-b59a-62cf9d3bd88f" x="431.41" y="77.24" width="5.14" height="1.27"/><rect class="e9d94989-fdf7-4c09-b59a-62cf9d3bd88f" x="432.71" y="82.67" width="3.83" height="1.27"/><rect class="2b0d8ae6-c23c-4abd-979d-ee5f55b05b6b" x="394.46" y="115.84" width="11.34" height="1.27"/><rect class="e9d94989-fdf7-4c09-b59a-62cf9d3bd88f" x="394.46" y="118.52" width="11.34" height="1.27"/><rect class="e9d94989-fdf7-4c09-b59a-62cf9d3bd88f" x="394.46" y="126.91" width="11.34" height="1.27"/><rect class="e9d94989-fdf7-4c09-b59a-62cf9d3bd88f" x="394.46" y="121.19" width="4.7" height="1.27"/><rect class="e9d94989-fdf7-4c09-b59a-62cf9d3bd88f" x="402.48" y="121.19" width="2.35" height="1.27"/><rect class="e9d94989-fdf7-4c09-b59a-62cf9d3bd88f" x="394.46" y="123.88" width="5.14" height="1.27"/><rect class="e9d94989-fdf7-4c09-b59a-62cf9d3bd88f" x="400.66" y="123.88" width="5.14" height="1.27"/><rect class="e9d94989-fdf7-4c09-b59a-62cf9d3bd88f" x="401.97" y="129.31" width="3.83" height="1.27"/><rect class="e9d94989-fdf7-4c09-b59a-62cf9d3bd88f" x="394.31" y="61.32" width="21.75" height="1.27"/><rect class="e9d94989-fdf7-4c09-b59a-62cf9d3bd88f" x="394.4" y="58.65" width="10.19" height="1.28"/><rect class="e9d94989-fdf7-4c09-b59a-62cf9d3bd88f" x="405.78" y="58.65" width="30.87" height="1.28"/><rect class="e9d94989-fdf7-4c09-b59a-62cf9d3bd88f" x="417.4" y="110.51" width="5.57" height="1.27"/><rect class="e9d94989-fdf7-4c09-b59a-62cf9d3bd88f" x="394.43" y="110.51" width="21.75" height="1.27"/><rect class="e9d94989-fdf7-4c09-b59a-62cf9d3bd88f" x="394.51" y="107.83" width="10.19" height="1.27"/><rect class="e9d94989-fdf7-4c09-b59a-62cf9d3bd88f" x="405.89" y="107.83" width="30.87" height="1.27"/><rect class="82faed67-e303-4560-a634-13e6cb72cc2e" x="394.43" y="103.85" width="42.33" height="1.27"/><rect class="e9d94989-fdf7-4c09-b59a-62cf9d3bd88f" x="329.29" y="129.14" width="10.19" height="1.27"/><rect class="e9d94989-fdf7-4c09-b59a-62cf9d3bd88f" x="340.67" y="129.14" width="30.87" height="1.27"/><rect class="82faed67-e303-4560-a634-13e6cb72cc2e" x="329.21" y="125.15" width="42.33" height="1.27"/><rect class="e9d94989-fdf7-4c09-b59a-62cf9d3bd88f" x="394.43" y="95.41" width="7.18" height="1.27"/><rect class="e9d94989-fdf7-4c09-b59a-62cf9d3bd88f" x="425.42" y="95.41" width="5.57" height="1.27"/><rect class="e9d94989-fdf7-4c09-b59a-62cf9d3bd88f" x="402.44" y="95.41" width="21.75" height="1.27"/><rect class="e9d94989-fdf7-4c09-b59a-62cf9d3bd88f" x="417.4" y="89.87" width="5.57" height="1.27"/><rect class="e9d94989-fdf7-4c09-b59a-62cf9d3bd88f" x="425.42" y="89.87" width="11.34" height="1.27"/><rect class="e9d94989-fdf7-4c09-b59a-62cf9d3bd88f" x="394.43" y="89.87" width="21.75" height="1.27"/><rect class="e9d94989-fdf7-4c09-b59a-62cf9d3bd88f" x="394.51" y="92.54" width="10.19" height="1.28"/><rect class="e9d94989-fdf7-4c09-b59a-62cf9d3bd88f" x="405.89" y="92.54" width="30.87" height="1.28"/><rect class="79c58d44-8ebd-4148-9bee-ba7ec1ca59e6" x="415.59" y="73.64" width="0.54" height="4.92"/><rect class="79c58d44-8ebd-4148-9bee-ba7ec1ca59e6" x="416.63" y="239.92" width="0.54" height="4.92" transform="translate(871.07 -49.75) rotate(135)"/><rect class="79c58d44-8ebd-4148-9bee-ba7ec1ca59e6" x="412.72" y="239.04" width="0.54" height="4.86" transform="translate(520.72 -390.44) rotate(74.18)"/><polygon class="79c58d44-8ebd-4148-9bee-ba7ec1ca59e6" points="404.85 67.57 404.33 67.42 403 72.1 403.52 72.25 404.85 67.57"/><circle class="fc2d19b4-360a-4382-b679-7a0d22170e3f" cx="415.18" cy="240.94" r="1.87" transform="translate(-60.79 195.4) rotate(-45)"/><circle class="82faed67-e303-4560-a634-13e6cb72cc2e" cx="414.64" cy="240.4" r="1.1" transform="translate(-60.57 194.86) rotate(-45)"/><circle class="f4b41784-62d0-4d9d-b4ff-d4e29fc570c5" cx="414.39" cy="240.14" r="0.62" transform="translate(-60.46 194.6) rotate(-45)"/><circle class="2b0d8ae6-c23c-4abd-979d-ee5f55b05b6b" cx="418.45" cy="243.93" r="1" transform="translate(-61.95 198.59) rotate(-45)"/><circle class="751d9cb0-ffb0-41ab-a0eb-5db10e3d9ef9" cx="418.16" cy="243.64" r="0.59" transform="translate(-61.74 198.64) rotate(-45.04)"/><circle class="f4b41784-62d0-4d9d-b4ff-d4e29fc570c5" cx="418.03" cy="243.51" r="0.33" transform="translate(-61.78 198.16) rotate(-45)"/><circle class="2b0d8ae6-c23c-4abd-979d-ee5f55b05b6b" cx="416.61" cy="236.19" r="1" transform="translate(-57.02 195.02) rotate(-45)"/><circle class="751d9cb0-ffb0-41ab-a0eb-5db10e3d9ef9" cx="416.32" cy="235.9" r="0.59" transform="translate(-56.9 194.73) rotate(-45)"/><circle class="f4b41784-62d0-4d9d-b4ff-d4e29fc570c5" cx="416.18" cy="235.77" r="0.33" transform="translate(-56.68 195.19) rotate(-45.07)"/><rect class="79c58d44-8ebd-4148-9bee-ba7ec1ca59e6" x="417.17" y="248.2" width="0.54" height="4.86" transform="translate(827.87 -160.18) rotate(119.21)"/><rect class="79c58d44-8ebd-4148-9bee-ba7ec1ca59e6" x="398.55" y="73.61" width="0.54" height="4.92"/><rect class="79c58d44-8ebd-4148-9bee-ba7ec1ca59e6" x="412.7" y="245.8" width="0.54" height="4.86" transform="translate(-16.5 320.12) rotate(-60.97)"/><rect class="79c58d44-8ebd-4148-9bee-ba7ec1ca59e6" x="408.56" y="245.75" width="0.54" height="4.86" transform="translate(380.63 557.42) rotate(-119.32)"/><circle class="fc2d19b4-360a-4382-b679-7a0d22170e3f" cx="410.85" cy="247.17" r="1.87" transform="translate(-66.49 194.06) rotate(-44.99)"/><circle class="82faed67-e303-4560-a634-13e6cb72cc2e" cx="410.3" cy="246.62" r="1.1" transform="translate(-66.28 193.44) rotate(-44.98)"/><circle class="f4b41784-62d0-4d9d-b4ff-d4e29fc570c5" cx="410.05" cy="246.37" r="0.61" transform="translate(-66.13 193.37) rotate(-45)"/><circle class="2b0d8ae6-c23c-4abd-979d-ee5f55b05b6b" cx="410.85" cy="242.25" r="1.31" transform="translate(-62.99 192.72) rotate(-45)"/><circle class="18ddbe93-df4d-4ede-a9cf-2ff2553b4cb1" cx="410.47" cy="241.87" r="0.77" transform="translate(-62.76 192.6) rotate(-45.03)"/><circle class="f4b41784-62d0-4d9d-b4ff-d4e29fc570c5" cx="410.29" cy="241.69" r="0.43" transform="translate(-62.75 192.18) rotate(-45)"/><circle class="354860c4-3326-43d4-b4b0-15a803cdfc5f" cx="427.89" cy="242.25" r="1.31" transform="translate(-57.99 204.77) rotate(-45)"/><circle class="18ddbe93-df4d-4ede-a9cf-2ff2553b4cb1" cx="427.51" cy="241.87" r="0.77" transform="translate(-57.76 204.66) rotate(-45.03)"/><circle class="f4b41784-62d0-4d9d-b4ff-d4e29fc570c5" cx="427.33" cy="241.69" r="0.43" transform="translate(-57.76 204.22) rotate(-45)"/><rect class="79c58d44-8ebd-4148-9bee-ba7ec1ca59e6" x="429.74" y="245.82" width="0.54" height="4.86" transform="translate(-7.73 335.06) rotate(-60.97)"/><polygon class="79c58d44-8ebd-4148-9bee-ba7ec1ca59e6" points="411.59 80.41 411.86 80.88 416.1 78.51 415.84 78.04 411.59 80.41"/><circle class="fc2d19b4-360a-4382-b679-7a0d22170e3f" cx="427.76" cy="247.02" r="1.87" transform="translate(-61.37 206.19) rotate(-45.01)"/><circle class="82faed67-e303-4560-a634-13e6cb72cc2e" cx="427.22" cy="246.47" r="1.1" transform="translate(-61.13 205.73) rotate(-45.02)"/><circle class="f4b41784-62d0-4d9d-b4ff-d4e29fc570c5" cx="426.97" cy="246.22" r="0.61" transform="translate(-60.98 205.62) rotate(-45.04)"/><circle class="2b0d8ae6-c23c-4abd-979d-ee5f55b05b6b" cx="432.07" cy="249.49" r="1.31" transform="translate(-61.89 209.85) rotate(-45)"/><circle class="18ddbe93-df4d-4ede-a9cf-2ff2553b4cb1" cx="431.69" cy="249.11" r="0.77" transform="translate(-61.73 209.48) rotate(-45)"/><circle class="f4b41784-62d0-4d9d-b4ff-d4e29fc570c5" cx="431.52" cy="248.93" r="0.43" transform="translate(-61.66 209.29) rotate(-45)"/><rect class="79c58d44-8ebd-4148-9bee-ba7ec1ca59e6" x="407.16" y="82.78" width="0.54" height="4.92"/><rect class="79c58d44-8ebd-4148-9bee-ba7ec1ca59e6" x="421.3" y="248.14" width="0.54" height="4.86" transform="translate(423.13 -408.4) rotate(60.86)"/><circle class="fc2d19b4-360a-4382-b679-7a0d22170e3f" cx="419.47" cy="251.33" r="1.87" transform="translate(-66.88 201.48) rotate(-45)"/><circle class="82faed67-e303-4560-a634-13e6cb72cc2e" cx="418.93" cy="250.78" r="1.1" transform="translate(-66.66 200.93) rotate(-45)"/><circle class="f4b41784-62d0-4d9d-b4ff-d4e29fc570c5" cx="418.68" cy="250.53" r="0.61" transform="translate(-66.55 200.69) rotate(-45)"/><circle class="2b0d8ae6-c23c-4abd-979d-ee5f55b05b6b" cx="415.22" cy="249.49" r="1.31" transform="translate(-66.78 198.1) rotate(-45.02)"/><circle class="18ddbe93-df4d-4ede-a9cf-2ff2553b4cb1" cx="414.84" cy="249.11" r="0.77" transform="translate(-66.6 197.83) rotate(-45.03)"/><circle class="f4b41784-62d0-4d9d-b4ff-d4e29fc570c5" cx="414.67" cy="248.93" r="0.43" transform="translate(-66.59 197.37) rotate(-45)"/><circle class="2b0d8ae6-c23c-4abd-979d-ee5f55b05b6b" cx="418.99" cy="255.83" r="1.44" transform="translate(-70.18 202.6) rotate(-45.02)"/><circle class="2b0d8ae6-c23c-4abd-979d-ee5f55b05b6b" cx="418.57" cy="255.42" r="0.85" transform="translate(-69.98 202.28) rotate(-45.03)"/><circle class="f4b41784-62d0-4d9d-b4ff-d4e29fc570c5" cx="418.37" cy="255.22" r="0.47" transform="translate(-69.95 201.86) rotate(-45)"/><circle class="2b0d8ae6-c23c-4abd-979d-ee5f55b05b6b" cx="406.58" cy="249.49" r="1.31" transform="translate(-69.35 191.83) rotate(-45)"/><circle class="18ddbe93-df4d-4ede-a9cf-2ff2553b4cb1" cx="406.2" cy="249.11" r="0.77" transform="translate(-69.2 191.45) rotate(-45)"/><circle class="f4b41784-62d0-4d9d-b4ff-d4e29fc570c5" cx="406.02" cy="248.93" r="0.43" transform="translate(-69.13 191.27) rotate(-45)"/><circle class="2b0d8ae6-c23c-4abd-979d-ee5f55b05b6b" cx="423.62" cy="249.36" r="1.31" transform="translate(-64.23 203.99) rotate(-45.02)"/><circle class="18ddbe93-df4d-4ede-a9cf-2ff2553b4cb1" cx="423.24" cy="248.98" r="0.77" transform="translate(-64.05 203.72) rotate(-45.03)"/><circle class="f4b41784-62d0-4d9d-b4ff-d4e29fc570c5" cx="423.06" cy="248.8" r="0.43" transform="translate(-64.04 203.3) rotate(-45)"/><rect class="79c58d44-8ebd-4148-9bee-ba7ec1ca59e6" x="378.45" y="247.4" width="0.68" height="6.2" transform="translate(811.74 -8.96) rotate(135)"/><rect class="79c58d44-8ebd-4148-9bee-ba7ec1ca59e6" x="373.52" y="246.29" width="0.68" height="6.12" transform="translate(498.25 -347.57) rotate(73.97)"/><rect class="79c58d44-8ebd-4148-9bee-ba7ec1ca59e6" x="377.25" y="242.65" width="0.68" height="6.12" transform="translate(69.75 -262.8) rotate(15.9)"/><circle class="fc2d19b4-360a-4382-b679-7a0d22170e3f" cx="376.62" cy="248.68" r="2.35" transform="translate(-77.56 170.4) rotate(-45)"/><circle class="82faed67-e303-4560-a634-13e6cb72cc2e" cx="375.93" cy="248" r="1.38" transform="translate(-77.31 169.58) rotate(-44.98)"/><circle class="f4b41784-62d0-4d9d-b4ff-d4e29fc570c5" cx="375.62" cy="247.68" r="0.77" transform="translate(-77.14 169.41) rotate(-45)"/><circle class="2b0d8ae6-c23c-4abd-979d-ee5f55b05b6b" cx="380.74" cy="252.45" r="1.26" transform="translate(-78.99 174.58) rotate(-45.02)"/><circle class="751d9cb0-ffb0-41ab-a0eb-5db10e3d9ef9" cx="380.37" cy="252.09" r="0.74" transform="translate(-78.81 174.33) rotate(-45.03)"/><circle class="f4b41784-62d0-4d9d-b4ff-d4e29fc570c5" cx="380.2" cy="251.92" r="0.41" transform="translate(-78.89 173.42) rotate(-44.94)"/><circle class="2b0d8ae6-c23c-4abd-979d-ee5f55b05b6b" cx="378.42" cy="242.71" r="1.26" transform="translate(-72.84 169.77) rotate(-44.98)"/><circle class="2b0d8ae6-c23c-4abd-979d-ee5f55b05b6b" cx="378.05" cy="242.34" r="0.74" transform="translate(-72.71 169.3) rotate(-44.97)"/><circle class="f4b41784-62d0-4d9d-b4ff-d4e29fc570c5" cx="377.88" cy="242.17" r="0.41" transform="translate(-72.59 169.37) rotate(-45)"/><rect class="79c58d44-8ebd-4148-9bee-ba7ec1ca59e6" x="358.8" y="81.72" width="0.68" height="6.2"/><rect class="79c58d44-8ebd-4148-9bee-ba7ec1ca59e6" x="373.49" y="254.8" width="0.68" height="6.12" transform="translate(-45.09 290.81) rotate(-60.96)"/><circle class="fc2d19b4-360a-4382-b679-7a0d22170e3f" cx="371.16" cy="256.52" r="2.35" transform="translate(-84.7 168.84) rotate(-45)"/><circle class="82faed67-e303-4560-a634-13e6cb72cc2e" cx="370.48" cy="255.84" r="1.38" transform="translate(-84.42 168.16) rotate(-45)"/><circle class="f4b41784-62d0-4d9d-b4ff-d4e29fc570c5" cx="370.16" cy="255.52" r="0.77" transform="translate(-84.34 167.59) rotate(-44.97)"/><circle class="2b0d8ae6-c23c-4abd-979d-ee5f55b05b6b" cx="371.16" cy="250.33" r="1.65" transform="translate(-80.32 167.02) rotate(-45)"/><circle class="18ddbe93-df4d-4ede-a9cf-2ff2553b4cb1" cx="370.68" cy="249.85" r="0.97" transform="translate(-80.16 166.35) rotate(-44.97)"/><circle class="f4b41784-62d0-4d9d-b4ff-d4e29fc570c5" cx="370.46" cy="249.63" r="0.54" transform="translate(-80.1 165.98) rotate(-44.95)"/><circle class="2b0d8ae6-c23c-4abd-979d-ee5f55b05b6b" cx="376.67" cy="259.45" r="1.65" transform="translate(-85.16 173.59) rotate(-45)"/><circle class="18ddbe93-df4d-4ede-a9cf-2ff2553b4cb1" cx="376.19" cy="258.97" r="0.97" transform="translate(-84.96 173.12) rotate(-45)"/><circle class="f4b41784-62d0-4d9d-b4ff-d4e29fc570c5" cx="375.97" cy="258.75" r="0.54" transform="translate(-84.86 172.9) rotate(-45)"/><rect class="79c58d44-8ebd-4148-9bee-ba7ec1ca59e6" x="350.81" y="223.78" width="0.77" height="7.03" transform="translate(168.08 -323.2) rotate(32.95)"/><circle class="2b0d8ae6-c23c-4abd-979d-ee5f55b05b6b" cx="353.21" cy="224.18" r="1.87" transform="translate(-51.1 -89.91) rotate(-12.07)"/><circle class="18ddbe93-df4d-4ede-a9cf-2ff2553b4cb1" cx="353.05" cy="223.43" r="1.1" transform="translate(-50.99 -89.85) rotate(-12.09)"/><circle class="f4b41784-62d0-4d9d-b4ff-d4e29fc570c5" cx="352.98" cy="223.08" r="0.61" transform="translate(-50.77 -90.28) rotate(-12.03)"/><rect class="79c58d44-8ebd-4148-9bee-ba7ec1ca59e6" x="350.71" y="229.56" width="0.77" height="6.94" transform="translate(-80.28 22.78) rotate(-27.92)"/><rect class="79c58d44-8ebd-4148-9bee-ba7ec1ca59e6" x="345.79" y="226.29" width="0.77" height="6.94" transform="translate(82.15 391.36) rotate(-86.23)"/><circle class="fc2d19b4-360a-4382-b679-7a0d22170e3f" cx="349.36" cy="229.81" r="2.67" transform="translate(-52.39 -90.52) rotate(-12.08)"/><circle class="82faed67-e303-4560-a634-13e6cb72cc2e" cx="349.13" cy="228.73" r="1.57" transform="translate(-52.14 -90.66) rotate(-12.07)"/><circle class="f4b41784-62d0-4d9d-b4ff-d4e29fc570c5" cx="349.02" cy="228.24" r="0.88" transform="translate(-52.13 -90.47) rotate(-12.11)"/><circle class="2b0d8ae6-c23c-4abd-979d-ee5f55b05b6b" cx="352.61" cy="236.11" r="1.87" transform="translate(-53.66 -89.64) rotate(-12.09)"/><circle class="18ddbe93-df4d-4ede-a9cf-2ff2553b4cb1" cx="352.45" cy="235.36" r="1.1" transform="translate(-53.43 -89.88) rotate(-12.06)"/><circle class="f4b41784-62d0-4d9d-b4ff-d4e29fc570c5" cx="352.37" cy="235.01" r="0.61" transform="translate(-53.42 -89.76) rotate(-12.08)"/><circle class="2b0d8ae6-c23c-4abd-979d-ee5f55b05b6b" cx="342.57" cy="229.4" r="1.87" transform="translate(-52.48 -91.89) rotate(-12.09)"/><circle class="18ddbe93-df4d-4ede-a9cf-2ff2553b4cb1" cx="342.41" cy="228.65" r="1.1" transform="translate(-52.26 -92.12) rotate(-12.07)"/><circle class="f4b41784-62d0-4d9d-b4ff-d4e29fc570c5" cx="342.34" cy="228.3" r="0.61" transform="translate(-52.27 -91.93) rotate(-12.1)"/><path class="f4b41784-62d0-4d9d-b4ff-d4e29fc570c5" d="M445.7,292.77a3.72,3.72,0,0,1-1,2.46l3,2.63a7.69,7.69,0,0,0,2-5.1s0-.05,0-0.08l-4,0S445.7,292.76,445.7,292.77Z" transform="translate(-12.03 -168.74)"/><path class="2b0d8ae6-c23c-4abd-979d-ee5f55b05b6b" d="M441.93,289a3.76,3.76,0,0,1,3.76,3.73l4,0a7.71,7.71,0,0,0-13.53-5l3,2.63A3.71,3.71,0,0,1,441.93,289Z" transform="translate(-12.03 -168.74)"/><path class="fc2d19b4-360a-4382-b679-7a0d22170e3f" d="M447.72,297.86l-3-2.63a3.72,3.72,0,0,1-2.8,1.31,3.77,3.77,0,0,1-3.76-3.73l-4,0A7.71,7.71,0,0,0,447.72,297.86Z" transform="translate(-12.03 -168.74)"/><path class="e9d94989-fdf7-4c09-b59a-62cf9d3bd88f" d="M438.16,292.77a3.72,3.72,0,0,1,1-2.46l-3-2.63a7.69,7.69,0,0,0-2,5.09s0,0.05,0,.08l4,0S438.16,292.78,438.16,292.77Z" transform="translate(-12.03 -168.74)"/><rect class="2b0d8ae6-c23c-4abd-979d-ee5f55b05b6b" x="351.36" y="53.33" width="18.92" height="1.27"/><rect class="e9d94989-fdf7-4c09-b59a-62cf9d3bd88f" x="351.36" y="55.94" width="3.21" height="1.27"/><rect class="e9d94989-fdf7-4c09-b59a-62cf9d3bd88f" x="365.21" y="55.94" width="2.49" height="1.27"/><rect class="e9d94989-fdf7-4c09-b59a-62cf9d3bd88f" x="354.94" y="55.94" width="9.72" height="1.27"/><rect class="e9d94989-fdf7-4c09-b59a-62cf9d3bd88f" x="361.56" y="64.86" width="2.49" height="1.27"/><rect class="e9d94989-fdf7-4c09-b59a-62cf9d3bd88f" x="351.3" y="64.86" width="9.72" height="1.27"/><rect class="e9d94989-fdf7-4c09-b59a-62cf9d3bd88f" x="361.62" y="61.47" width="2.49" height="1.27"/><rect class="e9d94989-fdf7-4c09-b59a-62cf9d3bd88f" x="365.21" y="61.47" width="5.07" height="1.27"/><rect class="e9d94989-fdf7-4c09-b59a-62cf9d3bd88f" x="351.36" y="61.47" width="9.72" height="1.27"/><rect class="e9d94989-fdf7-4c09-b59a-62cf9d3bd88f" x="351.4" y="58.8" width="4.55" height="1.27"/><rect class="e9d94989-fdf7-4c09-b59a-62cf9d3bd88f" x="356.48" y="58.8" width="13.79" height="1.27"/><rect class="e9d94989-fdf7-4c09-b59a-62cf9d3bd88f" x="355.97" y="68.56" width="13.79" height="1.27"/><rect class="2b0d8ae6-c23c-4abd-979d-ee5f55b05b6b" x="328.9" y="75.72" width="18.92" height="1.28"/><rect class="e9d94989-fdf7-4c09-b59a-62cf9d3bd88f" x="328.9" y="78.33" width="3.21" height="1.27"/><rect class="e9d94989-fdf7-4c09-b59a-62cf9d3bd88f" x="342.74" y="78.33" width="2.49" height="1.27"/><rect class="e9d94989-fdf7-4c09-b59a-62cf9d3bd88f" x="332.48" y="78.33" width="9.72" height="1.27"/><rect class="e9d94989-fdf7-4c09-b59a-62cf9d3bd88f" x="339.1" y="87.25" width="2.49" height="1.27"/><rect class="e9d94989-fdf7-4c09-b59a-62cf9d3bd88f" x="328.84" y="87.25" width="9.72" height="1.27"/><rect class="e9d94989-fdf7-4c09-b59a-62cf9d3bd88f" x="339.16" y="83.86" width="2.49" height="1.28"/><rect class="e9d94989-fdf7-4c09-b59a-62cf9d3bd88f" x="342.74" y="83.86" width="5.07" height="1.28"/><rect class="e9d94989-fdf7-4c09-b59a-62cf9d3bd88f" x="328.9" y="83.86" width="9.72" height="1.28"/><rect class="e9d94989-fdf7-4c09-b59a-62cf9d3bd88f" x="328.93" y="81.19" width="4.55" height="1.27"/><rect class="e9d94989-fdf7-4c09-b59a-62cf9d3bd88f" x="334.02" y="81.19" width="13.79" height="1.27"/><rect class="e9d94989-fdf7-4c09-b59a-62cf9d3bd88f" x="328.68" y="90.95" width="12.8" height="1.27"/><rect class="2b0d8ae6-c23c-4abd-979d-ee5f55b05b6b" x="328.67" y="98.08" width="1.24" height="24.84"/><rect class="2b0d8ae6-c23c-4abd-979d-ee5f55b05b6b" x="329.94" y="106.41" width="1.24" height="16.5"/><rect class="2b0d8ae6-c23c-4abd-979d-ee5f55b05b6b" x="331.2" y="100.84" width="1.24" height="22.07"/><rect class="2b0d8ae6-c23c-4abd-979d-ee5f55b05b6b" x="332.46" y="108.25" width="1.24" height="14.66"/><rect class="2b0d8ae6-c23c-4abd-979d-ee5f55b05b6b" x="349.56" y="273.64" width="1.24" height="18.02" transform="translate(688.33 396.56) rotate(180)"/><rect class="2b0d8ae6-c23c-4abd-979d-ee5f55b05b6b" x="348.29" y="275.16" width="1.24" height="16.5" transform="translate(685.8 398.07) rotate(180)"/><rect class="2b0d8ae6-c23c-4abd-979d-ee5f55b05b6b" x="347.04" y="269.58" width="1.24" height="22.07" transform="translate(683.28 392.5) rotate(180)"/><rect class="2b0d8ae6-c23c-4abd-979d-ee5f55b05b6b" x="345.77" y="272.26" width="1.24" height="19.4" transform="translate(680.75 395.17) rotate(180)"/><rect class="2b0d8ae6-c23c-4abd-979d-ee5f55b05b6b" x="360.88" y="272.26" width="1.24" height="19.4" transform="translate(710.98 395.17) rotate(180)"/><rect class="354860c4-3326-43d4-b4b0-15a803cdfc5f" x="338.76" y="98.08" width="1.24" height="24.84"/><rect class="2b0d8ae6-c23c-4abd-979d-ee5f55b05b6b" x="340.02" y="106.41" width="1.24" height="16.5"/><rect class="2b0d8ae6-c23c-4abd-979d-ee5f55b05b6b" x="341.28" y="100.84" width="1.24" height="22.07"/><rect class="2b0d8ae6-c23c-4abd-979d-ee5f55b05b6b" x="342.55" y="108.25" width="1.24" height="14.66"/><rect class="2b0d8ae6-c23c-4abd-979d-ee5f55b05b6b" x="359.64" y="273.64" width="1.24" height="18.02" transform="translate(708.5 396.56) rotate(180)"/><rect class="2b0d8ae6-c23c-4abd-979d-ee5f55b05b6b" x="358.38" y="275.16" width="1.24" height="16.5" transform="translate(705.97 398.07) rotate(180)"/><rect class="2b0d8ae6-c23c-4abd-979d-ee5f55b05b6b" x="357.12" y="269.58" width="1.24" height="22.07" transform="translate(703.46 392.5) rotate(180)"/><rect class="2b0d8ae6-c23c-4abd-979d-ee5f55b05b6b" x="355.85" y="272.26" width="1.24" height="19.4" transform="translate(700.92 395.17) rotate(180)"/><rect class="fc2d19b4-360a-4382-b679-7a0d22170e3f" x="360.88" y="276.58" width="1.24" height="15.08" transform="translate(710.97 399.49) rotate(180)"/><rect class="fc2d19b4-360a-4382-b679-7a0d22170e3f" x="359.61" y="281.64" width="1.24" height="10.02" transform="translate(708.43 404.56) rotate(180)"/><rect class="fc2d19b4-360a-4382-b679-7a0d22170e3f" x="358.35" y="278.26" width="1.24" height="13.4" transform="translate(705.92 401.17) rotate(180)"/><rect class="fc2d19b4-360a-4382-b679-7a0d22170e3f" x="357.09" y="282.76" width="1.24" height="8.9" transform="translate(703.39 405.67) rotate(180)"/><rect class="fc2d19b4-360a-4382-b679-7a0d22170e3f" x="339.99" y="111.98" width="1.24" height="10.94"/><rect class="fc2d19b4-360a-4382-b679-7a0d22170e3f" x="341.26" y="112.9" width="1.24" height="10.02"/><rect class="fc2d19b4-360a-4382-b679-7a0d22170e3f" x="342.51" y="109.51" width="1.24" height="13.4"/><rect class="fc2d19b4-360a-4382-b679-7a0d22170e3f" x="343.78" y="111.14" width="1.24" height="11.78"/><rect class="fc2d19b4-360a-4382-b679-7a0d22170e3f" x="328.66" y="111.14" width="1.24" height="11.78"/><rect class="fc2d19b4-360a-4382-b679-7a0d22170e3f" x="350.79" y="269.6" width="1.24" height="22.06" transform="translate(690.79 392.51) rotate(180)"/><rect class="fc2d19b4-360a-4382-b679-7a0d22170e3f" x="349.52" y="281.64" width="1.24" height="10.02" transform="translate(688.26 404.56) rotate(180)"/><rect class="fc2d19b4-360a-4382-b679-7a0d22170e3f" x="348.27" y="278.26" width="1.24" height="13.4" transform="translate(685.75 401.17) rotate(180)"/><rect class="fc2d19b4-360a-4382-b679-7a0d22170e3f" x="347" y="282.76" width="1.24" height="8.9" transform="translate(683.21 405.67) rotate(180)"/><rect class="fc2d19b4-360a-4382-b679-7a0d22170e3f" x="329.91" y="111.98" width="1.24" height="10.94"/><rect class="fc2d19b4-360a-4382-b679-7a0d22170e3f" x="331.17" y="108.26" width="1.24" height="14.65"/><rect class="fc2d19b4-360a-4382-b679-7a0d22170e3f" x="332.43" y="109.51" width="1.24" height="13.4"/><rect class="fc2d19b4-360a-4382-b679-7a0d22170e3f" x="333.69" y="111.14" width="1.24" height="11.78"/><rect class="2b0d8ae6-c23c-4abd-979d-ee5f55b05b6b" x="350.13" y="103.23" width="1.24" height="19.69"/><rect class="354860c4-3326-43d4-b4b0-15a803cdfc5f" x="351.39" y="109.84" width="1.24" height="13.08"/><rect class="2b0d8ae6-c23c-4abd-979d-ee5f55b05b6b" x="352.65" y="105.42" width="1.24" height="17.49"/><rect class="354860c4-3326-43d4-b4b0-15a803cdfc5f" x="353.91" y="111.29" width="1.24" height="11.62"/><rect class="2b0d8ae6-c23c-4abd-979d-ee5f55b05b6b" x="371.01" y="277.38" width="1.24" height="14.28" transform="translate(731.23 400.29) rotate(180)"/><rect class="354860c4-3326-43d4-b4b0-15a803cdfc5f" x="369.74" y="278.58" width="1.24" height="13.08" transform="translate(728.7 401.5) rotate(180)"/><rect class="2b0d8ae6-c23c-4abd-979d-ee5f55b05b6b" x="368.49" y="274.16" width="1.24" height="17.49" transform="translate(726.19 397.08) rotate(180)"/><rect class="354860c4-3326-43d4-b4b0-15a803cdfc5f" x="367.22" y="276.28" width="1.24" height="15.38" transform="translate(723.65 399.2) rotate(180)"/><rect class="354860c4-3326-43d4-b4b0-15a803cdfc5f" x="382.34" y="276.28" width="1.24" height="15.38" transform="translate(753.88 399.2) rotate(180)"/><rect class="2b0d8ae6-c23c-4abd-979d-ee5f55b05b6b" x="360.21" y="103.23" width="1.24" height="19.69"/><rect class="354860c4-3326-43d4-b4b0-15a803cdfc5f" x="361.48" y="109.84" width="1.24" height="13.08"/><rect class="2b0d8ae6-c23c-4abd-979d-ee5f55b05b6b" x="362.73" y="105.42" width="1.24" height="17.49"/><rect class="354860c4-3326-43d4-b4b0-15a803cdfc5f" x="364" y="111.29" width="1.24" height="11.62"/><rect class="2b0d8ae6-c23c-4abd-979d-ee5f55b05b6b" x="381.1" y="277.38" width="1.24" height="14.28" transform="translate(751.4 400.29) rotate(180)"/><rect class="354860c4-3326-43d4-b4b0-15a803cdfc5f" x="379.83" y="278.58" width="1.24" height="13.08" transform="translate(748.87 401.5) rotate(180)"/><rect class="2b0d8ae6-c23c-4abd-979d-ee5f55b05b6b" x="378.57" y="274.16" width="1.24" height="17.49" transform="translate(746.36 397.08) rotate(180)"/><rect class="2b0d8ae6-c23c-4abd-979d-ee5f55b05b6b" x="377.31" y="276.28" width="1.24" height="15.38" transform="translate(743.82 399.2) rotate(180)"/><rect class="fc2d19b4-360a-4382-b679-7a0d22170e3f" x="382.33" y="273.64" width="1.24" height="18.02" transform="translate(753.87 396.56) rotate(180)"/><rect class="fc2d19b4-360a-4382-b679-7a0d22170e3f" x="381.06" y="279.69" width="1.24" height="11.97" transform="translate(751.34 402.61) rotate(180)"/><rect class="fc2d19b4-360a-4382-b679-7a0d22170e3f" x="379.81" y="268.24" width="1.24" height="23.42" transform="translate(748.82 391.15) rotate(180)"/><rect class="fc2d19b4-360a-4382-b679-7a0d22170e3f" x="378.54" y="281.02" width="1.24" height="10.64" transform="translate(746.29 403.94) rotate(180)"/><rect class="fc2d19b4-360a-4382-b679-7a0d22170e3f" x="361.44" y="109.85" width="1.24" height="13.07"/><rect class="fc2d19b4-360a-4382-b679-7a0d22170e3f" x="362.71" y="110.95" width="1.24" height="11.97"/><rect class="fc2d19b4-360a-4382-b679-7a0d22170e3f" x="363.96" y="106.9" width="1.24" height="16.01"/><rect class="fc2d19b4-360a-4382-b679-7a0d22170e3f" x="365.23" y="108.84" width="1.24" height="14.07"/><rect class="fc2d19b4-360a-4382-b679-7a0d22170e3f" x="350.12" y="108.84" width="1.24" height="14.07"/><rect class="fc2d19b4-360a-4382-b679-7a0d22170e3f" x="372.24" y="273.64" width="1.24" height="18.02" transform="translate(733.7 396.56) rotate(180)"/><rect class="fc2d19b4-360a-4382-b679-7a0d22170e3f" x="370.98" y="279.69" width="1.24" height="11.97" transform="translate(731.16 402.61) rotate(180)"/><rect class="fc2d19b4-360a-4382-b679-7a0d22170e3f" x="369.72" y="275.65" width="1.24" height="16.01" transform="translate(728.65 398.56) rotate(180)"/><rect class="fc2d19b4-360a-4382-b679-7a0d22170e3f" x="368.45" y="281.02" width="1.24" height="10.64" transform="translate(726.12 403.94) rotate(180)"/><rect class="fc2d19b4-360a-4382-b679-7a0d22170e3f" x="351.36" y="109.85" width="1.24" height="13.07"/><rect class="fc2d19b4-360a-4382-b679-7a0d22170e3f" x="352.62" y="110.95" width="1.24" height="11.97"/><rect class="fc2d19b4-360a-4382-b679-7a0d22170e3f" x="353.88" y="106.9" width="1.24" height="16.01"/><rect class="fc2d19b4-360a-4382-b679-7a0d22170e3f" x="355.15" y="102.33" width="1.24" height="20.58"/><rect class="e92cfffa-3b02-4a9a-96f7-1c5d62fd95a3" x="350.11" y="114.42" width="1.24" height="8.49"/><rect class="e92cfffa-3b02-4a9a-96f7-1c5d62fd95a3" x="351.38" y="117.27" width="1.24" height="5.64"/><rect class="e92cfffa-3b02-4a9a-96f7-1c5d62fd95a3" x="352.63" y="115.37" width="1.24" height="7.54"/><rect class="e92cfffa-3b02-4a9a-96f7-1c5d62fd95a3" x="353.9" y="117.9" width="1.24" height="5.01"/><rect class="e92cfffa-3b02-4a9a-96f7-1c5d62fd95a3" x="371" y="285.5" width="1.24" height="6.16" transform="translate(731.21 408.41) rotate(180)"/><rect class="e92cfffa-3b02-4a9a-96f7-1c5d62fd95a3" x="369.73" y="286.02" width="1.24" height="5.64" transform="translate(728.67 408.93) rotate(180)"/><rect class="e92cfffa-3b02-4a9a-96f7-1c5d62fd95a3" x="368.47" y="284.11" width="1.24" height="7.54" transform="translate(726.16 407.03) rotate(180)"/><rect class="e92cfffa-3b02-4a9a-96f7-1c5d62fd95a3" x="367.21" y="285.03" width="1.24" height="6.63" transform="translate(723.62 407.94) rotate(180)"/><rect class="e92cfffa-3b02-4a9a-96f7-1c5d62fd95a3" x="382.32" y="285.03" width="1.24" height="6.63" transform="translate(753.85 407.94) rotate(180)"/><rect class="e92cfffa-3b02-4a9a-96f7-1c5d62fd95a3" x="360.19" y="110.5" width="1.24" height="12.42"/><rect class="e92cfffa-3b02-4a9a-96f7-1c5d62fd95a3" x="361.46" y="117.27" width="1.24" height="5.64"/><rect class="e92cfffa-3b02-4a9a-96f7-1c5d62fd95a3" x="362.72" y="115.37" width="1.24" height="7.54"/><rect class="e92cfffa-3b02-4a9a-96f7-1c5d62fd95a3" x="363.99" y="117.9" width="1.24" height="5.01"/><rect class="e92cfffa-3b02-4a9a-96f7-1c5d62fd95a3" x="381.08" y="285.5" width="1.24" height="6.16" transform="translate(751.38 408.41) rotate(180)"/><rect class="e92cfffa-3b02-4a9a-96f7-1c5d62fd95a3" x="379.81" y="283.41" width="1.24" height="8.25" transform="translate(748.84 406.32) rotate(180)"/><rect class="e92cfffa-3b02-4a9a-96f7-1c5d62fd95a3" x="378.56" y="284.11" width="1.24" height="7.54" transform="translate(746.33 407.03) rotate(180)"/><rect class="e92cfffa-3b02-4a9a-96f7-1c5d62fd95a3" x="377.29" y="285.03" width="1.24" height="6.63" transform="translate(743.8 407.94) rotate(180)"/><rect class="e92cfffa-3b02-4a9a-96f7-1c5d62fd95a3" x="328.66" y="115.35" width="1.24" height="7.57"/><rect class="e92cfffa-3b02-4a9a-96f7-1c5d62fd95a3" x="329.93" y="117.89" width="1.24" height="5.03"/><rect class="e92cfffa-3b02-4a9a-96f7-1c5d62fd95a3" x="331.18" y="113.08" width="1.24" height="9.84"/><rect class="e92cfffa-3b02-4a9a-96f7-1c5d62fd95a3" x="332.45" y="118.45" width="1.24" height="4.47"/><rect class="e92cfffa-3b02-4a9a-96f7-1c5d62fd95a3" x="349.55" y="286.17" width="1.24" height="5.49" transform="translate(688.3 409.09) rotate(180)"/><rect class="e92cfffa-3b02-4a9a-96f7-1c5d62fd95a3" x="348.28" y="286.63" width="1.24" height="5.03" transform="translate(685.77 409.55) rotate(180)"/><rect class="e92cfffa-3b02-4a9a-96f7-1c5d62fd95a3" x="347.02" y="284.93" width="1.24" height="6.72" transform="translate(683.25 407.85) rotate(180)"/><rect class="e92cfffa-3b02-4a9a-96f7-1c5d62fd95a3" x="345.76" y="285.75" width="1.24" height="5.91" transform="translate(680.72 408.66) rotate(180)"/><rect class="e92cfffa-3b02-4a9a-96f7-1c5d62fd95a3" x="360.87" y="285.75" width="1.24" height="5.91" transform="translate(710.95 408.66) rotate(180)"/><rect class="e92cfffa-3b02-4a9a-96f7-1c5d62fd95a3" x="338.74" y="115.35" width="1.24" height="7.57"/><rect class="e92cfffa-3b02-4a9a-96f7-1c5d62fd95a3" x="340.01" y="117.89" width="1.24" height="5.03"/><rect class="e92cfffa-3b02-4a9a-96f7-1c5d62fd95a3" x="341.27" y="116.19" width="1.24" height="6.72"/><rect class="e92cfffa-3b02-4a9a-96f7-1c5d62fd95a3" x="342.53" y="118.45" width="1.24" height="4.47"/><rect class="e92cfffa-3b02-4a9a-96f7-1c5d62fd95a3" x="359.63" y="286.17" width="1.24" height="5.49" transform="translate(708.47 409.09) rotate(180)"/><rect class="e92cfffa-3b02-4a9a-96f7-1c5d62fd95a3" x="358.36" y="286.63" width="1.24" height="5.03" transform="translate(705.94 409.55) rotate(180)"/><rect class="e92cfffa-3b02-4a9a-96f7-1c5d62fd95a3" x="357.11" y="284.93" width="1.24" height="6.72" transform="translate(703.42 407.85) rotate(180)"/><rect class="e92cfffa-3b02-4a9a-96f7-1c5d62fd95a3" x="355.84" y="283.02" width="1.24" height="8.64" transform="translate(700.89 405.93) rotate(180)"/><path class="82faed67-e303-4560-a634-13e6cb72cc2e" d="M324.62,255.62v-0.43a1.72,1.72,0,0,0-1.73-1.72l-17.67.05a1.72,1.72,0,0,0-1.72,1.73v0.43a1.73,1.73,0,0,0,1.73,1.72l17.67-.05A1.72,1.72,0,0,0,324.62,255.62Z" transform="translate(-12.03 -168.74)"/><path class="0e4b03b4-6a9f-4d24-a759-bd1b47fb026c" d="M358.38,255.3a18,18,0,1,0-18,18.08A18,18,0,0,0,358.38,255.3Zm-31.47.09a13.44,13.44,0,1,1,13.48,13.4A13.44,13.44,0,0,1,326.91,255.4Z" transform="translate(-12.03 -168.74)"/><rect class="070fb296-4e2b-435e-b698-ead6963b43cd" x="313.6" y="250.34" width="2.08" height="10.19" transform="translate(-12.64 -167.99) rotate(-0.14)"/><rect class="070fb296-4e2b-435e-b698-ead6963b43cd" x="286.47" y="250.26" width="2.08" height="10.19" transform="translate(-12.63 -168.06) rotate(-0.14)"/><circle class="f4b41784-62d0-4d9d-b4ff-d4e29fc570c5" cx="340.48" cy="255.36" r="15.3" transform="translate(-12.8 -167.71) rotate(-0.17)"/><g class="175f9ccc-274d-4a87-9550-d14718ce49a5"><polyline class="f7619ccb-e041-4ebb-ac57-9f38f2264f31" points="347.22 94.21 347.22 97.25 311.89 97.25 311.89 94.21"/><polyline class="f7619ccb-e041-4ebb-ac57-9f38f2264f31" points="347.22 85.1 347.22 88.13 311.89 88.13 311.89 85.1"/><polyline class="f7619ccb-e041-4ebb-ac57-9f38f2264f31" points="311.89 78.26 311.89 75.23 347.22 75.23 347.22 78.26"/></g><polygon class="070fb296-4e2b-435e-b698-ead6963b43cd" points="302.04 90.66 302.02 82.72 275.82 82.8 275.82 90.74 302.04 90.66"/><rect class="0b85ee56-249a-476f-b8ca-a2daed745b3d" x="276.54" y="83.41" width="25.02" height="1.88"/><path class="f4b41784-62d0-4d9d-b4ff-d4e29fc570c5" d="M834.36,301.68a1.24,1.24,0,0,0,.64-0.18,1.2,1.2,0,0,0,.38-1.65l-47.62-75.3a5.26,5.26,0,0,1-.68-4.07,5.32,5.32,0,0,1,2.44-3.34l6.19-3.75a7.7,7.7,0,0,0,3.53-4.8,7.62,7.62,0,0,0-.94-5.86l-4.8-7.75a7.74,7.74,0,0,0-4.94-3.5,7.82,7.82,0,0,0-6,1l-8.19,5.25a1.2,1.2,0,0,0-.36,1.66,1.21,1.21,0,0,0,1.67.35l8.19-5.25a5.44,5.44,0,0,1,4.13-.73,5.38,5.38,0,0,1,3.41,2.42l4.8,7.75a5.32,5.32,0,0,1-1.79,7.36l-6.19,3.75a7.7,7.7,0,0,0-2.56,10.73l47.62,75.3A1.22,1.22,0,0,0,834.36,301.68Z" transform="translate(-12.03 -168.74)"/><path class="f4b41784-62d0-4d9d-b4ff-d4e29fc570c5" d="M837.25,313.56a1.18,1.18,0,0,1,.62.18,1.17,1.17,0,0,1,.37,1.61L792.3,388.69a5.21,5.21,0,0,0,1.7,7.21l6,3.65a7.55,7.55,0,0,1,2.5,10.39l-4.63,7.55a7.55,7.55,0,0,1-10.53,2.39l-7.9-5.11a1.17,1.17,0,0,1,1.27-2l7.9,5.11a5.21,5.21,0,0,0,7.28-1.65l4.63-7.55a5.21,5.21,0,0,0-1.73-7.17l-6-3.65a7.55,7.55,0,0,1-2.46-10.45l45.94-73.34A1.17,1.17,0,0,1,837.25,313.56Z" transform="translate(-12.03 -168.74)"/><rect class="2b0d8ae6-c23c-4abd-979d-ee5f55b05b6b" x="705.4" y="223.33" width="8.01" height="14.52"/><rect class="2b0d8ae6-c23c-4abd-979d-ee5f55b05b6b" x="713.41" y="223.33" width="8.01" height="14.52"/><rect class="070fb296-4e2b-435e-b698-ead6963b43cd" x="781.77" y="303.9" width="5.1" height="121.92" transform="translate(1240.17 923.69) rotate(-147.69)"/><rect class="070fb296-4e2b-435e-b698-ead6963b43cd" x="797.57" y="297.68" width="5.1" height="128.71" transform="translate(1270.8 926.94) rotate(-147.69)"/><rect class="070fb296-4e2b-435e-b698-ead6963b43cd" x="798.08" y="196.94" width="5.1" height="128.71" transform="translate(-27.72 299.66) rotate(-32.31)"/><rect class="070fb296-4e2b-435e-b698-ead6963b43cd" x="780.46" y="191.25" width="5.1" height="128.71" transform="translate(-27.34 289.63) rotate(-32.33)"/><rect class="070fb296-4e2b-435e-b698-ead6963b43cd" x="787.94" y="258.58" width="12.1" height="6.21" transform="matrix(0.85, -0.53, 0.53, 0.85, -28.94, 296.24)"/><circle class="45c1f73e-ffd2-4caa-92f2-36d4e5f24f16" cx="755.9" cy="233.45" r="16.51"/><circle class="fc2d19b4-360a-4382-b679-7a0d22170e3f" cx="755.9" cy="234" r="10.02"/><circle class="fc2d19b4-360a-4382-b679-7a0d22170e3f" cx="763.98" cy="29.47" r="5.11"/><circle class="070fb296-4e2b-435e-b698-ead6963b43cd" cx="811" cy="142.61" r="16.51"/><circle class="f4b41784-62d0-4d9d-b4ff-d4e29fc570c5" cx="811" cy="142.61" r="10.02"/><path class="ec8fdc5e-abf6-4488-b9e4-e6c321ad3bf2" d="M806.52,311.35A16.51,16.51,0,0,1,823,294.84v33A16.51,16.51,0,0,1,806.52,311.35Z" transform="translate(-12.03 -168.74)"/><path class="070fb296-4e2b-435e-b698-ead6963b43cd" d="M751.41,402.2a16.51,16.51,0,0,1,16.51-16.51v33A16.51,16.51,0,0,1,751.41,402.2Z" transform="translate(-12.03 -168.74)"/><path class="070fb296-4e2b-435e-b698-ead6963b43cd" d="M716.23,399.34h68.23a16,16,0,0,1,16,16v5.75a0.61,0.61,0,0,1-.6.6H700.81a0.61,0.61,0,0,1-.6-0.6v-5.75A16,16,0,0,1,716.23,399.34Z" transform="translate(-12.03 -168.74)"/><rect class="070fb296-4e2b-435e-b698-ead6963b43cd" x="789.27" y="355.89" width="6.82" height="13.13" transform="translate(47.31 664.81) rotate(-57.29)"/><path class="7daf590d-ec2e-48b7-8f35-856b9589493e" d="M700.21,415.36a16,16,0,0,1,16-16h34.11v22.38H700.81a0.61,0.61,0,0,1-.6-0.6v-5.75Z" transform="translate(-12.03 -168.74)"/><circle class="45c1f73e-ffd2-4caa-92f2-36d4e5f24f16" cx="761.26" cy="207.97" r="18.13" transform="matrix(0.85, -0.53, 0.53, 0.85, -6.1, 267.78)"/><circle class="751d9cb0-ffb0-41ab-a0eb-5db10e3d9ef9" cx="713.18" cy="238.14" r="18.13" transform="translate(-29.5 246.85) rotate(-32.12)"/><rect class="45c1f73e-ffd2-4caa-92f2-36d4e5f24f16" x="717.82" y="202.34" width="47.04" height="36.26" transform="translate(1474.42 -155.65) rotate(147.89)"/><path class="070fb296-4e2b-435e-b698-ead6963b43cd" d="M680.31,199.13l58.06-3.73,24,38.31-28.6,50.66a1.94,1.94,0,0,1-3.33.08l-51.69-82.35A1.94,1.94,0,0,1,680.31,199.13Z" transform="translate(-12.03 -168.74)"/><path class="4b45c86c-3629-445d-be32-300abc291d90" d="M455.15,435a1.13,1.13,0,0,1,1.35-1c1.72,0.36,5.21,1.07,9.75,1.89,6.57,1.21,15.35,2.72,24.15,4,4.4,0.7,8.8,1.32,12.93,1.9l1.54,0.22H505l0.18,0,0.19,0,0.37,0.09,0.74,0.17a16.85,16.85,0,0,1,1.58.62,10.55,10.55,0,0,1,1.39.82,8.05,8.05,0,0,1,1.21,1,14.27,14.27,0,0,1,1,1l1.83,1.85c1.19,1.18,2.3,2.23,3.31,3.14s1.9,1.7,2.66,2.32c0.54,0.44,1,.81,1.37,1.1a1.13,1.13,0,0,1,.07,1.73l-1.3,1.2a1.13,1.13,0,0,1-1.72-.21c-0.26-.4-0.59-0.89-1-1.46-0.56-.8-1.26-1.76-2.1-2.84s-1.79-2.28-2.87-3.55a24.46,24.46,0,0,0-3.57-3.74,9,9,0,0,0-1.11-.65c-0.4-.14-0.74-0.33-1.2-0.45l-0.74-.15-0.37-.08-0.19,0h-0.11l-1.54-.17c-4.15-.46-8.57-1-13-1.39-8.85-.91-17.73-1.65-24.4-2.12-4.6-.34-8.15-0.52-9.91-0.6a1.13,1.13,0,0,1-1.07-1.28Z" transform="translate(-12.03 -168.74)"/><path class="4b45c86c-3629-445d-be32-300abc291d90" d="M519.49,435a1.13,1.13,0,0,0-1.35-1c-1.72.36-5.21,1.07-9.75,1.89-6.58,1.21-15.35,2.72-24.16,4-4.4.7-8.8,1.32-12.93,1.9l-1.54.22h-0.09l-0.18,0-0.19,0-0.37.09-0.74.17a16.56,16.56,0,0,0-1.57.62,10.5,10.5,0,0,0-1.39.82,8.11,8.11,0,0,0-1.21,1c-0.41.34-.71,0.68-1,1l-1.83,1.85c-1.19,1.18-2.3,2.23-3.31,3.14s-1.91,1.7-2.66,2.32c-0.54.44-1,.81-1.37,1.1a1.13,1.13,0,0,0-.07,1.73l1.3,1.2a1.13,1.13,0,0,0,1.72-.21c0.26-.4.59-0.89,1-1.46,0.56-.8,1.27-1.76,2.1-2.84s1.79-2.28,2.87-3.55a24.57,24.57,0,0,1,3.57-3.74,9,9,0,0,1,1.11-.65,12.73,12.73,0,0,1,1.2-.45l0.74-.15,0.37-.08,0.19,0H470l1.54-.17c4.15-.46,8.57-1,13-1.39,8.85-.91,17.73-1.65,24.4-2.12,4.6-.34,8.15-0.52,9.91-0.6a1.13,1.13,0,0,0,1.07-1.28Z" transform="translate(-12.03 -168.74)"/><path class="fc2d19b4-360a-4382-b679-7a0d22170e3f" d="M520.86,433.39h-3.15a1.2,1.2,0,0,0-.55.14,7.41,7.41,0,0,0-2.62-.47H460a7.41,7.41,0,0,0-2.57.45,1.21,1.21,0,0,0-.52-0.12h-3.15a1.22,1.22,0,0,0-1.22,1.22v2.34a1.21,1.21,0,0,0,.92,1.16,6.76,6.76,0,0,0,0,2.44l1.14,6.72c0.7,4.12,4.13,7.48,7.64,7.48h14.39c3.51,0,6.76-3.35,7.24-7.48l0.78-6.72a6.63,6.63,0,0,0-.65-3.74h6.54a6.63,6.63,0,0,0-.65,3.74l0.78,6.72c0.48,4.12,3.73,7.48,7.24,7.48h14.39c3.51,0,6.94-3.35,7.64-7.48l1.14-6.72a6.77,6.77,0,0,0,0-2.42,1.2,1.2,0,0,0,1-1.18v-2.34A1.22,1.22,0,0,0,520.86,433.39Zm-39.43,14.24a4.37,4.37,0,0,1-4,4.16H460.77a4.67,4.67,0,0,1-4.25-4.16l-1-7.47a3.57,3.57,0,0,1,3.65-4.16h19a3.8,3.8,0,0,1,3.87,4.16Zm37.36-7.47-1,7.47a4.67,4.67,0,0,1-4.25,4.16H496.89a4.37,4.37,0,0,1-4-4.16l-0.62-7.47a3.8,3.8,0,0,1,3.87-4.16h19A3.57,3.57,0,0,1,518.79,440.16Z" transform="translate(-12.03 -168.74)"/><path class="437d7a4a-7607-4e30-a2cc-71aa39d8f752" d="M478.18,436h-9.42v15.78h8.64a4.37,4.37,0,0,0,4-4.16l0.62-7.47A3.8,3.8,0,0,0,478.18,436Z" transform="translate(-12.03 -168.74)"/><path class="ea05fc75-e78a-494b-86ac-25884df9d726" d="M496.11,436a3.8,3.8,0,0,0-3.87,4.16l0.62,7.47a4.37,4.37,0,0,0,4,4.16h8.64V436h-9.42Z" transform="translate(-12.03 -168.74)"/><path class="ea05fc75-e78a-494b-86ac-25884df9d726" d="M467.26,436h-8.12a3.57,3.57,0,0,0-3.65,4.16l1,7.47a4.67,4.67,0,0,0,4.25,4.16h8V436h-1.5Z" transform="translate(-12.03 -168.74)"/><path class="437d7a4a-7607-4e30-a2cc-71aa39d8f752" d="M517.77,447.63l1-7.47a3.57,3.57,0,0,0-3.65-4.16h-9.61v15.78h8A4.67,4.67,0,0,0,517.77,447.63Z" transform="translate(-12.03 -168.74)"/><path class="fc2d19b4-360a-4382-b679-7a0d22170e3f" d="M553,453V438.06a2.36,2.36,0,0,0-.19-0.85s-2-4.16-4.73-4.16-4.72,4.16-4.72,4.16a2.33,2.33,0,0,0-.2.85v16.66h0a2,2,0,0,0,.06.43,1.91,1.91,0,0,0,.14.41s1.39,2.72,3.36,2.72,3.35-2.72,3.35-2.72a1.39,1.39,0,0,0,.08-0.19,2.25,2.25,0,0,0,.13-0.65h0V444.28a2.33,2.33,0,0,0-.2-0.84v0l0,0,0,0,0-.06,0-.06,0-.06,0-.08,0-.07-0.06-.1,0-.08-0.07-.1-0.06-.08-0.08-.11-0.06-.08-0.09-.11-0.07-.08-0.1-.11-0.08-.08-0.11-.11-0.08-.07-0.12-.1-0.08-.06-0.13-.09-0.09-.05-0.13-.07-0.09,0-0.14-.06-0.1,0-0.15,0h0l-0.25,0c-1.42,0-2.33,2.13-2.33,2.13a2.62,2.62,0,0,0-.17.85V453a0.48,0.48,0,0,0,.5.44h0.19l0.09,0a0.5,0.5,0,0,0,.17-0.06l0,0,0.08-.06,0.05-.07,0-.06a0.39,0.39,0,0,0,0-.15v-8.25a1.8,1.8,0,0,1,0-.2,2.89,2.89,0,0,1,.15-0.65,3.28,3.28,0,0,1,.19-0.38,1.41,1.41,0,0,1,1-.83h0a0.65,0.65,0,0,1,.25.05,0.85,0.85,0,0,1,.2.11h0a1.37,1.37,0,0,1,.17.16h0a2.48,2.48,0,0,1,.36.59h0l0.07,0.16h0l0,0.11h0v0a3.63,3.63,0,0,1,.13.87V453c0,0.24,0,.44,0,0.44s0,0,0,.13v0.69a2.61,2.61,0,0,1-.17.85v0.08l0,0.06v0l0,0.08,0,0-0.05.1,0,0-0.07.11,0,0-0.08.13,0,0-0.09.13,0,0-0.1.14,0,0-0.11.14v0l-0.14.15h0a1.85,1.85,0,0,1-.88.54h0a1.18,1.18,0,0,1-.25,0h0c-0.92,0-1.61-1.09-1.9-1.64-0.09-.18-0.15-0.3-0.15-0.3a2.61,2.61,0,0,1-.17-0.85v-0.82s0-.2,0-0.44V438.81a2.73,2.73,0,0,1,.1-0.66l0.07-.2s1.43-3.44,3.4-3.44l0.25,0c1.84,0.28,3.15,3.41,3.15,3.41a1.8,1.8,0,0,1,.07.2,2.67,2.67,0,0,1,.1.66V453a0.48,0.48,0,0,0,.5.44h0.38a0.52,0.52,0,0,0,.34-0.15l0,0a0.36,0.36,0,0,0,.06-0.09A0.35,0.35,0,0,0,553,453Z" transform="translate(-12.03 -168.74)"/><path class="070fb296-4e2b-435e-b698-ead6963b43cd" d="M426.61,375.37H397.05v32.21h29.56a6.26,6.26,0,0,0,6.26-6.26V381.63A6.26,6.26,0,0,0,426.61,375.37ZM427,398a4.12,4.12,0,0,1-4.12,4.12H403.39V380.87h19.46A4.12,4.12,0,0,1,427,385v13Z" transform="translate(-12.03 -168.74)"/><path class="79c58d44-8ebd-4148-9bee-ba7ec1ca59e6" d="M426.61,375.37H397.05v32.21h29.56a6.26,6.26,0,0,0,6.26-6.26V381.63A6.26,6.26,0,0,0,426.61,375.37Zm3.15,24.15a5.12,5.12,0,0,1-5.12,5.12H400.46V378.3h24.18a5.12,5.12,0,0,1,5.12,5.12v16.1Z" transform="translate(-12.03 -168.74)"/><path class="070fb296-4e2b-435e-b698-ead6963b43cd" d="M366.62,365.47v49a5.53,5.53,0,0,0,5.53,5.53h38a5.53,5.53,0,0,0,5.53-5.53v-49h-49Z" transform="translate(-12.03 -168.74)"/><path class="06760a8c-ffe2-4e25-ab9e-1b8b00381978" d="M366.62,365.47v48.23a6.26,6.26,0,0,0,6.26,6.26h18.24v-54.5h-24.5Z" transform="translate(-12.03 -168.74)"/><rect class="f7619ccb-e041-4ebb-ac57-9f38f2264f31" x="391.46" y="196.73" width="0.73" height="21.68"/><rect class="f4b41784-62d0-4d9d-b4ff-d4e29fc570c5" x="385.09" y="216.8" width="13.48" height="12.31"/><rect class="8ea1e15d-8b0b-47eb-a24a-1658dc1c7028" x="388.16" y="217.82" width="7.32" height="2.75"/><rect class="f7619ccb-e041-4ebb-ac57-9f38f2264f31" x="386.11" y="222" width="11.43" height="1.19"/><rect class="f7619ccb-e041-4ebb-ac57-9f38f2264f31" x="386.11" y="224.56" width="11.43" height="1.19"/><rect class="070fb296-4e2b-435e-b698-ead6963b43cd" x="617.1" y="167.41" width="11.54" height="15.68"/><polygon class="070fb296-4e2b-435e-b698-ead6963b43cd" points="582.08 167.41 610.23 167.41 611.26 167.41 611.26 183.09 610.23 183.09 582.08 183.09 553.67 183.09 553.67 167.41 582.08 167.41"/><rect class="070fb296-4e2b-435e-b698-ead6963b43cd" x="535.52" y="167.41" width="12.31" height="15.68"/><rect class="2b0d8ae6-c23c-4abd-979d-ee5f55b05b6b" x="611.26" y="167.41" width="5.84" height="15.68"/><rect class="2b0d8ae6-c23c-4abd-979d-ee5f55b05b6b" x="547.83" y="167.41" width="5.84" height="15.68"/><polygon class="06760a8c-ffe2-4e25-ab9e-1b8b00381978" points="582.08 167.41 610.24 167.41 628.64 167.41 628.64 175.25 535.52 175.25 535.52 167.41 582.08 167.41"/><path class="070fb296-4e2b-435e-b698-ead6963b43cd" d="M656.49,359.1a5.66,5.66,0,0,0-5.48-5.82H556V352h95.06a7.13,7.13,0,0,1,0,14.23H556v-1.29h95A5.66,5.66,0,0,0,656.49,359.1Z" transform="translate(-12.03 -168.74)"/><path class="66397191-f175-4b2d-9482-99fca2b3bb7a" d="M651,353.28a5.83,5.83,0,0,1,0,11.64H558.2V353.28H651Z" transform="translate(-12.03 -168.74)"/><path class="06760a8c-ffe2-4e25-ab9e-1b8b00381978" d="M558.2,353.28H556V352H651.1a6.91,6.91,0,0,1,6.69,7.09H558.2v-5.8Z" transform="translate(-12.03 -168.74)"/><rect class="070fb296-4e2b-435e-b698-ead6963b43cd" x="534.66" y="197.4" width="12.19" height="15.4"/><polygon class="070fb296-4e2b-435e-b698-ead6963b43cd" points="583.85 197.4 554.11 197.4 553.02 197.4 553.02 212.8 554.11 212.8 583.85 212.8 613.87 212.8 613.87 197.4 583.85 197.4"/><rect class="070fb296-4e2b-435e-b698-ead6963b43cd" x="620.03" y="197.4" width="13.01" height="15.4"/><rect class="67503a9d-c22c-419f-83cf-332a82db6d6a" x="546.85" y="197.4" width="6.17" height="15.4"/><rect class="67503a9d-c22c-419f-83cf-332a82db6d6a" x="613.87" y="197.4" width="6.17" height="15.4"/><polygon class="06760a8c-ffe2-4e25-ab9e-1b8b00381978" points="583.85 197.4 554.11 197.4 534.66 197.4 534.66 205.1 633.04 205.1 633.04 197.4 583.85 197.4"/><g class="a8eaa9e4-dead-4096-9c8d-94155e7f7eef"><rect class="f4b41784-62d0-4d9d-b4ff-d4e29fc570c5" x="570.49" y="204.34" width="26.72" height="1.35"/></g><path class="070fb296-4e2b-435e-b698-ead6963b43cd" d="M556.17,389.68a7.25,7.25,0,0,1,7.25-7.25H654v-1.61H563.31a8.86,8.86,0,0,0,0,17.72H654v-1.61H563.41A7.25,7.25,0,0,1,556.17,389.68Z" transform="translate(-12.03 -168.74)"/><path class="66397191-f175-4b2d-9482-99fca2b3bb7a" d="M563.41,382.43a7.25,7.25,0,0,0,0,14.49H651.1V382.43H563.41Z" transform="translate(-12.03 -168.74)"/><path class="06760a8c-ffe2-4e25-ab9e-1b8b00381978" d="M651.09,382.43h2.86v-1.61H563.3a8.86,8.86,0,0,0-8.85,8.83h96.64v-7.22Z" transform="translate(-12.03 -168.74)"/><rect class="070fb296-4e2b-435e-b698-ead6963b43cd" x="529.46" y="229.05" width="14.92" height="20.28"/><polygon class="070fb296-4e2b-435e-b698-ead6963b43cd" points="589.67 229.06 553.26 229.06 551.93 229.06 551.93 249.34 553.26 249.34 589.67 249.34 626.42 249.34 626.42 229.06 589.67 229.06"/><rect class="070fb296-4e2b-435e-b698-ead6963b43cd" x="633.97" y="229.05" width="15.92" height="20.28"/><rect class="67503a9d-c22c-419f-83cf-332a82db6d6a" x="544.38" y="229.05" width="7.55" height="20.28"/><rect class="67503a9d-c22c-419f-83cf-332a82db6d6a" x="626.42" y="229.05" width="7.55" height="20.28"/><polygon class="06760a8c-ffe2-4e25-ab9e-1b8b00381978" points="589.67 229.06 553.26 229.06 529.46 229.06 529.46 239.19 649.89 239.19 649.89 229.06 589.67 229.06"/><path class="fc2d19b4-360a-4382-b679-7a0d22170e3f" d="M557.12,300.89a4.57,4.57,0,0,1,4.57-4.57H641v-1H561.63a5.59,5.59,0,0,0,0,11.18H641v-1H561.69A4.57,4.57,0,0,1,557.12,300.89Z" transform="translate(-12.03 -168.74)"/><path class="66397191-f175-4b2d-9482-99fca2b3bb7a" d="M561.69,296.32a4.57,4.57,0,1,0,0,9.15h77.51v-9.15H561.69Z" transform="translate(-12.03 -168.74)"/><path class="06760a8c-ffe2-4e25-ab9e-1b8b00381978" d="M639.2,296.32H641v-1H561.62a5.59,5.59,0,0,0-5.59,5.57H639.2v-4.56Z" transform="translate(-12.03 -168.74)"/><rect class="070fb296-4e2b-435e-b698-ead6963b43cd" x="620.88" y="137.91" width="10.18" height="12.1"/><polygon class="070fb296-4e2b-435e-b698-ead6963b43cd" points="589.98 137.91 614.82 137.91 615.72 137.91 615.72 150.02 614.82 150.02 589.98 150.02 564.91 150.02 564.91 137.91 589.98 137.91"/><rect class="070fb296-4e2b-435e-b698-ead6963b43cd" x="548.9" y="137.91" width="10.86" height="12.1"/><rect class="67503a9d-c22c-419f-83cf-332a82db6d6a" x="615.72" y="137.91" width="5.15" height="12.1"/><rect class="67503a9d-c22c-419f-83cf-332a82db6d6a" x="559.76" y="137.91" width="5.15" height="12.1"/><polygon class="06760a8c-ffe2-4e25-ab9e-1b8b00381978" points="589.98 137.91 614.82 137.91 631.06 137.91 631.06 143.97 548.9 143.97 548.9 137.91 589.98 137.91"/><g class="a8eaa9e4-dead-4096-9c8d-94155e7f7eef"><rect class="f4b41784-62d0-4d9d-b4ff-d4e29fc570c5" x="578.82" y="141" width="22.32" height="1.06"/><rect class="f4b41784-62d0-4d9d-b4ff-d4e29fc570c5" x="578.82" y="143.37" width="22.32" height="1.06"/><rect class="f4b41784-62d0-4d9d-b4ff-d4e29fc570c5" x="578.82" y="145.87" width="22.32" height="1.06"/></g><path class="070fb296-4e2b-435e-b698-ead6963b43cd" d="M661.2,327.71a6.91,6.91,0,0,0-6.91-6.91H567.95v-1.54h86.45a8.45,8.45,0,0,1,0,16.89H567.95v-1.54h86.34A6.91,6.91,0,0,0,661.2,327.71Z" transform="translate(-12.03 -168.74)"/><path class="66397191-f175-4b2d-9482-99fca2b3bb7a" d="M654.29,320.79a6.91,6.91,0,1,1,0,13.82H570.67V320.79h83.62Z" transform="translate(-12.03 -168.74)"/><path class="06760a8c-ffe2-4e25-ab9e-1b8b00381978" d="M570.68,320.79H568v-1.54H654.4a8.44,8.44,0,0,1,8.44,8.42H570.68v-6.88Z" transform="translate(-12.03 -168.74)"/><polygon class="2b0d8ae6-c23c-4abd-979d-ee5f55b05b6b" points="564.2 207.25 564.2 189.89 559.76 189.89 559.76 202.81 564.2 207.25"/><polygon class="2b0d8ae6-c23c-4abd-979d-ee5f55b05b6b" points="555.32 207.25 559.76 202.81 559.76 189.89 555.32 189.89 555.32 207.25"/><rect class="66397191-f175-4b2d-9482-99fca2b3bb7a" x="597.6" y="67.52" width="12.15" height="45.58"/><rect class="fc2d19b4-360a-4382-b679-7a0d22170e3f" x="609.7" y="240.28" width="2.77" height="0.27" transform="translate(1210.15 312.07) rotate(180)"/><rect class="fc2d19b4-360a-4382-b679-7a0d22170e3f" x="609.7" y="242.8" width="2.77" height="0.27" transform="translate(1210.15 317.11) rotate(180)"/><rect class="fc2d19b4-360a-4382-b679-7a0d22170e3f" x="609.7" y="245.2" width="2.77" height="0.26" transform="translate(1210.15 321.92) rotate(180)"/><rect class="fc2d19b4-360a-4382-b679-7a0d22170e3f" x="609.7" y="247.54" width="2.77" height="0.26" transform="translate(1210.15 326.6) rotate(180)"/><rect class="fc2d19b4-360a-4382-b679-7a0d22170e3f" x="609.7" y="250.06" width="2.77" height="0.27" transform="translate(1210.15 331.63) rotate(180)"/><rect class="fc2d19b4-360a-4382-b679-7a0d22170e3f" x="609.7" y="252.46" width="2.77" height="0.26" transform="translate(1210.15 336.44) rotate(180)"/><rect class="fc2d19b4-360a-4382-b679-7a0d22170e3f" x="609.7" y="255" width="2.77" height="0.26" transform="translate(1210.15 341.52) rotate(180)"/><rect class="fc2d19b4-360a-4382-b679-7a0d22170e3f" x="609.7" y="257.52" width="2.77" height="0.27" transform="translate(1210.15 346.56) rotate(180)"/><rect class="fc2d19b4-360a-4382-b679-7a0d22170e3f" x="609.7" y="259.92" width="2.77" height="0.26" transform="translate(1210.15 351.36) rotate(180)"/><rect class="f4b41784-62d0-4d9d-b4ff-d4e29fc570c5" x="595.99" y="67.01" width="15.39" height="2.04" rx="0.35" ry="0.35"/><path class="f4b41784-62d0-4d9d-b4ff-d4e29fc570c5" d="M621.74,263.09H609.67l-17.46,30.24a2.26,2.26,0,0,0,2,3.4h43.06a2.26,2.26,0,0,0,2-3.4Z" transform="translate(-12.03 -168.74)"/><path class="2b0d8ae6-c23c-4abd-979d-ee5f55b05b6b" d="M638.57,293.65l-13.15-22.77H606l-13.15,22.77a1.53,1.53,0,0,0,1.33,2.3h43.08A1.54,1.54,0,0,0,638.57,293.65Z" transform="translate(-12.03 -168.74)"/><path class="7e2d7f3c-7815-41bb-b206-f6cecfc8a814" d="M612.78,268.33a1.87,1.87,0,0,0-2.54.77l-10.58,19.83A1.88,1.88,0,0,0,603,290.7l10.58-19.83A1.87,1.87,0,0,0,612.78,268.33Z" transform="translate(-12.03 -168.74)"/><rect class="9bfce045-a066-4b62-83f2-f0783117b6ca" x="597.6" y="69.13" width="12.15" height="0.47"/><circle class="f4b41784-62d0-4d9d-b4ff-d4e29fc570c5" cx="571.53" cy="76.61" r="1.59"/><rect class="66397191-f175-4b2d-9482-99fca2b3bb7a" x="565.82" y="68.62" width="12.15" height="7.03"/><rect class="f4b41784-62d0-4d9d-b4ff-d4e29fc570c5" x="564.2" y="68.1" width="15.39" height="2.04" rx="0.35" ry="0.35"/><rect class="9bfce045-a066-4b62-83f2-f0783117b6ca" x="565.82" y="70.22" width="12.15" height="0.47"/><path class="f4b41784-62d0-4d9d-b4ff-d4e29fc570c5" d="M590,244.43H577.89l-15.95,50.69a1.23,1.23,0,0,0,1.18,1.6h41.61a1.23,1.23,0,0,0,1.18-1.6Z" transform="translate(-12.03 -168.74)"/><path class="2b0d8ae6-c23c-4abd-979d-ee5f55b05b6b" d="M562.81,295.16a0.52,0.52,0,0,0,.49.67h41.25a0.52,0.52,0,0,0,.49-0.67l-9.33-29.66H572.14Z" transform="translate(-12.03 -168.74)"/><polygon class="fc2d19b4-360a-4382-b679-7a0d22170e3f" points="575.2 97.17 575.2 96.9 568.21 96.9 567.84 96.9 567.84 97.17 567.84 101.82 567.84 102.09 567.84 106.68 567.84 106.94 567.84 111.63 567.84 111.89 567.84 116.55 567.84 116.81 575.2 116.81 575.2 116.55 568.21 116.55 568.21 111.89 575.2 111.89 575.2 111.63 568.21 111.63 568.21 106.94 575.2 106.94 575.2 106.68 568.21 106.68 568.21 102.09 575.2 102.09 575.2 101.82 568.21 101.82 568.21 97.17 575.2 97.17"/><path class="7e2d7f3c-7815-41bb-b206-f6cecfc8a814" d="M580.68,252.69a1.57,1.57,0,0,0-2,1l-11.53,37.59a1.57,1.57,0,1,0,3,.92l11.53-37.59A1.57,1.57,0,0,0,580.68,252.69Z" transform="translate(-12.03 -168.74)"/><rect class="f4b41784-62d0-4d9d-b4ff-d4e29fc570c5" x="456.72" y="174.83" width="31.54" height="1.74"/><rect class="82faed67-e303-4560-a634-13e6cb72cc2e" x="482.59" y="179.88" width="33.99" height="2.67"/><rect class="82faed67-e303-4560-a634-13e6cb72cc2e" x="482.59" y="176.57" width="5.68" height="3.31"/><circle class="82faed67-e303-4560-a634-13e6cb72cc2e" cx="485.43" cy="178.29" r="3.75"/><circle class="fc2d19b4-360a-4382-b679-7a0d22170e3f" cx="485.43" cy="178.29" r="3.44"/><polygon class="82faed67-e303-4560-a634-13e6cb72cc2e" points="482.81 178.35 482.81 178.24 482.19 178.23 482.19 178.34 482.81 178.35"/><polygon class="82faed67-e303-4560-a634-13e6cb72cc2e" points="482.85 177.82 482.88 177.71 482.27 177.58 482.25 177.69 482.85 177.82"/><polygon class="82faed67-e303-4560-a634-13e6cb72cc2e" points="483 177.33 483.04 177.23 482.48 176.98 482.43 177.08 483 177.33"/><polygon class="82faed67-e303-4560-a634-13e6cb72cc2e" points="483.23 176.88 483.29 176.79 482.79 176.44 482.72 176.53 483.23 176.88"/><polygon class="82faed67-e303-4560-a634-13e6cb72cc2e" points="483.54 176.49 483.62 176.41 483.19 175.97 483.11 176.05 483.54 176.49"/><polygon class="82faed67-e303-4560-a634-13e6cb72cc2e" points="483.92 176.16 484.01 176.1 483.68 175.59 483.58 175.65 483.92 176.16"/><rect class="82faed67-e303-4560-a634-13e6cb72cc2e" x="496.27" y="344.04" width="0.11" height="0.62" transform="translate(-105.23 43.78) rotate(-22.15)"/><polygon class="82faed67-e303-4560-a634-13e6cb72cc2e" points="484.85 175.75 484.95 175.73 484.84 175.13 484.73 175.15 484.85 175.75"/><polygon class="82faed67-e303-4560-a634-13e6cb72cc2e" points="485.37 175.69 485.48 175.69 485.49 175.07 485.38 175.07 485.37 175.69"/><polygon class="82faed67-e303-4560-a634-13e6cb72cc2e" points="485.9 175.73 486.01 175.75 486.13 175.15 486.03 175.13 485.9 175.73"/><polygon class="82faed67-e303-4560-a634-13e6cb72cc2e" points="486.39 175.87 486.49 175.91 486.74 175.35 486.63 175.3 486.39 175.87"/><polygon class="82faed67-e303-4560-a634-13e6cb72cc2e" points="486.84 176.1 486.93 176.16 487.28 175.65 487.19 175.59 486.84 176.1"/><rect class="82faed67-e303-4560-a634-13e6cb72cc2e" x="499.21" y="344.92" width="0.62" height="0.11" transform="translate(-110.49 280.86) rotate(-44.55)"/><rect class="82faed67-e303-4560-a634-13e6cb72cc2e" x="499.57" y="345.35" width="0.62" height="0.11" transform="translate(-119.72 170.32) rotate(-34.05)"/><polygon class="82faed67-e303-4560-a634-13e6cb72cc2e" points="487.82 177.22 487.86 177.32 488.43 177.09 488.38 176.99 487.82 177.22"/><polygon class="82faed67-e303-4560-a634-13e6cb72cc2e" points="487.98 177.71 488 177.81 488.61 177.69 488.59 177.59 487.98 177.71"/><rect class="82faed67-e303-4560-a634-13e6cb72cc2e" x="488.05" y="178.23" width="0.62" height="0.11"/><rect class="82faed67-e303-4560-a634-13e6cb72cc2e" x="500.27" y="347.32" width="0.11" height="0.62" transform="translate(42.9 594.57) rotate(-77.82)"/><polygon class="82faed67-e303-4560-a634-13e6cb72cc2e" points="487.86 179.26 487.82 179.36 488.38 179.61 488.43 179.51 487.86 179.26"/><polygon class="82faed67-e303-4560-a634-13e6cb72cc2e" points="487.63 179.71 487.56 179.8 488.07 180.15 488.13 180.06 487.63 179.71"/><polygon class="82faed67-e303-4560-a634-13e6cb72cc2e" points="487.32 180.1 487.24 180.17 487.67 180.62 487.75 180.54 487.32 180.1"/><polygon class="82faed67-e303-4560-a634-13e6cb72cc2e" points="486.94 180.42 486.85 180.48 487.18 181 487.28 180.94 486.94 180.42"/><polygon class="82faed67-e303-4560-a634-13e6cb72cc2e" points="486.5 180.67 486.4 180.71 486.63 181.29 486.73 181.24 486.5 180.67"/><rect class="82faed67-e303-4560-a634-13e6cb72cc2e" x="497.99" y="349.58" width="0.11" height="0.62" transform="translate(-69.28 -68.09) rotate(-10.92)"/><rect class="82faed67-e303-4560-a634-13e6cb72cc2e" x="497.15" y="349.9" width="0.62" height="0.11" transform="translate(130.08 674.82) rotate(-89.38)"/><polygon class="82faed67-e303-4560-a634-13e6cb72cc2e" points="484.96 180.86 484.85 180.84 484.72 181.44 484.83 181.46 484.96 180.86"/><rect class="82faed67-e303-4560-a634-13e6cb72cc2e" x="496.01" y="349.67" width="0.62" height="0.11" transform="translate(-33.61 497.87) rotate(-66.63)"/><rect class="82faed67-e303-4560-a634-13e6cb72cc2e" x="495.52" y="349.4" width="0.62" height="0.11" transform="translate(-84.7 392.31) rotate(-55.59)"/><polygon class="82faed67-e303-4560-a634-13e6cb72cc2e" points="483.62 180.18 483.55 180.1 483.11 180.53 483.19 180.61 483.62 180.18"/><polygon class="82faed67-e303-4560-a634-13e6cb72cc2e" points="483.3 179.8 483.23 179.71 482.72 180.05 482.78 180.15 483.3 179.8"/><polygon class="82faed67-e303-4560-a634-13e6cb72cc2e" points="483.04 179.37 483 179.26 482.43 179.5 482.47 179.6 483.04 179.37"/><rect class="82faed67-e303-4560-a634-13e6cb72cc2e" x="494.28" y="347.58" width="0.62" height="0.11" transform="translate(-71.66 -62.58) rotate(-11.56)"/><rect class="fc2d19b4-360a-4382-b679-7a0d22170e3f" x="470.42" y="99.5" width="5.57" height="8.19"/><rect class="fc2d19b4-360a-4382-b679-7a0d22170e3f" x="464.88" y="95.78" width="16.65" height="4.47"/><rect class="82faed67-e303-4560-a634-13e6cb72cc2e" x="467.09" y="95.78" width="1.45" height="4.47"/><rect class="82faed67-e303-4560-a634-13e6cb72cc2e" x="470.5" y="95.78" width="1.45" height="4.47"/><rect class="82faed67-e303-4560-a634-13e6cb72cc2e" x="474.36" y="95.78" width="1.45" height="4.47"/><rect class="82faed67-e303-4560-a634-13e6cb72cc2e" x="477.76" y="95.78" width="1.45" height="4.47"/><rect class="fc2d19b4-360a-4382-b679-7a0d22170e3f" x="495.51" y="197.68" width="5.58" height="3.8"/><rect class="fc2d19b4-360a-4382-b679-7a0d22170e3f" x="492.97" y="193.9" width="3.05" height="11.35"/><rect class="82faed67-e303-4560-a634-13e6cb72cc2e" x="492.97" y="202.75" width="3.05" height="0.99"/><rect class="82faed67-e303-4560-a634-13e6cb72cc2e" x="492.97" y="200.43" width="3.05" height="0.99"/><rect class="82faed67-e303-4560-a634-13e6cb72cc2e" x="492.97" y="197.8" width="3.05" height="0.99"/><rect class="82faed67-e303-4560-a634-13e6cb72cc2e" x="492.97" y="195.48" width="3.05" height="0.99"/><rect class="82faed67-e303-4560-a634-13e6cb72cc2e" x="462.84" y="102.22" width="20.73" height="36.15"/><path class="f4b41784-62d0-4d9d-b4ff-d4e29fc570c5" d="M499.32,323.52a3.07,3.07,0,0,0,.13-4.2l-4.33,4.33A3.08,3.08,0,0,0,499.32,323.52Z" transform="translate(-12.03 -168.74)"/><path class="fc2d19b4-360a-4382-b679-7a0d22170e3f" d="M498.87,318.7l-4.36,4.36,0.46,0.46,0.16,0.13,4.33-4.33c0-.05-0.08-0.11-0.13-0.16Z" transform="translate(-12.03 -168.74)"/><rect class="f7619ccb-e041-4ebb-ac57-9f38f2264f31" x="489.8" y="311.7" width="6.17" height="10.76" transform="translate(-91.87 272.64) rotate(-45)"/><path class="f4b41784-62d0-4d9d-b4ff-d4e29fc570c5" d="M471.13,323.52a3.08,3.08,0,0,0,4.2.13L471,319.31A3.08,3.08,0,0,0,471.13,323.52Z" transform="translate(-12.03 -168.74)"/><path class="fc2d19b4-360a-4382-b679-7a0d22170e3f" d="M476,323.06l-4.36-4.36-0.46.46s-0.08.11-.13,0.16l4.33,4.33,0.16-.13Z" transform="translate(-12.03 -168.74)"/><rect class="f7619ccb-e041-4ebb-ac57-9f38f2264f31" x="472.2" y="313.99" width="10.76" height="6.17" transform="translate(-96.35 261.82) rotate(-45)"/><path class="f4b41784-62d0-4d9d-b4ff-d4e29fc570c5" d="M485.23,329a3.07,3.07,0,0,0,3.06-2.88h-6.13A3.08,3.08,0,0,0,485.23,329Z" transform="translate(-12.03 -168.74)"/><path class="fc2d19b4-360a-4382-b679-7a0d22170e3f" d="M488.31,325.27h-6.17v0.64c0,0.07,0,.14,0,0.2h6.13c0-.07,0-0.13,0-0.2v-0.64Z" transform="translate(-12.03 -168.74)"/><rect class="08f33e29-b75d-4e87-8479-cce12b5f01fd" x="470.12" y="145.76" width="6.17" height="10.76"/><path class="f4b41784-62d0-4d9d-b4ff-d4e29fc570c5" d="M485.23,319.65A10.33,10.33,0,0,0,495.52,310H474.93A10.33,10.33,0,0,0,485.23,319.65Z" transform="translate(-12.03 -168.74)"/><path class="fc2d19b4-360a-4382-b679-7a0d22170e3f" d="M495.59,307.12H474.87v2.16c0,0.23.05,0.45,0.07,0.68h20.59c0-.23.07-0.45,0.07-0.68v-2.16Z" transform="translate(-12.03 -168.74)"/><rect class="fc2d19b4-360a-4382-b679-7a0d22170e3f" x="462.84" y="102.22" width="20.73" height="3.1"/><rect class="06760a8c-ffe2-4e25-ab9e-1b8b00381978" x="462.75" y="102.08" width="5.88" height="39.15"/><rect class="070fb296-4e2b-435e-b698-ead6963b43cd" x="459.12" y="192.87" width="25.28" height="7.41"/><rect class="f4b41784-62d0-4d9d-b4ff-d4e29fc570c5" x="459.12" y="194.51" width="25.28" height="7.41"/><rect class="82faed67-e303-4560-a634-13e6cb72cc2e" x="497.76" y="193.94" width="15.19" height="17.37"/><rect class="fc2d19b4-360a-4382-b679-7a0d22170e3f" x="452.09" y="217.95" width="10.61" height="2.17"/><rect class="fc2d19b4-360a-4382-b679-7a0d22170e3f" x="511.13" y="217.95" width="10.61" height="2.17"/><rect class="82faed67-e303-4560-a634-13e6cb72cc2e" x="450.13" y="206.92" width="75.91" height="11.52"/><path class="f4b41784-62d0-4d9d-b4ff-d4e29fc570c5" d="M475.42,360.7H492.2a8.44,8.44,0,0,0-2.41-5.34h-12A8.45,8.45,0,0,0,475.42,360.7Z" transform="translate(-12.03 -168.74)"/><path class="fc2d19b4-360a-4382-b679-7a0d22170e3f" d="M475.36,361.26V363h16.9v-1.77c0-.19,0-0.37-0.06-0.56H475.42C475.4,360.89,475.36,361.07,475.36,361.26Z" transform="translate(-12.03 -168.74)"/><path class="070fb296-4e2b-435e-b698-ead6963b43cd" d="M527.33,309.14l-19.18-19.32h-12l19.18,19.32a37,37,0,0,1,10.73,26V380h12V335.18A37,37,0,0,0,527.33,309.14Z" transform="translate(-12.03 -168.74)"/><rect class="070fb296-4e2b-435e-b698-ead6963b43cd" x="462.56" y="121.08" width="12" height="7.33"/><path class="82faed67-e303-4560-a634-13e6cb72cc2e" d="M515.33,309.14l-19.18-19.32h-9.57v7.33H501l12.16,12.15A37,37,0,0,1,524,335.44V380h2.08V335.18A37,37,0,0,0,515.33,309.14Z" transform="translate(-12.03 -168.74)"/><circle class="82faed67-e303-4560-a634-13e6cb72cc2e" cx="479.32" cy="124.87" r="6.12"/><circle class="f4b41784-62d0-4d9d-b4ff-d4e29fc570c5" cx="479.32" cy="124.87" r="5.61"/><rect class="82faed67-e303-4560-a634-13e6cb72cc2e" x="486.48" y="293.1" width="0.18" height="1.01" transform="translate(171.01 605.29) rotate(-88.82)"/><polygon class="82faed67-e303-4560-a634-13e6cb72cc2e" points="475.12 124.1 475.16 123.92 474.18 123.7 474.14 123.88 475.12 124.1"/><rect class="82faed67-e303-4560-a634-13e6cb72cc2e" x="486.87" y="291.25" width="0.18" height="1.01" transform="translate(11.97 451.52) rotate(-66.29)"/><rect class="82faed67-e303-4560-a634-13e6cb72cc2e" x="487.31" y="290.45" width="0.18" height="1.01" transform="translate(-42.12 355.47) rotate(-55.1)"/><rect class="82faed67-e303-4560-a634-13e6cb72cc2e" x="487.89" y="289.75" width="0.18" height="1.01" transform="translate(-76.29 253.42) rotate(-44.18)"/><polygon class="82faed67-e303-4560-a634-13e6cb72cc2e" points="476.87 121.4 477.01 121.3 476.46 120.46 476.31 120.56 476.87 121.4"/><rect class="82faed67-e303-4560-a634-13e6cb72cc2e" x="489.41" y="288.73" width="0.18" height="1.01" transform="translate(-85.19 38.78) rotate(-22.32)"/><polygon class="82faed67-e303-4560-a634-13e6cb72cc2e" points="478.37 120.73 478.55 120.69 478.36 119.71 478.18 119.74 478.37 120.73"/><polygon class="82faed67-e303-4560-a634-13e6cb72cc2e" points="479.23 120.62 479.41 120.63 479.42 119.62 479.24 119.62 479.23 120.62"/><polygon class="82faed67-e303-4560-a634-13e6cb72cc2e" points="480.09 120.69 480.26 120.73 480.47 119.75 480.3 119.71 480.09 120.69"/><polygon class="82faed67-e303-4560-a634-13e6cb72cc2e" points="480.89 120.92 481.05 120.99 481.45 120.07 481.29 120 480.89 120.92"/><polygon class="82faed67-e303-4560-a634-13e6cb72cc2e" points="481.62 121.29 481.77 121.4 482.34 120.56 482.19 120.46 481.62 121.29"/><polygon class="82faed67-e303-4560-a634-13e6cb72cc2e" points="482.26 121.8 482.39 121.92 483.1 121.22 482.98 121.09 482.26 121.8"/><polygon class="82faed67-e303-4560-a634-13e6cb72cc2e" points="482.8 122.41 482.9 122.56 483.74 122 483.63 121.85 482.8 122.41"/><polygon class="82faed67-e303-4560-a634-13e6cb72cc2e" points="483.21 123.12 483.28 123.29 484.21 122.9 484.14 122.73 483.21 123.12"/><rect class="82faed67-e303-4560-a634-13e6cb72cc2e" x="495.52" y="292.56" width="1.01" height="0.18" transform="translate(-60.3 -64.3) rotate(-11.47)"/><rect class="82faed67-e303-4560-a634-13e6cb72cc2e" x="483.59" y="124.77" width="1.01" height="0.18"/><polygon class="82faed67-e303-4560-a634-13e6cb72cc2e" points="483.52 125.64 483.48 125.81 484.46 126.03 484.5 125.86 483.52 125.64"/><polygon class="82faed67-e303-4560-a634-13e6cb72cc2e" points="483.28 126.44 483.21 126.6 484.13 127.01 484.21 126.85 483.28 126.44"/><polygon class="82faed67-e303-4560-a634-13e6cb72cc2e" points="482.9 127.17 482.8 127.32 483.63 127.89 483.73 127.74 482.9 127.17"/><polygon class="82faed67-e303-4560-a634-13e6cb72cc2e" points="482.4 127.81 482.27 127.93 482.97 128.65 483.1 128.53 482.4 127.81"/><polygon class="82faed67-e303-4560-a634-13e6cb72cc2e" points="481.78 128.34 481.63 128.44 482.18 129.28 482.33 129.18 481.78 128.34"/><rect class="82faed67-e303-4560-a634-13e6cb72cc2e" x="493.11" y="297.49" width="0.18" height="1.01" transform="translate(-88.24 40.84) rotate(-22.32)"/><rect class="82faed67-e303-4560-a634-13e6cb72cc2e" x="492.21" y="297.76" width="0.18" height="1.01" transform="translate(-60.13 -68.69) rotate(-11.07)"/><polygon class="82faed67-e303-4560-a634-13e6cb72cc2e" points="479.42 129.11 479.24 129.11 479.23 130.12 479.41 130.12 479.42 129.11"/><polygon class="82faed67-e303-4560-a634-13e6cb72cc2e" points="478.56 129.05 478.38 129.01 478.17 129.99 478.35 130.03 478.56 129.05"/><rect class="82faed67-e303-4560-a634-13e6cb72cc2e" x="488.99" y="297.9" width="1.01" height="0.18" transform="translate(8.64 458.79) rotate(-66.44)"/><rect class="82faed67-e303-4560-a634-13e6cb72cc2e" x="488.19" y="297.46" width="1.01" height="0.18" transform="matrix(0.56, -0.83, 0.83, 0.56, -44.72, 364.42)"/><rect class="82faed67-e303-4560-a634-13e6cb72cc2e" x="487.48" y="296.88" width="1.01" height="0.18" transform="translate(-80.36 257.98) rotate(-44.45)"/><rect class="82faed67-e303-4560-a634-13e6cb72cc2e" x="486.9" y="296.18" width="1.01" height="0.18" transform="translate(-94.46 152.53) rotate(-33.81)"/><polygon class="82faed67-e303-4560-a634-13e6cb72cc2e" points="475.43 126.61 475.36 126.45 474.43 126.84 474.5 127 475.43 126.61"/><rect class="82faed67-e303-4560-a634-13e6cb72cc2e" x="486.17" y="294.49" width="1.01" height="0.18" transform="translate(-60.89 -66.08) rotate(-11.47)"/><rect class="070fb296-4e2b-435e-b698-ead6963b43cd" x="459.12" y="196.42" width="25.32" height="14.28"/><rect class="070fb296-4e2b-435e-b698-ead6963b43cd" x="450.13" y="210.48" width="75.84" height="4.49"/><rect class="82faed67-e303-4560-a634-13e6cb72cc2e" x="514.03" y="182.87" width="12.24" height="1.89"/><circle class="82faed67-e303-4560-a634-13e6cb72cc2e" cx="524.14" cy="183.82" r="7.82"/><circle class="f4b41784-62d0-4d9d-b4ff-d4e29fc570c5" cx="524.14" cy="183.82" r="7.17"/><polygon class="82faed67-e303-4560-a634-13e6cb72cc2e" points="518.67 183.93 518.68 183.7 517.39 183.68 517.39 183.91 518.67 183.93"/><rect class="82faed67-e303-4560-a634-13e6cb72cc2e" x="530.08" y="350.68" width="0.23" height="1.29" transform="translate(60.72 624.49) rotate(-77.54)"/><rect class="82faed67-e303-4560-a634-13e6cb72cc2e" x="530.44" y="349.55" width="0.23" height="1.29" transform="translate(-16.79 524.31) rotate(-66.07)"/><rect class="82faed67-e303-4560-a634-13e6cb72cc2e" x="531" y="348.52" width="0.23" height="1.29" transform="translate(-71.13 416.29) rotate(-55.1)"/><polygon class="82faed67-e303-4560-a634-13e6cb72cc2e" points="520.2 180.06 520.37 179.9 519.47 178.98 519.31 179.14 520.2 180.06"/><rect class="82faed67-e303-4560-a634-13e6cb72cc2e" x="532.65" y="346.89" width="0.23" height="1.29" transform="translate(-115.35 181.26) rotate(-33.34)"/><rect class="82faed67-e303-4560-a634-13e6cb72cc2e" x="533.68" y="346.33" width="0.23" height="1.29" transform="translate(-103.68 59.35) rotate(-22.26)"/><polygon class="82faed67-e303-4560-a634-13e6cb72cc2e" points="522.92 178.53 523.15 178.48 522.9 177.22 522.68 177.26 522.92 178.53"/><polygon class="82faed67-e303-4560-a634-13e6cb72cc2e" points="524.02 178.39 524.25 178.4 524.26 177.11 524.03 177.11 524.02 178.39"/><rect class="82faed67-e303-4560-a634-13e6cb72cc2e" x="536.74" y="346.5" width="1.29" height="0.23" transform="translate(73.91 630.78) rotate(-77.91)"/><polygon class="82faed67-e303-4560-a634-13e6cb72cc2e" points="526.14 178.77 526.35 178.86 526.86 177.68 526.65 177.59 526.14 178.77"/><polygon class="82faed67-e303-4560-a634-13e6cb72cc2e" points="527.08 179.25 527.27 179.38 527.99 178.32 527.8 178.19 527.08 179.25"/><polygon class="82faed67-e303-4560-a634-13e6cb72cc2e" points="527.9 179.89 528.06 180.06 528.97 179.15 528.81 178.99 527.9 179.89"/><rect class="82faed67-e303-4560-a634-13e6cb72cc2e" x="540.56" y="349.05" width="1.29" height="0.23" transform="translate(-114.79 191.12) rotate(-33.78)"/><rect class="82faed67-e303-4560-a634-13e6cb72cc2e" x="541.13" y="350.08" width="1.29" height="0.23" transform="translate(-105.46 68.94) rotate(-22.83)"/><rect class="82faed67-e303-4560-a634-13e6cb72cc2e" x="541.49" y="351.21" width="1.29" height="0.23" transform="translate(-71.12 -53.77) rotate(-11.48)"/><rect class="82faed67-e303-4560-a634-13e6cb72cc2e" x="529.6" y="183.69" width="1.29" height="0.23"/><polygon class="82faed67-e303-4560-a634-13e6cb72cc2e" points="529.5 184.8 529.45 185.03 530.71 185.31 530.76 185.08 529.5 184.8"/><rect class="82faed67-e303-4560-a634-13e6cb72cc2e" x="541.66" y="354.29" width="0.23" height="1.29" transform="translate(-13.67 538.6) rotate(-66.19)"/><polygon class="82faed67-e303-4560-a634-13e6cb72cc2e" points="528.72 186.76 528.59 186.95 529.64 187.68 529.77 187.5 528.72 186.76"/><rect class="82faed67-e303-4560-a634-13e6cb72cc2e" x="540.35" y="356.22" width="0.23" height="1.29" transform="translate(-107.96 308.31) rotate(-44.13)"/><rect class="82faed67-e303-4560-a634-13e6cb72cc2e" x="539.45" y="356.96" width="0.23" height="1.29" transform="translate(-119.77 186.74) rotate(-33.35)"/><polygon class="82faed67-e303-4560-a634-13e6cb72cc2e" points="526.36 188.77 526.15 188.86 526.64 190.05 526.85 189.96 526.36 188.77"/><rect class="82faed67-e303-4560-a634-13e6cb72cc2e" x="537.27" y="357.87" width="0.23" height="1.29" transform="translate(-69.81 -61.41) rotate(-10.83)"/><polygon class="82faed67-e303-4560-a634-13e6cb72cc2e" points="524.26 189.25 524.03 189.24 524.02 190.53 524.25 190.53 524.26 189.25"/><polygon class="82faed67-e303-4560-a634-13e6cb72cc2e" points="523.16 189.16 522.93 189.11 522.67 190.37 522.89 190.42 523.16 189.16"/><polygon class="82faed67-e303-4560-a634-13e6cb72cc2e" points="522.13 188.87 521.92 188.78 521.41 189.96 521.62 190.05 522.13 188.87"/><rect class="82faed67-e303-4560-a634-13e6cb72cc2e" x="532.12" y="357.48" width="1.29" height="0.23" transform="translate(-74.85 427.59) rotate(-55.71)"/><rect class="82faed67-e303-4560-a634-13e6cb72cc2e" x="531.22" y="356.75" width="1.29" height="0.23" transform="translate(-109.05 309.45) rotate(-44.78)"/><rect class="82faed67-e303-4560-a634-13e6cb72cc2e" x="530.48" y="355.85" width="1.29" height="0.23" transform="translate(-120.28 184.7) rotate(-33.6)"/><rect class="82faed67-e303-4560-a634-13e6cb72cc2e" x="529.91" y="354.82" width="1.29" height="0.23" transform="translate(-107.92 63.6) rotate(-22.71)"/><rect class="82faed67-e303-4560-a634-13e6cb72cc2e" x="529.55" y="353.68" width="1.29" height="0.23" transform="translate(-72.13 -55.41) rotate(-11.55)"/><path class="070fb296-4e2b-435e-b698-ead6963b43cd" d="M536.21,411.28a6.45,6.45,0,0,0-6.45-6.45H437.62V403.4h92.23a7.88,7.88,0,0,1,0,15.76H437.62v-1.43h92.14A6.45,6.45,0,0,0,536.21,411.28Z" transform="translate(-12.03 -168.74)"/><path class="66397191-f175-4b2d-9482-99fca2b3bb7a" d="M529.76,404.83a6.45,6.45,0,0,1,0,12.9h-89.6v-12.9h89.6Z" transform="translate(-12.03 -168.74)"/><path class="06760a8c-ffe2-4e25-ab9e-1b8b00381978" d="M440.17,404.83h-2.54V403.4h92.23a7.88,7.88,0,0,1,7.88,7.85H440.17v-6.42Z" transform="translate(-12.03 -168.74)"/><rect class="070fb296-4e2b-435e-b698-ead6963b43cd" x="482.82" y="219.78" width="41.37" height="14.66"/><rect class="070fb296-4e2b-435e-b698-ead6963b43cd" x="432.5" y="219.78" width="25.3" height="14.66"/><rect class="2b0d8ae6-c23c-4abd-979d-ee5f55b05b6b" x="457.8" y="219.78" width="25.02" height="14.66"/><polygon class="06760a8c-ffe2-4e25-ab9e-1b8b00381978" points="482.82 219.78 457.8 219.78 432.5 219.78 432.5 227.12 524.18 227.12 524.18 219.78 482.82 219.78"/><circle class="f4b41784-62d0-4d9d-b4ff-d4e29fc570c5" cx="571.55" cy="44.38" r="3.36"/><circle class="f4b41784-62d0-4d9d-b4ff-d4e29fc570c5" cx="565.71" cy="5.05" r="5.05"/><circle class="f4b41784-62d0-4d9d-b4ff-d4e29fc570c5" cx="590.74" cy="35.89" r="6.23"/></g></g></g></svg>