<svg xmlns="http://www.w3.org/2000/svg" viewBox="0 0 418.72 305"><defs><style>.d6ef8682-e70e-4422-a50f-4741bc1e6997{isolation:isolate;}.a9e4c659-5179-4cc8-99ad-73e99ccf823b{opacity:0.1;}.\30 353703a-0560-4500-a0c5-b5ec1a88ddcf,.\32 322ecc0-4c84-4cc9-a0f1-aeb5d76823e5{opacity:0.5;}.\30 353703a-0560-4500-a0c5-b5ec1a88ddcf,.\31 92d7b74-bf56-4ee9-97f8-b1dfc56148d9,.\32 322ecc0-4c84-4cc9-a0f1-aeb5d76823e5,.\34 dafb517-b731-475e-8233-1415d1591ed0,.e65fc4e0-0a4a-443e-bcdd-fa97dbe59848{mix-blend-mode:multiply;}.\31 92d7b74-bf56-4ee9-97f8-b1dfc56148d9,.\32 322ecc0-4c84-4cc9-a0f1-aeb5d76823e5,.\37 36031ca-905c-46b8-b24a-7fda363c1165{fill:#b84013;}.\31 92d7b74-bf56-4ee9-97f8-b1dfc56148d9,.\33 acd2b8d-ab57-44ee-853e-15d20fc00680,.fb86478c-5612-4ef9-8031-f8077c43eed8{opacity:0.25;}.\34 cbff731-9cc3-4f9f-be27-7968860906f3{fill:#2d556b;}.\33 acd2b8d-ab57-44ee-853e-15d20fc00680,.\34 436043a-00d3-41e0-8f18-9e08796b985a,.df5fa93b-3306-4ecb-9ed0-4f6c68b2221b{fill:#fff;}.d13a5ffa-598a-4731-95fe-25f54f166e97{fill:#9bd7e6;}.\34 e996211-c61a-4d12-988a-e1bdf36db3ac{fill:#ccc;}.\36 f73f5d6-07ca-4396-a417-426cb017da23{fill:#b3b9c1;}.c3db3227-0131-41c0-9c43-7d43de0a51d9{fill:#f2f2f2;}.\34 5118d90-335b-403c-91b5-7eff8695ed93{fill:#999;}.cb4d30f6-0975-4cb5-882d-b2be3fa11bab{fill:#f7f7f7;}.a5318542-3793-472a-975a-8b756da773d8,.e65fc4e0-0a4a-443e-bcdd-fa97dbe59848,.fb86478c-5612-4ef9-8031-f8077c43eed8{fill:#e6e6e6;}.c14d31ab-e999-427f-b61e-e5fe0f6c0d3a{fill:#224050;}.cb75b54e-5161-492d-8c59-af487b996a0f{fill:#577789;}.bac6f540-c354-4bcf-b263-261b9ae1ef3f{fill:#ff5f19;}.a28cab8e-82d0-46be-a570-71da601026c4{fill:#ededed;}.df5fa93b-3306-4ecb-9ed0-4f6c68b2221b{mix-blend-mode:screen;}.\34 dafb517-b731-475e-8233-1415d1591ed0{fill:#b3b3b3;}.dae06a98-5ea9-49d2-9936-40126461e8f1,.f511600b-ec5c-424c-a731-d659e54f54b7{fill:#008aa5;}.dae06a98-5ea9-49d2-9936-40126461e8f1{opacity:0.75;}.f511600b-ec5c-424c-a731-d659e54f54b7{opacity:0.95;}</style></defs><title>top-banner_img_apps</title><g class="d6ef8682-e70e-4422-a50f-4741bc1e6997"><g id="475b5249-dc3d-4f7f-92dd-37b83c81050b" data-name="Ebene 1"><g class="a9e4c659-5179-4cc8-99ad-73e99ccf823b"><g class="0353703a-0560-4500-a0c5-b5ec1a88ddcf"><rect class="736031ca-905c-46b8-b24a-7fda363c1165" x="70.18" y="51" width="27.66" height="3.13"/><rect class="736031ca-905c-46b8-b24a-7fda363c1165" x="70.18" y="60.89" width="73.87" height="3.13"/><rect class="736031ca-905c-46b8-b24a-7fda363c1165" x="70.18" y="71.68" width="73.87" height="3.13"/><rect class="736031ca-905c-46b8-b24a-7fda363c1165" x="70.18" y="81.4" width="73.87" height="3.13"/><rect class="736031ca-905c-46b8-b24a-7fda363c1165" x="70.18" y="91.29" width="73.87" height="3.13"/><rect class="736031ca-905c-46b8-b24a-7fda363c1165" x="70.18" y="102.08" width="73.87" height="3.14"/><rect class="736031ca-905c-46b8-b24a-7fda363c1165" x="70.18" y="111.27" width="73.87" height="3.14"/><rect class="736031ca-905c-46b8-b24a-7fda363c1165" x="70.18" y="121.16" width="73.87" height="3.13"/><rect class="736031ca-905c-46b8-b24a-7fda363c1165" x="70.18" y="131.95" width="73.87" height="3.13"/></g><path class="2322ecc0-4c84-4cc9-a0f1-aeb5d76823e5" d="M641.53,309.23l3.36-13.08-9.16-2.35a37.57,37.57,0,0,0,0-4.71l8.94-2.7-3.91-12.92L632.25,276a36.32,36.32,0,0,0-3-5.16l6.05-6.06-9.55-9.55-6.05,6.05a36.48,36.48,0,0,0-5.16-3l2.57-8.48L604.23,246l-2.7,8.94c-0.91-.07-1.82,0-2.73,0h0c-0.66,0-1.32,0-2,0l-2.35-9.16-13.08,3.36,2.3,9a36.56,36.56,0,0,0-5.85,3.27l-6.3-6.3L562,264.55l6.31,6.3a36.45,36.45,0,0,0-3.27,5.85l-9-2.3-3.36,13.08,9.16,2.35a36.13,36.13,0,0,0,0,4.71l-8.94,2.71,3.91,12.92,8.48-2.57a36.71,36.71,0,0,0,3,5.16l-6.05,6.05,9.55,9.55,6.05-6.05a36.9,36.9,0,0,0,5.16,3l-2.56,8.48,12.93,3.91,2.71-8.94c0.91,0.07,1.82,0,2.73,0h0c0.66,0,1.32.05,2,0l2.36,9.16,13.07-3.36-2.3-9a36.56,36.56,0,0,0,5.85-3.27l6.3,6.3,9.55-9.55-6.3-6.3a36.88,36.88,0,0,0,3.27-5.85Zm-42.74,7.48a24.9,24.9,0,1,1,24.9-24.9A24.9,24.9,0,0,1,598.79,316.71Z" transform="translate(-226.17 -194.07)"/><ellipse class="192d7b74-bf56-4ee9-97f8-b1dfc56148d9" cx="232.11" cy="250.79" rx="156.62" ry="54.21"/><path class="4cbff731-9cc3-4f9f-be27-7968860906f3" d="M566.64,392.26H346.36V251.49c0-3.21,2.87-5.82,6.42-5.82H560.22c3.55,0,6.42,2.6,6.42,5.82V392.26Z" transform="translate(-226.17 -194.07)"/><rect class="4436043a-00d3-41e0-8f18-9e08796b985a" x="129.56" y="62.91" width="202.13" height="115.72"/><path class="d13a5ffa-598a-4731-95fe-25f54f166e97" d="M557.86,257H355.73V372.7H557.86V257h0Z" transform="translate(-226.17 -194.07)"/><path class="4e996211-c61a-4d12-988a-e1bdf36db3ac" d="M335,466.31a8.85,8.85,0,0,0,2.2.33H580.4a6.7,6.7,0,0,0,2-.33l5.62-2.19H328Z" transform="translate(-226.17 -194.07)"/><path class="6f73f5d6-07ca-4396-a417-426cb017da23" d="M584.54,464.71l-2.9,1.13a5.1,5.1,0,0,1-1.38.22h-243a7.13,7.13,0,0,1-1.66-.25l-3.5-1.1H584.54m3.47-.58h0Zm0,0H328l6.93,2.19a8.85,8.85,0,0,0,2.2.33H580.4a6.7,6.7,0,0,0,2-.33l5.62-2.19h0Z" transform="translate(-226.17 -194.07)"/><path class="4436043a-00d3-41e0-8f18-9e08796b985a" d="M587.17,460.75a1.5,1.5,0,0,0-1.33-.46H330.08a1.45,1.45,0,0,0-1.32.46L328,464.13H588Z" transform="translate(-226.17 -194.07)"/><path class="6f73f5d6-07ca-4396-a417-426cb017da23" d="M329.85,460.86H586.09l0.68,2.67H329.26l0.59-2.68m256-.57H330.08a1.45,1.45,0,0,0-1.32.46L328,464.13H588l-0.87-3.38a1.5,1.5,0,0,0-1.33-.46h0Z" transform="translate(-226.17 -194.07)"/><path class="c3db3227-0131-41c0-9c43-7d43de0a51d9" d="M585.6,462.34H330.69c-1.26,0-2.16-.53-2-1.19l17.12-77.4H567.6l20,77.4C587.74,461.81,586.86,462.34,585.6,462.34Z" transform="translate(-226.17 -194.07)"/><path class="6f73f5d6-07ca-4396-a417-426cb017da23" d="M566.79,384.33l19.82,77.42h-257l17-77.42H566.79m0.81-.58H345.79L328.49,462c0,0.21.25,0.39,0.66,0.39h258c0.41,0,.7-0.17.65-0.39l-20.18-78.2h0Z" transform="translate(-226.17 -194.07)"/><polygon class="45118d90-335b-403c-91b5-7eff8695ed93" points="137.91 210.77 151.34 210.77 152.48 202.96 139.27 202.96 137.91 210.77"/><path class="6f73f5d6-07ca-4396-a417-426cb017da23" d="M377.59,397.61l-1,6.65H365.18l1.14-6.65h11.27m1.07-.58H365.44l-1.36,7.81h13.43l1.14-7.81h0Z" transform="translate(-226.17 -194.07)"/><polygon class="45118d90-335b-403c-91b5-7eff8695ed93" points="154.77 210.77 168.2 210.77 169.07 202.96 155.85 202.96 154.77 210.77"/><path class="6f73f5d6-07ca-4396-a417-426cb017da23" d="M394.19,397.61l-0.75,6.65H382l0.91-6.65h11.27m1-.58H382l-1.09,7.81h13.43l0.87-7.81h0Z" transform="translate(-226.17 -194.07)"/><polygon class="45118d90-335b-403c-91b5-7eff8695ed93" points="172.15 210.77 185.59 210.77 186.18 202.96 172.96 202.96 172.15 210.77"/><path class="6f73f5d6-07ca-4396-a417-426cb017da23" d="M411.32,397.61l-0.51,6.65H399.38l0.67-6.65h11.27m1-.58H399.13l-0.8,7.81h13.44l0.59-7.81h0Z" transform="translate(-226.17 -194.07)"/><polygon class="45118d90-335b-403c-91b5-7eff8695ed93" points="189.01 210.77 202.44 210.77 202.76 202.96 189.54 202.96 189.01 210.77"/><path class="6f73f5d6-07ca-4396-a417-426cb017da23" d="M427.92,397.61l-0.28,6.65H416.21l0.44-6.65h11.27m1-.58H415.71l-0.53,7.81h13.44l0.32-7.81h0Z" transform="translate(-226.17 -194.07)"/><polygon class="45118d90-335b-403c-91b5-7eff8695ed93" points="171.03 221.6 184.77 221.6 185.36 213.79 171.84 213.79 171.03 221.6"/><path class="6f73f5d6-07ca-4396-a417-426cb017da23" d="M410.48,408.44L410,415.1H398.29l0.67-6.65h11.52m1.05-.58H398l-0.81,7.81h13.74l0.59-7.81h0Z" transform="translate(-226.17 -194.07)"/><polygon class="45118d90-335b-403c-91b5-7eff8695ed93" points="188.27 221.6 202.01 221.6 202.32 213.79 188.8 213.79 188.27 221.6"/><path class="6f73f5d6-07ca-4396-a417-426cb017da23" d="M427.46,408.44l-0.28,6.65H415.5l0.44-6.65h11.52m1-.58H415l-0.53,7.81h13.73l0.32-7.81h0Z" transform="translate(-226.17 -194.07)"/><polygon class="45118d90-335b-403c-91b5-7eff8695ed93" points="168.91 242.9 183.24 242.9 183.82 235.09 169.72 235.09 168.91 242.9"/><path class="6f73f5d6-07ca-4396-a417-426cb017da23" d="M408.9,429.74l-0.51,6.65H396.21l0.67-6.65h12m1.09-.58H395.88l-0.8,7.81h14.32l0.59-7.81h0Z" transform="translate(-226.17 -194.07)"/><polygon class="45118d90-335b-403c-91b5-7eff8695ed93" points="187.54 232.36 201.57 232.36 201.89 224.55 188.07 224.55 187.54 232.36"/><path class="6f73f5d6-07ca-4396-a417-426cb017da23" d="M427,419.2l-0.28,6.65H414.79l0.44-6.65H427m1.05-.58H414.24l-0.53,7.81h14l0.32-7.81h0Z" transform="translate(-226.17 -194.07)"/><polygon class="45118d90-335b-403c-91b5-7eff8695ed93" points="136.03 221.6 166.58 221.6 167.46 213.79 137.39 213.79 136.03 221.6"/><path class="6f73f5d6-07ca-4396-a417-426cb017da23" d="M392.56,408.44l-0.76,6.65H363.32l1.14-6.65h28.1m1.07-.58H363.56l-1.36,7.81h30.55l0.88-7.81h0Z" transform="translate(-226.17 -194.07)"/><polygon class="45118d90-335b-403c-91b5-7eff8695ed93" points="206.01 210.77 219.45 210.77 219.49 202.96 206.27 202.96 206.01 210.77"/><path class="6f73f5d6-07ca-4396-a417-426cb017da23" d="M444.67,397.61l0,6.65H433.2l0.21-6.65h11.27m1-.58H432.44l-0.26,7.81h13.44l0-7.81h0Z" transform="translate(-226.17 -194.07)"/><polygon class="45118d90-335b-403c-91b5-7eff8695ed93" points="222.87 210.77 236.31 210.77 236.07 202.96 222.85 202.96 222.87 210.77"/><path class="6f73f5d6-07ca-4396-a417-426cb017da23" d="M461.28,397.61l0.18,6.65H450l0-6.65h11.27m1-.58H449v7.81h13.44L462.24,397h0Z" transform="translate(-226.17 -194.07)"/><polygon class="45118d90-335b-403c-91b5-7eff8695ed93" points="240.25 210.77 253.69 210.77 253.18 202.96 239.96 202.96 240.25 210.77"/><path class="6f73f5d6-07ca-4396-a417-426cb017da23" d="M478.4,397.61l0.42,6.65H467.4l-0.26-6.65H478.4m0.94-.58H466.13l0.3,7.81h13.44L479.35,397h0Z" transform="translate(-226.17 -194.07)"/><polygon class="45118d90-335b-403c-91b5-7eff8695ed93" points="257.11 210.77 270.55 210.77 269.76 202.96 256.54 202.96 257.11 210.77"/><path class="6f73f5d6-07ca-4396-a417-426cb017da23" d="M495,397.61l0.65,6.65H484.24l-0.49-6.65H495m0.92-.58H482.71l0.57,7.81h13.44L495.93,397h0Z" transform="translate(-226.17 -194.07)"/><polygon class="45118d90-335b-403c-91b5-7eff8695ed93" points="240.66 221.6 254.4 221.6 253.89 213.79 240.37 213.79 240.66 221.6"/><path class="6f73f5d6-07ca-4396-a417-426cb017da23" d="M479.09,408.44l0.42,6.65H467.83l-0.26-6.65h11.52m1-.58H466.54l0.29,7.81h13.74l-0.51-7.81h0Z" transform="translate(-226.17 -194.07)"/><polygon class="45118d90-335b-403c-91b5-7eff8695ed93" points="257.9 221.6 271.63 221.6 270.85 213.79 257.33 213.79 257.9 221.6"/><path class="6f73f5d6-07ca-4396-a417-426cb017da23" d="M496.07,408.44l0.65,6.65H485l-0.5-6.65h11.53m0.95-.58H483.5l0.57,7.81H497.8L497,407.86h0Z" transform="translate(-226.17 -194.07)"/><polygon class="45118d90-335b-403c-91b5-7eff8695ed93" points="205.66 221.6 219.39 221.6 219.43 213.79 205.91 213.79 205.66 221.6"/><path class="6f73f5d6-07ca-4396-a417-426cb017da23" d="M444.59,408.44l0,6.65H432.86l0.21-6.65h11.52m1-.58H432.08l-0.26,7.81h13.73l0-7.81h0Z" transform="translate(-226.17 -194.07)"/><polygon class="45118d90-335b-403c-91b5-7eff8695ed93" points="222.89 221.6 236.63 221.6 236.4 213.79 222.87 213.79 222.89 221.6"/><path class="6f73f5d6-07ca-4396-a417-426cb017da23" d="M461.57,408.44l0.18,6.65H450.08l0-6.65h11.52m1-.58H449v7.81H462.8l-0.23-7.81h0Z" transform="translate(-226.17 -194.07)"/><polygon class="45118d90-335b-403c-91b5-7eff8695ed93" points="274.23 210.77 287.67 210.77 286.61 202.96 273.39 202.96 274.23 210.77"/><path class="6f73f5d6-07ca-4396-a417-426cb017da23" d="M511.87,397.61l0.89,6.65H501.34l-0.73-6.65h11.27m0.91-.58H499.56l0.84,7.81h13.44L512.78,397h0Z" transform="translate(-226.17 -194.07)"/><polygon class="45118d90-335b-403c-91b5-7eff8695ed93" points="291.62 210.77 305.05 210.77 303.71 202.96 290.49 202.96 291.62 210.77"/><path class="6f73f5d6-07ca-4396-a417-426cb017da23" d="M529,397.61l1.13,6.65H518.7l-1-6.65H529m0.88-.58H516.66l1.12,7.81h13.43L529.88,397h0Z" transform="translate(-226.17 -194.07)"/><polygon class="45118d90-335b-403c-91b5-7eff8695ed93" points="308.47 210.77 321.91 210.77 320.29 202.96 307.08 202.96 308.47 210.77"/><path class="6f73f5d6-07ca-4396-a417-426cb017da23" d="M545.6,397.61l1.36,6.65H535.54l-1.2-6.65H545.6m0.86-.58H533.25l1.4,7.81h13.43L546.46,397h0Z" transform="translate(-226.17 -194.07)"/><polygon class="45118d90-335b-403c-91b5-7eff8695ed93" points="293.17 221.6 306.91 221.6 305.57 213.79 292.05 213.79 293.17 221.6"/><path class="6f73f5d6-07ca-4396-a417-426cb017da23" d="M530.83,408.44L532,415.1H520.28l-1-6.65h11.52m0.91-.58H518.22l1.12,7.81h13.73l-1.34-7.81h0Z" transform="translate(-226.17 -194.07)"/><polygon class="45118d90-335b-403c-91b5-7eff8695ed93" points="310.41 221.6 324.14 221.6 322.53 213.79 309.01 213.79 310.41 221.6"/><path class="6f73f5d6-07ca-4396-a417-426cb017da23" d="M547.81,408.44l1.36,6.65H537.49l-1.2-6.65h11.52m0.89-.58H535.18l1.4,7.81h13.74l-1.61-7.81h0Z" transform="translate(-226.17 -194.07)"/><polygon class="45118d90-335b-403c-91b5-7eff8695ed93" points="275.4 221.6 289.14 221.6 288.08 213.79 274.56 213.79 275.4 221.6"/><path class="6f73f5d6-07ca-4396-a417-426cb017da23" d="M513.32,408.44l0.89,6.65H502.53l-0.73-6.65h11.53m0.93-.58H500.73l0.84,7.81h13.74l-1.06-7.81h0Z" transform="translate(-226.17 -194.07)"/><polygon class="45118d90-335b-403c-91b5-7eff8695ed93" points="241.2 232.36 255.24 232.36 254.72 224.55 240.91 224.55 241.2 232.36"/><path class="6f73f5d6-07ca-4396-a417-426cb017da23" d="M479.91,419.2l0.42,6.65H468.39l-0.27-6.65h11.78m1-.58H467.08l0.3,7.81h14l-0.52-7.81h0Z" transform="translate(-226.17 -194.07)"/><polygon class="45118d90-335b-403c-91b5-7eff8695ed93" points="258.81 232.36 272.85 232.36 272.06 224.55 258.25 224.55 258.81 232.36"/><path class="6f73f5d6-07ca-4396-a417-426cb017da23" d="M497.26,419.2l0.66,6.65H486l-0.5-6.65h11.78m1-.58H484.42l0.57,7.81h14l-0.78-7.81h0Z" transform="translate(-226.17 -194.07)"/><polygon class="45118d90-335b-403c-91b5-7eff8695ed93" points="205.44 232.36 219.47 232.36 219.51 224.55 205.69 224.55 205.44 232.36"/><path class="6f73f5d6-07ca-4396-a417-426cb017da23" d="M444.65,419.2l0,6.65H432.67l0.2-6.65h11.78m1-.58H431.86l-0.25,7.81h14l0-7.81h0Z" transform="translate(-226.17 -194.07)"/><polygon class="45118d90-335b-403c-91b5-7eff8695ed93" points="223.05 232.36 237.08 232.36 236.85 224.55 223.03 224.55 223.05 232.36"/><path class="6f73f5d6-07ca-4396-a417-426cb017da23" d="M462,419.2l0.18,6.65H450.26l0-6.65H462m1-.58H449.2v7.81h14L463,418.62h0Z" transform="translate(-226.17 -194.07)"/><polygon class="45118d90-335b-403c-91b5-7eff8695ed93" points="276.7 232.36 290.73 232.36 289.67 224.55 275.85 224.55 276.7 232.36"/><path class="6f73f5d6-07ca-4396-a417-426cb017da23" d="M514.89,419.2l0.89,6.65H503.85l-0.73-6.65h11.78m0.95-.58H502l0.85,7.81h14l-1.06-7.81h0Z" transform="translate(-226.17 -194.07)"/><polygon class="45118d90-335b-403c-91b5-7eff8695ed93" points="278.19 242.9 292.51 242.9 291.45 235.09 277.34 235.09 278.19 242.9"/><path class="6f73f5d6-07ca-4396-a417-426cb017da23" d="M516.65,429.74l0.9,6.65H505.36l-0.74-6.65h12m1-.58H503.51l0.85,7.81h14.33l-1.07-7.81h0Z" transform="translate(-226.17 -194.07)"/><polygon class="45118d90-335b-403c-91b5-7eff8695ed93" points="296.17 242.9 310.49 242.9 309.15 235.09 295.04 235.09 296.17 242.9"/><path class="6f73f5d6-07ca-4396-a417-426cb017da23" d="M534.37,429.74l1.13,6.65H523.32l-1-6.65h12m0.95-.58H521.21l1.12,7.81h14.32l-1.34-7.81h0Z" transform="translate(-226.17 -194.07)"/><polygon class="45118d90-335b-403c-91b5-7eff8695ed93" points="314.42 242.9 328.75 242.9 327.13 235.09 313.02 235.09 314.42 242.9"/><path class="6f73f5d6-07ca-4396-a417-426cb017da23" d="M552.37,429.74l1.36,6.65H541.55l-1.2-6.65h12m0.93-.58H539.19l1.4,7.81h14.33l-1.62-7.81h0Z" transform="translate(-226.17 -194.07)"/><polygon class="45118d90-335b-403c-91b5-7eff8695ed93" points="150.38 242.9 164.7 242.9 165.57 235.09 151.46 235.09 150.38 242.9"/><path class="6f73f5d6-07ca-4396-a417-426cb017da23" d="M390.63,429.74l-0.75,6.65H377.69l0.91-6.65h12m1.11-.58H377.63L376.55,437h14.32l0.86-7.81h0Z" transform="translate(-226.17 -194.07)"/><polygon class="45118d90-335b-403c-91b5-7eff8695ed93" points="132.4 242.9 146.72 242.9 147.86 235.09 133.75 235.09 132.4 242.9"/><path class="6f73f5d6-07ca-4396-a417-426cb017da23" d="M372.9,429.74l-1,6.65H359.73l1.14-6.65h12m1.13-.58H359.92L358.57,437h14.33l1.14-7.81h0Z" transform="translate(-226.17 -194.07)"/><polygon class="45118d90-335b-403c-91b5-7eff8695ed93" points="134.16 232.36 183.96 232.36 184.55 224.55 135.52 224.55 134.16 232.36"/><path class="6f73f5d6-07ca-4396-a417-426cb017da23" d="M409.65,419.2l-0.51,6.65H361.47l1.14-6.65h47m1.07-.58h-49l-1.36,7.81h49.8l0.59-7.81h0Z" transform="translate(-226.17 -194.07)"/><polygon class="45118d90-335b-403c-91b5-7eff8695ed93" points="294.72 232.36 326.37 232.36 324.75 224.55 293.6 224.55 294.72 232.36"/><path class="6f73f5d6-07ca-4396-a417-426cb017da23" d="M550,419.2l1.36,6.65H521.85l-1-6.65H550m0.91-.58H519.77l1.13,7.81h31.65l-1.61-7.81h0Z" transform="translate(-226.17 -194.07)"/><polygon class="45118d90-335b-403c-91b5-7eff8695ed93" points="186.89 242.9 273.98 242.9 273.19 235.09 187.42 235.09 186.89 242.9"/><path class="6f73f5d6-07ca-4396-a417-426cb017da23" d="M498.37,429.74l0.66,6.65H414.16l0.44-6.65h83.77m1-.58H413.59L413.06,437h87.09l-0.79-7.81h0Z" transform="translate(-226.17 -194.07)"/><polygon class="4436043a-00d3-41e0-8f18-9e08796b985a" points="138.15 209.37 151.55 209.37 152.69 201.56 139.51 201.56 138.15 209.37"/><path class="6f73f5d6-07ca-4396-a417-426cb017da23" d="M377.8,396.21l-1,6.65H365.42l1.14-6.65H377.8m1.06-.58H365.68l-1.36,7.81h13.4l1.14-7.81h0Z" transform="translate(-226.17 -194.07)"/><polygon class="4436043a-00d3-41e0-8f18-9e08796b985a" points="154.96 209.37 168.36 209.37 169.22 201.56 156.05 201.56 154.96 209.37"/><path class="6f73f5d6-07ca-4396-a417-426cb017da23" d="M394.35,396.21l-0.75,6.65H382.21l0.91-6.65h11.23m1-.58H382.22l-1.09,7.81h13.4l0.87-7.81h0Z" transform="translate(-226.17 -194.07)"/><polygon class="4436043a-00d3-41e0-8f18-9e08796b985a" points="172.3 209.37 185.69 209.37 186.28 201.56 173.1 201.56 172.3 209.37"/><path class="6f73f5d6-07ca-4396-a417-426cb017da23" d="M411.43,396.21l-0.51,6.65H399.52l0.67-6.65h11.23m1-.58H399.27l-0.8,7.81h13.39l0.59-7.81h0Z" transform="translate(-226.17 -194.07)"/><polygon class="4436043a-00d3-41e0-8f18-9e08796b985a" points="189.1 209.37 202.5 209.37 202.81 201.56 189.63 201.56 189.1 209.37"/><path class="6f73f5d6-07ca-4396-a417-426cb017da23" d="M428,396.21l-0.28,6.65H416.31l0.44-6.65H428m1-.58H415.81l-0.53,7.81h13.4l0.31-7.81h0Z" transform="translate(-226.17 -194.07)"/><polygon class="4436043a-00d3-41e0-8f18-9e08796b985a" points="171.18 220.2 184.88 220.2 185.47 212.39 171.99 212.39 171.18 220.2"/><path class="6f73f5d6-07ca-4396-a417-426cb017da23" d="M410.59,407l-0.51,6.65H398.43L399.1,407h11.49m1-.58H398.16l-0.81,7.81H411l0.59-7.81h0Z" transform="translate(-226.17 -194.07)"/><polygon class="4436043a-00d3-41e0-8f18-9e08796b985a" points="188.37 220.2 202.06 220.2 202.38 212.39 188.9 212.39 188.37 220.2"/><path class="6f73f5d6-07ca-4396-a417-426cb017da23" d="M427.52,407l-0.28,6.65H415.59L416,407h11.49m1-.58H415.07l-0.53,7.81h13.7l0.32-7.81h0Z" transform="translate(-226.17 -194.07)"/><polygon class="4436043a-00d3-41e0-8f18-9e08796b985a" points="169.06 241.5 183.34 241.5 183.93 233.69 169.86 233.69 169.06 241.5"/><path class="6f73f5d6-07ca-4396-a417-426cb017da23" d="M409,428.34L408.49,435H396.35l0.67-6.65h12m1.09-.58H396l-0.8,7.81h14.28l0.59-7.81h0Z" transform="translate(-226.17 -194.07)"/><polygon class="4436043a-00d3-41e0-8f18-9e08796b985a" points="187.63 230.96 201.63 230.96 201.94 223.15 188.16 223.15 187.63 230.96"/><path class="6f73f5d6-07ca-4396-a417-426cb017da23" d="M427.07,417.8l-0.28,6.65h-11.9l0.44-6.65h11.74m1-.58H414.33L413.8,425h14l0.32-7.81h0Z" transform="translate(-226.17 -194.07)"/><polygon class="4436043a-00d3-41e0-8f18-9e08796b985a" points="136.27 220.2 166.74 220.2 167.61 212.39 137.63 212.39 136.27 220.2"/><path class="6f73f5d6-07ca-4396-a417-426cb017da23" d="M392.72,407L392,413.69h-28.4L364.7,407h28m1.07-.58h-30l-1.36,7.81h30.47l0.87-7.81h0Z" transform="translate(-226.17 -194.07)"/><polygon class="4436043a-00d3-41e0-8f18-9e08796b985a" points="206.06 209.37 219.45 209.37 219.5 201.56 206.32 201.56 206.06 209.37"/><path class="6f73f5d6-07ca-4396-a417-426cb017da23" d="M444.68,396.21l0,6.65H433.24l0.21-6.65h11.23m1-.58H432.49l-0.26,7.81h13.39l0-7.81h0Z" transform="translate(-226.17 -194.07)"/><polygon class="4436043a-00d3-41e0-8f18-9e08796b985a" points="222.86 209.37 236.26 209.37 236.03 201.56 222.85 201.56 222.86 209.37"/><path class="6f73f5d6-07ca-4396-a417-426cb017da23" d="M461.24,396.21l0.18,6.65H450l0-6.65h11.23m1-.58H449v7.81h13.4l-0.23-7.81h0Z" transform="translate(-226.17 -194.07)"/><polygon class="4436043a-00d3-41e0-8f18-9e08796b985a" points="240.2 209.37 253.6 209.37 253.09 201.56 239.91 201.56 240.2 209.37"/><path class="6f73f5d6-07ca-4396-a417-426cb017da23" d="M478.31,396.21l0.42,6.65H467.34l-0.27-6.65h11.24m0.94-.58H466.07l0.3,7.81h13.39l-0.51-7.81h0Z" transform="translate(-226.17 -194.07)"/><polygon class="4436043a-00d3-41e0-8f18-9e08796b985a" points="257.01 209.37 270.4 209.37 269.62 201.56 256.44 201.56 257.01 209.37"/><path class="6f73f5d6-07ca-4396-a417-426cb017da23" d="M494.87,396.21l0.65,6.65H484.13l-0.5-6.65h11.24m0.92-.58H482.61l0.57,7.81h13.39l-0.78-7.81h0Z" transform="translate(-226.17 -194.07)"/><polygon class="4436043a-00d3-41e0-8f18-9e08796b985a" points="240.61 220.2 254.31 220.2 253.8 212.39 240.31 212.39 240.61 220.2"/><path class="6f73f5d6-07ca-4396-a417-426cb017da23" d="M479,407l0.42,6.65H467.77L467.51,407H479m1-.58H466.48l0.29,7.81h13.7L480,406.46h0Z" transform="translate(-226.17 -194.07)"/><polygon class="4436043a-00d3-41e0-8f18-9e08796b985a" points="257.8 220.2 271.49 220.2 270.71 212.39 257.23 212.39 257.8 220.2"/><path class="6f73f5d6-07ca-4396-a417-426cb017da23" d="M495.93,407l0.65,6.65H484.94l-0.5-6.65h11.49m0.94-.58H483.4l0.57,7.81h13.7l-0.78-7.81h0Z" transform="translate(-226.17 -194.07)"/><polygon class="4436043a-00d3-41e0-8f18-9e08796b985a" points="205.7 220.2 219.4 220.2 219.44 212.39 205.96 212.39 205.7 220.2"/><path class="6f73f5d6-07ca-4396-a417-426cb017da23" d="M444.6,407l0,6.65H432.91l0.21-6.65H444.6m1-.58H432.13l-0.26,7.81h13.69l0-7.81h0Z" transform="translate(-226.17 -194.07)"/><polygon class="4436043a-00d3-41e0-8f18-9e08796b985a" points="222.89 220.2 236.58 220.2 236.35 212.39 222.87 212.39 222.89 220.2"/><path class="6f73f5d6-07ca-4396-a417-426cb017da23" d="M461.54,407l0.18,6.65H450.07l0-6.65h11.49m1-.58H449v7.81h13.7l-0.23-7.81h0Z" transform="translate(-226.17 -194.07)"/><polygon class="4436043a-00d3-41e0-8f18-9e08796b985a" points="274.08 209.37 287.48 209.37 286.42 201.56 273.24 201.56 274.08 209.37"/><path class="6f73f5d6-07ca-4396-a417-426cb017da23" d="M511.68,396.21l0.89,6.65H501.18l-0.73-6.65h11.24m0.9-.58H499.41l0.84,7.81h13.4l-1.06-7.81h0Z" transform="translate(-226.17 -194.07)"/><polygon class="4436043a-00d3-41e0-8f18-9e08796b985a" points="291.41 209.37 304.81 209.37 303.47 201.56 290.29 201.56 291.41 209.37"/><path class="6f73f5d6-07ca-4396-a417-426cb017da23" d="M528.76,396.21l1.13,6.65H518.49l-1-6.65h11.23m0.88-.58H516.46l1.12,7.81H531l-1.34-7.81h0Z" transform="translate(-226.17 -194.07)"/><polygon class="4436043a-00d3-41e0-8f18-9e08796b985a" points="308.22 209.37 321.62 209.37 320 201.56 306.82 201.56 308.22 209.37"/><path class="6f73f5d6-07ca-4396-a417-426cb017da23" d="M545.31,396.21l1.36,6.65H535.28l-1.2-6.65h11.24m0.86-.58H533l1.4,7.81h13.39l-1.61-7.81h0Z" transform="translate(-226.17 -194.07)"/><polygon class="4436043a-00d3-41e0-8f18-9e08796b985a" points="292.97 220.2 306.67 220.2 305.33 212.39 291.85 212.39 292.97 220.2"/><path class="6f73f5d6-07ca-4396-a417-426cb017da23" d="M530.59,407l1.13,6.65H520.07l-1-6.65h11.49m0.9-.58H518l1.12,7.81h13.7l-1.34-7.81h0Z" transform="translate(-226.17 -194.07)"/><polygon class="4436043a-00d3-41e0-8f18-9e08796b985a" points="310.16 220.2 323.86 220.2 322.24 212.39 308.76 212.39 310.16 220.2"/><path class="6f73f5d6-07ca-4396-a417-426cb017da23" d="M547.53,407l1.36,6.65H537.24L536,407h11.49m0.88-.58H534.93l1.4,7.81H550l-1.61-7.81h0Z" transform="translate(-226.17 -194.07)"/><polygon class="4436043a-00d3-41e0-8f18-9e08796b985a" points="275.25 220.2 288.95 220.2 287.89 212.39 274.4 212.39 275.25 220.2"/><path class="6f73f5d6-07ca-4396-a417-426cb017da23" d="M513.13,407l0.89,6.65H502.37L501.64,407h11.49m0.92-.58H500.57l0.84,7.81h13.7l-1.06-7.81h0Z" transform="translate(-226.17 -194.07)"/><polygon class="4436043a-00d3-41e0-8f18-9e08796b985a" points="241.15 230.96 255.15 230.96 254.63 223.15 240.85 223.15 241.15 230.96"/><path class="6f73f5d6-07ca-4396-a417-426cb017da23" d="M479.82,417.8l0.42,6.65h-11.9l-0.26-6.65h11.74m1-.58H467l0.3,7.81h14l-0.51-7.81h0Z" transform="translate(-226.17 -194.07)"/><polygon class="4436043a-00d3-41e0-8f18-9e08796b985a" points="258.71 230.96 272.71 230.96 271.92 223.15 258.14 223.15 258.71 230.96"/><path class="6f73f5d6-07ca-4396-a417-426cb017da23" d="M497.13,417.8l0.65,6.65h-11.9l-0.5-6.65h11.74m1-.58H484.31l0.57,7.81h14l-0.79-7.81h0Z" transform="translate(-226.17 -194.07)"/><polygon class="4436043a-00d3-41e0-8f18-9e08796b985a" points="205.48 230.96 219.48 230.96 219.52 223.15 205.74 223.15 205.48 230.96"/><path class="6f73f5d6-07ca-4396-a417-426cb017da23" d="M444.66,417.8l0,6.65h-11.9l0.21-6.65h11.74m1-.58H431.91L431.65,425h14l0-7.81h0Z" transform="translate(-226.17 -194.07)"/><polygon class="4436043a-00d3-41e0-8f18-9e08796b985a" points="223.04 230.96 237.04 230.96 236.81 223.15 223.03 223.15 223.04 230.96"/><path class="6f73f5d6-07ca-4396-a417-426cb017da23" d="M462,417.8l0.18,6.65h-11.9l0-6.65H462m1-.58H449.2V425h14L463,417.22h0Z" transform="translate(-226.17 -194.07)"/><polygon class="4436043a-00d3-41e0-8f18-9e08796b985a" points="276.55 230.96 290.55 230.96 289.48 223.15 275.7 223.15 276.55 230.96"/><path class="6f73f5d6-07ca-4396-a417-426cb017da23" d="M514.71,417.8l0.89,6.65h-11.9L503,417.8h11.75m0.95-.58H501.87l0.85,7.81h14l-1.06-7.81h0Z" transform="translate(-226.17 -194.07)"/><polygon class="4436043a-00d3-41e0-8f18-9e08796b985a" points="278.04 241.5 292.32 241.5 291.26 233.69 277.19 233.69 278.04 241.5"/><path class="6f73f5d6-07ca-4396-a417-426cb017da23" d="M516.46,428.34l0.89,6.65H505.2l-0.74-6.65h12m1-.58H503.36l0.85,7.81h14.29l-1.07-7.81h0Z" transform="translate(-226.17 -194.07)"/><polygon class="4436043a-00d3-41e0-8f18-9e08796b985a" points="295.97 241.5 310.25 241.5 308.91 233.69 294.84 233.69 295.97 241.5"/><path class="6f73f5d6-07ca-4396-a417-426cb017da23" d="M534.13,428.34l1.13,6.65H523.11l-1-6.65h12m0.95-.58H521l1.12,7.81h14.29l-1.34-7.81h0Z" transform="translate(-226.17 -194.07)"/><polygon class="4436043a-00d3-41e0-8f18-9e08796b985a" points="314.17 241.5 328.46 241.5 326.84 233.69 312.77 233.69 314.17 241.5"/><path class="6f73f5d6-07ca-4396-a417-426cb017da23" d="M552.09,428.34l1.36,6.65H541.3l-1.21-6.65h12m0.93-.58H538.94l1.4,7.81h14.29L553,427.76h0Z" transform="translate(-226.17 -194.07)"/><polygon class="4436043a-00d3-41e0-8f18-9e08796b985a" points="150.57 241.5 164.86 241.5 165.72 233.69 151.66 233.69 150.57 241.5"/><path class="6f73f5d6-07ca-4396-a417-426cb017da23" d="M390.78,428.34L390,435H377.88l0.91-6.65h12m1.11-.58H377.82l-1.08,7.81H391l0.87-7.81h0Z" transform="translate(-226.17 -194.07)"/><polygon class="4436043a-00d3-41e0-8f18-9e08796b985a" points="132.64 241.5 146.93 241.5 148.07 233.69 134 233.69 132.64 241.5"/><path class="6f73f5d6-07ca-4396-a417-426cb017da23" d="M373.11,428.34l-1,6.65H360l1.14-6.65h12m1.13-.58H360.17l-1.36,7.81H373.1l1.14-7.81h0Z" transform="translate(-226.17 -194.07)"/><polygon class="4436043a-00d3-41e0-8f18-9e08796b985a" points="134.4 230.96 184.07 230.96 184.65 223.15 135.76 223.15 134.4 230.96"/><path class="6f73f5d6-07ca-4396-a417-426cb017da23" d="M409.76,417.8l-0.52,6.65H361.71l1.14-6.65h46.9m1.07-.58H361.93L360.57,425h49.66l0.59-7.81h0Z" transform="translate(-226.17 -194.07)"/><polygon class="4436043a-00d3-41e0-8f18-9e08796b985a" points="294.52 230.96 326.08 230.96 324.46 223.15 293.39 223.15 294.52 230.96"/><path class="6f73f5d6-07ca-4396-a417-426cb017da23" d="M549.73,417.8l1.36,6.65H521.64l-1-6.65h29.05m0.91-.58H519.56l1.12,7.81h31.56l-1.61-7.81h0Z" transform="translate(-226.17 -194.07)"/><polygon class="4436043a-00d3-41e0-8f18-9e08796b985a" points="186.98 241.5 273.84 241.5 273.05 233.69 187.51 233.69 186.98 241.5"/><path class="6f73f5d6-07ca-4396-a417-426cb017da23" d="M498.23,428.34l0.66,6.65H414.25l0.44-6.65h83.54m1-.58H413.68l-0.53,7.81H500l-0.79-7.81h0Z" transform="translate(-226.17 -194.07)"/><polygon class="4436043a-00d3-41e0-8f18-9e08796b985a" points="138.05 209.94 151.47 209.94 152.61 202.13 139.41 202.13 138.05 209.94"/><path class="6f73f5d6-07ca-4396-a417-426cb017da23" d="M377.71,396.78l-1,6.65H365.32l1.14-6.65h11.25m1.07-.58H365.58L364.22,404h13.41l1.14-7.81h0Z" transform="translate(-226.17 -194.07)"/><polygon class="4436043a-00d3-41e0-8f18-9e08796b985a" points="154.88 209.94 168.29 209.94 169.16 202.13 155.97 202.13 154.88 209.94"/><path class="6f73f5d6-07ca-4396-a417-426cb017da23" d="M394.28,396.78l-0.75,6.65h-11.4l0.91-6.65h11.25m1-.58H382.14L381.05,404h13.41l0.87-7.81h0Z" transform="translate(-226.17 -194.07)"/><polygon class="4436043a-00d3-41e0-8f18-9e08796b985a" points="172.24 209.94 185.65 209.94 186.24 202.13 173.04 202.13 172.24 209.94"/><path class="6f73f5d6-07ca-4396-a417-426cb017da23" d="M411.38,396.78l-0.51,6.65h-11.4l0.67-6.65h11.25m1-.58h-13.2L398.41,404h13.41l0.59-7.81h0Z" transform="translate(-226.17 -194.07)"/><polygon class="4436043a-00d3-41e0-8f18-9e08796b985a" points="189.06 209.94 202.48 209.94 202.79 202.13 189.6 202.13 189.06 209.94"/><path class="6f73f5d6-07ca-4396-a417-426cb017da23" d="M428,396.78l-0.28,6.65H416.27l0.44-6.65H428m1-.58H415.77L415.23,404h13.41L429,396.2h0Z" transform="translate(-226.17 -194.07)"/><polygon class="4436043a-00d3-41e0-8f18-9e08796b985a" points="171.12 220.77 184.83 220.77 185.42 212.96 171.93 212.96 171.12 220.77"/><path class="6f73f5d6-07ca-4396-a417-426cb017da23" d="M410.54,407.61L410,414.27H398.37l0.67-6.65h11.5m1-.58H398.1l-0.81,7.81H411l0.59-7.81h0Z" transform="translate(-226.17 -194.07)"/><polygon class="4436043a-00d3-41e0-8f18-9e08796b985a" points="188.33 220.77 202.04 220.77 202.35 212.96 188.86 212.96 188.33 220.77"/><path class="6f73f5d6-07ca-4396-a417-426cb017da23" d="M427.5,407.61l-0.28,6.65H415.55l0.44-6.65h11.5m1-.58H415l-0.53,7.81h13.71l0.32-7.81h0Z" transform="translate(-226.17 -194.07)"/><polygon class="4436043a-00d3-41e0-8f18-9e08796b985a" points="169 242.07 183.3 242.07 183.89 234.26 169.8 234.26 169 242.07"/><path class="6f73f5d6-07ca-4396-a417-426cb017da23" d="M409,428.91l-0.51,6.65H396.29l0.67-6.65h12m1.09-.58H396l-0.8,7.81h14.3l0.59-7.81h0Z" transform="translate(-226.17 -194.07)"/><polygon class="4436043a-00d3-41e0-8f18-9e08796b985a" points="187.59 231.53 201.6 231.53 201.92 223.72 188.13 223.72 187.59 231.53"/><path class="6f73f5d6-07ca-4396-a417-426cb017da23" d="M427,418.37L426.76,425H414.84l0.44-6.65H427m1-.58H414.3l-0.53,7.81h14l0.32-7.81h0Z" transform="translate(-226.17 -194.07)"/><polygon class="4436043a-00d3-41e0-8f18-9e08796b985a" points="136.17 220.77 166.68 220.77 167.55 212.96 137.53 212.96 136.17 220.77"/><path class="6f73f5d6-07ca-4396-a417-426cb017da23" d="M392.65,407.61l-0.76,6.65H363.46l1.14-6.65h28m1.07-.58h-30l-1.36,7.81h30.5l0.87-7.81h0Z" transform="translate(-226.17 -194.07)"/><polygon class="4436043a-00d3-41e0-8f18-9e08796b985a" points="206.04 209.94 219.45 209.94 219.49 202.13 206.3 202.13 206.04 209.94"/><path class="6f73f5d6-07ca-4396-a417-426cb017da23" d="M444.68,396.78l0,6.65h-11.4l0.21-6.65h11.25m1-.58H432.47L432.21,404h13.41l0-7.81h0Z" transform="translate(-226.17 -194.07)"/><polygon class="4436043a-00d3-41e0-8f18-9e08796b985a" points="222.87 209.94 236.28 209.94 236.05 202.13 222.85 202.13 222.87 209.94"/><path class="6f73f5d6-07ca-4396-a417-426cb017da23" d="M461.25,396.78l0.18,6.65H450l0-6.65h11.25m1-.58H449V404h13.41l-0.23-7.81h0Z" transform="translate(-226.17 -194.07)"/><polygon class="4436043a-00d3-41e0-8f18-9e08796b985a" points="240.22 209.94 253.63 209.94 253.12 202.13 239.93 202.13 240.22 209.94"/><path class="6f73f5d6-07ca-4396-a417-426cb017da23" d="M478.35,396.78l0.42,6.65H467.36l-0.26-6.65h11.25m0.94-.58H466.1l0.29,7.81H479.8l-0.51-7.81h0Z" transform="translate(-226.17 -194.07)"/><polygon class="4436043a-00d3-41e0-8f18-9e08796b985a" points="257.05 209.94 270.46 209.94 269.68 202.13 256.49 202.13 257.05 209.94"/><path class="6f73f5d6-07ca-4396-a417-426cb017da23" d="M494.92,396.78l0.65,6.65H484.17l-0.49-6.65h11.25m0.92-.58H482.65l0.56,7.81h13.41l-0.78-7.81h0Z" transform="translate(-226.17 -194.07)"/><polygon class="4436043a-00d3-41e0-8f18-9e08796b985a" points="240.63 220.77 254.34 220.77 253.83 212.96 240.34 212.96 240.63 220.77"/><path class="6f73f5d6-07ca-4396-a417-426cb017da23" d="M479,407.61l0.42,6.65H467.8l-0.26-6.65H479m1-.58h-13.5l0.29,7.81h13.71L480,407h0Z" transform="translate(-226.17 -194.07)"/><polygon class="cb4d30f6-0975-4cb5-882d-b2be3fa11bab" points="257.84 220.77 271.55 220.77 270.76 212.96 257.27 212.96 257.84 220.77"/><path class="6f73f5d6-07ca-4396-a417-426cb017da23" d="M496,407.61l0.65,6.65H485l-0.5-6.65H496m0.94-.58H483.44l0.57,7.81h13.71L496.94,407h0Z" transform="translate(-226.17 -194.07)"/><polygon class="4436043a-00d3-41e0-8f18-9e08796b985a" points="205.68 220.77 219.39 220.77 219.43 212.96 205.94 212.96 205.68 220.77"/><path class="6f73f5d6-07ca-4396-a417-426cb017da23" d="M444.6,407.61l0,6.65H432.89l0.21-6.65h11.5m1-.58H432.11l-0.26,7.81h13.71l0-7.81h0Z" transform="translate(-226.17 -194.07)"/><polygon class="4436043a-00d3-41e0-8f18-9e08796b985a" points="222.89 220.77 236.6 220.77 236.37 212.96 222.87 212.96 222.89 220.77"/><path class="6f73f5d6-07ca-4396-a417-426cb017da23" d="M461.55,407.61l0.18,6.65H450.07l0-6.65h11.5m1-.58H449v7.81h13.71L462.54,407h0Z" transform="translate(-226.17 -194.07)"/><polygon class="4436043a-00d3-41e0-8f18-9e08796b985a" points="274.14 209.94 287.55 209.94 286.49 202.13 273.3 202.13 274.14 209.94"/><path class="6f73f5d6-07ca-4396-a417-426cb017da23" d="M511.76,396.78l0.89,6.65H501.24l-0.73-6.65h11.25m0.9-.58H499.47l0.84,7.81h13.41l-1.06-7.81h0Z" transform="translate(-226.17 -194.07)"/><polygon class="4436043a-00d3-41e0-8f18-9e08796b985a" points="291.49 209.94 304.91 209.94 303.56 202.13 290.37 202.13 291.49 209.94"/><path class="6f73f5d6-07ca-4396-a417-426cb017da23" d="M528.85,396.78l1.13,6.65H518.58l-1-6.65h11.25m0.88-.58H516.54l1.12,7.81h13.41l-1.34-7.81h0Z" transform="translate(-226.17 -194.07)"/><polygon class="4436043a-00d3-41e0-8f18-9e08796b985a" points="308.32 209.94 321.74 209.94 320.12 202.13 306.93 202.13 308.32 209.94"/><path class="6f73f5d6-07ca-4396-a417-426cb017da23" d="M545.43,396.78l1.36,6.65h-11.4l-1.2-6.65h11.25m0.86-.58H533.1l1.4,7.81h13.41l-1.61-7.81h0Z" transform="translate(-226.17 -194.07)"/><polygon class="45118d90-335b-403c-91b5-7eff8695ed93" points="139.93 199.17 153.04 199.17 153.59 195.37 140.59 195.37 139.93 199.17"/><path class="6f73f5d6-07ca-4396-a417-426cb017da23" d="M378.71,390l-0.39,2.64H367.17l0.45-2.64h11.09m1.05-.58h-13l-0.66,3.8h13.11l0.55-3.8h0Z" transform="translate(-226.17 -194.07)"/><polygon class="45118d90-335b-403c-91b5-7eff8695ed93" points="156.38 199.17 169.49 199.17 169.91 195.37 156.91 195.37 156.38 199.17"/><path class="6f73f5d6-07ca-4396-a417-426cb017da23" d="M395.05,390l-0.3,2.64H383.6L384,390h11.09m1-.58h-13l-0.53,3.8h13.11l0.42-3.8h0Z" transform="translate(-226.17 -194.07)"/><polygon class="45118d90-335b-403c-91b5-7eff8695ed93" points="173.35 199.17 186.46 199.17 186.74 195.37 173.74 195.37 173.35 199.17"/><path class="6f73f5d6-07ca-4396-a417-426cb017da23" d="M411.9,390l-0.2,2.64H400.55l0.27-2.64H411.9m1-.58h-13l-0.39,3.8h13.11l0.29-3.8h0Z" transform="translate(-226.17 -194.07)"/><polygon class="45118d90-335b-403c-91b5-7eff8695ed93" points="189.8 199.17 202.91 199.17 203.07 195.37 190.06 195.37 189.8 199.17"/><path class="6f73f5d6-07ca-4396-a417-426cb017da23" d="M428.25,390l-0.11,2.64H417l0.18-2.64h11.09m1-.58h-13l-0.26,3.8h13.11l0.15-3.8h0Z" transform="translate(-226.17 -194.07)"/><polygon class="45118d90-335b-403c-91b5-7eff8695ed93" points="206.4 199.17 219.51 199.17 219.53 195.37 206.52 195.37 206.4 199.17"/><path class="6f73f5d6-07ca-4396-a417-426cb017da23" d="M444.73,390l0,2.64H433.56l0.08-2.64h11.09m1-.58h-13l-0.13,3.8h13.11l0-3.8h0Z" transform="translate(-226.17 -194.07)"/><polygon class="45118d90-335b-403c-91b5-7eff8695ed93" points="222.85 199.17 235.96 199.17 235.85 195.37 222.84 195.37 222.85 199.17"/><path class="6f73f5d6-07ca-4396-a417-426cb017da23" d="M461.07,390l0.07,2.64H450V390h11.09m1-.58H449v3.8h13.11l-0.11-3.8h0Z" transform="translate(-226.17 -194.07)"/><polygon class="45118d90-335b-403c-91b5-7eff8695ed93" points="239.81 199.17 252.93 199.17 252.68 195.37 239.67 195.37 239.81 199.17"/><path class="6f73f5d6-07ca-4396-a417-426cb017da23" d="M477.92,390l0.17,2.64H466.94l-0.1-2.64h11.09m0.93-.58h-13l0.14,3.8H479.1l-0.25-3.8h0Z" transform="translate(-226.17 -194.07)"/><polygon class="45118d90-335b-403c-91b5-7eff8695ed93" points="256.27 199.17 269.38 199.17 269 195.37 255.99 195.37 256.27 199.17"/><path class="6f73f5d6-07ca-4396-a417-426cb017da23" d="M494.26,390l0.26,2.64H483.37l-0.2-2.64h11.09m0.91-.58h-13l0.28,3.8h13.11l-0.38-3.8h0Z" transform="translate(-226.17 -194.07)"/><polygon class="45118d90-335b-403c-91b5-7eff8695ed93" points="272.98 199.17 286.09 199.17 285.58 195.37 272.57 195.37 272.98 199.17"/><path class="6f73f5d6-07ca-4396-a417-426cb017da23" d="M510.86,390l0.35,2.64H500.06L499.77,390h11.09m0.89-.58h-13l0.41,3.8h13.11l-0.52-3.8h0Z" transform="translate(-226.17 -194.07)"/><polygon class="45118d90-335b-403c-91b5-7eff8695ed93" points="289.95 199.17 303.06 199.17 302.41 195.37 289.4 195.37 289.95 199.17"/><path class="6f73f5d6-07ca-4396-a417-426cb017da23" d="M527.71,390l0.45,2.64H517L516.62,390h11.09m0.87-.58h-13l0.55,3.8h13.11l-0.65-3.8h0Z" transform="translate(-226.17 -194.07)"/><polygon class="45118d90-335b-403c-91b5-7eff8695ed93" points="306.4 199.17 319.51 199.17 318.73 195.37 305.72 195.37 306.4 199.17"/><path class="6f73f5d6-07ca-4396-a417-426cb017da23" d="M544,390l0.54,2.64H533.44L533,390H544m0.85-.58h-13l0.68,3.8h13.11l-0.78-3.8h0Z" transform="translate(-226.17 -194.07)"/><polygon class="4436043a-00d3-41e0-8f18-9e08796b985a" points="140.04 198.49 153.14 198.49 153.69 194.69 140.71 194.69 140.04 198.49"/><path class="6f73f5d6-07ca-4396-a417-426cb017da23" d="M378.81,389.34L378.42,392H367.29l0.45-2.64h11.07m1-.58h-13l-0.66,3.8h13.09l0.55-3.8h0Z" transform="translate(-226.17 -194.07)"/><polygon class="4436043a-00d3-41e0-8f18-9e08796b985a" points="156.47 198.49 169.57 198.49 169.99 194.69 157 194.69 156.47 198.49"/><path class="6f73f5d6-07ca-4396-a417-426cb017da23" d="M395.13,389.34l-0.3,2.64H383.7l0.36-2.64h11.07m1-.58h-13l-0.53,3.8h13.09l0.42-3.8h0Z" transform="translate(-226.17 -194.07)"/><polygon class="4436043a-00d3-41e0-8f18-9e08796b985a" points="173.42 198.49 186.51 198.49 186.8 194.69 173.81 194.69 173.42 198.49"/><path class="6f73f5d6-07ca-4396-a417-426cb017da23" d="M412,389.34l-0.2,2.64H400.62l0.26-2.64H412m1-.58H400l-0.39,3.8h13.09l0.29-3.8h0Z" transform="translate(-226.17 -194.07)"/><polygon class="4436043a-00d3-41e0-8f18-9e08796b985a" points="189.84 198.49 202.94 198.49 203.09 194.69 190.1 194.69 189.84 198.49"/><path class="6f73f5d6-07ca-4396-a417-426cb017da23" d="M428.27,389.34L428.16,392H417l0.17-2.64h11.07m1-.58h-13l-0.26,3.8h13.1l0.15-3.8h0Z" transform="translate(-226.17 -194.07)"/><polygon class="4436043a-00d3-41e0-8f18-9e08796b985a" points="206.42 198.49 219.51 198.49 219.53 194.69 206.54 194.69 206.42 198.49"/><path class="6f73f5d6-07ca-4396-a417-426cb017da23" d="M444.73,389.34l0,2.64H433.58l0.08-2.64h11.07m1-.58h-13l-0.12,3.8h13.09l0-3.8h0Z" transform="translate(-226.17 -194.07)"/><polygon class="4436043a-00d3-41e0-8f18-9e08796b985a" points="222.85 198.49 235.94 198.49 235.83 194.69 222.84 194.69 222.85 198.49"/><path class="6f73f5d6-07ca-4396-a417-426cb017da23" d="M461,389.34l0.07,2.64H450v-2.64H461m1-.58H449v3.8h13.09l-0.11-3.8h0Z" transform="translate(-226.17 -194.07)"/><polygon class="4436043a-00d3-41e0-8f18-9e08796b985a" points="239.79 198.49 252.88 198.49 252.63 194.69 239.65 194.69 239.79 198.49"/><path class="6f73f5d6-07ca-4396-a417-426cb017da23" d="M477.88,389.34L478,392H466.91l-0.11-2.64h11.07m0.93-.58h-13l0.14,3.8h13.1l-0.25-3.8h0Z" transform="translate(-226.17 -194.07)"/><polygon class="4436043a-00d3-41e0-8f18-9e08796b985a" points="256.22 198.49 269.31 198.49 268.93 194.69 255.94 194.69 256.22 198.49"/><path class="6f73f5d6-07ca-4396-a417-426cb017da23" d="M494.19,389.34l0.26,2.64H483.32l-0.2-2.64h11.07m0.91-.58h-13l0.28,3.8h13.09l-0.38-3.8h0Z" transform="translate(-226.17 -194.07)"/><polygon class="4436043a-00d3-41e0-8f18-9e08796b985a" points="272.9 198.49 286 198.49 285.48 194.69 272.5 194.69 272.9 198.49"/><path class="6f73f5d6-07ca-4396-a417-426cb017da23" d="M510.77,389.34l0.35,2.64H500l-0.29-2.64h11.07m0.89-.58h-13l0.41,3.8h13.09l-0.51-3.8h0Z" transform="translate(-226.17 -194.07)"/><polygon class="4436043a-00d3-41e0-8f18-9e08796b985a" points="289.85 198.49 302.94 198.49 302.29 194.69 289.3 194.69 289.85 198.49"/><path class="6f73f5d6-07ca-4396-a417-426cb017da23" d="M527.59,389.34L528,392H516.91l-0.38-2.64h11.07m0.86-.58h-13l0.55,3.8h13.09l-0.65-3.8h0Z" transform="translate(-226.17 -194.07)"/><polygon class="4436043a-00d3-41e0-8f18-9e08796b985a" points="306.28 198.49 319.37 198.49 318.59 194.69 305.6 194.69 306.28 198.49"/><path class="6f73f5d6-07ca-4396-a417-426cb017da23" d="M543.91,389.34l0.54,2.64H533.31l-0.47-2.64h11.07m0.85-.58h-13l0.68,3.8h13.09l-0.79-3.8h0Z" transform="translate(-226.17 -194.07)"/><polygon class="4436043a-00d3-41e0-8f18-9e08796b985a" points="140 198.76 153.1 198.76 153.65 194.97 140.66 194.97 140 198.76"/><path class="6f73f5d6-07ca-4396-a417-426cb017da23" d="M378.77,389.62l-0.39,2.64H367.24l0.45-2.64h11.08m1.05-.58h-13l-0.66,3.8h13.1l0.55-3.8h0Z" transform="translate(-226.17 -194.07)"/><polygon class="4436043a-00d3-41e0-8f18-9e08796b985a" points="156.44 198.76 169.54 198.76 169.96 194.97 156.96 194.97 156.44 198.76"/><path class="6f73f5d6-07ca-4396-a417-426cb017da23" d="M395.1,389.62l-0.3,2.64H383.66l0.36-2.64H395.1m1-.58h-13l-0.53,3.8h13.1l0.42-3.8h0Z" transform="translate(-226.17 -194.07)"/><polygon class="4436043a-00d3-41e0-8f18-9e08796b985a" points="173.39 198.76 186.49 198.76 186.77 194.97 173.78 194.97 173.39 198.76"/><path class="6f73f5d6-07ca-4396-a417-426cb017da23" d="M411.93,389.62l-0.2,2.64H400.59l0.27-2.64h11.08m1-.58h-13l-0.39,3.8h13.1l0.29-3.8h0Z" transform="translate(-226.17 -194.07)"/><polygon class="4436043a-00d3-41e0-8f18-9e08796b985a" points="189.83 198.76 202.93 198.76 203.08 194.97 190.09 194.97 189.83 198.76"/><path class="6f73f5d6-07ca-4396-a417-426cb017da23" d="M428.26,389.62l-0.11,2.64H417l0.17-2.64h11.08m1-.58h-13l-0.26,3.8h13.1l0.15-3.8h0Z" transform="translate(-226.17 -194.07)"/><polygon class="4436043a-00d3-41e0-8f18-9e08796b985a" points="206.41 198.76 219.51 198.76 219.53 194.97 206.53 194.97 206.41 198.76"/><path class="6f73f5d6-07ca-4396-a417-426cb017da23" d="M444.73,389.62l0,2.64H433.57l0.08-2.64h11.08m1-.58h-13l-0.13,3.8h13.1l0-3.8h0Z" transform="translate(-226.17 -194.07)"/><polygon class="4436043a-00d3-41e0-8f18-9e08796b985a" points="222.85 198.76 235.95 198.76 235.84 194.97 222.84 194.97 222.85 198.76"/><path class="6f73f5d6-07ca-4396-a417-426cb017da23" d="M461.06,389.62l0.07,2.64H450v-2.64h11.08m1-.58H449v3.8h13.1L462,389h0Z" transform="translate(-226.17 -194.07)"/><polygon class="4436043a-00d3-41e0-8f18-9e08796b985a" points="239.8 198.76 252.9 198.76 252.65 194.97 239.66 194.97 239.8 198.76"/><path class="6f73f5d6-07ca-4396-a417-426cb017da23" d="M477.89,389.62l0.17,2.64H466.92l-0.1-2.64h11.08m0.93-.58h-13l0.14,3.8h13.1l-0.25-3.8h0Z" transform="translate(-226.17 -194.07)"/><polygon class="4436043a-00d3-41e0-8f18-9e08796b985a" points="256.24 198.76 269.34 198.76 268.96 194.97 255.96 194.97 256.24 198.76"/><path class="6f73f5d6-07ca-4396-a417-426cb017da23" d="M494.22,389.62l0.26,2.64H483.34l-0.2-2.64h11.08m0.91-.58h-13l0.28,3.8h13.1l-0.38-3.8h0Z" transform="translate(-226.17 -194.07)"/><polygon class="4436043a-00d3-41e0-8f18-9e08796b985a" points="272.94 198.76 286.04 198.76 285.52 194.97 272.52 194.97 272.94 198.76"/><path class="6f73f5d6-07ca-4396-a417-426cb017da23" d="M510.8,389.62l0.35,2.64H500l-0.29-2.64H510.8m0.89-.58h-13l0.41,3.8h13.1l-0.51-3.8h0Z" transform="translate(-226.17 -194.07)"/><polygon class="4436043a-00d3-41e0-8f18-9e08796b985a" points="289.89 198.76 302.99 198.76 302.34 194.97 289.34 194.97 289.89 198.76"/><path class="6f73f5d6-07ca-4396-a417-426cb017da23" d="M527.64,389.62l0.45,2.64H516.95l-0.38-2.64h11.08m0.87-.58h-13l0.55,3.8h13.1l-0.65-3.8h0Z" transform="translate(-226.17 -194.07)"/><polygon class="4436043a-00d3-41e0-8f18-9e08796b985a" points="306.33 198.76 319.43 198.76 318.64 194.97 305.65 194.97 306.33 198.76"/><path class="6f73f5d6-07ca-4396-a417-426cb017da23" d="M544,389.62l0.54,2.64H533.36l-0.48-2.64H544m0.85-.58h-13l0.68,3.8h13.1l-0.79-3.8h0Z" transform="translate(-226.17 -194.07)"/><polygon class="4436043a-00d3-41e0-8f18-9e08796b985a" points="293.05 220.77 306.77 220.77 305.43 212.96 291.93 212.96 293.05 220.77"/><path class="6f73f5d6-07ca-4396-a417-426cb017da23" d="M530.69,407.61l1.13,6.65H520.16l-1-6.65h11.5m0.9-.58H518.1l1.12,7.81h13.71L531.6,407h0Z" transform="translate(-226.17 -194.07)"/><polygon class="4436043a-00d3-41e0-8f18-9e08796b985a" points="310.26 220.77 323.97 220.77 322.36 212.96 308.86 212.96 310.26 220.77"/><path class="6f73f5d6-07ca-4396-a417-426cb017da23" d="M547.65,407.61l1.36,6.65H537.34l-1.2-6.65h11.51m0.88-.58H535l1.4,7.81h13.71L548.53,407h0Z" transform="translate(-226.17 -194.07)"/><polygon class="4436043a-00d3-41e0-8f18-9e08796b985a" points="275.31 220.77 289.02 220.77 287.96 212.96 274.47 212.96 275.31 220.77"/><path class="6f73f5d6-07ca-4396-a417-426cb017da23" d="M513.21,407.61l0.89,6.65H502.44l-0.73-6.65h11.5m0.92-.58h-13.5l0.85,7.81h13.71L514.13,407h0Z" transform="translate(-226.17 -194.07)"/><polygon class="4436043a-00d3-41e0-8f18-9e08796b985a" points="241.17 231.53 255.19 231.53 254.67 223.72 240.88 223.72 241.17 231.53"/><path class="6f73f5d6-07ca-4396-a417-426cb017da23" d="M479.85,418.37l0.42,6.65H468.36l-0.27-6.65h11.76m1-.58H467l0.3,7.81h14l-0.52-7.81h0Z" transform="translate(-226.17 -194.07)"/><polygon class="4436043a-00d3-41e0-8f18-9e08796b985a" points="258.75 231.53 272.76 231.53 271.98 223.72 258.19 223.72 258.75 231.53"/><path class="6f73f5d6-07ca-4396-a417-426cb017da23" d="M497.18,418.37l0.65,6.65H485.92l-0.5-6.65h11.76m1-.58H484.36l0.57,7.81h14l-0.79-7.81h0Z" transform="translate(-226.17 -194.07)"/><polygon class="4436043a-00d3-41e0-8f18-9e08796b985a" points="205.46 231.53 219.47 231.53 219.51 223.72 205.72 223.72 205.46 231.53"/><path class="6f73f5d6-07ca-4396-a417-426cb017da23" d="M444.65,418.37l0,6.65H432.69l0.2-6.65h11.76m1-.58H431.89l-0.26,7.81h14l0-7.81h0Z" transform="translate(-226.17 -194.07)"/><polygon class="4436043a-00d3-41e0-8f18-9e08796b985a" points="223.04 231.53 237.06 231.53 236.82 223.72 223.03 223.72 223.04 231.53"/><path class="6f73f5d6-07ca-4396-a417-426cb017da23" d="M462,418.37l0.18,6.65H450.25l0-6.65H462m1-.58H449.2v7.81h14L463,417.79h0Z" transform="translate(-226.17 -194.07)"/><polygon class="4436043a-00d3-41e0-8f18-9e08796b985a" points="276.61 231.53 290.62 231.53 289.56 223.72 275.76 223.72 276.61 231.53"/><path class="6f73f5d6-07ca-4396-a417-426cb017da23" d="M514.78,418.37l0.89,6.65H503.76L503,418.37h11.76m0.95-.58h-13.8l0.85,7.81h14l-1.06-7.81h0Z" transform="translate(-226.17 -194.07)"/><polygon class="4436043a-00d3-41e0-8f18-9e08796b985a" points="278.1 242.07 292.4 242.07 291.33 234.26 277.25 234.26 278.1 242.07"/><path class="6f73f5d6-07ca-4396-a417-426cb017da23" d="M516.54,428.91l0.9,6.65H505.27l-0.74-6.65h12m1-.58H503.42l0.85,7.81h14.3l-1.07-7.81h0Z" transform="translate(-226.17 -194.07)"/><polygon class="4436043a-00d3-41e0-8f18-9e08796b985a" points="296.05 242.07 310.35 242.07 309.01 234.26 294.93 234.26 296.05 242.07"/><path class="6f73f5d6-07ca-4396-a417-426cb017da23" d="M534.23,428.91l1.13,6.65H523.2l-1-6.65h12m0.95-.58H521.09l1.12,7.81h14.3l-1.34-7.81h0Z" transform="translate(-226.17 -194.07)"/><polygon class="4436043a-00d3-41e0-8f18-9e08796b985a" points="314.27 242.07 328.58 242.07 326.96 234.26 312.88 234.26 314.27 242.07"/><path class="6f73f5d6-07ca-4396-a417-426cb017da23" d="M552.2,428.91l1.36,6.65H541.4l-1.21-6.65h12m0.93-.58H539l1.4,7.81h14.31l-1.62-7.81h0Z" transform="translate(-226.17 -194.07)"/><polygon class="4436043a-00d3-41e0-8f18-9e08796b985a" points="150.49 242.07 164.79 242.07 165.66 234.26 151.58 234.26 150.49 242.07"/><path class="6f73f5d6-07ca-4396-a417-426cb017da23" d="M390.72,428.91L390,435.56H377.8l0.91-6.65h12m1.11-.58H377.75l-1.08,7.81H391l0.87-7.81h0Z" transform="translate(-226.17 -194.07)"/><polygon class="4436043a-00d3-41e0-8f18-9e08796b985a" points="132.54 242.07 146.84 242.07 147.98 234.26 133.9 234.26 132.54 242.07"/><path class="6f73f5d6-07ca-4396-a417-426cb017da23" d="M373,428.91l-1,6.65H359.87l1.14-6.65h12m1.13-.58H360.07l-1.36,7.81H373l1.14-7.81h0Z" transform="translate(-226.17 -194.07)"/><polygon class="4436043a-00d3-41e0-8f18-9e08796b985a" points="134.3 231.53 184.02 231.53 184.61 223.72 135.66 223.72 134.3 231.53"/><path class="6f73f5d6-07ca-4396-a417-426cb017da23" d="M409.71,418.37L409.2,425H361.61l1.14-6.65h47m1.07-.58h-49l-1.36,7.81h49.72l0.59-7.81h0Z" transform="translate(-226.17 -194.07)"/><polygon class="4436043a-00d3-41e0-8f18-9e08796b985a" points="294.6 231.53 326.19 231.53 324.58 223.72 293.48 223.72 294.6 231.53"/><path class="6f73f5d6-07ca-4396-a417-426cb017da23" d="M549.84,418.37L551.2,425H521.73l-1-6.65h29.09m0.91-.58h-31.1l1.12,7.81h31.59l-1.61-7.81h0Z" transform="translate(-226.17 -194.07)"/><polygon class="4436043a-00d3-41e0-8f18-9e08796b985a" points="186.94 242.07 273.9 242.07 273.11 234.26 187.48 234.26 186.94 242.07"/><path class="6f73f5d6-07ca-4396-a417-426cb017da23" d="M498.29,428.91l0.66,6.65H414.21l0.44-6.65h83.64m1-.58H413.65l-0.53,7.81h87l-0.79-7.81h0Z" transform="translate(-226.17 -194.07)"/><polygon class="4e996211-c61a-4d12-988a-e1bdf36db3ac" points="261.44 264.3 199.41 264.3 200.18 246.2 260.11 246.2 261.44 264.3"/><path class="6f73f5d6-07ca-4396-a417-426cb017da23" d="M485.25,440.86l1.21,16.93H426.71l0.68-16.93h57.86m1-.58H426.34l-0.76,18.09h62l-1.33-18.09h0Z" transform="translate(-226.17 -194.07)"/><path class="a5318542-3793-472a-975a-8b756da773d8" d="M379.87,381.17H358.39a1.22,1.22,0,0,0-1.23.67l-0.68,3.44c-0.07.37,0.37,0.67,1,.67h21.7a1.16,1.16,0,0,0,1.21-.67l0.5-3.44C380.93,381.47,380.48,381.17,379.87,381.17Z" transform="translate(-226.17 -194.07)"/><path class="6f73f5d6-07ca-4396-a417-426cb017da23" d="M379.79,381.75c0.08,0,.14,0,0.14.09l-0.51,3.44a0.15,0.15,0,0,1-.17.09H357.57c-0.08,0-.14,0-0.13-0.09l0.67-3.44a0.17,0.17,0,0,1,.17-0.09h21.51m0.08-.58H358.39a1.22,1.22,0,0,0-1.23.67l-0.68,3.44c-0.07.37,0.37,0.67,1,.67h21.7a1.16,1.16,0,0,0,1.21-.67l0.5-3.44c0.05-.37-0.39-0.67-1-0.67h0Z" transform="translate(-226.17 -194.07)"/><path class="a5318542-3793-472a-975a-8b756da773d8" d="M557.75,381.17H536.28c-0.61,0-1,.3-1,0.67l0.65,3.44a1.22,1.22,0,0,0,1.24.67h21.7c0.62,0,1-.3,1-0.67L559,381.84A1.28,1.28,0,0,0,557.75,381.17Z" transform="translate(-226.17 -194.07)"/><path class="6f73f5d6-07ca-4396-a417-426cb017da23" d="M557.89,381.75a0.18,0.18,0,0,1,.18.09l0.82,3.44c0,0.05,0,.09-0.13.09H537.08a0.17,0.17,0,0,1-.17-0.09l-0.66-3.44c0-.05.05-0.09,0.14-0.09h21.5m-0.14-.58H536.28c-0.61,0-1,.3-1,0.67l0.65,3.44a1.22,1.22,0,0,0,1.24.67h21.7c0.62,0,1-.3,1-0.67L559,381.84a1.28,1.28,0,0,0-1.27-.67h0Z" transform="translate(-226.17 -194.07)"/><path class="4436043a-00d3-41e0-8f18-9e08796b985a" d="M379.87,381.17H358.39a1.22,1.22,0,0,0-1.23.67l-0.34,1.72h23.8l0.25-1.72C380.93,381.47,380.48,381.17,379.87,381.17Z" transform="translate(-226.17 -194.07)"/><path class="6f73f5d6-07ca-4396-a417-426cb017da23" d="M379.79,381.75c0.08,0,.14,0,0.14.09L379.75,383H357.89l0.22-1.14a0.17,0.17,0,0,1,.17-0.09h21.51m0.08-.58H358.39a1.22,1.22,0,0,0-1.23.67l-0.34,1.72h23.8l0.25-1.72c0.05-.37-0.39-0.67-1-0.67h0Z" transform="translate(-226.17 -194.07)"/><path class="4436043a-00d3-41e0-8f18-9e08796b985a" d="M557.75,381.17H536.28c-0.61,0-1,.3-1,0.67l0.33,1.72h23.8L559,381.84A1.28,1.28,0,0,0,557.75,381.17Z" transform="translate(-226.17 -194.07)"/><path class="6f73f5d6-07ca-4396-a417-426cb017da23" d="M557.89,381.75a0.18,0.18,0,0,1,.18.09l0.27,1.14H536.47l-0.22-1.14c0-.05.05-0.09,0.14-0.09h21.5m-0.14-.58H536.28c-0.61,0-1,.3-1,0.67l0.33,1.72h23.8L559,381.84a1.28,1.28,0,0,0-1.26-.67h0Z" transform="translate(-226.17 -194.07)"/><path class="4436043a-00d3-41e0-8f18-9e08796b985a" d="M460.27,251.13a3.42,3.42,0,0,1-3.42,3.42h0a3.42,3.42,0,0,1-3.41-3.42h0a3.41,3.41,0,0,1,3.41-3.42h0a3.42,3.42,0,0,1,3.42,3.42h0Z" transform="translate(-226.17 -194.07)"/><path class="6f73f5d6-07ca-4396-a417-426cb017da23" d="M456.85,248.67a2.46,2.46,0,1,1-2.47,2.46,2.47,2.47,0,0,1,2.47-2.46m0-1a3.42,3.42,0,1,0,3.42,3.42,3.41,3.41,0,0,0-3.42-3.42h0Z" transform="translate(-226.17 -194.07)"/><rect class="4436043a-00d3-41e0-8f18-9e08796b985a" x="145.39" y="70.95" width="73.73" height="3.69"/><rect class="4436043a-00d3-41e0-8f18-9e08796b985a" x="145.39" y="82.4" width="73.73" height="3.69"/><rect class="4436043a-00d3-41e0-8f18-9e08796b985a" x="145.39" y="94.05" width="73.73" height="3.69"/><rect class="4436043a-00d3-41e0-8f18-9e08796b985a" x="145.39" y="106.77" width="73.73" height="3.69"/><rect class="4436043a-00d3-41e0-8f18-9e08796b985a" x="145.39" y="117.59" width="73.73" height="3.7"/><rect class="4436043a-00d3-41e0-8f18-9e08796b985a" x="145.39" y="129.24" width="73.73" height="3.69"/><rect class="4436043a-00d3-41e0-8f18-9e08796b985a" x="145.39" y="141.96" width="73.73" height="3.69"/><rect class="4436043a-00d3-41e0-8f18-9e08796b985a" x="145.39" y="154.19" width="73.73" height="3.69"/><rect class="4436043a-00d3-41e0-8f18-9e08796b985a" x="145.39" y="166.91" width="73.73" height="3.69"/><rect class="4436043a-00d3-41e0-8f18-9e08796b985a" x="237.21" y="70.95" width="73.73" height="3.69"/><rect class="4436043a-00d3-41e0-8f18-9e08796b985a" x="237.21" y="82.4" width="73.73" height="3.69"/><rect class="4436043a-00d3-41e0-8f18-9e08796b985a" x="237.21" y="94.05" width="73.73" height="3.69"/><rect class="4436043a-00d3-41e0-8f18-9e08796b985a" x="237.21" y="106.77" width="73.73" height="3.69"/><rect class="4436043a-00d3-41e0-8f18-9e08796b985a" x="237.21" y="117.59" width="73.73" height="3.7"/><rect class="4436043a-00d3-41e0-8f18-9e08796b985a" x="237.21" y="129.24" width="73.73" height="3.69"/><rect class="4436043a-00d3-41e0-8f18-9e08796b985a" x="237.21" y="141.96" width="73.73" height="3.69"/><rect class="4436043a-00d3-41e0-8f18-9e08796b985a" x="237.21" y="154.19" width="73.73" height="3.69"/><rect class="4436043a-00d3-41e0-8f18-9e08796b985a" x="237.21" y="166.91" width="73.73" height="3.69"/><path class="4cbff731-9cc3-4f9f-be27-7968860906f3" d="M289.26,375.68A22.28,22.28,0,1,0,305,382.2,22.2,22.2,0,0,0,289.26,375.68Zm10.24,32.52a14.49,14.49,0,1,1,0-20.49A14.49,14.49,0,0,1,299.5,408.19Z" transform="translate(-226.17 -194.07)"/><path class="c14d31ab-e999-427f-b61e-e5fe0f6c0d3a" d="M279,387.71a14.49,14.49,0,1,0,20.48,0A14.49,14.49,0,0,0,279,387.71Zm17.58,17.58a10.38,10.38,0,1,1,0-14.68A10.38,10.38,0,0,1,296.6,405.29Z" transform="translate(-226.17 -194.07)"/><path class="4cbff731-9cc3-4f9f-be27-7968860906f3" d="M321.94,411.26l2.57-10-7-1.8a28.7,28.7,0,0,0,0-3.6l6.84-2.07-3-9.88-6.48,2a27.88,27.88,0,0,0-2.26-3.95l4.63-4.63-7.3-7.3-4.63,4.63a27.93,27.93,0,0,0-3.95-2.26l2-6.48-9.88-3-2.07,6.84c-0.7-.05-1.39,0-2.09,0v6a22.27,22.27,0,1,1,0,44.55v6c0.51,0,1,0,1.51,0l1.8,7,10-2.57-1.76-6.85a28.25,28.25,0,0,0,4.47-2.5l4.82,4.82,7.3-7.3L312.58,414a27.89,27.89,0,0,0,2.5-4.47Z" transform="translate(-226.17 -194.07)"/><path class="cb75b54e-5161-492d-8c59-af487b996a0f" d="M289.26,420.22a22.27,22.27,0,0,1,0-44.55h0v-6h0c-0.5,0-1,0-1.51,0l-1.8-7-10,2.57,1.76,6.86a27.83,27.83,0,0,0-4.47,2.5l-4.82-4.82-7.3,7.3,4.82,4.82a28,28,0,0,0-2.51,4.47l-6.85-1.76-2.57,10,7,1.8a27.87,27.87,0,0,0,0,3.6l-6.84,2.07,3,9.88,6.48-2a28,28,0,0,0,2.26,3.95l-4.63,4.63,7.3,7.3,4.63-4.63a28.35,28.35,0,0,0,3.95,2.26l-2,6.48,9.88,3,2.07-6.84c0.69,0.05,1.39,0,2.09,0h0v-6h0Z" transform="translate(-226.17 -194.07)"/><polygon class="4436043a-00d3-41e0-8f18-9e08796b985a" points="373.37 166.35 373.37 159.83 379.89 159.83 379.89 158.33 373.37 158.33 373.37 151.81 371.87 151.81 371.87 158.33 365.36 158.33 365.36 159.83 371.87 159.83 371.87 166.35 373.37 166.35"/><polygon class="4436043a-00d3-41e0-8f18-9e08796b985a" points="36.21 143.13 40.82 138.52 45.43 143.13 46.49 142.07 41.88 137.47 46.49 132.86 45.43 131.8 40.82 136.41 36.21 131.8 35.15 132.86 39.76 137.47 35.15 142.07 36.21 143.13"/><path class="4436043a-00d3-41e0-8f18-9e08796b985a" d="M305.79,371.27c-0.18,0-.34,0-0.51.05a24,24,0,0,0,.51-4.9,23.09,23.09,0,0,0-22.89-23.29,22.25,22.25,0,0,0-9.23,2,23,23,0,0,0-6.11,4,20.82,20.82,0,0,0-7.55-1.43,21.36,21.36,0,0,0-21.14,20,16.53,16.53,0,0,0,2,32.51,0.3,0.3,0,0,0,0,.08h66l0-.11A14.53,14.53,0,0,0,305.79,371.27Z" transform="translate(-226.17 -194.07)"/><path class="e65fc4e0-0a4a-443e-bcdd-fa97dbe59848" d="M564.52,238.25H460.11a4,4,0,0,0-4,4v88.61a4,4,0,0,0,4,4H564.52a4,4,0,0,0,4-4V242.27A4,4,0,0,0,564.52,238.25Z" transform="translate(-226.17 -194.07)"/><path class="bac6f540-c354-4bcf-b263-261b9ae1ef3f" d="M451.48,324.77a4,4,0,0,0,4,4H559.91a4,4,0,0,0,4-4V242.28H451.48v82.49Z" transform="translate(-226.17 -194.07)"/><path class="4cbff731-9cc3-4f9f-be27-7968860906f3" d="M559.91,232.14H455.5a4,4,0,0,0-4,4v6.12H563.92v-6.12A4,4,0,0,0,559.91,232.14Z" transform="translate(-226.17 -194.07)"/><path class="4436043a-00d3-41e0-8f18-9e08796b985a" d="M468.3,239.47h0a1.85,1.85,0,0,1-1.86-1.85h0a1.86,1.86,0,0,1,1.86-1.86h0a1.86,1.86,0,0,1,1.86,1.86h0A1.85,1.85,0,0,1,468.3,239.47Z" transform="translate(-226.17 -194.07)"/><path class="4436043a-00d3-41e0-8f18-9e08796b985a" d="M462.38,239.47h0a1.86,1.86,0,0,1-1.86-1.85h0a1.86,1.86,0,0,1,1.86-1.86h0a1.86,1.86,0,0,1,1.85,1.86h0A1.85,1.85,0,0,1,462.38,239.47Z" transform="translate(-226.17 -194.07)"/><path class="4436043a-00d3-41e0-8f18-9e08796b985a" d="M456.07,239.47h0a1.85,1.85,0,0,1-1.85-1.85h0a1.86,1.86,0,0,1,1.85-1.86h0a1.86,1.86,0,0,1,1.86,1.86h0A1.85,1.85,0,0,1,456.07,239.47Z" transform="translate(-226.17 -194.07)"/><polygon class="4436043a-00d3-41e0-8f18-9e08796b985a" points="331.38 40.74 249.07 40.74 249.07 40.74 249.07 46.34 331.38 46.34 331.38 40.74"/><rect class="4436043a-00d3-41e0-8f18-9e08796b985a" x="258.68" y="56.8" width="71.67" height="3.39"/><rect class="4436043a-00d3-41e0-8f18-9e08796b985a" x="258.68" y="67.3" width="71.67" height="3.39"/><rect class="4436043a-00d3-41e0-8f18-9e08796b985a" x="258.68" y="77.99" width="71.67" height="3.39"/><rect class="4436043a-00d3-41e0-8f18-9e08796b985a" x="258.68" y="89.65" width="71.67" height="3.39"/><rect class="4436043a-00d3-41e0-8f18-9e08796b985a" x="258.68" y="99.58" width="71.67" height="3.39"/><rect class="4436043a-00d3-41e0-8f18-9e08796b985a" x="258.68" y="110.27" width="71.67" height="3.38"/><rect class="4436043a-00d3-41e0-8f18-9e08796b985a" x="258.68" y="121.94" width="71.67" height="3.38"/><rect class="4436043a-00d3-41e0-8f18-9e08796b985a" x="229.77" y="56.27" width="20.98" height="20.98"/><polygon class="cb75b54e-5161-492d-8c59-af487b996a0f" points="250.75 56.27 250.51 56.27 240.26 66.52 230.01 56.27 229.77 56.27 229.77 56.5 240.02 66.75 229.77 77 229.77 77.24 230.01 77.24 240.26 66.99 250.51 77.24 250.75 77.24 250.75 77 240.5 66.75 250.75 56.5 250.75 56.27"/><rect class="4436043a-00d3-41e0-8f18-9e08796b985a" x="229.55" y="80.28" width="20.98" height="20.98"/><polygon class="cb75b54e-5161-492d-8c59-af487b996a0f" points="250.52 80.28 250.28 80.28 240.03 90.53 229.78 80.28 229.55 80.28 229.55 80.51 239.8 90.76 229.55 101.01 229.55 101.25 229.78 101.25 240.03 91 250.28 101.25 250.52 101.25 250.52 101.01 240.27 90.76 250.52 80.51 250.52 80.28"/><rect class="4436043a-00d3-41e0-8f18-9e08796b985a" x="229.77" y="104.34" width="20.98" height="20.98"/><polygon class="cb75b54e-5161-492d-8c59-af487b996a0f" points="250.75 104.34 250.51 104.34 240.26 114.59 230.01 104.34 229.77 104.34 229.77 104.58 240.02 114.83 229.77 125.08 229.77 125.32 230.01 125.32 240.26 115.07 250.51 125.32 250.75 125.32 250.75 125.08 240.5 114.83 250.75 104.58 250.75 104.34"/><path class="e65fc4e0-0a4a-443e-bcdd-fa97dbe59848" d="M402.94,303.81H292.74a4.24,4.24,0,0,0-4.24,4.24v93.52a4.24,4.24,0,0,0,4.24,4.24h110.2a4.24,4.24,0,0,0,4.24-4.24V308.05A4.24,4.24,0,0,0,402.94,303.81Z" transform="translate(-226.17 -194.07)"/><path class="4436043a-00d3-41e0-8f18-9e08796b985a" d="M403.09,395.92a4.24,4.24,0,0,1-4.24,4.24H288.65a4.24,4.24,0,0,1-4.24-4.24V308.86H403.09v87.06Z" transform="translate(-226.17 -194.07)"/><path class="4cbff731-9cc3-4f9f-be27-7968860906f3" d="M398.85,298.16H288.65a4.24,4.24,0,0,0-4.24,4.24v6.46H403.09V302.4A4.24,4.24,0,0,0,398.85,298.16Z" transform="translate(-226.17 -194.07)"/><path class="4436043a-00d3-41e0-8f18-9e08796b985a" d="M302.16,305.9h0a2,2,0,0,1-2-2h0a2,2,0,0,1,2-2h0a2,2,0,0,1,2,2h0A2,2,0,0,1,302.16,305.9Z" transform="translate(-226.17 -194.07)"/><path class="4436043a-00d3-41e0-8f18-9e08796b985a" d="M295.91,305.9h0a2,2,0,0,1-2-2h0a2,2,0,0,1,2-2h0a2,2,0,0,1,2,2h0A2,2,0,0,1,295.91,305.9Z" transform="translate(-226.17 -194.07)"/><path class="4436043a-00d3-41e0-8f18-9e08796b985a" d="M289.26,305.9h0a2,2,0,0,1-2-2h0a2,2,0,0,1,2-2h0a2,2,0,0,1,2,2h0A2,2,0,0,1,289.26,305.9Z" transform="translate(-226.17 -194.07)"/><rect class="d13a5ffa-598a-4731-95fe-25f54f166e97" x="289.26" y="321.38" width="66.37" height="3.28" transform="translate(418.72 451.96) rotate(180)"/><rect class="d13a5ffa-598a-4731-95fe-25f54f166e97" x="289.26" y="331.54" width="66.37" height="3.27" transform="translate(418.72 472.28) rotate(180)"/><rect class="d13a5ffa-598a-4731-95fe-25f54f166e97" x="289.26" y="341.87" width="66.37" height="3.28" transform="translate(418.72 492.94) rotate(180)"/><rect class="d13a5ffa-598a-4731-95fe-25f54f166e97" x="289.26" y="353.15" width="66.37" height="3.28" transform="translate(418.72 515.51) rotate(180)"/><rect class="d13a5ffa-598a-4731-95fe-25f54f166e97" x="289.26" y="362.75" width="66.37" height="3.28" transform="translate(418.72 534.71) rotate(180)"/><rect class="d13a5ffa-598a-4731-95fe-25f54f166e97" x="289.26" y="373.09" width="66.37" height="3.27" transform="translate(418.72 555.39) rotate(180)"/><rect class="d13a5ffa-598a-4731-95fe-25f54f166e97" x="289.26" y="384.37" width="66.37" height="3.27" transform="translate(418.72 577.95) rotate(180)"/><rect class="bac6f540-c354-4bcf-b263-261b9ae1ef3f" x="365.3" y="374.54" width="29.9" height="3.28" transform="translate(534.33 558.29) rotate(180)"/><rect class="bac6f540-c354-4bcf-b263-261b9ae1ef3f" x="365.3" y="384.7" width="29.9" height="3.27" transform="translate(534.33 578.61) rotate(180)"/><rect class="4cbff731-9cc3-4f9f-be27-7968860906f3" x="364.04" y="321.05" width="32.41" height="46.15" transform="translate(534.32 494.17) rotate(180)"/><polygon class="4436043a-00d3-41e0-8f18-9e08796b985a" points="137.87 126.97 138.24 126.97 154.07 149.52 169.91 126.97 170.28 126.97 170.28 127.5 154.44 150.05 170.28 172.6 170.28 173.12 169.91 173.12 154.07 150.57 138.24 173.12 137.87 173.12 137.87 172.6 153.71 150.05 137.87 127.5 137.87 126.97"/><path class="e65fc4e0-0a4a-443e-bcdd-fa97dbe59848" d="M594.85,200.08h-80a12.7,12.7,0,0,0-12.7,12.7v80a12.7,12.7,0,0,0,12.7,12.7h80a12.7,12.7,0,0,0,12.7-12.7v-80A12.7,12.7,0,0,0,594.85,200.08Z" transform="translate(-226.17 -194.07)"/><rect class="a28cab8e-82d0-46be-a570-71da601026c4" x="271.09" width="105.39" height="105.39" rx="12.7" ry="12.7"/><path class="df5fa93b-3306-4ecb-9ed0-4f6c68b2221b" d="M510,194.07a12.7,12.7,0,0,0-12.7,12.7v80a12.7,12.7,0,0,0,12.7,12.7h40V194.07H510Z" transform="translate(-226.17 -194.07)"/><rect class="4cbff731-9cc3-4f9f-be27-7968860906f3" x="271.09" y="33.87" width="105.39" height="45.87"/><circle class="d13a5ffa-598a-4731-95fe-25f54f166e97" cx="287.04" cy="15.95" r="4.34"/><circle class="4dafb517-b731-475e-8233-1415d1591ed0" cx="324.87" cy="53.77" r="34.71"/><circle class="4436043a-00d3-41e0-8f18-9e08796b985a" cx="323.79" cy="52.7" r="34.71"/><circle class="a5318542-3793-472a-975a-8b756da773d8" cx="323.79" cy="52.66" r="31.68"/><circle class="4436043a-00d3-41e0-8f18-9e08796b985a" cx="323.38" cy="52.66" r="28.33"/><circle class="4e996211-c61a-4d12-988a-e1bdf36db3ac" cx="323.38" cy="52.66" r="27.59"/><path class="fb86478c-5612-4ef9-8031-f8077c43eed8" d="M550,212.06v69.43A34.71,34.71,0,1,0,550,212.06Z" transform="translate(-226.17 -194.07)"/><circle class="dae06a98-5ea9-49d2-9936-40126461e8f1" cx="323.38" cy="52.66" r="25.59"/><circle class="d13a5ffa-598a-4731-95fe-25f54f166e97" cx="323.38" cy="52.66" r="24.65"/><circle class="dae06a98-5ea9-49d2-9936-40126461e8f1" cx="323.38" cy="52.66" r="10.4"/><circle class="f511600b-ec5c-424c-a731-d659e54f54b7" cx="323.38" cy="52.66" r="5.98"/><path class="3acd2b8d-ab57-44ee-853e-15d20fc00680" d="M562.42,229.61a24.66,24.66,0,0,0-.37-4.09,24.55,24.55,0,0,0-36.78,25.3A24.61,24.61,0,0,0,562.42,229.61Z" transform="translate(-226.17 -194.07)"/><circle class="c3db3227-0131-41c0-9c43-7d43de0a51d9" cx="314" cy="40.31" r="5.52"/></g></g></g></svg>