<svg xmlns="http://www.w3.org/2000/svg" viewBox="0 0 480.23 305"><defs><style>.e76f23f0-6d7b-40bb-bb5a-f889dd5bc72e{isolation:isolate;}.\36 22a3b51-0627-427c-a55f-79c3b6079ab5,.c46958a1-10f1-480a-91c7-8e0a6af48636{opacity:0.1;}.\31 f22b9d8-3c21-4d88-9f6e-7e75e6510874,.\39 5b40da9-38d3-44d1-ad87-6405276791aa,.a18cd1ae-afa2-49e6-a5c2-644ef86fe830,.f1a71c53-0c9f-4a3e-b887-4591848fb134,.fb6095da-0b65-4b33-8449-8a6806e3728f{mix-blend-mode:multiply;}.a18cd1ae-afa2-49e6-a5c2-644ef86fe830,.a2e4107a-959a-4906-867e-ebc78dc9d07f,.f1a71c53-0c9f-4a3e-b887-4591848fb134,.fb6095da-0b65-4b33-8449-8a6806e3728f{fill:#9bd7e6;}.f1a71c53-0c9f-4a3e-b887-4591848fb134{opacity:0.5;}.\30 1376691-798b-4c48-be01-12fe69b42c3e,.a18cd1ae-afa2-49e6-a5c2-644ef86fe830{opacity:0.25;}.\39 5b40da9-38d3-44d1-ad87-6405276791aa{fill:#e6e6e6;}.f4d85727-b277-4578-a819-d61fc323258e{fill:#ff5f19;}.\34 f10bf6e-58a0-4823-83f2-9a58686e936a{fill:#2d556b;}.\30 1376691-798b-4c48-be01-12fe69b42c3e,.\36 22a3b51-0627-427c-a55f-79c3b6079ab5,.b292fc27-b164-4fc1-a9cb-7d5805fe84bf{fill:#fff;}.e6427233-dcbf-46b2-8c3e-6f96fbfa6611{fill:#ccc;}.aa76e4e7-f5fa-4d86-8ac8-96037f85b91e{fill:#224050;}.cb609f89-b5de-46f5-a687-c78587ea106c{fill:#577789;}.a2d848b5-bbf2-4316-b7e3-d211134ca796{fill:#313c4b;}.f2a37f4c-3666-40b7-8be6-6981b66f04a6{fill:#677383;}.\39 461c487-097a-4ba4-a778-b789885599b2{fill:#576b7f;}.\36 448b239-0e46-4b89-be12-d3d7afac4924{fill:#8199a6;}</style></defs><title>top-banner_img_home</title><g class="e76f23f0-6d7b-40bb-bb5a-f889dd5bc72e"><g id="d15e41f1-6865-4850-bd35-4f7a3bfc000a" data-name="Ebene 1"><g class="c46958a1-10f1-480a-91c7-8e0a6af48636"><g class="1f22b9d8-3c21-4d88-9f6e-7e75e6510874"><rect class="a2e4107a-959a-4906-867e-ebc78dc9d07f" x="39.4" width="41.92" height="4.47"/><rect class="a2e4107a-959a-4906-867e-ebc78dc9d07f" x="39.4" y="14.11" width="111.96" height="4.47"/><rect class="a2e4107a-959a-4906-867e-ebc78dc9d07f" x="39.4" y="29.52" width="111.96" height="4.48"/><rect class="a2e4107a-959a-4906-867e-ebc78dc9d07f" x="39.4" y="43.39" width="111.96" height="4.47"/><rect class="a2e4107a-959a-4906-867e-ebc78dc9d07f" x="39.4" y="57.5" width="111.96" height="4.47"/><rect class="a2e4107a-959a-4906-867e-ebc78dc9d07f" x="39.4" y="72.91" width="111.96" height="4.48"/><rect class="a2e4107a-959a-4906-867e-ebc78dc9d07f" x="39.4" y="86.02" width="111.96" height="4.48"/><rect class="a2e4107a-959a-4906-867e-ebc78dc9d07f" x="39.4" y="100.14" width="111.96" height="4.47"/><rect class="a2e4107a-959a-4906-867e-ebc78dc9d07f" x="39.4" y="115.55" width="111.96" height="4.47"/></g><g class="1f22b9d8-3c21-4d88-9f6e-7e75e6510874"><path class="f1a71c53-0c9f-4a3e-b887-4591848fb134" d="M546.08,325.64A53.38,53.38,0,0,1,599.46,379h36.65A90,90,0,1,0,456,379h36.66A53.38,53.38,0,0,1,546.08,325.64Z" transform="translate(-155.88 -164.05)"/><path class="a18cd1ae-afa2-49e6-a5c2-644ef86fe830" d="M492.71,379H456a90,90,0,0,0,90,90V432.4A53.38,53.38,0,0,1,492.71,379Z" transform="translate(-155.88 -164.05)"/><path class="f1a71c53-0c9f-4a3e-b887-4591848fb134" d="M546.08,407.66v19.67a48.3,48.3,0,0,0,48.3-48.3H574.72A28.64,28.64,0,0,1,546.08,407.66Z" transform="translate(-155.88 -164.05)"/><path class="fb6095da-0b65-4b33-8449-8a6806e3728f" d="M546.08,330.72v19.67A28.64,28.64,0,0,1,574.72,379h19.66A48.3,48.3,0,0,0,546.08,330.72Z" transform="translate(-155.88 -164.05)"/></g><path class="95b40da9-38d3-44d1-ad87-6405276791aa" d="M542,238H295.35a5.28,5.28,0,0,0-5.28,5.28v129.8a5.28,5.28,0,0,0,5.28,5.28H542a5.28,5.28,0,0,0,5.28-5.28V243.27A5.28,5.28,0,0,0,542,238Z" transform="translate(-155.88 -164.05)"/><path class="f4d85727-b277-4578-a819-d61fc323258e" d="M539.86,363.61a5.28,5.28,0,0,1-5.28,5.28H287.93a5.28,5.28,0,0,1-5.29-5.28V241.86H539.86V363.61Z" transform="translate(-155.88 -164.05)"/><path class="4f10bf6e-58a0-4823-83f2-9a58686e936a" d="M534.58,228.53H287.93a5.28,5.28,0,0,0-5.28,5.28v8H539.86v-8A5.28,5.28,0,0,0,534.58,228.53Z" transform="translate(-155.88 -164.05)"/><path class="b292fc27-b164-4fc1-a9cb-7d5805fe84bf" d="M304.76,238.17h0a2.44,2.44,0,0,1-2.44-2.44h0a2.44,2.44,0,0,1,2.44-2.44h0a2.44,2.44,0,0,1,2.44,2.44h0A2.44,2.44,0,0,1,304.76,238.17Z" transform="translate(-155.88 -164.05)"/><path class="b292fc27-b164-4fc1-a9cb-7d5805fe84bf" d="M297,238.17h0a2.44,2.44,0,0,1-2.44-2.44h0a2.44,2.44,0,0,1,2.44-2.44h0a2.44,2.44,0,0,1,2.44,2.44h0A2.44,2.44,0,0,1,297,238.17Z" transform="translate(-155.88 -164.05)"/><path class="b292fc27-b164-4fc1-a9cb-7d5805fe84bf" d="M288.69,238.17h0a2.44,2.44,0,0,1-2.44-2.44h0a2.44,2.44,0,0,1,2.44-2.44h0a2.44,2.44,0,0,1,2.44,2.44h0A2.44,2.44,0,0,1,288.69,238.17Z" transform="translate(-155.88 -164.05)"/><rect class="b292fc27-b164-4fc1-a9cb-7d5805fe84bf" x="143.32" y="88.24" width="32.95" height="3.23"/><rect class="b292fc27-b164-4fc1-a9cb-7d5805fe84bf" x="179.12" y="88.24" width="16.74" height="3.23"/><rect class="b292fc27-b164-4fc1-a9cb-7d5805fe84bf" x="189.86" y="153.4" width="16.73" height="3.23"/><rect class="b292fc27-b164-4fc1-a9cb-7d5805fe84bf" x="222.32" y="174.25" width="16.73" height="3.23"/><rect class="b292fc27-b164-4fc1-a9cb-7d5805fe84bf" x="191.76" y="142.97" width="28.18" height="3.23"/><rect class="4f10bf6e-58a0-4823-83f2-9a58686e936a" x="191.76" y="174.25" width="28.18" height="3.23"/><rect class="4f10bf6e-58a0-4823-83f2-9a58686e936a" x="143.32" y="98.67" width="32.95" height="3.23"/><rect class="b292fc27-b164-4fc1-a9cb-7d5805fe84bf" x="204.16" y="109.24" width="32.95" height="3.23"/><rect class="b292fc27-b164-4fc1-a9cb-7d5805fe84bf" x="143.32" y="109.24" width="58.33" height="3.23"/><rect class="4f10bf6e-58a0-4823-83f2-9a58686e936a" x="181.98" y="129.98" width="58.33" height="3.23"/><rect class="b292fc27-b164-4fc1-a9cb-7d5805fe84bf" x="143.32" y="119.52" width="37.95" height="3.23"/><rect class="b292fc27-b164-4fc1-a9cb-7d5805fe84bf" x="143.32" y="129.98" width="32.95" height="3.23"/><rect class="b292fc27-b164-4fc1-a9cb-7d5805fe84bf" x="310.71" y="307.02" width="32.95" height="3.23" transform="translate(498.49 453.23) rotate(180)"/><rect class="4f10bf6e-58a0-4823-83f2-9a58686e936a" x="310.71" y="317.45" width="32.95" height="3.23" transform="translate(498.49 474.08) rotate(180)"/><rect class="b292fc27-b164-4fc1-a9cb-7d5805fe84bf" x="310.71" y="328.03" width="17.49" height="3.23" transform="translate(483.03 495.24) rotate(180)"/><rect class="b292fc27-b164-4fc1-a9cb-7d5805fe84bf" x="310.71" y="338.3" width="32.95" height="3.23" transform="translate(498.49 515.79) rotate(180)"/><rect class="b292fc27-b164-4fc1-a9cb-7d5805fe84bf" x="310.71" y="348.77" width="32.95" height="3.23" transform="translate(498.49 536.71) rotate(180)"/><rect class="b292fc27-b164-4fc1-a9cb-7d5805fe84bf" x="275.46" y="185.26" width="32.95" height="3.23"/><rect class="4f10bf6e-58a0-4823-83f2-9a58686e936a" x="311.26" y="185.26" width="16.74" height="3.23"/><rect class="b292fc27-b164-4fc1-a9cb-7d5805fe84bf" x="310.05" y="120.11" width="16.74" height="3.23"/><rect class="b292fc27-b164-4fc1-a9cb-7d5805fe84bf" x="342.51" y="99.25" width="16.73" height="3.23"/><rect class="4f10bf6e-58a0-4823-83f2-9a58686e936a" x="311.95" y="130.53" width="28.18" height="3.23"/><rect class="b292fc27-b164-4fc1-a9cb-7d5805fe84bf" x="311.95" y="99.25" width="28.18" height="3.23"/><rect class="b292fc27-b164-4fc1-a9cb-7d5805fe84bf" x="275.46" y="174.84" width="32.95" height="3.23"/><rect class="b292fc27-b164-4fc1-a9cb-7d5805fe84bf" x="336.3" y="164.26" width="32.95" height="3.23"/><rect class="b292fc27-b164-4fc1-a9cb-7d5805fe84bf" x="275.46" y="164.26" width="58.33" height="3.23"/><rect class="b292fc27-b164-4fc1-a9cb-7d5805fe84bf" x="314.13" y="143.52" width="58.33" height="3.23"/><rect class="4f10bf6e-58a0-4823-83f2-9a58686e936a" x="275.46" y="153.98" width="37.95" height="3.23"/><rect class="b292fc27-b164-4fc1-a9cb-7d5805fe84bf" x="275.46" y="143.52" width="32.95" height="3.23"/><rect class="b292fc27-b164-4fc1-a9cb-7d5805fe84bf" x="430.9" y="294.59" width="32.95" height="3.23" transform="translate(738.87 428.35) rotate(180)"/><rect class="b292fc27-b164-4fc1-a9cb-7d5805fe84bf" x="430.9" y="284.16" width="32.95" height="3.23" transform="translate(738.87 407.5) rotate(180)"/><rect class="4f10bf6e-58a0-4823-83f2-9a58686e936a" x="430.9" y="273.58" width="17.49" height="3.23" transform="translate(723.41 386.34) rotate(180)"/><rect class="b292fc27-b164-4fc1-a9cb-7d5805fe84bf" x="430.9" y="263.31" width="32.95" height="3.23" transform="translate(738.87 365.79) rotate(180)"/><rect class="b292fc27-b164-4fc1-a9cb-7d5805fe84bf" x="430.9" y="252.84" width="32.95" height="3.23" transform="translate(738.87 344.86) rotate(180)"/><polygon class="b292fc27-b164-4fc1-a9cb-7d5805fe84bf" points="198.42 37.25 198.42 30.31 205.36 30.31 205.36 28.72 198.42 28.72 198.42 21.79 196.83 21.79 196.83 28.72 189.9 28.72 189.9 30.31 196.83 30.31 196.83 37.25 198.42 37.25"/><polygon class="b292fc27-b164-4fc1-a9cb-7d5805fe84bf" points="440.91 268.65 445.82 263.75 450.72 268.65 451.84 267.52 446.94 262.62 451.84 257.72 450.72 256.59 445.82 261.5 440.91 256.59 439.79 257.72 444.69 262.62 439.79 267.52 440.91 268.65"/><rect class="b292fc27-b164-4fc1-a9cb-7d5805fe84bf" x="224.46" y="228.55" width="6.21" height="6.21"/><rect class="b292fc27-b164-4fc1-a9cb-7d5805fe84bf" x="235.73" y="228.65" width="6.21" height="6.21"/><rect class="b292fc27-b164-4fc1-a9cb-7d5805fe84bf" x="213.78" y="228.65" width="6.21" height="6.21"/><rect class="e6427233-dcbf-46b2-8c3e-6f96fbfa6611" x="304.96" y="93.98" width="17.56" height="17.31"/><rect class="e6427233-dcbf-46b2-8c3e-6f96fbfa6611" x="328.69" y="93.98" width="17.56" height="17.31"/><rect class="e6427233-dcbf-46b2-8c3e-6f96fbfa6611" x="353.16" y="93.98" width="17.57" height="17.31"/><rect class="e6427233-dcbf-46b2-8c3e-6f96fbfa6611" x="376.41" y="93.98" width="17.57" height="17.31"/><path class="aa76e4e7-f5fa-4d86-8ac8-96037f85b91e" d="M297.29,205.23a29.57,29.57,0,1,0,20.9,8.66A29.47,29.47,0,0,0,297.29,205.23Zm13.59,43.16a19.23,19.23,0,1,1,0-27.19A19.23,19.23,0,0,1,310.89,248.39Z" transform="translate(-155.88 -164.05)"/><path class="4f10bf6e-58a0-4823-83f2-9a58686e936a" d="M283.7,221.19a19.23,19.23,0,1,0,27.19,0A19.23,19.23,0,0,0,283.7,221.19ZM307,244.53a13.77,13.77,0,1,1,0-19.48A13.77,13.77,0,0,1,307,244.53Z" transform="translate(-155.88 -164.05)"/><path class="4f10bf6e-58a0-4823-83f2-9a58686e936a" d="M340.67,252.46l3.41-13.27-9.29-2.39a38.48,38.48,0,0,0,0-4.78l9.07-2.74-4-13.11-8.6,2.6a36.85,36.85,0,0,0-3-5.24l6.14-6.15-9.69-9.69-6.14,6.14a36.87,36.87,0,0,0-5.24-3l2.6-8.61-13.12-4-2.74,9.07c-0.92-.07-1.85,0-2.77,0v7.91a29.56,29.56,0,1,1,0,59.13v7.91c0.67,0,1.34.05,2,0l2.39,9.3L315,278.17l-2.33-9.1a37.32,37.32,0,0,0,5.94-3.32l6.39,6.39,9.69-9.68-6.4-6.4a37,37,0,0,0,3.32-5.94Z" transform="translate(-155.88 -164.05)"/><path class="cb609f89-b5de-46f5-a687-c78587ea106c" d="M297.29,264.35a29.56,29.56,0,0,1,0-59.13h0v-7.91h0c-0.67,0-1.34-.05-2,0L292.9,188l-13.27,3.41,2.33,9.1a37.06,37.06,0,0,0-5.94,3.32l-6.39-6.39-9.69,9.68,6.4,6.4a37,37,0,0,0-3.33,5.94l-9.09-2.34-3.41,13.27,9.3,2.39a36.93,36.93,0,0,0,0,4.78l-9.07,2.75,4,13.11,8.6-2.61a37.16,37.16,0,0,0,3,5.24l-6.14,6.15,9.69,9.69,6.14-6.14a37.67,37.67,0,0,0,5.24,3l-2.6,8.6,13.11,4,2.75-9.07c0.92,0.07,1.85,0,2.77,0h0v-7.91h0Z" transform="translate(-155.88 -164.05)"/><path class="4f10bf6e-58a0-4823-83f2-9a58686e936a" d="M296.94,258.87a23.42,23.42,0,0,0,7.19-1.14l0.1,0,0.73-.26a23.37,23.37,0,0,0,0-44.35l-0.73-.26-0.1,0c-0.66-.21-1.33-0.41-2-0.57a23.58,23.58,0,0,0-22.6,7.13,23.7,23.7,0,0,0-3.63,5.28H187a19.5,19.5,0,0,0-16.37-8.91,19.78,19.78,0,0,0-2.17.12,19.3,19.3,0,0,0-6.61,2,19.69,19.69,0,0,0-5.95,4.62h13.64l7.39,12.79h0l-7.39,12.79H155.88a19.49,19.49,0,0,0,31.1-2.18h88.9A23.58,23.58,0,0,0,296.94,258.87ZM290,248.32l-7.54-13.05L290,222.21H305.1l7.54,13.05-7.54,13.05H290Z" transform="translate(-155.88 -164.05)"/><polygon class="a2d848b5-bbf2-4316-b7e3-d211134ca796" points="149.09 58.16 134.02 58.16 126.48 71.21 123.75 71.21 132.58 55.92 150.24 55.92 159.07 71.21 156.63 71.21 149.09 58.16"/><polygon class="f2a37f4c-3666-40b7-8be6-6981b66f04a6" points="132.58 86.51 123.75 71.21 126.48 71.21 134.02 84.27 149.09 84.27 156.63 71.21 159.07 71.21 150.24 86.51 132.58 86.51"/><path class="a2d848b5-bbf2-4316-b7e3-d211134ca796" d="M178.64,235.27h-1.74l-7.39-12.79H155.88a19.56,19.56,0,0,1,1.48-1.4h13.09Z" transform="translate(-155.88 -164.05)"/><path class="f2a37f4c-3666-40b7-8be6-6981b66f04a6" d="M178.65,235.27h0l-8.19,14.19H157.23c-0.47-.45-0.92-0.91-1.35-1.4h13.64l7.39-12.79h1.74Z" transform="translate(-155.88 -164.05)"/><path class="622a3b51-0627-427c-a55f-79c3b6079ab5" d="M305.1,222.21H290l-7.54,13.05H176.91l-7.39-12.79H155.88a19.67,19.67,0,0,1,5.95-4.62,19.28,19.28,0,0,1,6.6-2,19.78,19.78,0,0,1,2.17-.12A19.5,19.5,0,0,1,187,224.65h88.9a23.63,23.63,0,0,1,21.06-13,23.44,23.44,0,0,1,5.18.57c0.68,0.15,1.35.36,2,.57l0.1,0,0.73,0.26a23.33,23.33,0,0,1,16,22.18h-8.3Z" transform="translate(-155.88 -164.05)"/><path class="95b40da9-38d3-44d1-ad87-6405276791aa" d="M365.59,301.12H241.14a4.79,4.79,0,0,0-4.79,4.79V411.53a4.79,4.79,0,0,0,4.79,4.79H365.59a4.79,4.79,0,0,0,4.79-4.79V305.91A4.79,4.79,0,0,0,365.59,301.12Z" transform="translate(-155.88 -164.05)"/><path class="b292fc27-b164-4fc1-a9cb-7d5805fe84bf" d="M365.76,405.15a4.79,4.79,0,0,1-4.79,4.79H236.52a4.79,4.79,0,0,1-4.79-4.79V306.82h134v98.32Z" transform="translate(-155.88 -164.05)"/><path class="4f10bf6e-58a0-4823-83f2-9a58686e936a" d="M361,294.74H236.52a4.79,4.79,0,0,0-4.79,4.79v7.29h134v-7.29A4.79,4.79,0,0,0,361,294.74Z" transform="translate(-155.88 -164.05)"/><path class="b292fc27-b164-4fc1-a9cb-7d5805fe84bf" d="M251.78,303.48h0a2.21,2.21,0,0,1-2.21-2.21h0a2.21,2.21,0,0,1,2.21-2.21h0a2.21,2.21,0,0,1,2.21,2.21h0A2.21,2.21,0,0,1,251.78,303.48Z" transform="translate(-155.88 -164.05)"/><path class="b292fc27-b164-4fc1-a9cb-7d5805fe84bf" d="M244.72,303.48h0a2.21,2.21,0,0,1-2.21-2.21h0a2.21,2.21,0,0,1,2.21-2.21h0a2.21,2.21,0,0,1,2.21,2.21h0A2.21,2.21,0,0,1,244.72,303.48Z" transform="translate(-155.88 -164.05)"/><path class="b292fc27-b164-4fc1-a9cb-7d5805fe84bf" d="M237.21,303.48h0a2.21,2.21,0,0,1-2.21-2.21h0a2.21,2.21,0,0,1,2.21-2.21h0a2.21,2.21,0,0,1,2.21,2.21h0A2.21,2.21,0,0,1,237.21,303.48Z" transform="translate(-155.88 -164.05)"/><rect class="a2e4107a-959a-4906-867e-ebc78dc9d07f" x="237.21" y="320.96" width="74.96" height="3.7" transform="translate(393.49 481.57) rotate(180)"/><rect class="a2e4107a-959a-4906-867e-ebc78dc9d07f" x="237.21" y="332.43" width="74.96" height="3.7" transform="translate(393.49 504.51) rotate(180)"/><rect class="a2e4107a-959a-4906-867e-ebc78dc9d07f" x="237.21" y="344.1" width="74.96" height="3.7" transform="translate(393.49 527.85) rotate(180)"/><rect class="a2e4107a-959a-4906-867e-ebc78dc9d07f" x="237.21" y="356.84" width="74.96" height="3.7" transform="translate(393.49 553.34) rotate(180)"/><rect class="a2e4107a-959a-4906-867e-ebc78dc9d07f" x="237.21" y="367.69" width="74.96" height="3.7" transform="translate(393.49 575.02) rotate(180)"/><rect class="a2e4107a-959a-4906-867e-ebc78dc9d07f" x="237.21" y="379.36" width="74.96" height="3.69" transform="translate(393.49 598.37) rotate(180)"/><rect class="a2e4107a-959a-4906-867e-ebc78dc9d07f" x="237.21" y="392.1" width="74.96" height="3.7" transform="translate(393.49 623.85) rotate(180)"/><rect class="f4d85727-b277-4578-a819-d61fc323258e" x="323.09" y="381" width="33.76" height="3.7" transform="translate(524.05 601.65) rotate(180)"/><rect class="f4d85727-b277-4578-a819-d61fc323258e" x="323.09" y="392.48" width="33.76" height="3.7" transform="translate(524.05 624.6) rotate(180)"/><rect class="4f10bf6e-58a0-4823-83f2-9a58686e936a" x="321.66" y="320.58" width="36.6" height="52.11" transform="translate(524.04 529.23) rotate(180)"/><polygon class="b292fc27-b164-4fc1-a9cb-7d5805fe84bf" points="165.78 156.53 166.19 156.53 184.08 182 201.96 156.53 202.38 156.53 202.38 157.12 184.49 182.59 202.38 208.06 202.38 208.65 201.96 208.65 184.08 183.18 166.19 208.65 165.78 208.65 165.78 208.06 183.66 182.59 165.78 157.12 165.78 156.53"/><path class="95b40da9-38d3-44d1-ad87-6405276791aa" d="M551.52,215.34H427.07a4.79,4.79,0,0,0-4.79,4.79V385.77a4.79,4.79,0,0,0,4.79,4.79H551.52a4.79,4.79,0,0,0,4.79-4.79V220.13A4.79,4.79,0,0,0,551.52,215.34Z" transform="translate(-155.88 -164.05)"/><path class="b292fc27-b164-4fc1-a9cb-7d5805fe84bf" d="M415,380.19a4.79,4.79,0,0,0,4.79,4.79H544.2a4.79,4.79,0,0,0,4.79-4.79V221.85H415V380.19Z" transform="translate(-155.88 -164.05)"/><path class="cb609f89-b5de-46f5-a687-c78587ea106c" d="M544.2,209.77H419.75a4.79,4.79,0,0,0-4.79,4.79v7.3H549v-7.3A4.79,4.79,0,0,0,544.2,209.77Z" transform="translate(-155.88 -164.05)"/><path class="b292fc27-b164-4fc1-a9cb-7d5805fe84bf" d="M435,218.5h0a2.21,2.21,0,0,1-2.21-2.21h0a2.21,2.21,0,0,1,2.21-2.21h0a2.21,2.21,0,0,1,2.21,2.21h0A2.21,2.21,0,0,1,435,218.5Z" transform="translate(-155.88 -164.05)"/><path class="b292fc27-b164-4fc1-a9cb-7d5805fe84bf" d="M428,218.5h0a2.21,2.21,0,0,1-2.21-2.21h0a2.21,2.21,0,0,1,2.21-2.21h0a2.21,2.21,0,0,1,2.21,2.21h0A2.21,2.21,0,0,1,428,218.5Z" transform="translate(-155.88 -164.05)"/><path class="b292fc27-b164-4fc1-a9cb-7d5805fe84bf" d="M420.44,218.5h0a2.21,2.21,0,0,1-2.21-2.21h0a2.21,2.21,0,0,1,2.21-2.21h0a2.21,2.21,0,0,1,2.21,2.21h0A2.21,2.21,0,0,1,420.44,218.5Z" transform="translate(-155.88 -164.05)"/><polygon class="b292fc27-b164-4fc1-a9cb-7d5805fe84bf" points="385.51 48.9 287.4 48.9 287.4 48.9 287.4 55.58 385.51 55.58 385.51 48.9"/><rect class="f4d85727-b277-4578-a819-d61fc323258e" x="497.58" y="280.21" width="25" height="25" transform="translate(646.91 -381.41) rotate(90)"/><polygon class="b292fc27-b164-4fc1-a9cb-7d5805fe84bf" points="366.69 141.16 366.69 140.88 354.48 128.66 366.69 116.44 366.69 116.16 366.41 116.16 354.19 128.38 341.98 116.16 341.69 116.16 341.69 116.44 353.91 128.66 341.69 140.88 341.69 141.16 341.98 141.16 354.19 128.95 366.41 141.16 366.69 141.16"/><rect class="f4d85727-b277-4578-a819-d61fc323258e" x="468.96" y="279.94" width="25" height="25" transform="translate(618.02 -353.07) rotate(90)"/><polygon class="b292fc27-b164-4fc1-a9cb-7d5805fe84bf" points="338.08 140.89 338.08 140.61 325.86 128.39 338.08 116.17 338.08 115.89 337.79 115.89 325.58 128.11 313.36 115.89 313.08 115.89 313.08 116.17 325.29 128.39 313.08 140.61 313.08 140.89 313.36 140.89 325.58 128.68 337.79 140.89 338.08 140.89"/><rect class="f4d85727-b277-4578-a819-d61fc323258e" x="440.27" y="280.21" width="25" height="25" transform="translate(589.6 -324.11) rotate(90)"/><polygon class="b292fc27-b164-4fc1-a9cb-7d5805fe84bf" points="309.39 141.16 309.39 140.88 297.17 128.66 309.39 116.44 309.39 116.16 309.11 116.16 296.89 128.38 284.67 116.16 284.39 116.16 284.39 116.44 296.6 128.66 284.39 140.88 284.39 141.16 284.67 141.16 296.89 128.95 309.11 141.16 309.39 141.16"/><rect class="a2e4107a-959a-4906-867e-ebc78dc9d07f" x="432.9" y="324.78" width="97.05" height="3.7" transform="translate(806.97 489.21) rotate(180)"/><rect class="a2e4107a-959a-4906-867e-ebc78dc9d07f" x="432.9" y="336.26" width="97.05" height="3.7" transform="translate(806.97 512.16) rotate(180)"/><rect class="a2e4107a-959a-4906-867e-ebc78dc9d07f" x="432.9" y="347.92" width="97.05" height="3.7" transform="translate(806.97 535.5) rotate(180)"/><rect class="a2e4107a-959a-4906-867e-ebc78dc9d07f" x="432.9" y="360.67" width="97.05" height="3.7" transform="translate(806.97 560.98) rotate(180)"/><rect class="a2e4107a-959a-4906-867e-ebc78dc9d07f" x="432.9" y="371.51" width="97.05" height="3.7" transform="translate(806.97 582.67) rotate(180)"/><rect class="f4d85727-b277-4578-a819-d61fc323258e" x="425.95" y="233.91" width="110.96" height="3.69" transform="translate(806.96 307.47) rotate(180)"/><rect class="cb609f89-b5de-46f5-a687-c78587ea106c" x="269.78" y="82.69" width="111.51" height="23.05"/><path class="aa76e4e7-f5fa-4d86-8ac8-96037f85b91e" d="M546,354.1a25.47,25.47,0,1,0,18,7.46A25.39,25.39,0,0,0,546,354.1Zm11.71,37.19a16.56,16.56,0,1,1,0-23.43A16.56,16.56,0,0,1,557.75,391.28Z" transform="translate(-155.88 -164.05)"/><path class="4f10bf6e-58a0-4823-83f2-9a58686e936a" d="M583.4,394.79l2.94-11.44-8-2.06a32.67,32.67,0,0,0,0-4.12l7.82-2.36-3.42-11.3-7.41,2.24a32,32,0,0,0-2.58-4.51L578,356l-8.35-8.35-5.29,5.29a31.57,31.57,0,0,0-4.51-2.58l2.24-7.41-11.3-3.42-2.36,7.82c-0.8-.06-1.59,0-2.39,0v6.81A25.47,25.47,0,1,1,546,405v6.81c0.58,0,1.15,0,1.73,0l2.06,8,11.43-2.94-2-7.84a31.81,31.81,0,0,0,5.11-2.86l5.51,5.51,8.35-8.34-5.51-5.51a32,32,0,0,0,2.86-5.12Z" transform="translate(-155.88 -164.05)"/><path class="cb609f89-b5de-46f5-a687-c78587ea106c" d="M546,405a25.47,25.47,0,0,1,0-50.94h0v-6.81h0c-0.58,0-1.15,0-1.73,0l-2.06-8-11.43,2.94,2,7.84a32,32,0,0,0-5.11,2.86l-5.51-5.51-8.35,8.34,5.51,5.51a32,32,0,0,0-2.87,5.11l-7.83-2-2.94,11.44,8,2.06a31.79,31.79,0,0,0,0,4.12l-7.82,2.37,3.42,11.3,7.41-2.24a32.18,32.18,0,0,0,2.58,4.51l-5.29,5.29,8.35,8.35,5.29-5.29a32.33,32.33,0,0,0,4.51,2.58L530,416.24l11.3,3.42,2.37-7.82c0.79,0.06,1.59,0,2.39,0h0V405h0Z" transform="translate(-155.88 -164.05)"/><path class="9461c487-097a-4ba4-a778-b789885599b2" d="M537.52,372.8l6.15,18.65h4.76l6.15-18.65-3.81-10.89h0V247.27a4.72,4.72,0,1,0-9.44,0V361.91h0Z" transform="translate(-155.88 -164.05)"/><path class="01376691-798b-4c48-be01-12fe69b42c3e" d="M544.94,391.45h-1.28l-6.15-18.65,3.81-10.89V247.27a4.72,4.72,0,0,1,4.72-4.72v148.9h-1.1Z" transform="translate(-155.88 -164.05)"/><rect class="4f10bf6e-58a0-4823-83f2-9a58686e936a" x="381.62" y="7.37" width="17.96" height="111.69"/><polygon class="aa76e4e7-f5fa-4d86-8ac8-96037f85b91e" points="410.95 119.06 410.95 110.46 402.25 99.78 410.95 87.15 410.95 7.37 400.84 7.37 399.58 7.37 399.58 119.06 410.95 119.06"/><polygon class="6448b239-0e46-4b89-be12-d3d7afac4924" points="370.31 7.37 370.31 87.15 379.01 99.78 370.31 110.46 370.31 119.06 381.62 119.06 381.62 7.37 380.42 7.37 370.31 7.37"/><polygon class="4f10bf6e-58a0-4823-83f2-9a58686e936a" points="381.62 125.49 399.58 125.49 412.78 125.49 412.78 119.06 410.95 119.06 399.58 119.06 381.62 119.06 370.31 119.06 368.48 119.06 368.48 125.49 381.62 125.49"/><path class="95b40da9-38d3-44d1-ad87-6405276791aa" d="M338.88,332.28H214.43a4.79,4.79,0,0,0-4.79,4.79V442.69a4.79,4.79,0,0,0,4.79,4.79H338.88a4.79,4.79,0,0,0,4.79-4.79V337.07A4.79,4.79,0,0,0,338.88,332.28Z" transform="translate(-155.88 -164.05)"/><path class="f4d85727-b277-4578-a819-d61fc323258e" d="M202.33,437.11a4.79,4.79,0,0,0,4.79,4.79H331.57a4.79,4.79,0,0,0,4.79-4.79V338.79h-134v98.32Z" transform="translate(-155.88 -164.05)"/><path class="cb609f89-b5de-46f5-a687-c78587ea106c" d="M331.57,326.7H207.12a4.79,4.79,0,0,0-4.79,4.79v7.3h134v-7.3A4.79,4.79,0,0,0,331.57,326.7Z" transform="translate(-155.88 -164.05)"/><path class="b292fc27-b164-4fc1-a9cb-7d5805fe84bf" d="M222.38,335.44h0a2.21,2.21,0,0,1-2.21-2.21h0a2.21,2.21,0,0,1,2.21-2.21h0a2.21,2.21,0,0,1,2.21,2.21h0A2.21,2.21,0,0,1,222.38,335.44Z" transform="translate(-155.88 -164.05)"/><path class="b292fc27-b164-4fc1-a9cb-7d5805fe84bf" d="M215.32,335.44h0a2.21,2.21,0,0,1-2.21-2.21h0a2.21,2.21,0,0,1,2.21-2.21h0a2.21,2.21,0,0,1,2.21,2.21h0A2.21,2.21,0,0,1,215.32,335.44Z" transform="translate(-155.88 -164.05)"/><path class="b292fc27-b164-4fc1-a9cb-7d5805fe84bf" d="M207.81,335.44h0a2.21,2.21,0,0,1-2.21-2.21h0a2.21,2.21,0,0,1,2.21-2.21h0a2.21,2.21,0,0,1,2.21,2.21h0A2.21,2.21,0,0,1,207.81,335.44Z" transform="translate(-155.88 -164.05)"/><polygon class="b292fc27-b164-4fc1-a9cb-7d5805fe84bf" points="172.88 165.84 74.77 165.84 74.77 165.84 74.77 172.52 172.88 172.52 172.88 165.84"/><rect class="b292fc27-b164-4fc1-a9cb-7d5805fe84bf" x="86.23" y="184.98" width="85.43" height="4.04"/><rect class="b292fc27-b164-4fc1-a9cb-7d5805fe84bf" x="86.23" y="197.5" width="85.43" height="4.04"/><rect class="b292fc27-b164-4fc1-a9cb-7d5805fe84bf" x="86.23" y="210.24" width="85.43" height="4.04"/><rect class="b292fc27-b164-4fc1-a9cb-7d5805fe84bf" x="86.23" y="224.14" width="85.43" height="4.04"/><rect class="b292fc27-b164-4fc1-a9cb-7d5805fe84bf" x="86.23" y="235.98" width="85.43" height="4.04"/><rect class="b292fc27-b164-4fc1-a9cb-7d5805fe84bf" x="86.23" y="248.72" width="85.43" height="4.03"/><rect class="b292fc27-b164-4fc1-a9cb-7d5805fe84bf" x="86.23" y="262.62" width="85.43" height="4.03"/><rect class="4f10bf6e-58a0-4823-83f2-9a58686e936a" x="51.77" y="184.35" width="25" height="25"/><polygon class="cb609f89-b5de-46f5-a687-c78587ea106c" points="76.77 184.35 76.48 184.35 64.27 196.56 52.05 184.35 51.77 184.35 51.77 184.63 63.98 196.85 51.77 209.07 51.77 209.35 52.05 209.35 64.27 197.13 76.48 209.35 76.77 209.35 76.77 209.07 64.55 196.85 76.77 184.63 76.77 184.35"/><rect class="4f10bf6e-58a0-4823-83f2-9a58686e936a" x="51.5" y="212.97" width="25" height="25"/><polygon class="cb609f89-b5de-46f5-a687-c78587ea106c" points="76.5 212.96 76.22 212.96 64 225.18 51.78 212.96 51.5 212.96 51.5 213.25 63.71 225.47 51.5 237.68 51.5 237.97 51.78 237.97 64 225.75 76.22 237.97 76.5 237.97 76.5 237.68 64.28 225.47 76.5 213.25 76.5 212.96"/><rect class="4f10bf6e-58a0-4823-83f2-9a58686e936a" x="51.77" y="241.65" width="25" height="25"/><polygon class="cb609f89-b5de-46f5-a687-c78587ea106c" points="76.77 241.65 76.48 241.65 64.27 253.87 52.05 241.65 51.77 241.65 51.77 241.94 63.98 254.16 51.77 266.37 51.77 266.65 52.05 266.65 64.27 254.44 76.48 266.65 76.77 266.65 76.77 266.37 64.55 254.16 76.77 241.94 76.77 241.65"/></g></g></g></svg>