<svg xmlns="http://www.w3.org/2000/svg" viewBox="0 0 411.64 305.3"><defs><style>.\33 5b8958c-b132-4aa7-ad66-027ec176fb38{isolation:isolate;}.a9d81943-bbb4-4ade-8ee1-006052a71641{opacity:0.1;}.\32 43f690f-8aad-4722-ab89-f6e490809942,.e31cccd5-75b7-44a6-8f3e-f752c52952c3{fill:#2d556b;}.e31cccd5-75b7-44a6-8f3e-f752c52952c3{opacity:0.2;}.\34 a83261e-1e0a-4213-83cc-be26055b8ddc,.\38 791a36a-703c-4306-bcf4-3955403b8a8b,.e31cccd5-75b7-44a6-8f3e-f752c52952c3,.eba9184c-d878-4eab-88e5-0b807fa3b81a{mix-blend-mode:multiply;}.b8c7b493-6fce-47c5-9aa8-2c161fff7fdf{fill:#fff;}.\32 9a44502-acc2-4f12-9c93-d6db4a5690aa,.\34 a83261e-1e0a-4213-83cc-be26055b8ddc{fill:#e6e6e6;}.\32 abbeb19-e871-4ede-b5a0-3e34a3150534{fill:#577789;}.\32 81cd033-44dd-4054-a8b3-26f3dcc14e1d{fill:#e6e8ea;}.\32 fcbb5a1-fc64-4e8b-8fba-82fb88ad74e0{fill:#bec819;}.e885f079-13c4-4e4f-9bb7-8e2951c15a2a{fill:#b3b3b3;}.c0e064e0-9b9e-4fe2-96a8-fd157587b8a3{fill:#19b2c8;}.\37 4a373fd-9877-48c2-b854-ef4b77fdc8b3{fill:#a3e0e9;}.\34 0c5abd4-bb73-4c04-8796-109b1f2d3eca{fill:#8199a6;}.\38 791a36a-703c-4306-bcf4-3955403b8a8b{fill:#415064;opacity:0.15;}.eba9184c-d878-4eab-88e5-0b807fa3b81a{fill:#ccc;}</style></defs><title>top-banner_img_frontend</title><g class="35b8958c-b132-4aa7-ad66-027ec176fb38"><g id="9f7a8254-f488-4322-ad9b-56250cc9b7cf" data-name="Ebene 1"><g class="a9d81943-bbb4-4ade-8ee1-006052a71641"><ellipse class="e31cccd5-75b7-44a6-8f3e-f752c52952c3" cx="221.75" cy="279.42" rx="100.05" ry="25.87"/><rect class="b8c7b493-6fce-47c5-9aa8-2c161fff7fdf" x="183.62" y="243.44" width="74.86" height="30.79"/><rect class="29a44502-acc2-4f12-9c93-d6db4a5690aa" x="183.62" y="249.52" width="74.86" height="3.23"/><path class="2abbeb19-e871-4ede-b5a0-3e34a3150534" d="M87.5,43.88H356a5.28,5.28,0,0,1,5.28,5.28V244.35a5.28,5.28,0,0,1-5.28,5.28H87.5a5.27,5.27,0,0,1-5.27-5.27V49.16A5.27,5.27,0,0,1,87.5,43.88Z"/><rect class="281cd033-44dd-4054-a8b3-26f3dcc14e1d" x="91.22" y="55.25" width="260.3" height="156.22"/><path class="b8c7b493-6fce-47c5-9aa8-2c161fff7fdf" d="M337.57,358.88a5.28,5.28,0,0,0,5.27,5.27H611.34a5.27,5.27,0,0,0,5.28-5.27V338.16h-279v20.72Z" transform="translate(-255.35 -114.52)"/><rect class="2fcbb5a1-fc64-4e8b-8fba-82fb88ad74e0" x="88.85" y="53.73" width="262.67" height="157.74"/><rect class="b8c7b493-6fce-47c5-9aa8-2c161fff7fdf" x="107.66" y="73.63" width="96.99" height="4.36"/><rect class="b8c7b493-6fce-47c5-9aa8-2c161fff7fdf" x="107.66" y="87.16" width="96.99" height="4.36"/><rect class="b8c7b493-6fce-47c5-9aa8-2c161fff7fdf" x="107.66" y="100.93" width="96.99" height="4.36"/><rect class="b8c7b493-6fce-47c5-9aa8-2c161fff7fdf" x="107.66" y="115.96" width="96.99" height="4.37"/><rect class="b8c7b493-6fce-47c5-9aa8-2c161fff7fdf" x="107.66" y="128.75" width="96.99" height="4.37"/><rect class="b8c7b493-6fce-47c5-9aa8-2c161fff7fdf" x="107.66" y="142.53" width="96.99" height="4.36"/><rect class="b8c7b493-6fce-47c5-9aa8-2c161fff7fdf" x="107.66" y="157.55" width="96.99" height="4.36"/><rect class="b8c7b493-6fce-47c5-9aa8-2c161fff7fdf" x="107.66" y="172.01" width="96.99" height="4.36"/><rect class="b8c7b493-6fce-47c5-9aa8-2c161fff7fdf" x="107.66" y="187.04" width="96.99" height="4.36"/><rect class="b8c7b493-6fce-47c5-9aa8-2c161fff7fdf" x="228.45" y="73.63" width="96.99" height="4.36"/><rect class="b8c7b493-6fce-47c5-9aa8-2c161fff7fdf" x="228.45" y="87.16" width="96.99" height="4.36"/><rect class="b8c7b493-6fce-47c5-9aa8-2c161fff7fdf" x="228.45" y="100.93" width="96.99" height="4.36"/><rect class="b8c7b493-6fce-47c5-9aa8-2c161fff7fdf" x="228.45" y="115.96" width="96.99" height="4.37"/><rect class="b8c7b493-6fce-47c5-9aa8-2c161fff7fdf" x="228.45" y="128.75" width="96.99" height="4.37"/><rect class="b8c7b493-6fce-47c5-9aa8-2c161fff7fdf" x="228.45" y="142.53" width="96.99" height="4.36"/><rect class="b8c7b493-6fce-47c5-9aa8-2c161fff7fdf" x="228.45" y="157.55" width="96.99" height="4.36"/><rect class="b8c7b493-6fce-47c5-9aa8-2c161fff7fdf" x="228.45" y="172.01" width="96.99" height="4.36"/><rect class="b8c7b493-6fce-47c5-9aa8-2c161fff7fdf" x="228.45" y="187.04" width="96.99" height="4.36"/><path class="29a44502-acc2-4f12-9c93-d6db4a5690aa" d="M514.06,388.41s0,0-.07-0.08H438.71L431.27,399a1.29,1.29,0,0,0-.06.16h89.38s0-.06,0-0.09Z" transform="translate(-255.35 -114.52)"/><path class="e885f079-13c4-4e4f-9bb7-8e2951c15a2a" d="M520,398.83H431.86a1.41,1.41,0,0,0,0,2.74H520A1.41,1.41,0,0,0,520,398.83Z" transform="translate(-255.35 -114.52)"/><path class="4a83261e-1e0a-4213-83cc-be26055b8ddc" d="M661.45,121.9H517.64a5.53,5.53,0,0,0-5.53,5.54V249.49a5.54,5.54,0,0,0,5.54,5.54H661.45a5.54,5.54,0,0,0,5.54-5.54V127.44A5.54,5.54,0,0,0,661.45,121.9Z" transform="translate(-255.35 -114.52)"/><path class="b8c7b493-6fce-47c5-9aa8-2c161fff7fdf" d="M661.64,242.11a5.54,5.54,0,0,1-5.54,5.54H512.3a5.54,5.54,0,0,1-5.54-5.54V128.49H661.64V242.11Z" transform="translate(-255.35 -114.52)"/><path class="c0e064e0-9b9e-4fe2-96a8-fd157587b8a3" d="M656.11,114.52H512.3a5.53,5.53,0,0,0-5.54,5.53v8.43H661.64v-8.43A5.53,5.53,0,0,0,656.11,114.52Z" transform="translate(-255.35 -114.52)"/><path class="b8c7b493-6fce-47c5-9aa8-2c161fff7fdf" d="M529.93,124.62h0a2.55,2.55,0,0,1-2.56-2.55h0a2.56,2.56,0,0,1,2.56-2.56h0a2.56,2.56,0,0,1,2.56,2.56h0A2.55,2.55,0,0,1,529.93,124.62Z" transform="translate(-255.35 -114.52)"/><path class="b8c7b493-6fce-47c5-9aa8-2c161fff7fdf" d="M521.77,124.62h0a2.55,2.55,0,0,1-2.56-2.55h0a2.56,2.56,0,0,1,2.56-2.56h0a2.56,2.56,0,0,1,2.56,2.56h0A2.55,2.55,0,0,1,521.77,124.62Z" transform="translate(-255.35 -114.52)"/><path class="b8c7b493-6fce-47c5-9aa8-2c161fff7fdf" d="M513.09,124.62h0a2.55,2.55,0,0,1-2.55-2.55h0a2.56,2.56,0,0,1,2.55-2.56h0a2.56,2.56,0,0,1,2.56,2.56h0A2.55,2.55,0,0,1,513.09,124.62Z" transform="translate(-255.35 -114.52)"/><rect class="74a373fd-9877-48c2-b854-ef4b77fdc8b3" x="513.09" y="144.82" width="86.62" height="4.27" transform="translate(857.46 179.4) rotate(180)"/><rect class="74a373fd-9877-48c2-b854-ef4b77fdc8b3" x="513.09" y="158.08" width="86.62" height="4.27" transform="translate(857.46 205.92) rotate(180)"/><rect class="74a373fd-9877-48c2-b854-ef4b77fdc8b3" x="513.09" y="171.57" width="86.62" height="4.27" transform="translate(857.46 232.89) rotate(180)"/><rect class="74a373fd-9877-48c2-b854-ef4b77fdc8b3" x="513.09" y="186.29" width="86.62" height="4.28" transform="translate(857.46 262.34) rotate(180)"/><rect class="74a373fd-9877-48c2-b854-ef4b77fdc8b3" x="513.09" y="198.82" width="86.62" height="4.28" transform="translate(857.46 287.4) rotate(180)"/><rect class="74a373fd-9877-48c2-b854-ef4b77fdc8b3" x="513.09" y="212.31" width="86.62" height="4.27" transform="translate(857.46 314.37) rotate(180)"/><rect class="74a373fd-9877-48c2-b854-ef4b77fdc8b3" x="513.09" y="227.03" width="86.62" height="4.27" transform="translate(857.46 343.82) rotate(180)"/><rect class="2fcbb5a1-fc64-4e8b-8fba-82fb88ad74e0" x="612.33" y="214.21" width="39.01" height="4.27" transform="translate(1008.33 318.17) rotate(180)"/><rect class="2fcbb5a1-fc64-4e8b-8fba-82fb88ad74e0" x="612.33" y="227.47" width="39.01" height="4.27" transform="translate(1008.33 344.68) rotate(180)"/><rect class="243f690f-8aad-4722-ab89-f6e490809942" x="610.68" y="144.39" width="42.29" height="60.22" transform="translate(1008.32 234.48) rotate(180)"/><polygon class="b8c7b493-6fce-47c5-9aa8-2c161fff7fdf" points="355.34 29.87 355.82 29.87 376.49 59.3 397.15 29.87 397.63 29.87 397.63 30.55 376.96 59.98 397.63 89.41 397.63 90.09 397.15 90.09 376.49 60.66 355.82 90.09 355.34 90.09 355.34 89.41 376 59.98 355.34 30.55 355.34 29.87"/><path class="4a83261e-1e0a-4213-83cc-be26055b8ddc" d="M395.4,251.79H290.85a4,4,0,0,0-4,4v128a4,4,0,0,0,4,4H395.4a4,4,0,0,0,4-4v-128A4,4,0,0,0,395.4,251.79Z" transform="translate(-255.35 -114.52)"/><path class="b8c7b493-6fce-47c5-9aa8-2c161fff7fdf" d="M394.58,376.41a4,4,0,0,1-4,4H286a4,4,0,0,1-4-4V254.51H394.58v121.9Z" transform="translate(-255.35 -114.52)"/><path class="c0e064e0-9b9e-4fe2-96a8-fd157587b8a3" d="M390.56,244.36H286a4,4,0,0,0-4,4v6.13H394.58v-6.13A4,4,0,0,0,390.56,244.36Z" transform="translate(-255.35 -114.52)"/><path class="b8c7b493-6fce-47c5-9aa8-2c161fff7fdf" d="M298.83,251.7h0a1.86,1.86,0,0,1-1.86-1.86h0a1.86,1.86,0,0,1,1.86-1.86h0a1.86,1.86,0,0,1,1.86,1.86h0A1.86,1.86,0,0,1,298.83,251.7Z" transform="translate(-255.35 -114.52)"/><path class="b8c7b493-6fce-47c5-9aa8-2c161fff7fdf" d="M292.9,251.7h0a1.86,1.86,0,0,1-1.86-1.86h0A1.86,1.86,0,0,1,292.9,248h0a1.86,1.86,0,0,1,1.86,1.86h0A1.86,1.86,0,0,1,292.9,251.7Z" transform="translate(-255.35 -114.52)"/><path class="b8c7b493-6fce-47c5-9aa8-2c161fff7fdf" d="M286.59,251.7h0a1.86,1.86,0,0,1-1.85-1.86h0a1.86,1.86,0,0,1,1.85-1.86h0a1.86,1.86,0,0,1,1.86,1.86h0A1.86,1.86,0,0,1,286.59,251.7Z" transform="translate(-255.35 -114.52)"/><polygon class="b8c7b493-6fce-47c5-9aa8-2c161fff7fdf" points="132.86 132.51 50.44 132.51 50.44 132.51 50.44 138.12 132.86 138.12 132.86 132.51"/><rect class="74a373fd-9877-48c2-b854-ef4b77fdc8b3" x="328.94" y="278.93" width="58.56" height="3.39" transform="translate(461.09 446.74) rotate(180)"/><rect class="40c5abd4-bb73-4c04-8796-109b1f2d3eca" x="287.54" y="260.61" width="20.28" height="3.39" transform="translate(340.02 410.08) rotate(180)"/><rect class="40c5abd4-bb73-4c04-8796-109b1f2d3eca" x="314.98" y="260.61" width="20.28" height="3.39" transform="translate(394.89 410.08) rotate(180)"/><rect class="40c5abd4-bb73-4c04-8796-109b1f2d3eca" x="340.1" y="260.61" width="20.28" height="3.39" transform="translate(445.13 410.08) rotate(180)"/><rect class="40c5abd4-bb73-4c04-8796-109b1f2d3eca" x="367.53" y="260.61" width="20.28" height="3.39" transform="translate(500 410.08) rotate(180)"/><rect class="74a373fd-9877-48c2-b854-ef4b77fdc8b3" x="328.94" y="289.45" width="58.56" height="3.39" transform="translate(461.09 467.77) rotate(180)"/><rect class="74a373fd-9877-48c2-b854-ef4b77fdc8b3" x="328.94" y="300.15" width="58.56" height="3.39" transform="translate(461.09 489.17) rotate(180)"/><rect class="243f690f-8aad-4722-ab89-f6e490809942" x="286.72" y="273.68" width="35.12" height="35.12" transform="translate(353.21 467.95) rotate(180)"/><polygon class="b8c7b493-6fce-47c5-9aa8-2c161fff7fdf" points="31.37 159.15 31.77 159.15 48.93 176.32 66.09 159.15 66.49 159.15 66.49 159.55 49.33 176.72 66.49 193.88 66.49 194.28 66.09 194.28 48.93 177.11 31.77 194.28 31.37 194.28 31.37 193.88 48.53 176.72 31.37 159.55 31.37 159.15"/><rect class="74a373fd-9877-48c2-b854-ef4b77fdc8b3" x="31.37" y="236.65" width="58.56" height="3.39"/><rect class="74a373fd-9877-48c2-b854-ef4b77fdc8b3" x="31.37" y="226.13" width="58.56" height="3.39"/><rect class="74a373fd-9877-48c2-b854-ef4b77fdc8b3" x="31.37" y="215.43" width="58.56" height="3.39"/><rect class="243f690f-8aad-4722-ab89-f6e490809942" x="97.02" y="210.17" width="35.12" height="35.12"/><polygon class="b8c7b493-6fce-47c5-9aa8-2c161fff7fdf" points="132.15 245.3 131.75 245.3 114.59 228.13 97.42 245.3 97.03 245.3 97.03 244.9 114.19 227.73 97.03 210.57 97.03 210.17 97.42 210.17 114.59 227.34 131.75 210.17 132.15 210.17 132.15 210.57 114.98 227.73 132.15 244.9 132.15 245.3"/><path class="4a83261e-1e0a-4213-83cc-be26055b8ddc" d="M613.7,151.7H469.89a5.53,5.53,0,0,0-5.53,5.54v122a5.53,5.53,0,0,0,5.53,5.53H613.7a5.54,5.54,0,0,0,5.54-5.53v-122A5.54,5.54,0,0,0,613.7,151.7Z" transform="translate(-255.35 -114.52)"/><path class="c0e064e0-9b9e-4fe2-96a8-fd157587b8a3" d="M455.9,272.84a5.53,5.53,0,0,0,5.53,5.54H605.25a5.54,5.54,0,0,0,5.54-5.54V159.22H455.9V272.84Z" transform="translate(-255.35 -114.52)"/><path class="2fcbb5a1-fc64-4e8b-8fba-82fb88ad74e0" d="M605.25,145.26H461.44a5.53,5.53,0,0,0-5.53,5.54v8.43H610.78v-8.43A5.54,5.54,0,0,0,605.25,145.26Z" transform="translate(-255.35 -114.52)"/><path class="b8c7b493-6fce-47c5-9aa8-2c161fff7fdf" d="M479.07,155.35h0a2.55,2.55,0,0,1-2.56-2.55h0a2.56,2.56,0,0,1,2.56-2.56h0a2.56,2.56,0,0,1,2.56,2.56h0A2.56,2.56,0,0,1,479.07,155.35Z" transform="translate(-255.35 -114.52)"/><path class="b8c7b493-6fce-47c5-9aa8-2c161fff7fdf" d="M470.91,155.35h0a2.56,2.56,0,0,1-2.56-2.55h0a2.56,2.56,0,0,1,2.56-2.56h0a2.56,2.56,0,0,1,2.56,2.56h0A2.56,2.56,0,0,1,470.91,155.35Z" transform="translate(-255.35 -114.52)"/><path class="b8c7b493-6fce-47c5-9aa8-2c161fff7fdf" d="M462.23,155.35h0a2.55,2.55,0,0,1-2.55-2.55h0a2.56,2.56,0,0,1,2.55-2.56h0a2.56,2.56,0,0,1,2.56,2.56h0A2.55,2.55,0,0,1,462.23,155.35Z" transform="translate(-255.35 -114.52)"/><polygon class="b8c7b493-6fce-47c5-9aa8-2c161fff7fdf" points="346.66 34.42 233.29 34.42 233.29 34.42 233.29 42.13 346.66 42.13 346.66 34.42"/><rect class="b8c7b493-6fce-47c5-9aa8-2c161fff7fdf" x="246.53" y="56.54" width="98.72" height="4.66"/><rect class="b8c7b493-6fce-47c5-9aa8-2c161fff7fdf" x="246.53" y="71.01" width="98.72" height="4.66"/><rect class="b8c7b493-6fce-47c5-9aa8-2c161fff7fdf" x="246.53" y="85.72" width="98.72" height="4.66"/><rect class="b8c7b493-6fce-47c5-9aa8-2c161fff7fdf" x="246.53" y="101.79" width="98.72" height="4.67"/><rect class="b8c7b493-6fce-47c5-9aa8-2c161fff7fdf" x="246.53" y="115.47" width="98.72" height="4.67"/><rect class="b8c7b493-6fce-47c5-9aa8-2c161fff7fdf" x="246.53" y="130.19" width="98.72" height="4.66"/><rect class="b8c7b493-6fce-47c5-9aa8-2c161fff7fdf" x="246.53" y="146.26" width="98.72" height="4.66"/><rect class="243f690f-8aad-4722-ab89-f6e490809942" x="206.7" y="55.8" width="28.89" height="28.89"/><polygon class="b8c7b493-6fce-47c5-9aa8-2c161fff7fdf" points="235.59 55.8 235.27 55.8 221.15 69.92 207.03 55.8 206.7 55.8 206.7 56.13 220.82 70.25 206.7 84.37 206.7 84.7 207.03 84.7 221.15 70.58 235.27 84.7 235.59 84.7 235.59 84.37 221.48 70.25 235.59 56.13 235.59 55.8"/><rect class="243f690f-8aad-4722-ab89-f6e490809942" x="206.39" y="88.87" width="28.89" height="28.89"/><polygon class="b8c7b493-6fce-47c5-9aa8-2c161fff7fdf" points="235.28 88.87 234.96 88.87 220.84 102.99 206.72 88.87 206.39 88.87 206.39 89.2 220.51 103.32 206.39 117.44 206.39 117.77 206.72 117.77 220.84 103.65 234.96 117.77 235.28 117.77 235.28 117.44 221.16 103.32 235.28 89.2 235.28 88.87"/><rect class="243f690f-8aad-4722-ab89-f6e490809942" x="206.7" y="122.03" width="28.89" height="28.89"/><polygon class="b8c7b493-6fce-47c5-9aa8-2c161fff7fdf" points="235.59 122.03 235.27 122.03 221.15 136.15 207.03 122.03 206.7 122.03 206.7 122.35 220.82 136.47 206.7 150.59 206.7 150.92 207.03 150.92 221.15 136.8 235.27 150.92 235.59 150.92 235.59 150.59 221.48 136.47 235.59 122.35 235.59 122.03"/><rect class="4a83261e-1e0a-4213-83cc-be26055b8ddc" x="176.33" y="125.81" width="68.69" height="43.12"/><rect class="243f690f-8aad-4722-ab89-f6e490809942" x="171.87" y="121.07" width="68.69" height="43.12"/><path class="b8c7b493-6fce-47c5-9aa8-2c161fff7fdf" d="M473.81,256.6l-17.44-9.33a0.63,0.63,0,0,0-.93.56v18.66a0.63,0.63,0,0,0,.93.56l17.44-9.33A0.63,0.63,0,0,0,473.81,256.6Z" transform="translate(-255.35 -114.52)"/><rect class="8791a36a-703c-4306-bcf4-3955403b8a8b" x="171.87" y="142.63" width="68.69" height="21.56"/><path class="4a83261e-1e0a-4213-83cc-be26055b8ddc" d="M326.2,322.69H274.3a12.4,12.4,0,0,0-12.41,12.41v23.34a12.41,12.41,0,0,0,12.41,12.41H326.2a12.41,12.41,0,0,0,12.41-12.41V335.1A12.41,12.41,0,0,0,326.2,322.69Z" transform="translate(-255.35 -114.52)"/><rect class="2fcbb5a1-fc64-4e8b-8fba-82fb88ad74e0" y="201.19" width="76.71" height="48.16" rx="12.41" ry="12.41"/><path class="b8c7b493-6fce-47c5-9aa8-2c161fff7fdf" d="M307.38,339.17L287.9,328.75a0.71,0.71,0,0,0-1,.62v20.84a0.71,0.71,0,0,0,1,.62l19.48-10.42A0.71,0.71,0,0,0,307.38,339.17Z" transform="translate(-255.35 -114.52)"/><path class="eba9184c-d878-4eab-88e5-0b807fa3b81a" d="M267.75,363.87h51.9a12.41,12.41,0,0,0,12.41-12.41V339.79H255.35v11.67A12.41,12.41,0,0,0,267.75,363.87Z" transform="translate(-255.35 -114.52)"/></g></g></g></svg>