<svg id="2f5e0ac3-8232-40d5-b2cf-d094f29b2e57" data-name="Ebene 1" xmlns="http://www.w3.org/2000/svg" viewBox="0 0 71.58 78.69"><defs><style>.c6dce1e1-7ea2-4b35-9e9d-5d9364a13d2c{fill:#20759a;}.\36 5328226-eafb-430c-998e-17ce8d2d3999{fill:#464443;}.\30 8fb7a03-eb60-4368-94b1-b8771f94cc29{fill:#fff;}</style></defs><title>wordpress_shield</title><polygon class="c6dce1e1-7ea2-4b35-9e9d-5d9364a13d2c" points="0 0 71.58 0 65.37 70.41 35.79 78.69 6.51 71 0 0"/><polygon class="65328226-eafb-430c-998e-17ce8d2d3999" points="35.77 5.04 64.96 5.04 59.83 64.2 35.77 70.91 35.77 5.04"/><path class="08fb7a03-eb60-4368-94b1-b8771f94cc29" d="M499.15,272a25.79,25.79,0,0,0-1.5,3.84l-8.53,23.73a22.18,22.18,0,0,0,10.95-28.76A5.63,5.63,0,0,0,499.15,272Z" transform="translate(-444.51 -241.5)"/><path class="08fb7a03-eb60-4368-94b1-b8771f94cc29" d="M469.57,269v0.85H469a3,3,0,0,0-1.93.55,1.67,1.67,0,0,0-.67,1.33,15.41,15.41,0,0,0,1.05,3.7L473.82,293l5.37-14.87-1-2.62-0.76-2.09a11.25,11.25,0,0,0-1.12-2,2.87,2.87,0,0,0-.76-0.74,4.38,4.38,0,0,0-1.19-.6,5.38,5.38,0,0,0-1.43-.14V269h12.61v0.85H484.7a2.89,2.89,0,0,0-2,.55,1.9,1.9,0,0,0-.62,1.49A14.32,14.32,0,0,0,483.2,276L489.41,293l6.16-17.17a14,14,0,0,0,1.05-4,1.61,1.61,0,0,0-.35-1,1.83,1.83,0,0,0-.87-0.64,7.21,7.21,0,0,0-2.36-.32V269h6.2a22.17,22.17,0,0,0-39.11,0h9.44Z" transform="translate(-444.51 -241.5)"/><path class="08fb7a03-eb60-4368-94b1-b8771f94cc29" d="M462.47,275q-1.07-2.9-1.36-3.43a3.08,3.08,0,0,0-1.3-1.3l-0.26-.12a22.16,22.16,0,0,0,12.28,30Z" transform="translate(-444.51 -241.5)"/><path class="08fb7a03-eb60-4368-94b1-b8771f94cc29" d="M480.29,281l-7.22,19.64a22.24,22.24,0,0,0,14.35-.38Z" transform="translate(-444.51 -241.5)"/></svg>