<svg id="8070585e-1e8b-4307-bc98-b8ff5d0979ce" data-name="Ebene 1" xmlns="http://www.w3.org/2000/svg" viewBox="0 0 176.47 253.97"><defs><style>.\33 d2608f5-2705-49a2-9f36-0457455bd94a{fill:#fff;}</style></defs><title>xcode</title><path class="3d2608f5-2705-49a2-9f36-0457455bd94a" d="M361.37,385.39l30.89,12.51a5.24,5.24,0,0,0,1.78.31,3.11,3.11,0,0,0,2.25-.71,5.29,5.29,0,0,0,2.27-3.5,44.86,44.86,0,0,1,1.45-6.09c1.3-4.32,13.47-35.56,14.92-39.87s19-53.16,26.69-82.82c0.8-3.13,1.8-4.31,1.8-6s-1.72-3.11-3.15-3.82-13.68-5.88-15.36-6.29-4.53-1.22-6,1.8S401.82,283.41,384,322.19s-21.32,49-21.32,49a12.53,12.53,0,0,1-2.13,4.25c-1.85,2.69-2.91,4.31-2.85,5.76S358.44,384.21,361.37,385.39Z" transform="translate(-357.73 -144.25)"/><path class="3d2608f5-2705-49a2-9f36-0457455bd94a" d="M532.93,180.28c-1.06-.39-10.07-4-10.83-4.31a7.46,7.46,0,0,0-2.52-.21,15.25,15.25,0,0,1-3.69.29c-8.81,0-14.48-2.94-18.68-6.63a15.1,15.1,0,0,1-5.16-9.11,2.27,2.27,0,0,0-1.43-1.86c-13.54-6.27-37.83-14.21-58.64-14.21a91.81,91.81,0,0,0-42.25,10.41,86,86,0,0,0-12,7.3c-0.8.55-.17,1,0.34,1.26a1.81,1.81,0,0,0,1.32-.17s11.86-5.82,36.37-5.6,28.65,9.51,30.1,13.88,1.68,12.09.56,15.89c-2.46,11.08-24.87,61.56-24.87,61.56a8.11,8.11,0,0,1,3.35.35c1.68,0.42,13.93,5.58,15.36,6.29a7,7,0,0,1,2.56,2.11h0S455,225.75,461.67,209s21.32-20.44,24.89-20.44c10.87,0,21.08,11.15,21.84,12.58a5.36,5.36,0,0,0,2.29,2.24c0.36,0.2,9.62,4,10.46,4.42a1.3,1.3,0,0,0,1.6-.08c9.07-9.29,11.25-23.73,11.41-25S534,180.68,532.93,180.28Z" transform="translate(-357.73 -144.25)"/></svg>