<svg id="6bef33b0-0fc7-453b-8235-46f1bcd4dcc2" data-name="Isolationsmodus" xmlns="http://www.w3.org/2000/svg" viewBox="0 0 148 176.66"><defs><style>.\38 e1e6bf3-a190-4cb4-b456-c8a37acca324,.\39 e4a8c4a-3199-46bd-9b85-bcea91484f82,.c14a8c5d-e8d0-4b2e-bdd2-edfe03135f2a,.e19d1631-e1f4-4b77-beda-db0e7ab9c727,.f4930c1e-ce7f-49d7-8921-996d2f4c3386{opacity:0.1;}.\30 2c9e012-434a-4b24-a488-07294a504c08,.\39 e4a8c4a-3199-46bd-9b85-bcea91484f82{fill:#7e7e7e;}.\36 65ca6e1-11a1-4e6a-a370-7fca53a0f1b3{fill:#fff;}.\38 e1e6bf3-a190-4cb4-b456-c8a37acca324{fill:#444;}.f4930c1e-ce7f-49d7-8921-996d2f4c3386{fill:#a0a0a0;}.\31 7798a6b-4c55-49f0-ba7a-59b2d3e56b1d,.c14a8c5d-e8d0-4b2e-bdd2-edfe03135f2a{fill:#b4b4b4;}</style></defs><title>collection-icon-bg</title><g class="e19d1631-e1f4-4b77-beda-db0e7ab9c727"><path class="02c9e012-434a-4b24-a488-07294a504c08" d="M71.15,684.75v29.43a5.09,5.09,0,0,0,5.1,5.09H136a5.09,5.09,0,0,0,5.09-5.09V684.75a5.09,5.09,0,0,0-5.09-5.09H76.24A5.1,5.1,0,0,0,71.15,684.75Z" transform="translate(-44 -562.28)"/><rect class="665ca6e1-11a1-4e6a-a370-7fca53a0f1b3" x="35.74" y="121.19" width="48.06" height="31.97"/><polygon class="665ca6e1-11a1-4e6a-a370-7fca53a0f1b3" points="32.32 130.36 32.32 144 30.83 144 30.83 130.35 32.32 130.35 32.32 130.36"/><circle class="665ca6e1-11a1-4e6a-a370-7fca53a0f1b3" cx="31.64" cy="125.82" r="1.3"/><rect class="665ca6e1-11a1-4e6a-a370-7fca53a0f1b3" x="87.83" y="130.97" width="3.82" height="12.42"/></g><g class="e19d1631-e1f4-4b77-beda-db0e7ab9c727"><path class="02c9e012-434a-4b24-a488-07294a504c08" d="M179.22,562.28H58.41a2.83,2.83,0,0,0-3,2.77v83.37a3.19,3.19,0,0,0,3,3.19H179.23a3,3,0,0,0,2.72-3.19V565.05A2.59,2.59,0,0,0,179.22,562.28Z" transform="translate(-44 -562.28)"/><path class="665ca6e1-11a1-4e6a-a370-7fca53a0f1b3" d="M174,641.32c0,1.82.41,2.68-1.31,2.68H65.4c-1.71,0-3.4-.86-3.4-2.68V572.08A3.27,3.27,0,0,1,65.4,569h107.3c1.71,0,1.31,1.26,1.31,3.08v69.25Z" transform="translate(-44 -562.28)"/><rect class="02c9e012-434a-4b24-a488-07294a504c08" y="91.72" width="148" height="7" rx="1.26" ry="1.26"/></g><rect class="8e1e6bf3-a190-4cb4-b456-c8a37acca324" x="24" y="16.72" width="32" height="7"/><rect class="8e1e6bf3-a190-4cb4-b456-c8a37acca324" x="58" y="16.72" width="31" height="7"/><rect class="8e1e6bf3-a190-4cb4-b456-c8a37acca324" x="92" y="16.72" width="32" height="7"/><rect class="f4930c1e-ce7f-49d7-8921-996d2f4c3386" x="24" y="27.72" width="32" height="24"/><rect class="f4930c1e-ce7f-49d7-8921-996d2f4c3386" x="92" y="27.72" width="32" height="24"/><rect class="f4930c1e-ce7f-49d7-8921-996d2f4c3386" x="58" y="27.72" width="31" height="24"/><rect class="9e4a8c4a-3199-46bd-9b85-bcea91484f82" x="24" y="54.72" width="80" height="5"/><rect class="c14a8c5d-e8d0-4b2e-bdd2-edfe03135f2a" x="24" y="61.72" width="60" height="5"/><rect class="9e4a8c4a-3199-46bd-9b85-bcea91484f82" x="24" y="69.72" width="100" height="5"/><g class="e19d1631-e1f4-4b77-beda-db0e7ab9c727"><path class="17798a6b-4c55-49f0-ba7a-59b2d3e56b1d" d="M93.15,698v34.89a6,6,0,0,0,6,6H170a6,6,0,0,0,6-6V698a6,6,0,0,0-6-6H99.19A6,6,0,0,0,93.15,698Z" transform="translate(-44 -562.28)"/><rect class="665ca6e1-11a1-4e6a-a370-7fca53a0f1b3" x="59.34" y="134.22" width="57" height="37.92"/><polygon class="665ca6e1-11a1-4e6a-a370-7fca53a0f1b3" points="55.28 145.09 55.28 161.27 53.52 161.27 53.52 145.09 55.28 145.09 55.28 145.09"/><circle class="665ca6e1-11a1-4e6a-a370-7fca53a0f1b3" cx="54.47" cy="139.71" r="1.54"/><rect class="665ca6e1-11a1-4e6a-a370-7fca53a0f1b3" x="121.11" y="145.81" width="4.53" height="14.73"/></g><path class="8e1e6bf3-a190-4cb4-b456-c8a37acca324" d="M144,715.73a13.4,13.4,0,1,0-13.33,13.46h1.67a1.67,1.67,0,0,0,0-3.35h-1.67a10,10,0,1,1,10-10.1l0,5a1.67,1.67,0,1,1-3.35,0l0-5a6.7,6.7,0,1,0-6.67,6.73,6.63,6.63,0,0,0,3.42-1,5,5,0,0,0,10-.76Zm-13.38,3.42a3.35,3.35,0,1,1,3.33-3.37A3.35,3.35,0,0,1,130.64,719.14Z" transform="translate(-44 -562.28)"/></svg>