<svg id="19a818b3-6354-435d-b79f-29e847fc355d" data-name="Layer 1" xmlns="http://www.w3.org/2000/svg" viewBox="0 0 72.58 79.78"><defs><style>.b4ab7eee-034f-47a7-890f-3223305d7549{fill:#0d72b9;}.ceaf6724-7430-414b-8da8-acd5993e0304{fill:#28a8e0;}.d3952a04-77d9-4600-9072-7036547cf4a7{fill:#eaeaea;}.\33 3c6c611-15bf-45bf-999c-c5b68457a1ba{fill:#f3f4f5;}</style></defs><title>css3</title><polygon class="b4ab7eee-034f-47a7-890f-3223305d7549" points="0 0 72.58 0 66.28 71.39 36.29 79.78 6.6 71.98 0 0"/><polygon class="ceaf6724-7430-414b-8da8-acd5993e0304" points="35.29 5.6 64.88 5.6 59.68 65.58 35.29 72.38 35.29 5.6"/><polygon class="d3952a04-77d9-4600-9072-7036547cf4a7" points="24.65 30.24 25.23 39.61 35.29 39.61 35.29 30.24 24.65 30.24"/><polygon class="d3952a04-77d9-4600-9072-7036547cf4a7" points="35.19 54.05 24.84 51.13 24.17 43.86 15.67 43.9 17.23 58.35 35.19 63.81 35.29 63.79 35.29 54.02 35.19 54.05"/><polygon class="d3952a04-77d9-4600-9072-7036547cf4a7" points="12.74 12.67 14.11 21.84 35.29 21.84 35.29 12.67 12.74 12.67"/><polygon class="33c6c611-15bf-45bf-999c-c5b68457a1ba" points="57.83 12.67 35.29 12.67 35.29 21.84 48.07 21.84 46.51 30.24 35.29 30.24 35.29 39.61 45.93 39.61 44.56 50.73 35.29 54.02 35.29 63.79 53.54 58.74 57.83 12.67"/></svg>