<svg id="eca996ca-0108-40e2-9fb6-dcb839d2e28f" data-name="Ebene 1" xmlns="http://www.w3.org/2000/svg" viewBox="0 0 72.64 79.85"><defs><style>.\36 69fdbb2-b7d1-4edd-808d-a79c1f2fb8ac{fill:#5868a5;}.\37 a6827f0-e560-439e-b8bf-ab0d21db964c{fill:#8798cb;}.\33 b4777ab-b229-446d-91cf-c7b46c768068{fill:#fff;}</style></defs><title>heroku</title><polygon class="669fdbb2-b7d1-4edd-808d-a79c1f2fb8ac" points="0 0 72.64 0 66.33 71.44 36.32 79.85 6.6 72.04 0 0"/><polygon class="7a6827f0-e560-439e-b8bf-ab0d21db964c" points="35.32 5.6 64.93 5.6 59.73 65.64 35.32 72.44 35.32 5.6"/><path class="3b4777ab-b229-446d-91cf-c7b46c768068" d="M465.65,269.28c0,5.86.16,10.66,0.37,10.66s2.93-.85,6.18-1.87c4.42-1.49,6.56-1.87,8.85-1.76l3,0.16,0.16,12.37,0.11,12.42h6.4v-13c0-12.63-.05-13-1.23-14.76-2.13-3.2-7.62-3.89-14.45-1.87l-2.45.75V258.62h-6.93v10.66h0ZM484,262.51c-1.17,2.08-2.19,4-2.29,4.21s1.33,0.43,3.2.43h3.36l1.92-3.09c3.68-5.76,3.73-5.44-.43-5.44h-3.62L484,262.51h0ZM465.65,294.6c0,3.36.21,6.13,0.43,6.13a22.35,22.35,0,0,0,3.46-3.09l3-3.09-3.09-3a23.92,23.92,0,0,0-3.46-3C465.81,288.47,465.65,291.24,465.65,294.6Z" transform="translate(-444.16 -241.27)"/></svg>