<svg id="7cb19d89-3617-4bf6-ad06-ceb67140abb7" data-name="Layer 1" xmlns="http://www.w3.org/2000/svg" viewBox="0 0 71.58 78.69"><defs><style>.\36 2326cee-7f2d-4e56-a9c3-2cb5c8b4fb13{fill:#f0d73b;}.\38 c033c7f-2a74-4b43-982f-b26b6a44f490{fill:#f6e596;}.d469a02f-6b0b-455f-9604-603d87e46634{fill:#473f53;}</style></defs><title>js</title><polygon class="62326cee-7f2d-4e56-a9c3-2cb5c8b4fb13" points="0 0 71.58 0 65.37 70.41 35.79 78.69 6.51 71 0 0"/><polygon class="8c033c7f-2a74-4b43-982f-b26b6a44f490" points="35.77 5.04 64.96 5.04 59.83 64.2 35.77 70.91 35.77 5.04"/><path class="d469a02f-6b0b-455f-9604-603d87e46634" d="M605.49,588.72h5.26v14.74c0,6.64-3.18,9-8.27,9a13.8,13.8,0,0,1-3.87-.55l0.59-4.26a8.63,8.63,0,0,0,2.7.42c2.21,0,3.6-1,3.6-4.6v-14.7Z" transform="translate(-579.69 -565.09)"/><path class="d469a02f-6b0b-455f-9604-603d87e46634" d="M619.67,606.38a12.76,12.76,0,0,0,5.6,1.39c2.32,0,3.55-1,3.55-2.45s-1.06-2.19-3.75-3.12c-3.71-1.33-6.17-3.38-6.17-6.67,0-3.81,3.22-6.7,8.46-6.7a13.08,13.08,0,0,1,5.7,1.13l-1.13,4a10.46,10.46,0,0,0-4.64-1.06c-2.19,0-3.25,1-3.25,2.16,0,1.43,1.23,2.06,4.15,3.18,3.95,1.46,5.77,3.52,5.77,6.7,0,3.75-2.85,6.93-9,6.93a14.58,14.58,0,0,1-6.33-1.39Z" transform="translate(-579.69 -565.09)"/></svg>