<svg xmlns="http://www.w3.org/2000/svg" xmlns:xlink="http://www.w3.org/1999/xlink" viewBox="0 0 394.39 305"><defs><style>.\38 1d7bc05-8edd-4eca-a46d-cb17d5fd277b{fill:none;}.\30 439a16e-ec66-4941-882c-f6a59c14abe9{isolation:isolate;}.e7d370d7-1dec-4e55-92cb-b808ed5eaa2c{opacity:0.1;}.f5d81f97-c0e2-4fb8-9e1c-6cd585ec5c31{fill:#7dc2cd;}.b35b0da4-5189-4909-a8a8-15d24acc3e48,.f5d81f97-c0e2-4fb8-9e1c-6cd585ec5c31{opacity:0.75;}.\35 1a6494b-5e7c-47e7-8f0a-07f0933b741f,.f5d81f97-c0e2-4fb8-9e1c-6cd585ec5c31{mix-blend-mode:multiply;}.\32 0cfc8e0-17cf-4838-a46b-1db0291427a6,.b35b0da4-5189-4909-a8a8-15d24acc3e48,.fdb5c772-a8a4-40da-b0e3-e60c61ab5974{fill:#fff;}.\35 1a6494b-5e7c-47e7-8f0a-07f0933b741f,.b13df16a-ffc0-4155-8dcf-57c194cf646a{fill:#e6e6e6;}.e2ecb171-3d77-4ca3-9f31-faae1ae27e57{fill:#b3b3b3;}.e31ac2b7-efc1-4323-9c33-02418e885dc9{fill:#577789;}.fe05496a-d7ae-425e-8b50-eb838e769c0c{fill:#9bd7e6;}.a3aca973-df8d-4fc6-b6c2-bebe4d483e1e{fill:#2d556b;}.b692e148-290d-45d8-a730-0065c38d7e74{fill:#ff5f19;}.\34 bc8730b-6e8f-4f4a-b6b1-f68d42f00d4b{fill:#8199a6;}.df7a0f02-bc37-4e12-a9d2-379fe767fc9c{fill:#677383;}.\32 0cfc8e0-17cf-4838-a46b-1db0291427a6{opacity:0.25;}.\36 2bf2668-beab-43ac-ad2d-a9514ceceaf8{clip-path:url(#f6630dbc-7663-4cb5-8bb1-1d810b3c1631);}</style><clipPath id="f6630dbc-7663-4cb5-8bb1-1d810b3c1631" transform="translate(-285.19 -95.56)"><circle class="81d7bc05-8edd-4eca-a46d-cb17d5fd277b" cx="606.55" cy="232.24" r="35.12" transform="translate(-0.68 1.79) rotate(-0.17)"/></clipPath></defs><title>top-banner_img_refs</title><g class="0439a16e-ec66-4941-882c-f6a59c14abe9"><g id="16308a10-a86b-427b-9fd8-e7a1e4b140e2" data-name="Ebene 1"><g class="e7d370d7-1dec-4e55-92cb-b808ed5eaa2c"><ellipse class="f5d81f97-c0e2-4fb8-9e1c-6cd585ec5c31" cx="226.57" cy="277.04" rx="108.12" ry="27.96"/><rect class="fdb5c772-a8a4-40da-b0e3-e60c61ab5974" x="190.22" y="233.87" width="74.14" height="30.49"/><rect class="b13df16a-ffc0-4155-8dcf-57c194cf646a" x="190.22" y="239.89" width="74.14" height="3.2"/><path class="b13df16a-ffc0-4155-8dcf-57c194cf646a" d="M549.61,359.63s0,0-.07-0.08H475.28l-7.33,10.57a1.34,1.34,0,0,0-.06.16h88.17s0-.06,0-0.09Z" transform="translate(-285.19 -95.56)"/><path class="e2ecb171-3d77-4ca3-9f31-faae1ae27e57" d="M555.47,369.91H468.52a1.39,1.39,0,0,0,0,2.7h86.94A1.39,1.39,0,0,0,555.47,369.91Z" transform="translate(-285.19 -95.56)"/><rect class="e31ac2b7-efc1-4323-9c33-02418e885dc9" x="89.8" y="36.24" width="276.36" height="203.76" rx="5.22" ry="5.22"/><path class="fdb5c772-a8a4-40da-b0e3-e60c61ab5974" d="M375,330.34a5.23,5.23,0,0,0,5.22,5.22H646.12a5.23,5.23,0,0,0,5.22-5.22V309.82H375v20.52Z" transform="translate(-285.19 -95.56)"/><rect class="fe05496a-d7ae-425e-8b50-eb838e769c0c" x="98.7" y="47.49" width="257.8" height="154.72"/><rect class="fdb5c772-a8a4-40da-b0e3-e60c61ab5974" x="119.26" y="58.5" width="95.68" height="4.79"/><rect class="fdb5c772-a8a4-40da-b0e3-e60c61ab5974" x="119.26" y="73.36" width="95.68" height="4.79"/><rect class="fdb5c772-a8a4-40da-b0e3-e60c61ab5974" x="119.26" y="88.48" width="95.68" height="4.79"/><rect class="fdb5c772-a8a4-40da-b0e3-e60c61ab5974" x="119.26" y="104.98" width="95.68" height="4.79"/><rect class="fdb5c772-a8a4-40da-b0e3-e60c61ab5974" x="119.26" y="119.03" width="95.68" height="4.79"/><rect class="fdb5c772-a8a4-40da-b0e3-e60c61ab5974" x="119.26" y="134.15" width="95.68" height="4.78"/><rect class="fdb5c772-a8a4-40da-b0e3-e60c61ab5974" x="119.26" y="150.65" width="95.68" height="4.79"/><rect class="fdb5c772-a8a4-40da-b0e3-e60c61ab5974" x="119.26" y="166.52" width="95.68" height="4.78"/><rect class="fdb5c772-a8a4-40da-b0e3-e60c61ab5974" x="119.26" y="183.02" width="95.68" height="4.79"/><rect class="fdb5c772-a8a4-40da-b0e3-e60c61ab5974" x="238.41" y="58.5" width="95.68" height="4.79"/><rect class="fdb5c772-a8a4-40da-b0e3-e60c61ab5974" x="238.41" y="73.36" width="95.68" height="4.79"/><rect class="fdb5c772-a8a4-40da-b0e3-e60c61ab5974" x="238.41" y="88.48" width="95.68" height="4.79"/><rect class="fdb5c772-a8a4-40da-b0e3-e60c61ab5974" x="238.41" y="104.98" width="95.68" height="4.79"/><rect class="fdb5c772-a8a4-40da-b0e3-e60c61ab5974" x="238.41" y="119.03" width="95.68" height="4.79"/><rect class="fdb5c772-a8a4-40da-b0e3-e60c61ab5974" x="238.41" y="134.15" width="95.68" height="4.78"/><rect class="fdb5c772-a8a4-40da-b0e3-e60c61ab5974" x="238.41" y="150.65" width="95.68" height="4.79"/><rect class="fdb5c772-a8a4-40da-b0e3-e60c61ab5974" x="238.41" y="166.52" width="95.68" height="4.78"/><rect class="fdb5c772-a8a4-40da-b0e3-e60c61ab5974" x="238.41" y="183.02" width="95.68" height="4.79"/><path class="fdb5c772-a8a4-40da-b0e3-e60c61ab5974" d="M598.09,119.75h0a1.71,1.71,0,0,1-1.71-1.71h0a1.71,1.71,0,0,1,1.71-1.71h0A1.71,1.71,0,0,1,599.8,118h0A1.71,1.71,0,0,1,598.09,119.75Z" transform="translate(-285.19 -95.56)"/><path class="51a6494b-5e7c-47e7-8f0a-07f0933b741f" d="M474.85,210.81H335.47a5.36,5.36,0,0,0-5.36,5.36V334.46a5.37,5.37,0,0,0,5.36,5.37H474.85a5.37,5.37,0,0,0,5.37-5.37V216.17A5.36,5.36,0,0,0,474.85,210.81Z" transform="translate(-285.19 -95.56)"/><path class="fdb5c772-a8a4-40da-b0e3-e60c61ab5974" d="M323.55,325.58a5.36,5.36,0,0,0,5.36,5.37H468.29a5.37,5.37,0,0,0,5.37-5.37V215.46H323.55V325.58Z" transform="translate(-285.19 -95.56)"/><path class="e31ac2b7-efc1-4323-9c33-02418e885dc9" d="M468.29,201.92H328.91a5.36,5.36,0,0,0-5.36,5.36v8.17H473.66v-8.17A5.36,5.36,0,0,0,468.29,201.92Z" transform="translate(-285.19 -95.56)"/><path class="fdb5c772-a8a4-40da-b0e3-e60c61ab5974" d="M346,211.71h0a2.47,2.47,0,0,1-2.48-2.47h0a2.48,2.48,0,0,1,2.48-2.48h0a2.48,2.48,0,0,1,2.48,2.48h0A2.48,2.48,0,0,1,346,211.71Z" transform="translate(-285.19 -95.56)"/><path class="fdb5c772-a8a4-40da-b0e3-e60c61ab5974" d="M338.09,211.71h0a2.48,2.48,0,0,1-2.48-2.47h0a2.48,2.48,0,0,1,2.48-2.48h0a2.48,2.48,0,0,1,2.48,2.48h0A2.48,2.48,0,0,1,338.09,211.71Z" transform="translate(-285.19 -95.56)"/><path class="fdb5c772-a8a4-40da-b0e3-e60c61ab5974" d="M329.68,211.71h0a2.47,2.47,0,0,1-2.47-2.47h0a2.48,2.48,0,0,1,2.47-2.48h0a2.48,2.48,0,0,1,2.48,2.48h0A2.47,2.47,0,0,1,329.68,211.71Z" transform="translate(-285.19 -95.56)"/><polygon class="fdb5c772-a8a4-40da-b0e3-e60c61ab5974" points="179.96 109.93 70.08 109.93 70.08 109.93 70.08 117.41 179.96 117.41 179.96 109.93"/><rect class="fe05496a-d7ae-425e-8b50-eb838e769c0c" x="82.91" y="131.37" width="95.68" height="4.52"/><rect class="fe05496a-d7ae-425e-8b50-eb838e769c0c" x="82.91" y="145.39" width="95.68" height="4.52"/><rect class="fe05496a-d7ae-425e-8b50-eb838e769c0c" x="82.91" y="159.66" width="95.68" height="4.52"/><rect class="fe05496a-d7ae-425e-8b50-eb838e769c0c" x="82.91" y="175.23" width="95.68" height="4.52"/><rect class="fe05496a-d7ae-425e-8b50-eb838e769c0c" x="82.91" y="188.48" width="95.68" height="4.52"/><rect class="fe05496a-d7ae-425e-8b50-eb838e769c0c" x="82.91" y="202.76" width="95.68" height="4.51"/><rect class="fe05496a-d7ae-425e-8b50-eb838e769c0c" x="82.91" y="218.33" width="95.68" height="4.52"/><rect class="a3aca973-df8d-4fc6-b6c2-bebe4d483e1e" x="44.31" y="130.66" width="28" height="28"/><polygon class="e31ac2b7-efc1-4323-9c33-02418e885dc9" points="72.32 130.66 72 130.66 58.31 144.34 44.63 130.66 44.31 130.66 44.31 130.98 58 144.66 44.31 158.34 44.31 158.66 44.63 158.66 58.31 144.98 72 158.66 72.32 158.66 72.32 158.34 58.63 144.66 72.32 130.98 72.32 130.66"/><rect class="a3aca973-df8d-4fc6-b6c2-bebe4d483e1e" x="44.01" y="162.71" width="28" height="28"/><polygon class="e31ac2b7-efc1-4323-9c33-02418e885dc9" points="72.01 162.71 71.7 162.71 58.01 176.4 44.33 162.71 44.01 162.71 44.01 163.03 57.69 176.71 44.01 190.4 44.01 190.71 44.33 190.71 58.01 177.03 71.7 190.71 72.01 190.71 72.01 190.4 58.33 176.71 72.01 163.03 72.01 162.71"/><rect class="a3aca973-df8d-4fc6-b6c2-bebe4d483e1e" x="44.31" y="194.84" width="28" height="28"/><polygon class="e31ac2b7-efc1-4323-9c33-02418e885dc9" points="72.32 194.84 72 194.84 58.31 208.53 44.63 194.84 44.31 194.84 44.31 195.16 58 208.84 44.31 222.53 44.31 222.85 44.63 222.85 58.31 209.16 72 222.85 72.32 222.85 72.32 222.53 58.63 208.84 72.32 195.16 72.32 194.84"/><path class="51a6494b-5e7c-47e7-8f0a-07f0933b741f" d="M435.4,246.27H296a5.36,5.36,0,0,0-5.36,5.36V369.93A5.36,5.36,0,0,0,296,375.3H435.4a5.37,5.37,0,0,0,5.37-5.37V251.64A5.36,5.36,0,0,0,435.4,246.27Z" transform="translate(-285.19 -95.56)"/><path class="fe05496a-d7ae-425e-8b50-eb838e769c0c" d="M435.3,361.72a5.36,5.36,0,0,1-5.36,5.37H290.55a5.37,5.37,0,0,1-5.36-5.37V251.6H435.3V361.72Z" transform="translate(-285.19 -95.56)"/><path class="b692e148-290d-45d8-a730-0065c38d7e74" d="M429.94,238.06H290.55a5.36,5.36,0,0,0-5.36,5.36v8.17H435.3v-8.17A5.36,5.36,0,0,0,429.94,238.06Z" transform="translate(-285.19 -95.56)"/><path class="fdb5c772-a8a4-40da-b0e3-e60c61ab5974" d="M307.64,247.85h0a2.47,2.47,0,0,1-2.48-2.48h0a2.48,2.48,0,0,1,2.48-2.48h0a2.48,2.48,0,0,1,2.48,2.48h0A2.48,2.48,0,0,1,307.64,247.85Z" transform="translate(-285.19 -95.56)"/><path class="fdb5c772-a8a4-40da-b0e3-e60c61ab5974" d="M299.74,247.85h0a2.48,2.48,0,0,1-2.48-2.48h0a2.48,2.48,0,0,1,2.48-2.48h0a2.48,2.48,0,0,1,2.48,2.48h0A2.48,2.48,0,0,1,299.74,247.85Z" transform="translate(-285.19 -95.56)"/><path class="fdb5c772-a8a4-40da-b0e3-e60c61ab5974" d="M291.32,247.85h0a2.47,2.47,0,0,1-2.47-2.48h0a2.48,2.48,0,0,1,2.47-2.48h0a2.48,2.48,0,0,1,2.48,2.48h0A2.47,2.47,0,0,1,291.32,247.85Z" transform="translate(-285.19 -95.56)"/><polygon class="fdb5c772-a8a4-40da-b0e3-e60c61ab5974" points="141.61 146.07 31.72 146.07 31.72 146.07 31.72 153.55 141.61 153.55 141.61 146.07"/><rect class="fdb5c772-a8a4-40da-b0e3-e60c61ab5974" x="295.07" y="263.07" width="95.68" height="4.52" transform="translate(400.62 435.11) rotate(180)"/><rect class="fdb5c772-a8a4-40da-b0e3-e60c61ab5974" x="295.07" y="277.1" width="95.68" height="4.52" transform="translate(400.62 463.15) rotate(180)"/><rect class="fdb5c772-a8a4-40da-b0e3-e60c61ab5974" x="295.07" y="291.36" width="95.68" height="4.52" transform="translate(400.62 491.68) rotate(180)"/><rect class="fdb5c772-a8a4-40da-b0e3-e60c61ab5974" x="295.07" y="306.93" width="95.68" height="4.52" transform="translate(400.62 522.83) rotate(180)"/><rect class="fdb5c772-a8a4-40da-b0e3-e60c61ab5974" x="295.07" y="320.19" width="95.68" height="4.52" transform="translate(400.62 549.34) rotate(180)"/><rect class="fdb5c772-a8a4-40da-b0e3-e60c61ab5974" x="295.07" y="334.46" width="95.68" height="4.51" transform="translate(400.62 577.87) rotate(180)"/><rect class="fdb5c772-a8a4-40da-b0e3-e60c61ab5974" x="295.07" y="350.03" width="95.68" height="4.52" transform="translate(400.62 609.02) rotate(180)"/><rect class="a3aca973-df8d-4fc6-b6c2-bebe4d483e1e" x="401.34" y="262.36" width="28" height="28" transform="translate(545.5 457.17) rotate(180)"/><polygon class="fdb5c772-a8a4-40da-b0e3-e60c61ab5974" points="116.15 166.8 116.47 166.8 130.15 180.49 143.84 166.8 144.16 166.8 144.16 167.12 130.47 180.8 144.16 194.49 144.16 194.8 143.84 194.8 130.15 181.12 116.47 194.8 116.15 194.8 116.15 194.49 129.84 180.8 116.15 167.12 116.15 166.8"/><rect class="a3aca973-df8d-4fc6-b6c2-bebe4d483e1e" x="401.64" y="294.42" width="28" height="28" transform="translate(546.1 521.27) rotate(180)"/><polygon class="fdb5c772-a8a4-40da-b0e3-e60c61ab5974" points="116.46 198.85 116.77 198.85 130.46 212.54 144.14 198.85 144.46 198.85 144.46 199.17 130.77 212.86 144.46 226.54 144.46 226.86 144.14 226.86 130.46 213.17 116.77 226.86 116.46 226.86 116.46 226.54 130.14 212.86 116.46 199.17 116.46 198.85"/><rect class="a3aca973-df8d-4fc6-b6c2-bebe4d483e1e" x="401.34" y="326.55" width="28" height="28" transform="translate(545.5 585.53) rotate(180)"/><polygon class="fdb5c772-a8a4-40da-b0e3-e60c61ab5974" points="116.15 230.98 116.47 230.98 130.15 244.67 143.84 230.98 144.16 230.98 144.16 231.3 130.47 244.99 144.16 258.67 144.16 258.99 143.84 258.99 130.15 245.3 116.47 258.99 116.15 258.99 116.15 258.67 129.84 244.99 116.15 231.3 116.15 230.98"/><path class="51a6494b-5e7c-47e7-8f0a-07f0933b741f" d="M675.61,102.89H572.48a4,4,0,0,0-4,4V233.15a4,4,0,0,0,4,4H675.61a4,4,0,0,0,4-4V106.86A4,4,0,0,0,675.61,102.89Z" transform="translate(-285.19 -95.56)"/><path class="fdb5c772-a8a4-40da-b0e3-e60c61ab5974" d="M674.81,225.82a4,4,0,0,1-4,4H567.71a4,4,0,0,1-4-4V105.58H674.81V225.82Z" transform="translate(-285.19 -95.56)"/><path class="b692e148-290d-45d8-a730-0065c38d7e74" d="M670.84,95.56H567.71a4,4,0,0,0-4,4v6H674.81v-6A4,4,0,0,0,670.84,95.56Z" transform="translate(-285.19 -95.56)"/><path class="fdb5c772-a8a4-40da-b0e3-e60c61ab5974" d="M580.35,102.8h0a1.83,1.83,0,0,1-1.83-1.83h0a1.83,1.83,0,0,1,1.83-1.83h0a1.83,1.83,0,0,1,1.83,1.83h0A1.83,1.83,0,0,1,580.35,102.8Z" transform="translate(-285.19 -95.56)"/><path class="fdb5c772-a8a4-40da-b0e3-e60c61ab5974" d="M574.5,102.8h0a1.83,1.83,0,0,1-1.83-1.83h0a1.83,1.83,0,0,1,1.83-1.83h0a1.83,1.83,0,0,1,1.83,1.83h0A1.83,1.83,0,0,1,574.5,102.8Z" transform="translate(-285.19 -95.56)"/><path class="fdb5c772-a8a4-40da-b0e3-e60c61ab5974" d="M568.27,102.8h0a1.83,1.83,0,0,1-1.83-1.83h0a1.83,1.83,0,0,1,1.83-1.83h0a1.83,1.83,0,0,1,1.83,1.83h0A1.83,1.83,0,0,1,568.27,102.8Z" transform="translate(-285.19 -95.56)"/><polygon class="fdb5c772-a8a4-40da-b0e3-e60c61ab5974" points="383.32 2.64 302.02 2.64 302.02 2.64 302.02 8.18 383.32 8.18 383.32 2.64"/><rect class="fe05496a-d7ae-425e-8b50-eb838e769c0c" x="610.05" y="129.67" width="57.76" height="3.34" transform="translate(992.67 167.12) rotate(180)"/><rect class="4bc8730b-6e8f-4f4a-b6b1-f68d42f00d4b" x="569.21" y="111.59" width="20.01" height="3.35" transform="translate(873.24 130.96) rotate(180)"/><rect class="4bc8730b-6e8f-4f4a-b6b1-f68d42f00d4b" x="596.28" y="111.59" width="20.01" height="3.35" transform="translate(927.37 130.96) rotate(180)"/><rect class="4bc8730b-6e8f-4f4a-b6b1-f68d42f00d4b" x="621.06" y="111.59" width="20.01" height="3.35" transform="translate(976.93 130.96) rotate(180)"/><rect class="4bc8730b-6e8f-4f4a-b6b1-f68d42f00d4b" x="648.12" y="111.59" width="20.01" height="3.35" transform="translate(1031.06 130.96) rotate(180)"/><rect class="fe05496a-d7ae-425e-8b50-eb838e769c0c" x="610.05" y="140.05" width="57.76" height="3.34" transform="translate(992.67 187.87) rotate(180)"/><rect class="fe05496a-d7ae-425e-8b50-eb838e769c0c" x="610.05" y="150.6" width="57.76" height="3.35" transform="translate(992.67 208.98) rotate(180)"/><rect class="a3aca973-df8d-4fc6-b6c2-bebe4d483e1e" x="568.4" y="124.48" width="34.65" height="34.65" transform="translate(886.25 188.05) rotate(180)"/><polygon class="fdb5c772-a8a4-40da-b0e3-e60c61ab5974" points="283.21 28.92 283.6 28.92 300.53 45.85 317.46 28.92 317.86 28.92 317.86 29.31 300.92 46.24 317.86 63.18 317.86 63.57 317.46 63.57 300.53 46.64 283.6 63.57 283.21 63.57 283.21 63.18 300.14 46.24 283.21 29.31 283.21 28.92"/><rect class="fe05496a-d7ae-425e-8b50-eb838e769c0c" x="283.21" y="105.37" width="57.76" height="3.35"/><rect class="fe05496a-d7ae-425e-8b50-eb838e769c0c" x="283.21" y="94.99" width="57.76" height="3.34"/><rect class="fe05496a-d7ae-425e-8b50-eb838e769c0c" x="283.21" y="84.44" width="57.76" height="3.34"/><rect class="a3aca973-df8d-4fc6-b6c2-bebe4d483e1e" x="347.97" y="79.25" width="34.65" height="34.65"/><polygon class="fdb5c772-a8a4-40da-b0e3-e60c61ab5974" points="382.62 113.9 382.23 113.9 365.3 96.97 348.37 113.9 347.97 113.9 347.97 113.51 364.9 96.57 347.97 79.64 347.97 79.25 348.37 79.25 365.3 96.18 382.23 79.25 382.62 79.25 382.62 79.64 365.69 96.57 382.62 113.51 382.62 113.9"/><path class="51a6494b-5e7c-47e7-8f0a-07f0933b741f" d="M582.51,166.34H362.35a5.41,5.41,0,0,0-5.41,5.41v22.35a5.41,5.41,0,0,0,5.41,5.41H582.51a5.41,5.41,0,0,0,5.41-5.41V171.75A5.41,5.41,0,0,0,582.51,166.34Z" transform="translate(-285.19 -95.56)"/><path class="b692e148-290d-45d8-a730-0065c38d7e74" d="M578.78,161.25H358.62a5.41,5.41,0,0,0-5.41,5.41V189a5.41,5.41,0,0,0,5.41,5.41H578.78a5.41,5.41,0,0,0,5.41-5.41V166.66A5.41,5.41,0,0,0,578.78,161.25Z" transform="translate(-285.19 -95.56)"/><path class="fdb5c772-a8a4-40da-b0e3-e60c61ab5974" d="M546.54,163.81H360.36a4.58,4.58,0,0,0-4.58,4.58v18.9a4.58,4.58,0,0,0,4.58,4.58H546.54a4.58,4.58,0,0,0,4.58-4.58v-18.9A4.58,4.58,0,0,0,546.54,163.81Z" transform="translate(-285.19 -95.56)"/><path class="b692e148-290d-45d8-a730-0065c38d7e74" d="M578.78,161.25H538.33v33.18h40.45a5.41,5.41,0,0,0,5.41-5.41V166.66A5.41,5.41,0,0,0,578.78,161.25Z" transform="translate(-285.19 -95.56)"/><path class="fdb5c772-a8a4-40da-b0e3-e60c61ab5974" d="M570.73,188l-8.29-8.29a8.2,8.2,0,0,0-.55-10.89,8.29,8.29,0,0,0-11.73,11.73,8.2,8.2,0,0,0,10.89.55l8.29,8.29ZM551.61,179a6.25,6.25,0,1,1,8.83,0A6.25,6.25,0,0,1,551.61,179Z" transform="translate(-285.19 -95.56)"/><path class="df7a0f02-bc37-4e12-a9d2-379fe767fc9c" d="M570.46,232.67v-1a4,4,0,0,0-4-3.94l-40.54.12a4,4,0,0,0-3.94,4v1a4,4,0,0,0,4,3.95l40.55-.12A4,4,0,0,0,570.46,232.67Z" transform="translate(-285.19 -95.56)"/><path class="a3aca973-df8d-4fc6-b6c2-bebe4d483e1e" d="M647.93,231.95a41.37,41.37,0,1,0-41.25,41.49A41.37,41.37,0,0,0,647.93,231.95Zm-72.21.22a30.84,30.84,0,1,1,30.93,30.75A30.84,30.84,0,0,1,575.72,232.16Z" transform="translate(-285.19 -95.56)"/><rect class="a3aca973-df8d-4fc6-b6c2-bebe4d483e1e" x="545.18" y="220.55" width="4.77" height="23.38" transform="matrix(1, 0, 0, 1, -285.78, -94.16)"/><rect class="a3aca973-df8d-4fc6-b6c2-bebe4d483e1e" x="482.93" y="220.38" width="4.76" height="23.38" transform="translate(-285.78 -94.32) rotate(-0.15)"/><circle class="fdb5c772-a8a4-40da-b0e3-e60c61ab5974" cx="606.85" cy="232.07" r="35.12" transform="translate(-285.88 -93.74) rotate(-0.17)"/><polygon class="a3aca973-df8d-4fc6-b6c2-bebe4d483e1e" points="261.06 145.8 261.01 127.57 200.89 127.75 200.89 145.97 261.06 145.8"/><rect class="20cfc8e0-17cf-4838-a46b-1db0291427a6" x="202.54" y="129.15" width="57.41" height="4.32"/><g class="62bf2668-beab-43ac-ad2d-a9514ceceaf8"><rect class="fe05496a-d7ae-425e-8b50-eb838e769c0c" x="524.83" y="201.69" width="134.13" height="6.34" transform="translate(898.61 314.16) rotate(180)"/><rect class="fe05496a-d7ae-425e-8b50-eb838e769c0c" x="524.83" y="220.27" width="134.13" height="6.34" transform="translate(898.61 351.32) rotate(180)"/><rect class="fe05496a-d7ae-425e-8b50-eb838e769c0c" x="524.83" y="240.27" width="134.13" height="6.33" transform="translate(898.61 391.32) rotate(180)"/><rect class="fe05496a-d7ae-425e-8b50-eb838e769c0c" x="524.83" y="258.94" width="134.13" height="6.33" transform="translate(898.61 428.64) rotate(180)"/><circle class="81d7bc05-8edd-4eca-a46d-cb17d5fd277b" cx="606.55" cy="232.24" r="35.12" transform="translate(-285.87 -93.77) rotate(-0.17)"/></g><path class="a3aca973-df8d-4fc6-b6c2-bebe4d483e1e" d="M615.2,275.35l2.25,8.6,5.45-1.42-2.26-8.64a43.6,43.6,0,0,0,15.13-8.68l6.31,6.31,0.06-.06,3.92-3.93,0.06-.06-6.31-6.3A43.6,43.6,0,0,0,648.5,246l8.64,2.26,1.43-5.45-8.6-2.25a44.13,44.13,0,0,0,0-16.76l8.61-2.25-1.43-5.45-8.66,2.26a43.56,43.56,0,0,0-8.69-15.1l6.34-6.34-4-4-6.34,6.33a43.58,43.58,0,0,0-15.1-8.69L623,182l-5.45-1.42-2.25,8.61a44.13,44.13,0,0,0-16.76,0l-2.25-8.6L590.8,182l2.26,8.64a43.56,43.56,0,0,0-15.13,8.68l-6.3-6.31-0.06.06L567.64,197l-0.06.07,6.3,6.3a43.6,43.6,0,0,0-8.68,15.13l-8.64-2.26-1.42,5.45,8.6,2.25a44.09,44.09,0,0,0,0,16.76l-8.61,2.25,1.42,5.45,8.66-2.26a43.63,43.63,0,0,0,8.69,15.1l-6.33,6.33,4,4,6.33-6.33a43.56,43.56,0,0,0,15.1,8.69l-2.26,8.66,5.45,1.42,2.25-8.61A44.09,44.09,0,0,0,615.2,275.35Zm-34.83-16.63a37.45,37.45,0,1,1,53,0A37.44,37.44,0,0,1,580.37,258.72Z" transform="translate(-285.19 -95.56)"/><circle class="b35b0da4-5189-4909-a8a8-15d24acc3e48" cx="313.23" cy="120.51" r="13.44"/><rect class="a3aca973-df8d-4fc6-b6c2-bebe4d483e1e" x="79.05" y="86.56" width="4.31" height="4.31"/><rect class="a3aca973-df8d-4fc6-b6c2-bebe4d483e1e" x="87.73" y="86.56" width="4.31" height="4.31"/><rect class="a3aca973-df8d-4fc6-b6c2-bebe4d483e1e" x="96.24" y="86.56" width="4.31" height="4.31"/></g></g></g></svg>