<svg xmlns="http://www.w3.org/2000/svg" xmlns:xlink="http://www.w3.org/1999/xlink" viewBox="0 0 479.07 305"><defs><style>.\39 608986e-5c71-41c4-a503-6005512ce8b4{fill:none;}.\39 0d76208-bee8-426e-a927-2f2e2be755cb{isolation:isolate;}.e41fde2a-73d9-400c-8bfa-0e3f4fa17951{opacity:0.1;}.\36 13d5cd1-db70-4880-97f2-9fcf0a0f3551,.b2c4d0e1-0a19-423f-881a-50bd1bfb0977{fill:#19b2c8;}.\33 d0e2fa2-c020-46a6-8589-055aa2513f0b,.\36 13d5cd1-db70-4880-97f2-9fcf0a0f3551{opacity:0.75;}.\36 13d5cd1-db70-4880-97f2-9fcf0a0f3551,.ec24a695-ade3-4439-b7fb-928e8dc4b75c{mix-blend-mode:multiply;}.ec24a695-ade3-4439-b7fb-928e8dc4b75c{fill:#e6e6e6;}.\33 d0e2fa2-c020-46a6-8589-055aa2513f0b,.\39 6add3c5-b000-4b47-96a0-b05773cf0835,.cede6cb7-7437-48b5-9851-c4deb496683f{fill:#fff;}.\33 247c420-5edf-4033-89af-61440eca0f3b{fill:#2d556b;}.\31 c0053c9-9ada-4436-8d03-205ba671ee51{fill:#a3e0e9;}.d93671f7-2659-4898-b583-a62caf496191{fill:#8199a6;}.\36 017d738-ac0b-4e42-932f-e6b5d080fc1f{fill:#bec819;}.dff84403-0047-45fe-ba3a-d91e19d1feb7{fill:#577789;}.\39 ba033ae-debe-4050-867a-41087f17982b{fill:#2d465f;}.\32 2662625-a96b-4168-b468-9f9928606985{fill:#224050;}.f749b2b6-6931-42e2-8a19-ef89281c4689{fill:#677383;}.\39 6add3c5-b000-4b47-96a0-b05773cf0835{opacity:0.25;}.a04f4513-b1ae-4dc2-8c65-044483975f1e{clip-path:url(#a242d148-de08-4ec8-8a4e-b7bd9af57fe1);}</style><clipPath id="a242d148-de08-4ec8-8a4e-b7bd9af57fe1" transform="translate(-252.65 -102.5)"><path class="9608986e-5c71-41c4-a503-6005512ce8b4" d="M432.57,179a39.79,39.79,0,1,0-39.68,39.91A39.79,39.79,0,0,0,432.57,179Z"/></clipPath></defs><title>top-banner_img_rails</title><g class="90d76208-bee8-426e-a927-2f2e2be755cb"><g id="d6142d6d-460e-437a-a86f-5c7c2f5c58e0" data-name="Ebene 1"><g class="e41fde2a-73d9-400c-8bfa-0e3f4fa17951"><path class="613d5cd1-db70-4880-97f2-9fcf0a0f3551" d="M412.37,244.76a44.52,44.52,0,0,0-82.66-31.83,27.67,27.67,0,0,0-41.86,23.8,30.47,30.47,0,0,0,.23,3.41A34.72,34.72,0,0,0,294.29,309h99.32A34.85,34.85,0,0,0,412.37,244.76Z" transform="translate(-252.65 -102.5)"/><path class="613d5cd1-db70-4880-97f2-9fcf0a0f3551" d="M569.65,233.36l4.75-1.24a24,24,0,0,0,4.77,8.32l-3.46,3.46,0,0,2.15,2.15,0,0,3.46-3.46a24,24,0,0,0,8.32,4.77l-1.24,4.75,3,0.78,1.24-4.73a24.29,24.29,0,0,0,9.21,0l1.24,4.73,3-.78-1.25-4.76a24,24,0,0,0,8.3-4.77l3.48,3.48,2.19-2.19-3.48-3.48a24,24,0,0,0,4.77-8.3l4.76,1.24,0.78-3L621,229.16a24.28,24.28,0,0,0,0-9.21l4.73-1.23-0.78-3L620.18,217a24,24,0,0,0-4.77-8.32l3.47-3.47,0,0L616.69,203l0,0-3.46,3.47a23.92,23.92,0,0,0-8.32-4.77l1.24-4.75-3-.78-1.23,4.73a24.27,24.27,0,0,0-9.21,0l-1.24-4.73-3,.78,1.24,4.76a24,24,0,0,0-8.3,4.77L577.89,203l-2.19,2.19,3.48,3.48a24,24,0,0,0-4.77,8.3l-4.76-1.25-0.78,3,4.73,1.24a24.29,24.29,0,0,0,0,9.21l-4.73,1.23Zm16.22-20.25a16.16,16.16,0,1,1,0,22.85A16.16,16.16,0,0,1,585.87,213.11Z" transform="translate(-252.65 -102.5)"/><path class="613d5cd1-db70-4880-97f2-9fcf0a0f3551" d="M607.85,323.07l10.49-2.74a52.9,52.9,0,0,0,10.54,18.37l-7.66,7.66,0.07,0.07,4.76,4.76,0.08,0.08,7.65-7.65a53,53,0,0,0,18.38,10.54l-2.74,10.49,6.62,1.73,2.73-10.44a53.6,53.6,0,0,0,20.36,0l2.73,10.46,6.62-1.73-2.75-10.52a52.93,52.93,0,0,0,18.35-10.55l7.69,7.69,4.84-4.84-7.69-7.69a53,53,0,0,0,10.55-18.34L730,323.14l1.73-6.62-10.46-2.73a53.58,53.58,0,0,0,0-20.35l10.45-2.73L730,284.08l-10.49,2.74A53,53,0,0,0,709,268.45l7.66-7.65-0.07-.08L711.78,256l-0.08-.07L704,263.54A52.9,52.9,0,0,0,685.67,253l2.74-10.49-6.62-1.73-2.73,10.45a53.61,53.61,0,0,0-20.36,0L656,240.78l-6.62,1.73L652.1,253a52.94,52.94,0,0,0-18.34,10.55l-7.69-7.69-4.84,4.84,7.69,7.69a53,53,0,0,0-10.55,18.35L607.85,284l-1.73,6.62,10.46,2.73a53.64,53.64,0,0,0,0,20.36l-10.44,2.73Zm35.83-44.73a35.7,35.7,0,1,1,0,50.48A35.7,35.7,0,0,1,643.68,278.33Z" transform="translate(-252.65 -102.5)"/><path class="ec24a695-ade3-4439-b7fb-928e8dc4b75c" d="M667.76,235H535.19a5.1,5.1,0,0,0-5.1,5.1V402.4a5.1,5.1,0,0,0,5.1,5.1H667.76a5.1,5.1,0,0,0,5.1-5.1V240.06A5.1,5.1,0,0,0,667.76,235Z" transform="translate(-252.65 -102.5)"/><path class="cede6cb7-7437-48b5-9851-c4deb496683f" d="M666.72,393a5.1,5.1,0,0,1-5.1,5.1H529.06A5.1,5.1,0,0,1,524,393V238.42H666.72V393Z" transform="translate(-252.65 -102.5)"/><path class="3247c420-5edf-4033-89af-61440eca0f3b" d="M661.62,225.54H529.06a5.1,5.1,0,0,0-5.1,5.1v7.77H666.72v-7.77A5.1,5.1,0,0,0,661.62,225.54Z" transform="translate(-252.65 -102.5)"/><path class="cede6cb7-7437-48b5-9851-c4deb496683f" d="M545.31,234.85h0A2.35,2.35,0,0,1,543,232.5h0a2.36,2.36,0,0,1,2.35-2.36h0a2.36,2.36,0,0,1,2.36,2.36h0A2.36,2.36,0,0,1,545.31,234.85Z" transform="translate(-252.65 -102.5)"/><path class="cede6cb7-7437-48b5-9851-c4deb496683f" d="M537.79,234.85h0a2.36,2.36,0,0,1-2.36-2.35h0a2.36,2.36,0,0,1,2.36-2.36h0a2.36,2.36,0,0,1,2.35,2.36h0A2.35,2.35,0,0,1,537.79,234.85Z" transform="translate(-252.65 -102.5)"/><path class="cede6cb7-7437-48b5-9851-c4deb496683f" d="M529.79,234.85h0a2.35,2.35,0,0,1-2.35-2.35h0a2.36,2.36,0,0,1,2.35-2.36h0a2.36,2.36,0,0,1,2.36,2.36h0A2.35,2.35,0,0,1,529.79,234.85Z" transform="translate(-252.65 -102.5)"/><polygon class="cede6cb7-7437-48b5-9851-c4deb496683f" points="405.99 126.44 301.48 126.44 301.48 126.44 301.48 133.55 405.99 133.55 405.99 126.44"/><rect class="1c0053c9-9ada-4436-8d03-205ba671ee51" x="583.49" y="269.38" width="74.25" height="4.3" transform="translate(988.57 440.57) rotate(180)"/><rect class="d93671f7-2659-4898-b583-a62caf496191" x="530.99" y="246.14" width="25.72" height="4.3" transform="translate(835.05 394.09) rotate(180)"/><rect class="d93671f7-2659-4898-b583-a62caf496191" x="565.78" y="246.14" width="25.72" height="4.3" transform="translate(904.63 394.09) rotate(180)"/><rect class="d93671f7-2659-4898-b583-a62caf496191" x="597.64" y="246.14" width="25.72" height="4.3" transform="translate(968.34 394.09) rotate(180)"/><rect class="d93671f7-2659-4898-b583-a62caf496191" x="632.42" y="246.14" width="25.72" height="4.3" transform="translate(1037.92 394.09) rotate(180)"/><rect class="1c0053c9-9ada-4436-8d03-205ba671ee51" x="583.49" y="282.72" width="74.25" height="4.3" transform="translate(988.57 467.24) rotate(180)"/><rect class="1c0053c9-9ada-4436-8d03-205ba671ee51" x="583.49" y="296.29" width="74.25" height="4.3" transform="translate(988.57 494.37) rotate(180)"/><rect class="3247c420-5edf-4033-89af-61440eca0f3b" x="529.95" y="262.72" width="44.54" height="44.54" transform="translate(851.78 467.47) rotate(180)"/><polygon class="cede6cb7-7437-48b5-9851-c4deb496683f" points="277.3 160.22 277.8 160.22 299.56 181.98 321.33 160.22 321.83 160.22 321.83 160.72 300.07 182.49 321.83 204.25 321.83 204.75 321.33 204.75 299.56 182.99 277.8 204.75 277.3 204.75 277.3 204.25 299.06 182.49 277.3 160.72 277.3 160.22"/><rect class="1c0053c9-9ada-4436-8d03-205ba671ee51" x="277.3" y="258.48" width="74.25" height="4.3"/><rect class="1c0053c9-9ada-4436-8d03-205ba671ee51" x="277.3" y="245.14" width="74.25" height="4.3"/><rect class="1c0053c9-9ada-4436-8d03-205ba671ee51" x="277.3" y="231.58" width="74.25" height="4.3"/><rect class="3247c420-5edf-4033-89af-61440eca0f3b" x="360.55" y="224.91" width="44.54" height="44.54"/><polygon class="cede6cb7-7437-48b5-9851-c4deb496683f" points="405.08 269.45 404.58 269.45 382.82 247.68 361.05 269.45 360.55 269.45 360.55 268.94 382.31 247.18 360.55 225.41 360.55 224.91 361.05 224.91 382.82 246.67 404.58 224.91 405.08 224.91 405.08 225.41 383.32 247.18 405.08 268.94 405.08 269.45"/><path class="ec24a695-ade3-4439-b7fb-928e8dc4b75c" d="M596.36,165.41h-144a5.54,5.54,0,0,0-5.54,5.54V347.27a5.54,5.54,0,0,0,5.54,5.54h144a5.54,5.54,0,0,0,5.54-5.54V171A5.54,5.54,0,0,0,596.36,165.41Z" transform="translate(-252.65 -102.5)"/><path class="6017d738-ac0b-4e42-932f-e6b5d080fc1f" d="M595.24,337a5.54,5.54,0,0,1-5.54,5.54h-144a5.54,5.54,0,0,1-5.54-5.54V169.16H595.24V337Z" transform="translate(-252.65 -102.5)"/><path class="3247c420-5edf-4033-89af-61440eca0f3b" d="M589.7,155.18h-144a5.54,5.54,0,0,0-5.54,5.54v8.44H595.24v-8.44A5.54,5.54,0,0,0,589.7,155.18Z" transform="translate(-252.65 -102.5)"/><path class="cede6cb7-7437-48b5-9851-c4deb496683f" d="M463.37,165.29h0a2.56,2.56,0,0,1-2.56-2.56h0a2.56,2.56,0,0,1,2.56-2.56h0a2.56,2.56,0,0,1,2.56,2.56h0A2.56,2.56,0,0,1,463.37,165.29Z" transform="translate(-252.65 -102.5)"/><path class="cede6cb7-7437-48b5-9851-c4deb496683f" d="M455.2,165.29h0a2.56,2.56,0,0,1-2.56-2.56h0a2.56,2.56,0,0,1,2.56-2.56h0a2.56,2.56,0,0,1,2.56,2.56h0A2.56,2.56,0,0,1,455.2,165.29Z" transform="translate(-252.65 -102.5)"/><path class="cede6cb7-7437-48b5-9851-c4deb496683f" d="M446.51,165.29h0a2.56,2.56,0,0,1-2.56-2.56h0a2.56,2.56,0,0,1,2.56-2.56h0a2.56,2.56,0,0,1,2.56,2.56h0A2.56,2.56,0,0,1,446.51,165.29Z" transform="translate(-252.65 -102.5)"/><polygon class="cede6cb7-7437-48b5-9851-c4deb496683f" points="333.81 56.37 220.29 56.37 220.29 56.37 220.29 64.09 333.81 64.09 333.81 56.37"/><rect class="3247c420-5edf-4033-89af-61440eca0f3b" x="458.57" y="291.87" width="118.67" height="25.39" transform="translate(783.16 506.62) rotate(180)"/><rect class="cede6cb7-7437-48b5-9851-c4deb496683f" x="496.09" y="185.64" width="81.15" height="6.26" transform="translate(820.68 275.04) rotate(180)"/><rect class="cede6cb7-7437-48b5-9851-c4deb496683f" x="496.09" y="205.06" width="81.15" height="6.26" transform="translate(820.68 313.88) rotate(180)"/><rect class="cede6cb7-7437-48b5-9851-c4deb496683f" x="496.09" y="224.81" width="81.15" height="6.26" transform="translate(820.68 353.39) rotate(180)"/><rect class="cede6cb7-7437-48b5-9851-c4deb496683f" x="243.44" y="159.39" width="81.15" height="6.26"/><rect class="cede6cb7-7437-48b5-9851-c4deb496683f" x="243.44" y="139.64" width="81.15" height="6.26"/><rect class="3247c420-5edf-4033-89af-61440eca0f3b" x="458.17" y="185.48" width="22.25" height="22.25" transform="translate(413.25 -375.19) rotate(90)"/><polygon class="cede6cb7-7437-48b5-9851-c4deb496683f" points="205.52 105.23 205.52 104.98 216.39 94.11 205.52 83.23 205.52 82.98 205.77 82.98 216.65 93.85 227.52 82.98 227.77 82.98 227.77 83.23 216.9 94.11 227.77 104.98 227.77 105.23 227.52 105.23 216.65 94.36 205.77 105.23 205.52 105.23"/><rect class="3247c420-5edf-4033-89af-61440eca0f3b" x="458.17" y="215.68" width="22.25" height="22.25" transform="translate(443.45 -344.99) rotate(90)"/><polygon class="cede6cb7-7437-48b5-9851-c4deb496683f" points="205.52 135.43 205.52 135.18 216.39 124.3 205.52 113.43 205.52 113.18 205.77 113.18 216.65 124.05 227.52 113.18 227.77 113.18 227.77 113.43 216.9 124.3 227.77 135.18 227.77 135.43 227.52 135.43 216.65 124.55 205.77 135.43 205.52 135.43"/><rect class="3247c420-5edf-4033-89af-61440eca0f3b" x="458.17" y="246.82" width="22.25" height="22.25" transform="translate(474.6 -313.85) rotate(90)"/><polygon class="cede6cb7-7437-48b5-9851-c4deb496683f" points="205.52 166.57 205.52 166.32 216.39 155.45 205.52 144.58 205.52 144.32 205.77 144.32 216.65 155.2 227.52 144.32 227.77 144.32 227.77 144.58 216.9 155.45 227.77 166.32 227.77 166.57 227.52 166.57 216.65 155.7 205.77 166.57 205.52 166.57"/><path class="ec24a695-ade3-4439-b7fb-928e8dc4b75c" d="M536.68,112.73h-144a5.54,5.54,0,0,0-5.54,5.54V294.6a5.54,5.54,0,0,0,5.54,5.54h144a5.54,5.54,0,0,0,5.54-5.54V118.28A5.54,5.54,0,0,0,536.68,112.73Z" transform="translate(-252.65 -102.5)"/><path class="cede6cb7-7437-48b5-9851-c4deb496683f" d="M535.56,284.36a5.54,5.54,0,0,1-5.54,5.54H386a5.54,5.54,0,0,1-5.54-5.54V116.48H535.56V284.36Z" transform="translate(-252.65 -102.5)"/><path class="6017d738-ac0b-4e42-932f-e6b5d080fc1f" d="M530,102.5H386a5.54,5.54,0,0,0-5.54,5.54v8.44H535.56V108A5.54,5.54,0,0,0,530,102.5Z" transform="translate(-252.65 -102.5)"/><path class="cede6cb7-7437-48b5-9851-c4deb496683f" d="M403.68,112.61h0a2.56,2.56,0,0,1-2.56-2.56h0a2.56,2.56,0,0,1,2.56-2.56h0a2.56,2.56,0,0,1,2.56,2.56h0A2.56,2.56,0,0,1,403.68,112.61Z" transform="translate(-252.65 -102.5)"/><path class="cede6cb7-7437-48b5-9851-c4deb496683f" d="M395.51,112.61h0a2.56,2.56,0,0,1-2.56-2.56h0a2.56,2.56,0,0,1,2.56-2.56h0a2.56,2.56,0,0,1,2.56,2.56h0A2.56,2.56,0,0,1,395.51,112.61Z" transform="translate(-252.65 -102.5)"/><path class="cede6cb7-7437-48b5-9851-c4deb496683f" d="M386.82,112.61h0a2.56,2.56,0,0,1-2.55-2.56h0a2.56,2.56,0,0,1,2.55-2.56h0a2.56,2.56,0,0,1,2.56,2.56h0A2.56,2.56,0,0,1,386.82,112.61Z" transform="translate(-252.65 -102.5)"/><polygon class="cede6cb7-7437-48b5-9851-c4deb496683f" points="274.12 3.69 160.61 3.69 160.61 3.69 160.61 11.42 274.12 11.42 274.12 3.69"/><rect class="b2c4d0e1-0a19-423f-881a-50bd1bfb0977" x="400.8" y="128.42" width="111.98" height="25.39" transform="translate(660.93 179.73) rotate(180)"/><rect class="1c0053c9-9ada-4436-8d03-205ba671ee51" x="416.21" y="198.46" width="81.15" height="5.26" transform="translate(660.93 299.68) rotate(180)"/><rect class="1c0053c9-9ada-4436-8d03-205ba671ee51" x="416.21" y="214.77" width="81.15" height="5.26" transform="translate(660.93 332.31) rotate(180)"/><rect class="1c0053c9-9ada-4436-8d03-205ba671ee51" x="416.21" y="231.37" width="81.15" height="5.26" transform="translate(660.93 365.49) rotate(180)"/><rect class="1c0053c9-9ada-4436-8d03-205ba671ee51" x="163.56" y="160.02" width="81.15" height="5.26"/><rect class="1c0053c9-9ada-4436-8d03-205ba671ee51" x="163.56" y="143.42" width="81.15" height="5.26"/><rect class="3247c420-5edf-4033-89af-61440eca0f3b" x="162.34" y="57.4" width="22.25" height="22.25"/><polygon class="cede6cb7-7437-48b5-9851-c4deb496683f" points="184.59 79.65 184.34 79.65 173.47 68.77 162.59 79.65 162.34 79.65 162.34 79.4 173.22 68.52 162.34 57.65 162.34 57.4 162.59 57.4 173.47 68.27 184.34 57.4 184.59 57.4 184.59 57.65 173.72 68.52 184.59 79.4 184.59 79.65"/><rect class="3247c420-5edf-4033-89af-61440eca0f3b" x="192.54" y="57.4" width="22.25" height="22.25"/><polygon class="cede6cb7-7437-48b5-9851-c4deb496683f" points="214.79 79.65 214.54 79.65 203.66 68.77 192.79 79.65 192.54 79.65 192.54 79.4 203.41 68.52 192.54 57.65 192.54 57.4 192.79 57.4 203.66 68.27 214.54 57.4 214.79 57.4 214.79 57.65 203.92 68.52 214.79 79.4 214.79 79.65"/><rect class="3247c420-5edf-4033-89af-61440eca0f3b" x="223.69" y="57.4" width="22.25" height="22.25"/><polygon class="cede6cb7-7437-48b5-9851-c4deb496683f" points="245.94 79.65 245.69 79.65 234.81 68.77 223.94 79.65 223.69 79.65 223.69 79.4 234.56 68.52 223.69 57.65 223.69 57.4 223.94 57.4 234.81 68.27 245.69 57.4 245.94 57.4 245.94 57.65 235.07 68.52 245.94 79.4 245.94 79.65"/><path class="dff84403-0047-45fe-ba3a-d91e19d1feb7" d="M450.32,247.33a26.76,26.76,0,0,1,26.76-26.76v-4c-0.55,0-1.1,0-1.65,0l-2-7.64-10.91,2.81,1.92,7.47a31,31,0,0,0-4.88,2.73l-5.25-5.25-8,8,5.26,5.26a30.68,30.68,0,0,0-2.73,4.88l-7.47-1.92-2.8,10.91,7.64,2a29.83,29.83,0,0,0,0,3.93l-7.46,2.26,3.26,10.78,7.07-2.14a30.46,30.46,0,0,0,2.46,4.31l-5,5.05,8,8,5-5a31,31,0,0,0,4.31,2.46l-2.14,7.07,10.78,3.26,2.26-7.46c0.76,0.06,1.52,0,2.28,0v-4A26.76,26.76,0,0,1,450.32,247.33Z" transform="translate(-252.65 -102.5)"/><path class="3247c420-5edf-4033-89af-61440eca0f3b" d="M512.73,261.85l2.8-10.91-7.64-2a31.85,31.85,0,0,0,0-3.93l7.46-2.26L512.06,232,505,234.16a30.81,30.81,0,0,0-2.47-4.31l5-5-8-8-5.05,5a30.3,30.3,0,0,0-4.31-2.46l2.14-7.07-10.78-3.26-2.25,7.46c-0.76-.06-1.52,0-2.28,0v4h0a26.76,26.76,0,0,1,0,53.51h0v4c0.55,0,1.1,0,1.65,0l2,7.64L491.6,283l-1.92-7.48a30.44,30.44,0,0,0,4.88-2.73l5.26,5.26,8-8-5.26-5.26a30.44,30.44,0,0,0,2.73-4.88Z" transform="translate(-252.65 -102.5)"/><path class="9ba033ae-debe-4050-867a-41087f17982b" d="M492.88,247.33a15.92,15.92,0,0,1-.29,3A15.92,15.92,0,0,0,492.88,247.33Z" transform="translate(-252.65 -102.5)"/><path class="9ba033ae-debe-4050-867a-41087f17982b" d="M477.08,231.53h0a15.87,15.87,0,0,1,3,.29A15.87,15.87,0,0,0,477.08,231.53Z" transform="translate(-252.65 -102.5)"/><path class="9ba033ae-debe-4050-867a-41087f17982b" d="M461.31,247.59c0-.09,0-0.17,0-0.26C461.28,247.42,461.3,247.51,461.31,247.59Z" transform="translate(-252.65 -102.5)"/><path class="22662625-a96b-4168-b468-9f9928606985" d="M485.77,260.53a15.8,15.8,0,1,0-24.49-13.2c0,0.09,0,.18,0,0.26A15.82,15.82,0,0,0,485.77,260.53Zm-16.7-21.2a11.32,11.32,0,1,1,0,16A11.31,11.31,0,0,1,469.08,239.33Z" transform="translate(-252.65 -102.5)"/><path class="3247c420-5edf-4033-89af-61440eca0f3b" d="M450.32,247.33a26.76,26.76,0,0,0,26.76,26.76v-11a15.76,15.76,0,0,1-15.77-15.54c0-.09,0-0.17,0-0.26a15.79,15.79,0,0,1,15.8-15.8h0v-11A26.76,26.76,0,0,0,450.32,247.33Z" transform="translate(-252.65 -102.5)"/><path class="9ba033ae-debe-4050-867a-41087f17982b" d="M477.08,231.53a15.79,15.79,0,0,0-15.8,15.8A15.79,15.79,0,0,1,477.08,231.53Z" transform="translate(-252.65 -102.5)"/><path class="9ba033ae-debe-4050-867a-41087f17982b" d="M461.31,247.59a15.2,15.2,0,0,0,6.63,12.57A15.2,15.2,0,0,1,461.31,247.59Z" transform="translate(-252.65 -102.5)"/><path class="3247c420-5edf-4033-89af-61440eca0f3b" d="M480.1,231.82a15.68,15.68,0,0,1,5.68,2.31,15.93,15.93,0,0,1,2.48,2,15.73,15.73,0,0,1,4.34,8.16,16,16,0,0,1,0,6,15.79,15.79,0,0,1-15.51,12.78v11h0a26.76,26.76,0,0,0,0-53.51h0v11A15.87,15.87,0,0,1,480.1,231.82Z" transform="translate(-252.65 -102.5)"/><path class="9ba033ae-debe-4050-867a-41087f17982b" d="M480.1,231.82a15.68,15.68,0,0,1,5.68,2.31A15.68,15.68,0,0,0,480.1,231.82Z" transform="translate(-252.65 -102.5)"/><path class="9ba033ae-debe-4050-867a-41087f17982b" d="M492.59,244.31a15.73,15.73,0,0,0-4.34-8.16,15.93,15.93,0,0,0-2.48-2,15.93,15.93,0,0,1,2.48,2A15.73,15.73,0,0,1,492.59,244.31Z" transform="translate(-252.65 -102.5)"/><path class="9ba033ae-debe-4050-867a-41087f17982b" d="M492.59,244.31a15.94,15.94,0,0,1,.29,3A15.94,15.94,0,0,0,492.59,244.31Z" transform="translate(-252.65 -102.5)"/><path class="cede6cb7-7437-48b5-9851-c4deb496683f" d="M441.5,169.35h0a3.57,3.57,0,0,1-3.57-3.57h0a3.57,3.57,0,0,1,3.57-3.57h0a3.57,3.57,0,0,1,3.57,3.57h0A3.57,3.57,0,0,1,441.5,169.35Z" transform="translate(-252.65 -102.5)"/><path class="ec24a695-ade3-4439-b7fb-928e8dc4b75c" d="M699.83,254.3H358.17a8.4,8.4,0,0,0-8.4,8.4v34.69a8.4,8.4,0,0,0,8.4,8.4H699.83a8.4,8.4,0,0,0,8.4-8.4V262.7A8.4,8.4,0,0,0,699.83,254.3Z" transform="translate(-252.65 -102.5)"/><path class="3247c420-5edf-4033-89af-61440eca0f3b" d="M694,246.4H352.39a8.4,8.4,0,0,0-8.4,8.4v34.69a8.4,8.4,0,0,0,8.4,8.4H694a8.4,8.4,0,0,0,8.4-8.4V254.8A8.4,8.4,0,0,0,694,246.4Z" transform="translate(-252.65 -102.5)"/><path class="cede6cb7-7437-48b5-9851-c4deb496683f" d="M644,250.37H355.08a7.1,7.1,0,0,0-7.1,7.1v29.34a7.1,7.1,0,0,0,7.1,7.1H644a7.1,7.1,0,0,0,7.1-7.1V257.47A7.1,7.1,0,0,0,644,250.37Z" transform="translate(-252.65 -102.5)"/><path class="3247c420-5edf-4033-89af-61440eca0f3b" d="M694,246.4H631.27v51.49H694a8.4,8.4,0,0,0,8.4-8.4V254.8A8.4,8.4,0,0,0,694,246.4Z" transform="translate(-252.65 -102.5)"/><path class="cede6cb7-7437-48b5-9851-c4deb496683f" d="M681.56,287.84L668.69,275a12.73,12.73,0,0,0-.86-16.91,12.87,12.87,0,0,0-18.2,18.2,12.73,12.73,0,0,0,16.91.86L679.41,290ZM651.88,274a9.69,9.69,0,1,1,13.71,0A9.69,9.69,0,0,1,651.88,274Z" transform="translate(-252.65 -102.5)"/><rect class="3247c420-5edf-4033-89af-61440eca0f3b" x="106.58" y="177.52" width="7.14" height="7.14"/><rect class="3247c420-5edf-4033-89af-61440eca0f3b" x="125.55" y="177.52" width="7.14" height="7.14"/><rect class="3247c420-5edf-4033-89af-61440eca0f3b" x="144.57" y="177.52" width="7.14" height="7.14"/><rect class="613d5cd1-db70-4880-97f2-9fcf0a0f3551" x="208.81" y="260.97" width="5.79" height="5.79"/><rect class="613d5cd1-db70-4880-97f2-9fcf0a0f3551" x="224.21" y="260.97" width="5.79" height="5.79"/><rect class="613d5cd1-db70-4880-97f2-9fcf0a0f3551" x="239.65" y="260.97" width="5.79" height="5.79"/><path class="f749b2b6-6931-42e2-8a19-ef89281c4689" d="M351.87,179.57v-1.12a4.48,4.48,0,0,0-4.5-4.47l-45.94.14a4.48,4.48,0,0,0-4.47,4.5v1.11a4.48,4.48,0,0,0,4.49,4.47l46-.14A4.47,4.47,0,0,0,351.87,179.57Z" transform="translate(-252.65 -102.5)"/><path class="3247c420-5edf-4033-89af-61440eca0f3b" d="M439.66,178.75a46.88,46.88,0,1,0-46.74,47A46.88,46.88,0,0,0,439.66,178.75Zm-81.83.24a34.95,34.95,0,1,1,35,34.84A35,35,0,0,1,357.83,179Z" transform="translate(-252.65 -102.5)"/><rect class="3247c420-5edf-4033-89af-61440eca0f3b" x="323.23" y="165.84" width="5.4" height="26.49" transform="translate(-253.13 -101.63) rotate(-0.15)"/><rect class="3247c420-5edf-4033-89af-61440eca0f3b" x="252.69" y="165.64" width="5.4" height="26.49" transform="translate(-253.09 -101.88) rotate(-0.14)"/><circle class="cede6cb7-7437-48b5-9851-c4deb496683f" cx="393.12" cy="178.89" r="39.8" transform="translate(-253.18 -101.33) rotate(-0.17)"/><polygon class="3247c420-5edf-4033-89af-61440eca0f3b" points="71.8 86.92 71.74 66.26 3.61 66.46 3.61 87.11 71.8 86.92"/><rect class="96add3c5-b000-4b47-96a0-b05773cf0835" x="5.48" y="68.05" width="65.06" height="4.89"/><g class="a04f4513-b1ae-4dc2-8c65-044483975f1e"><rect class="1c0053c9-9ada-4436-8d03-205ba671ee51" x="300.17" y="144.46" width="152" height="7.19" transform="translate(499.7 193.61) rotate(180)"/><rect class="1c0053c9-9ada-4436-8d03-205ba671ee51" x="300.17" y="165.51" width="152" height="7.19" transform="translate(499.7 235.71) rotate(180)"/><rect class="1c0053c9-9ada-4436-8d03-205ba671ee51" x="300.17" y="188.18" width="152" height="7.17" transform="translate(499.7 281.04) rotate(180)"/><rect class="1c0053c9-9ada-4436-8d03-205ba671ee51" x="300.17" y="209.33" width="152" height="7.18" transform="translate(499.7 323.34) rotate(180)"/><path class="9608986e-5c71-41c4-a503-6005512ce8b4" d="M432.57,179a39.79,39.79,0,1,0-39.68,39.91A39.79,39.79,0,0,0,432.57,179Z" transform="translate(-252.65 -102.5)"/></g><path class="3247c420-5edf-4033-89af-61440eca0f3b" d="M402.58,227.93l2.55,9.75,6.18-1.61-2.56-9.79a49.42,49.42,0,0,0,17.14-9.83l7.14,7.14,0.07-.07,4.44-4.45,0.07-.07-7.15-7.14a49.41,49.41,0,0,0,9.84-17.14l9.79,2.56,1.62-6.18L442,188.55a50,50,0,0,0,0-19l9.76-2.55-1.62-6.18-9.81,2.57a49.34,49.34,0,0,0-9.84-17.12l7.18-7.18-4.52-4.51-7.18,7.18a49.38,49.38,0,0,0-17.11-9.84l2.56-9.81-6.18-1.61-2.55,9.76a50,50,0,0,0-19,0l-2.55-9.75-6.18,1.61,2.56,9.79a49.39,49.39,0,0,0-17.14,9.84l-7.14-7.15-0.07.07-4.45,4.44-0.07.07,7.14,7.14a49.45,49.45,0,0,0-9.84,17.14l-9.78-2.56-1.61,6.18,9.75,2.55a50,50,0,0,0,0,19l-9.76,2.55,1.61,6.18,9.81-2.56a49.42,49.42,0,0,0,9.85,17.11l-7.18,7.18,4.52,4.52,7.18-7.18a49.36,49.36,0,0,0,17.11,9.84l-2.56,9.81,6.18,1.61,2.55-9.76A50,50,0,0,0,402.58,227.93Zm-39.47-18.84a42.43,42.43,0,1,1,60,0A42.43,42.43,0,0,1,363.11,209.09Z" transform="translate(-252.65 -102.5)"/><circle class="3d0e2fa2-c020-46a6-8589-055aa2513f0b" cx="130.91" cy="58.26" r="15.23"/></g></g></g></svg>