<svg xmlns="http://www.w3.org/2000/svg" viewBox="0 0 598.49 305"><defs><style>.eac60558-4a78-48f9-ab72-944440cf4761{isolation:isolate;}.a8274bec-2e5a-4af4-99c1-213e05c7936a{opacity:0.1;}.\33 9a74af8-cae3-4bd2-9de6-e10917df2035,.\36 4e021a2-6638-40c2-97a3-708d6973f2a4,.a12e092f-1d0c-4b0f-8b8c-871abef82aa9{fill:#4db1c0;}.\36 4e021a2-6638-40c2-97a3-708d6973f2a4,.c6bc4431-ef78-4dff-96f4-036cbf3b9f16{opacity:0.25;}.\38 ba52ae6-c8b9-4388-b995-a88a2f0bb505,.a12e092f-1d0c-4b0f-8b8c-871abef82aa9,.b13d1a98-8fc5-4b32-a732-200174bb6a38,.f828d276-13c3-4a99-a2ae-fc7a49190538{opacity:0.5;}.\37 86a7150-6546-4efe-be35-65e37f00a4de,.a12e092f-1d0c-4b0f-8b8c-871abef82aa9,.f828d276-13c3-4a99-a2ae-fc7a49190538{mix-blend-mode:multiply;}.\39 1b7f5c6-6360-436e-bef1-b421ad1a0d68{fill:#53677a;}.\30 bfaba57-d4a6-40f7-98e0-6a60ec2c2555,.\35 e1c094d-8931-4abc-8db7-4b11b1fd2485,.ae16caad-306f-4f82-b3b9-1fccd0f4e8b0{fill:#fff;}.ae16caad-306f-4f82-b3b9-1fccd0f4e8b0{opacity:0.15;}.bf0111b6-a057-499b-9b5d-ab5da964cccd{fill:#4ba5a5;}.\30 a4c1fca-48a4-4e0e-bbb0-00852ea6d12c{fill:#6ba5a5;}.d64dc3ad-b54a-41fa-beca-67b395ec76a9{fill:#415064;}.\32 e35f6a3-a55a-4e4f-8242-4dcb9628ee26{fill:#df593a;}.\39 bcd66da-cf58-4265-82a4-62764b3eb451{fill:#fa593a;}.\37 86a7150-6546-4efe-be35-65e37f00a4de{fill:#3684a0;opacity:0.21;}.\30 d90a890-8662-482e-8d19-87a9e8d181b6{fill:#e6e6e6;}.\36 1323f36-4ac5-43db-9137-c333914c50d3{fill:#b3b3b3;}.b13d1a98-8fc5-4b32-a732-200174bb6a38{fill:#758595;}.\31 bdebd88-5031-41a9-bfe6-9b731364678a{fill:#fb7a61;}.d8726fa6-0d43-4364-a625-b526d9ad0d62{fill:#ffe0a3;}.cf08efc4-9719-4996-bd10-2b4edfb91c7f{fill:#ccc;}.\32 a964574-6d57-4fad-af62-37ff8be32c6d{fill:#f2f2f2;}.\35 e1c094d-8931-4abc-8db7-4b11b1fd2485{opacity:0.4;}</style></defs><title>top-banner_img_legal</title><g class="eac60558-4a78-48f9-ab72-944440cf4761"><g id="a09c10a2-84a9-4eeb-af61-133bfef7e564" data-name="Ebene 1"><g class="a8274bec-2e5a-4af4-99c1-213e05c7936a"><path class="64e021a2-6638-40c2-97a3-708d6973f2a4" d="M559.59,172.75a22.84,22.84,0,0,0-42.4-16.33,14.19,14.19,0,0,0-21.47,12.21,15.75,15.75,0,0,0,.12,1.75A17.81,17.81,0,0,0,499,205.71h20.84V189.87H516c-3,0-4.21-1.3-2.72-2.91l2.4-2.57c1.49-1.6,4-4.23,5.45-5.84l2.4-2.57a3.69,3.69,0,0,1,5.45,0l2.4,2.56,5.44,5.85,2.38,2.56c1.51,1.63.27,2.92-2.71,2.92h-3.83v15.83H550A17.88,17.88,0,0,0,559.59,172.75Z" transform="translate(-154.69 -143.91)"/><g class="f828d276-13c3-4a99-a2ae-fc7a49190538"><g class="f828d276-13c3-4a99-a2ae-fc7a49190538"><polygon class="39a74af8-cae3-4bd2-9de6-e10917df2035" points="160.66 79.57 160.67 76.28 160.66 76.28 160.67 74.54 66.98 74.34 66.98 77.63 66.98 77.63 66.98 79.37 160.66 79.57"/><polygon class="39a74af8-cae3-4bd2-9de6-e10917df2035" points="160.63 95.86 160.64 92.57 160.63 92.57 160.64 90.83 66.95 90.63 66.95 93.92 66.95 93.92 66.95 95.66 160.63 95.86"/><polygon class="39a74af8-cae3-4bd2-9de6-e10917df2035" points="160.6 111.46 160.61 108.17 160.61 108.17 160.61 106.43 66.93 106.23 66.92 109.52 66.92 109.52 66.92 111.26 160.6 111.46"/><polygon class="39a74af8-cae3-4bd2-9de6-e10917df2035" points="67.01 58.11 67.01 61.4 67.01 61.4 67.01 63.14 160.69 63.34 160.7 60.05 160.69 60.05 160.7 58.31 67.01 58.11"/><polygon class="39a74af8-cae3-4bd2-9de6-e10917df2035" points="67 121.14 66.99 124.43 67 124.43 66.99 126.17 160.68 126.37 160.68 123.08 160.68 123.08 160.68 121.34 67 121.14"/><polygon class="39a74af8-cae3-4bd2-9de6-e10917df2035" points="160.59 142.63 160.6 139.35 160.6 139.35 160.6 137.61 66.92 137.41 66.92 140.69 66.92 140.69 66.92 142.44 160.59 142.63"/><polygon class="39a74af8-cae3-4bd2-9de6-e10917df2035" points="160.57 158.23 160.57 154.95 160.57 154.95 160.57 153.21 66.89 153.01 66.89 156.29 66.89 156.29 66.89 158.03 160.57 158.23"/></g><g class="f828d276-13c3-4a99-a2ae-fc7a49190538"><path class="39a74af8-cae3-4bd2-9de6-e10917df2035" d="M250.74,192.7l-3-7.4H231.17l-2.95,7.4h-4.75l13.41-33.36H242l13.45,33.36h-4.74Zm-11.26-29.06-7.1,18h14.15Z" transform="translate(-154.69 -143.91)"/></g></g><path class="91b7f5c6-6360-436e-bef1-b421ad1a0d68" d="M696.1,405H537.4v3.65h19.1v24.62H537.4v3.65H696.1A16,16,0,0,0,696.1,405Z" transform="translate(-154.69 -143.91)"/><path class="0bfaba57-d4a6-40f7-98e0-6a60ec2c2555" d="M707.88,421a12.31,12.31,0,0,0-12.31-12.31H538.92v24.62H695.57A12.31,12.31,0,0,0,707.88,421Z" transform="translate(-154.69 -143.91)"/><path class="ae16caad-306f-4f82-b3b9-1fccd0f4e8b0" d="M696.1,405H537.4v3.65h1.52V421H712.06A16,16,0,0,0,696.1,405Z" transform="translate(-154.69 -143.91)"/><path class="91b7f5c6-6360-436e-bef1-b421ad1a0d68" d="M678.16,298.28H553.1v2.88h15.05v19.4H553.1v2.88H678.16A12.58,12.58,0,1,0,678.16,298.28Z" transform="translate(-154.69 -143.91)"/><path class="0bfaba57-d4a6-40f7-98e0-6a60ec2c2555" d="M687.45,310.86a9.7,9.7,0,0,0-9.7-9.7H554.3v19.4H677.74A9.7,9.7,0,0,0,687.45,310.86Z" transform="translate(-154.69 -143.91)"/><path class="ae16caad-306f-4f82-b3b9-1fccd0f4e8b0" d="M678.16,298.28H553.1v2.88h1.2v9.7H690.74A12.58,12.58,0,0,0,678.16,298.28Z" transform="translate(-154.69 -143.91)"/><path class="91b7f5c6-6360-436e-bef1-b421ad1a0d68" d="M556.08,348.81H693.63V352H677.07v21.34h16.56v3.17H556.08A13.84,13.84,0,1,1,556.08,348.81Z" transform="translate(-154.69 -143.91)"/><path class="0bfaba57-d4a6-40f7-98e0-6a60ec2c2555" d="M545.87,362.65A10.67,10.67,0,0,1,556.54,352H692.31l-5.46,10.67,5.46,10.67H556.54A10.67,10.67,0,0,1,545.87,362.65Z" transform="translate(-154.69 -143.91)"/><path class="ae16caad-306f-4f82-b3b9-1fccd0f4e8b0" d="M556.08,348.81H693.63V352h-1.32l-5.46,10.67H542.24A13.84,13.84,0,0,1,556.08,348.81Z" transform="translate(-154.69 -143.91)"/><path class="bf0111b6-a057-499b-9b5d-ab5da964cccd" d="M528.9,376.49a1.25,1.25,0,0,0-1.34,1.14v26.23A1.25,1.25,0,0,0,528.9,405H640.3V376.49H528.9Z" transform="translate(-154.69 -143.91)"/><path class="bf0111b6-a057-499b-9b5d-ab5da964cccd" d="M676.65,376.49h-26.6V405h26.6a1.14,1.14,0,0,0,1.14-1.14V377.63A1.14,1.14,0,0,0,676.65,376.49Z" transform="translate(-154.69 -143.91)"/><rect class="91b7f5c6-6360-436e-bef1-b421ad1a0d68" x="480.12" y="232.58" width="26.23" height="28.51"/><path class="ae16caad-306f-4f82-b3b9-1fccd0f4e8b0" d="M677.79,377.63a1.14,1.14,0,0,0-1.14-1.14H528.71a1.14,1.14,0,0,0-1.14,1.14v13.12H677.79V377.63Z" transform="translate(-154.69 -143.91)"/><path class="bf0111b6-a057-499b-9b5d-ab5da964cccd" d="M667.38,323.44a1,1,0,0,1,1,1V347.8a1,1,0,0,1-1,1H582.73V323.44h84.65Z" transform="translate(-154.69 -143.91)"/><path class="0a4c1fca-48a4-4e0e-bbb0-00852ea6d12c" d="M535.72,323.44h23.67v25.37H535.72a1,1,0,0,1-1-1V324.46A1,1,0,0,1,535.72,323.44Z" transform="translate(-154.69 -143.91)"/><rect class="d64dc3ad-b54a-41fa-beca-67b395ec76a9" x="404.7" y="179.53" width="23.34" height="25.37"/><path class="ae16caad-306f-4f82-b3b9-1fccd0f4e8b0" d="M534.7,324.46a1,1,0,0,1,1-1H667.38a1,1,0,0,1,1,1v11.67H534.7V324.46Z" transform="translate(-154.69 -143.91)"/><polygon class="2e35f6a3-a55a-4e4f-8242-4dcb9628ee26" points="502.72 240 502.72 218.83 497.3 218.83 497.3 234.58 502.72 240"/><polygon class="9bcd66da-cf58-4265-82a4-62764b3eb451" points="491.89 240 497.3 234.58 497.3 218.83 491.89 218.83 491.89 240"/><g class="8ba52ae6-c8b9-4388-b995-a88a2f0bb505"><rect class="a12e092f-1d0c-4b0f-8b8c-871abef82aa9" x="173.84" y="33.67" width="7.08" height="7.08"/><rect class="a12e092f-1d0c-4b0f-8b8c-871abef82aa9" x="161.69" y="33.61" width="7.08" height="7.08"/><rect class="a12e092f-1d0c-4b0f-8b8c-871abef82aa9" x="149.63" y="33.67" width="7.08" height="7.08"/></g><ellipse class="786a7150-6546-4efe-be35-65e37f00a4de" cx="280.88" cy="289.4" rx="80.43" ry="15.6"/><path class="0d90a890-8662-482e-8d19-87a9e8d181b6" d="M482.16,428.45l-0.08,0H388.64l-9.22,5.18a0.4,0.4,0,0,0-.07.08H490.27a0.21,0.21,0,0,0,0,0Z" transform="translate(-154.69 -143.91)"/><path class="61323f36-4ac5-43db-9137-c333914c50d3" d="M489.78,433.51H379.84a1.33,1.33,0,1,0,0,2.66H489.78A1.33,1.33,0,1,0,489.78,433.51Z" transform="translate(-154.69 -143.91)"/><path class="91b7f5c6-6360-436e-bef1-b421ad1a0d68" d="M300.41,403.52H572.08a5.34,5.34,0,0,0,5.34-5.33V200.69a5.34,5.34,0,0,0-5.34-5.34H300.41a5.34,5.34,0,0,0-5.34,5.34v197.5A5.34,5.34,0,0,0,300.41,403.52Z" transform="translate(-154.69 -143.91)"/><rect class="b13d1a98-8fc5-4b32-a732-200174bb6a38" x="149.49" y="62.94" width="263.38" height="158.07"/><path class="0bfaba57-d4a6-40f7-98e0-6a60ec2c2555" d="M295.08,398.19a5.34,5.34,0,0,0,5.34,5.33H572.08a5.34,5.34,0,0,0,5.34-5.33v-21H295.08v21Z" transform="translate(-154.69 -143.91)"/><rect class="0bfaba57-d4a6-40f7-98e0-6a60ec2c2555" x="242.99" y="253.36" width="75.75" height="31.15"/><rect class="0d90a890-8662-482e-8d19-87a9e8d181b6" x="242.99" y="259.51" width="75.75" height="3.27"/><rect class="0bfaba57-d4a6-40f7-98e0-6a60ec2c2555" x="152.95" y="217.07" width="84.58" height="2.3"/><rect class="1bdebd88-5031-41a9-bfe6-9b731364678a" x="244.84" y="217.07" width="42.96" height="2.3"/><rect class="d8726fa6-0d43-4364-a625-b526d9ad0d62" x="320.88" y="110.63" width="42.95" height="2.3"/><rect class="1bdebd88-5031-41a9-bfe6-9b731364678a" x="242.44" y="110.63" width="44.33" height="2.3"/><rect class="d8726fa6-0d43-4364-a625-b526d9ad0d62" x="152.95" y="209.65" width="84.58" height="2.3"/><rect class="cf08efc4-9719-4996-bd10-2b4edfb91c7f" x="309.11" y="202.13" width="84.59" height="2.3"/><rect class="0bfaba57-d4a6-40f7-98e0-6a60ec2c2555" x="152.95" y="202.13" width="149.73" height="2.3"/><rect class="0bfaba57-d4a6-40f7-98e0-6a60ec2c2555" x="252.19" y="187.37" width="149.73" height="2.3"/><rect class="cf08efc4-9719-4996-bd10-2b4edfb91c7f" x="152.95" y="194.82" width="97.4" height="2.3"/><rect class="cf08efc4-9719-4996-bd10-2b4edfb91c7f" x="152.95" y="187.37" width="84.58" height="2.3"/><rect class="cf08efc4-9719-4996-bd10-2b4edfb91c7f" x="154.12" y="100.23" width="84.59" height="2.3"/><rect class="cf08efc4-9719-4996-bd10-2b4edfb91c7f" x="246.01" y="100.23" width="42.95" height="2.3"/><rect class="0bfaba57-d4a6-40f7-98e0-6a60ec2c2555" x="154.12" y="92.82" width="35.58" height="2.3"/><rect class="cf08efc4-9719-4996-bd10-2b4edfb91c7f" x="310.29" y="85.29" width="84.58" height="2.3"/><rect class="1bdebd88-5031-41a9-bfe6-9b731364678a" x="154.12" y="85.29" width="97.66" height="2.3"/><rect class="0bfaba57-d4a6-40f7-98e0-6a60ec2c2555" x="253.36" y="70.54" width="149.73" height="2.3"/><rect class="0bfaba57-d4a6-40f7-98e0-6a60ec2c2555" x="154.12" y="77.98" width="149.73" height="2.3"/><rect class="d8726fa6-0d43-4364-a625-b526d9ad0d62" x="154.12" y="70.54" width="84.59" height="2.3"/><rect class="1bdebd88-5031-41a9-bfe6-9b731364678a" x="153.41" y="140.33" width="55.73" height="2.3"/><rect class="0bfaba57-d4a6-40f7-98e0-6a60ec2c2555" x="153.41" y="132.91" width="148.94" height="2.3"/><rect class="cf08efc4-9719-4996-bd10-2b4edfb91c7f" x="153.41" y="125.38" width="84.58" height="2.3"/><rect class="2a964574-6d57-4fad-af62-37ff8be32c6d" x="242.93" y="125.38" width="84.59" height="2.3"/><rect class="0bfaba57-d4a6-40f7-98e0-6a60ec2c2555" x="153.41" y="118.07" width="42.34" height="2.3"/><rect class="0bfaba57-d4a6-40f7-98e0-6a60ec2c2555" x="153.41" y="110.63" width="50.81" height="2.3"/><rect class="d8726fa6-0d43-4364-a625-b526d9ad0d62" x="242.87" y="170.71" width="42.96" height="2.3"/><rect class="cf08efc4-9719-4996-bd10-2b4edfb91c7f" x="326.18" y="155.88" width="42.95" height="2.3"/><rect class="cf08efc4-9719-4996-bd10-2b4edfb91c7f" x="247.74" y="178.13" width="72.34" height="2.3"/><rect class="2a964574-6d57-4fad-af62-37ff8be32c6d" x="247.74" y="155.88" width="72.34" height="2.3"/><rect class="0bfaba57-d4a6-40f7-98e0-6a60ec2c2555" x="307.64" y="322.04" width="84.59" height="2.3" transform="translate(545.18 502.47) rotate(180)"/><rect class="cf08efc4-9719-4996-bd10-2b4edfb91c7f" x="307.64" y="314.62" width="84.59" height="2.3" transform="translate(545.18 487.64) rotate(180)"/><rect class="1bdebd88-5031-41a9-bfe6-9b731364678a" x="307.64" y="307.09" width="44.9" height="2.3" transform="translate(505.48 472.58) rotate(180)"/><rect class="cf08efc4-9719-4996-bd10-2b4edfb91c7f" x="307.64" y="299.79" width="84.59" height="2.3" transform="translate(545.18 457.96) rotate(180)"/><rect class="0bfaba57-d4a6-40f7-98e0-6a60ec2c2555" x="307.64" y="292.34" width="84.59" height="2.3" transform="translate(545.18 443.08) rotate(180)"/><path class="bf0111b6-a057-499b-9b5d-ab5da964cccd" d="M264.36,270.15a1.28,1.28,0,0,1,1.66-.73l27.5,10.76a1.28,1.28,0,0,1,.73,1.66l-39,99.71-29.89-11.7Z" transform="translate(-154.69 -143.91)"/><path class="bf0111b6-a057-499b-9b5d-ab5da964cccd" d="M203.66,425.23l10.91-27.88,29.89,11.7-10.91,27.88a1.28,1.28,0,0,1-1.66.73l-27.5-10.76A1.28,1.28,0,0,1,203.66,425.23Z" transform="translate(-154.69 -143.91)"/><rect class="91b7f5c6-6360-436e-bef1-b421ad1a0d68" x="220.13" y="373.41" width="29.53" height="32.09" transform="translate(-368.07 322.35) rotate(-68.63)"/><rect class="91b7f5c6-6360-436e-bef1-b421ad1a0d68" x="272.62" y="271.09" width="4.65" height="32.09" transform="translate(-247.34 294.62) rotate(-68.63)"/><path class="ae16caad-306f-4f82-b3b9-1fccd0f4e8b0" d="M204.39,426.9a1.28,1.28,0,0,1-.73-1.66l10.91-27.88,10.76-27.5,39-99.71a1.28,1.28,0,0,1,1.66-.73l13.75,5.38L218.14,432.28Z" transform="translate(-154.69 -143.91)"/><polygon class="5e1c094d-8931-4abc-8db7-4b11b1fd2485" points="149.49 62.94 149.49 220.73 412.73 62.94 149.49 62.94"/><path class="64e021a2-6638-40c2-97a3-708d6973f2a4" d="M197.26,346.84a9.12,9.12,0,0,0,2.62-8.29l-3.59,3.55a3.63,3.63,0,0,1-5.14,0l-1-1a3.63,3.63,0,0,1,0-5.13l3.59-3.55a9.32,9.32,0,0,0-10.93,10.81l-5.52,5.46-5.41-5.47a9.31,9.31,0,0,0-10.81-10.94l3.55,3.6a3.63,3.63,0,0,1,0,5.13l-1,1a3.63,3.63,0,0,1-5.14,0l-3.56-3.6a9.32,9.32,0,0,0,10.81,10.94l5.41,5.47-9.22,9.11a3.63,3.63,0,0,0,0,5.13l1,1a3.63,3.63,0,0,0,5.13,0l9.22-9.11,9.16,9.27a3.62,3.62,0,0,0,5.13,0l1-1a3.63,3.63,0,0,0,0-5.13l-9.15-9.27,5.52-5.45A9.13,9.13,0,0,0,197.26,346.84Z" transform="translate(-154.69 -143.91)"/><g class="c6bc4431-ef78-4dff-96f4-036cbf3b9f16"><path class="39a74af8-cae3-4bd2-9de6-e10917df2035" d="M743.59,367.29h-4.41V348.23c0-.91-1.09-1.65-2.44-1.65H726.9c-1.35,0-2.44.74-2.44,1.65v19h-4.4c-3.44,0-4.85,1.51-3.14,3.36l2.75,2.95,6.26,6.72,2.75,3a4.24,4.24,0,0,0,6.26,0l2.75-2.95,6.27-6.71,2.75-2.94C748.44,368.8,747,367.29,743.59,367.29Z" transform="translate(-154.69 -143.91)"/><path class="39a74af8-cae3-4bd2-9de6-e10917df2035" d="M752,382.37a1.18,1.18,0,0,0-1.18,1.18v2.55H714.24v-2.55a1.18,1.18,0,1,0-2.36,0v5.1a1.18,1.18,0,0,0,1.18,1.18,1.25,1.25,0,0,0,.25-0.05h38.44a1.09,1.09,0,0,0,1.43-1.13v-5.1A1.18,1.18,0,0,0,752,382.37Z" transform="translate(-154.69 -143.91)"/></g></g></g></g></svg>