<svg xmlns="http://www.w3.org/2000/svg" viewBox="0 0 428.24 305"><defs><style>.\35 ef2a6a4-12cd-41d5-8518-04bbf04d1749{isolation:isolate;}.\34 1d54de8-1705-44cb-88ce-1d0b7663820a{opacity:0.1;}.\35 210f9d3-1ff7-4ca3-a151-66343b81f44b,.\35 c63abb2-c85e-4469-ab66-d0f4406cede7,.c124e088-99e1-4506-8cdc-66335c11a7b6{fill:#bec819;}.\31 45b5bc4-be40-42eb-ba6d-3ba12fa12e4f,.\35 210f9d3-1ff7-4ca3-a151-66343b81f44b,.\35 2d1b0d7-7ee3-4380-bcb8-209c7db7d42c,.\35 c63abb2-c85e-4469-ab66-d0f4406cede7,.b7e36a5b-0cd1-4206-93f0-6a7ea04aa878,.c124e088-99e1-4506-8cdc-66335c11a7b6,.d65431b8-63c7-4700-b8cc-0deb85ac6250{mix-blend-mode:multiply;}.b7e36a5b-0cd1-4206-93f0-6a7ea04aa878,.c124e088-99e1-4506-8cdc-66335c11a7b6{opacity:0.75;}.\35 210f9d3-1ff7-4ca3-a151-66343b81f44b,.\35 2d1b0d7-7ee3-4380-bcb8-209c7db7d42c{opacity:0.25;}.\37 e4d3386-9bbe-4f49-b6ee-8b18f580d5b9{fill:#f28257;}.f86c6021-888e-4a4e-9b12-2b14e4e80f7e{fill:#2d556b;}.\36 2f48376-7a80-4154-afb1-fd9c9cc0c0a3{fill:#9da7b4;}.\34 cab450f-62ef-403e-b59f-10f1da393a4b{fill:#fff;}.\32 c7616fa-5743-439d-976b-84561bad61a8{fill:#f2f2f2;}.\30 c66e9c4-c5bd-4b8a-91bb-a9a52055f8d3{fill:#ccc;}.d1a7a61a-1ffd-43b7-8205-7b0033206480{fill:#b3b9c1;}.\30 d615557-5592-4263-818e-7fbb44fabbfb{fill:#999;}.\31 45b5bc4-be40-42eb-ba6d-3ba12fa12e4f,.\32 f0f3db8-8b68-4359-95c3-83974d12edd2{fill:#f7f7f7;}.\35 540d1d0-2dc5-4ed5-8a2e-482d4c82a62f{fill:#e6e6e6;}.\33 d4a1dcb-8cc9-4a79-8578-32ac3386b1ab,.\35 2d1b0d7-7ee3-4380-bcb8-209c7db7d42c,.d65431b8-63c7-4700-b8cc-0deb85ac6250{fill:#19b2c8;}.\34 56fdc44-79a4-4f8e-8c84-d25459007ef7{fill:#75d1de;}.\37 20d846e-adb6-4152-836c-f76bf747de60{fill:#13879e;}.d65431b8-63c7-4700-b8cc-0deb85ac6250{opacity:0.35;}</style></defs><title>top-banner_img_wordpress</title><g class="5ef2a6a4-12cd-41d5-8518-04bbf04d1749"><g id="b58a9b63-7eed-4492-8da3-d9446447e395" data-name="Ebene 1"><g class="41d54de8-1705-44cb-88ce-1d0b7663820a"><path class="5c63abb2-c85e-4469-ab66-d0f4406cede7" d="M300.64,169.28H247.82A10.72,10.72,0,0,0,237.1,180v21.56a10.72,10.72,0,0,0,10.72,10.72,5.54,5.54,0,0,1,5.54,5.54v6.67a1,1,0,0,0,1.77.74l11.32-11.32a5.54,5.54,0,0,1,3.91-1.62h30.27a10.72,10.72,0,0,0,10.72-10.72V180A10.72,10.72,0,0,0,300.64,169.28Zm-41.1,27.19a5.09,5.09,0,1,1,5.09-5.09A5.09,5.09,0,0,1,259.54,196.48Zm15.18,0a5.09,5.09,0,1,1,5.09-5.09A5.09,5.09,0,0,1,274.71,196.48Zm14.21,0a5.09,5.09,0,1,1,5.09-5.09A5.09,5.09,0,0,1,288.92,196.48Z" transform="translate(-237.1 -132.94)"/><g class="b7e36a5b-0cd1-4206-93f0-6a7ea04aa878"><rect class="c124e088-99e1-4506-8cdc-66335c11a7b6" x="340.89" y="108.41" width="87.35" height="3.49"/><rect class="c124e088-99e1-4506-8cdc-66335c11a7b6" x="340.89" y="120.43" width="87.35" height="3.49"/><rect class="c124e088-99e1-4506-8cdc-66335c11a7b6" x="340.89" y="131.25" width="87.35" height="3.49"/><rect class="c124e088-99e1-4506-8cdc-66335c11a7b6" x="340.89" y="142.26" width="87.35" height="3.49"/><rect class="c124e088-99e1-4506-8cdc-66335c11a7b6" x="340.89" y="154.28" width="87.35" height="3.49"/><rect class="c124e088-99e1-4506-8cdc-66335c11a7b6" x="340.89" y="164.51" width="87.35" height="3.49"/><rect class="c124e088-99e1-4506-8cdc-66335c11a7b6" x="340.89" y="175.52" width="87.35" height="3.49"/><rect class="c124e088-99e1-4506-8cdc-66335c11a7b6" x="340.89" y="187.55" width="87.35" height="3.49"/></g><ellipse class="5210f9d3-1ff7-4ca3-a151-66343b81f44b" cx="234.52" cy="243.05" rx="162.12" ry="61.95"/><rect class="7e4d3386-9bbe-4f49-b6ee-8b18f580d5b9" x="290.6" y="103.63" width="23.5" height="2.51"/><path class="f86c6021-888e-4a4e-9b12-2b14e4e80f7e" d="M536.32,291.4a14.8,14.8,0,0,1-14.79-14.6H449.2A14.8,14.8,0,0,0,464,291.4c0.28,0,.55-0.07.83-0.08v0.08h71.51Z" transform="translate(-237.1 -132.94)"/><rect class="62f48376-7a80-4154-afb1-fd9c9cc0c0a3" x="239.84" y="96.47" width="63.67" height="2.55"/><rect class="62f48376-7a80-4154-afb1-fd9c9cc0c0a3" x="239.84" y="104.49" width="63.67" height="2.54"/><rect class="62f48376-7a80-4154-afb1-fd9c9cc0c0a3" x="239.84" y="113.26" width="63.67" height="2.54"/><path class="f86c6021-888e-4a4e-9b12-2b14e4e80f7e" d="M418.71,196.65h67.6a17.63,17.63,0,0,1,17.62-17.41c0.11,0,.21,0,0.31,0a17.63,17.63,0,0,1,17.33,17.61v24.24H418.71V196.65Z" transform="translate(-237.1 -132.94)"/><rect class="f86c6021-888e-4a4e-9b12-2b14e4e80f7e" x="211.96" y="82.35" width="72.48" height="61.51"/><path class="4cab450f-62ef-403e-b59f-10f1da393a4b" d="M400.11,238.16h56.72a14.79,14.79,0,0,0,14.78,14.6l0.26,0A14.79,14.79,0,0,0,486.42,238l-0.11-41.3H400Z" transform="translate(-237.1 -132.94)"/><path class="2c7616fa-5743-439d-976b-84561bad61a8" d="M503.93,179.25a17.63,17.63,0,0,0-17.62,17.41h-86.2a17.63,17.63,0,0,1,17.62-17.41c0.34,0,.65.08,1,0.1v-0.1h85.22Z" transform="translate(-237.1 -132.94)"/><path class="f86c6021-888e-4a4e-9b12-2b14e4e80f7e" d="M471.61,252.76a14.79,14.79,0,0,1-14.78-14.6H384.5a14.79,14.79,0,0,0,14.78,14.6c0.28,0,.55-0.07.83-0.08v0.08h71.5Z" transform="translate(-237.1 -132.94)"/><rect class="62f48376-7a80-4154-afb1-fd9c9cc0c0a3" x="170.48" y="76.46" width="63.67" height="2.55"/><rect class="62f48376-7a80-4154-afb1-fd9c9cc0c0a3" x="170.48" y="84.49" width="63.67" height="2.54"/><rect class="62f48376-7a80-4154-afb1-fd9c9cc0c0a3" x="170.48" y="93.25" width="63.67" height="2.54"/><path class="f86c6021-888e-4a4e-9b12-2b14e4e80f7e" d="M384.5,173.78h37.29a17.63,17.63,0,0,1,17.62-17.41c0.11,0,.2,0,0.31,0A17.63,17.63,0,0,1,457.06,174v64.19H384.5V173.78Z" transform="translate(-237.1 -132.94)"/><path class="f86c6021-888e-4a4e-9b12-2b14e4e80f7e" d="M585.12,325.53H353.6v-148c0-3.38,3-6.11,6.75-6.11h218c3.73,0,6.75,2.74,6.75,6.11v148Z" transform="translate(-237.1 -132.94)"/><rect class="4cab450f-62ef-403e-b59f-10f1da393a4b" x="126.35" y="50.41" width="212.45" height="121.62"/><path class="4cab450f-62ef-403e-b59f-10f1da393a4b" d="M575.89,183.35H363.44V305H575.89V183.35h0Z" transform="translate(-237.1 -132.94)"/><path class="0c66e9c4-c5bd-4b8a-91bb-a9a52055f8d3" d="M341.63,403.36a9.31,9.31,0,0,0,2.31.34H599.58a7,7,0,0,0,2.1-.34l5.91-2.3H334.34Z" transform="translate(-237.1 -132.94)"/><path class="d1a7a61a-1ffd-43b7-8205-7b0033206480" d="M603.93,401.67l-3.05,1.18a5.32,5.32,0,0,1-1.45.23H344.07a7.59,7.59,0,0,1-1.74-.26l-3.68-1.16H603.93m3.65-.61h0Zm0,0H334.34l7.29,2.3a9.31,9.31,0,0,0,2.31.34H599.58a7,7,0,0,0,2.1-.34l5.91-2.3h0Z" transform="translate(-237.1 -132.94)"/><path class="4cab450f-62ef-403e-b59f-10f1da393a4b" d="M606.7,397.51a1.58,1.58,0,0,0-1.4-.48H336.48a1.52,1.52,0,0,0-1.38.48l-0.78,3.55H607.62Z" transform="translate(-237.1 -132.94)"/><path class="d1a7a61a-1ffd-43b7-8205-7b0033206480" d="M336.24,397.63H605.57l0.71,2.8H335.62l0.62-2.82M605.3,397H336.48a1.52,1.52,0,0,0-1.38.48l-0.78,3.55H607.62l-0.91-3.55a1.57,1.57,0,0,0-1.4-.48h0Z" transform="translate(-237.1 -132.94)"/><path class="2c7616fa-5743-439d-976b-84561bad61a8" d="M605,399.18H337.13c-1.33,0-2.28-.56-2.13-1.25l18-81.35H586.13l21,81.35C607.3,398.62,606.37,399.18,605,399.18Z" transform="translate(-237.1 -132.94)"/><path class="d1a7a61a-1ffd-43b7-8205-7b0033206480" d="M585.28,317.19l20.83,81.38H336l17.83-81.38H585.28m0.85-.61H353l-18.18,82.19c-0.05.22,0.26,0.4,0.69,0.4H606.66c0.43,0,.74-0.18.68-0.4l-21.21-82.19h0Z" transform="translate(-237.1 -132.94)"/><polygon class="0d615557-5592-4263-818e-7fbb44fabbfb" points="135.12 205.81 149.24 205.81 150.44 197.6 136.55 197.6 135.12 205.81"/><path class="d1a7a61a-1ffd-43b7-8205-7b0033206480" d="M386.42,331.15l-1,7h-12l1.2-7h11.84m1.12-.61H373.64l-1.43,8.21h14.12l1.2-8.21h0Z" transform="translate(-237.1 -132.94)"/><polygon class="0d615557-5592-4263-818e-7fbb44fabbfb" points="152.84 205.81 166.96 205.81 167.87 197.6 153.98 197.6 152.84 205.81"/><path class="d1a7a61a-1ffd-43b7-8205-7b0033206480" d="M403.87,331.15l-0.79,7h-12l1-7h11.84m1.1-.61H391.08l-1.14,8.21h14.12l0.91-8.21h0Z" transform="translate(-237.1 -132.94)"/><polygon class="0d615557-5592-4263-818e-7fbb44fabbfb" points="171.11 205.81 185.23 205.81 185.85 197.6 171.96 197.6 171.11 205.81"/><path class="d1a7a61a-1ffd-43b7-8205-7b0033206480" d="M421.87,331.15l-0.54,7h-12l0.71-7h11.84m1.08-.61H409.05l-0.84,8.21h14.12l0.62-8.21h0Z" transform="translate(-237.1 -132.94)"/><polygon class="0d615557-5592-4263-818e-7fbb44fabbfb" points="188.83 205.81 202.95 205.81 203.28 197.6 189.39 197.6 188.83 205.81"/><path class="d1a7a61a-1ffd-43b7-8205-7b0033206480" d="M439.32,331.15l-0.3,7H427l0.46-7h11.84m1.06-.61H426.48l-0.56,8.21H440l0.33-8.21h0Z" transform="translate(-237.1 -132.94)"/><polygon class="0d615557-5592-4263-818e-7fbb44fabbfb" points="169.94 217.19 184.38 217.19 184.99 208.98 170.78 208.98 169.94 217.19"/><path class="d1a7a61a-1ffd-43b7-8205-7b0033206480" d="M421,342.54l-0.54,7H408.17l0.71-7H421m1.1-.61H407.88L407,350.14h14.44l0.62-8.21h0Z" transform="translate(-237.1 -132.94)"/><polygon class="0d615557-5592-4263-818e-7fbb44fabbfb" points="188.05 217.19 202.49 217.19 202.82 208.98 188.61 208.98 188.05 217.19"/><path class="d1a7a61a-1ffd-43b7-8205-7b0033206480" d="M438.84,342.54l-0.3,7H426.26l0.46-7h12.11m1.08-.61H425.71l-0.56,8.21h14.44l0.33-8.21h0Z" transform="translate(-237.1 -132.94)"/><polygon class="0d615557-5592-4263-818e-7fbb44fabbfb" points="167.71 239.58 182.76 239.58 183.38 231.37 168.55 231.37 167.71 239.58"/><path class="d1a7a61a-1ffd-43b7-8205-7b0033206480" d="M419.32,364.92l-0.54,7H406l0.7-7h12.64m1.15-.61H405.65l-0.84,8.21h15.05l0.62-8.21h0Z" transform="translate(-237.1 -132.94)"/><polygon class="0d615557-5592-4263-818e-7fbb44fabbfb" points="187.28 228.5 202.03 228.5 202.36 220.29 187.84 220.29 187.28 228.5"/><path class="d1a7a61a-1ffd-43b7-8205-7b0033206480" d="M438.35,353.84l-0.3,7H425.51l0.46-7h12.38m1.11-.61H424.94l-0.56,8.21h14.75l0.33-8.21h0Z" transform="translate(-237.1 -132.94)"/><polygon class="0d615557-5592-4263-818e-7fbb44fabbfb" points="133.14 217.19 165.26 217.19 166.18 208.98 134.57 208.98 133.14 217.19"/><path class="d1a7a61a-1ffd-43b7-8205-7b0033206480" d="M402.15,342.54l-0.8,7H371.42l1.2-7h29.53m1.12-.61h-31.6l-1.43,8.21h32.11l0.92-8.21h0Z" transform="translate(-237.1 -132.94)"/><polygon class="0d615557-5592-4263-818e-7fbb44fabbfb" points="206.7 205.81 220.82 205.81 220.86 197.6 206.97 197.6 206.7 205.81"/><path class="d1a7a61a-1ffd-43b7-8205-7b0033206480" d="M456.92,331.15l-0.05,7h-12l0.22-7h11.84m1-.61H444.07l-0.27,8.21h14.12l0-8.21h0Z" transform="translate(-237.1 -132.94)"/><polygon class="0d615557-5592-4263-818e-7fbb44fabbfb" points="224.41 205.81 238.54 205.81 238.29 197.6 224.4 197.6 224.41 205.81"/><path class="d1a7a61a-1ffd-43b7-8205-7b0033206480" d="M474.38,331.15l0.19,7h-12l0-7h11.84m1-.61H461.5v8.21h14.12l-0.24-8.21h0Z" transform="translate(-237.1 -132.94)"/><polygon class="0d615557-5592-4263-818e-7fbb44fabbfb" points="242.69 205.81 256.81 205.81 256.27 197.6 242.38 197.6 242.69 205.81"/><path class="d1a7a61a-1ffd-43b7-8205-7b0033206480" d="M492.37,331.15l0.44,7h-12l-0.28-7h11.84m1-.61H479.47l0.31,8.21h14.12l-0.54-8.21h0Z" transform="translate(-237.1 -132.94)"/><polygon class="0d615557-5592-4263-818e-7fbb44fabbfb" points="260.41 205.81 274.53 205.81 273.7 197.6 259.81 197.6 260.41 205.81"/><path class="d1a7a61a-1ffd-43b7-8205-7b0033206480" d="M509.83,331.15l0.69,7h-12l-0.52-7h11.84m1-.61H496.91l0.6,8.21h14.12l-0.82-8.21h0Z" transform="translate(-237.1 -132.94)"/><polygon class="0d615557-5592-4263-818e-7fbb44fabbfb" points="243.12 217.19 257.55 217.19 257.02 208.98 242.81 208.98 243.12 217.19"/><path class="d1a7a61a-1ffd-43b7-8205-7b0033206480" d="M493.1,342.54l0.44,7H481.26l-0.28-7H493.1m1-.61H479.91l0.31,8.21h14.43l-0.54-8.21h0Z" transform="translate(-237.1 -132.94)"/><polygon class="0d615557-5592-4263-818e-7fbb44fabbfb" points="261.23 217.19 275.67 217.19 274.85 208.98 260.64 208.98 261.23 217.19"/><path class="d1a7a61a-1ffd-43b7-8205-7b0033206480" d="M510.95,342.54l0.69,7H499.36l-0.52-7h12.11m1-.61H497.73l0.6,8.21h14.44l-0.82-8.21h0Z" transform="translate(-237.1 -132.94)"/><polygon class="0d615557-5592-4263-818e-7fbb44fabbfb" points="206.32 217.19 220.76 217.19 220.8 208.98 206.59 208.98 206.32 217.19"/><path class="d1a7a61a-1ffd-43b7-8205-7b0033206480" d="M456.84,342.54l-0.05,7H444.51l0.22-7h12.11m1.06-.61h-14.2l-0.27,8.21h14.43l0-8.21h0Z" transform="translate(-237.1 -132.94)"/><polygon class="0d615557-5592-4263-818e-7fbb44fabbfb" points="224.44 217.19 238.88 217.19 238.63 208.98 224.42 208.98 224.44 217.19"/><path class="d1a7a61a-1ffd-43b7-8205-7b0033206480" d="M474.69,342.54l0.19,7H462.61l0-7h12.11m1-.61H461.52l0,8.21H476l-0.24-8.21h0Z" transform="translate(-237.1 -132.94)"/><polygon class="0d615557-5592-4263-818e-7fbb44fabbfb" points="278.4 205.81 292.52 205.81 291.41 197.6 277.51 197.6 278.4 205.81"/><path class="d1a7a61a-1ffd-43b7-8205-7b0033206480" d="M527.55,331.15l0.94,7h-12l-0.77-7h11.84m1-.61H514.61l0.89,8.21h14.12l-1.11-8.21h0Z" transform="translate(-237.1 -132.94)"/><polygon class="0d615557-5592-4263-818e-7fbb44fabbfb" points="296.67 205.81 310.79 205.81 309.38 197.6 295.49 197.6 296.67 205.81"/><path class="d1a7a61a-1ffd-43b7-8205-7b0033206480" d="M545.55,331.15l1.19,7h-12l-1-7h11.84m0.93-.61H532.59l1.18,8.21h14.12l-1.41-8.21h0Z" transform="translate(-237.1 -132.94)"/><polygon class="0d615557-5592-4263-818e-7fbb44fabbfb" points="314.39 205.81 328.51 205.81 326.82 197.6 312.92 197.6 314.39 205.81"/><path class="d1a7a61a-1ffd-43b7-8205-7b0033206480" d="M563,331.15l1.43,7h-12l-1.26-7H563m0.91-.61H550l1.47,8.21h14.12l-1.7-8.21h0Z" transform="translate(-237.1 -132.94)"/><polygon class="0d615557-5592-4263-818e-7fbb44fabbfb" points="298.31 217.19 312.75 217.19 311.34 208.98 297.13 208.98 298.31 217.19"/><path class="d1a7a61a-1ffd-43b7-8205-7b0033206480" d="M547.48,342.54l1.19,7H536.39l-1-7h12.11m1-.61H534.22l1.18,8.21h14.43l-1.41-8.21h0Z" transform="translate(-237.1 -132.94)"/><polygon class="0d615557-5592-4263-818e-7fbb44fabbfb" points="316.42 217.19 330.86 217.19 329.17 208.98 314.96 208.98 316.42 217.19"/><path class="d1a7a61a-1ffd-43b7-8205-7b0033206480" d="M565.33,342.54l1.43,7H554.49l-1.27-7h12.11m0.93-.61H552.05l1.47,8.21H568l-1.69-8.21h0Z" transform="translate(-237.1 -132.94)"/><polygon class="0d615557-5592-4263-818e-7fbb44fabbfb" points="279.63 217.19 294.07 217.19 292.95 208.98 278.74 208.98 279.63 217.19"/><path class="d1a7a61a-1ffd-43b7-8205-7b0033206480" d="M529.08,342.54l0.94,7H517.73l-0.77-7h12.11m1-.61H515.84l0.89,8.21h14.44L530,341.92h0Z" transform="translate(-237.1 -132.94)"/><polygon class="0d615557-5592-4263-818e-7fbb44fabbfb" points="243.69 228.5 258.44 228.5 257.9 220.29 243.38 220.29 243.69 228.5"/><path class="d1a7a61a-1ffd-43b7-8205-7b0033206480" d="M494,353.84l0.44,7H481.86l-0.28-7H494m1-.61H480.47l0.32,8.21h14.75L495,353.23h0Z" transform="translate(-237.1 -132.94)"/><polygon class="0d615557-5592-4263-818e-7fbb44fabbfb" points="262.2 228.5 276.95 228.5 276.12 220.29 261.6 220.29 262.2 228.5"/><path class="d1a7a61a-1ffd-43b7-8205-7b0033206480" d="M512.2,353.84l0.69,7H500.35l-0.53-7H512.2m1-.61H498.7l0.6,8.21H514l-0.83-8.21h0Z" transform="translate(-237.1 -132.94)"/><polygon class="0d615557-5592-4263-818e-7fbb44fabbfb" points="206.09 228.5 220.84 228.5 220.88 220.29 206.36 220.29 206.09 228.5"/><path class="d1a7a61a-1ffd-43b7-8205-7b0033206480" d="M456.9,353.84l0,7H444.31l0.21-7H456.9m1.08-.61H443.46l-0.27,8.21h14.75l0-8.21h0Z" transform="translate(-237.1 -132.94)"/><polygon class="0d615557-5592-4263-818e-7fbb44fabbfb" points="224.6 228.5 239.36 228.5 239.11 220.29 224.59 220.29 224.6 228.5"/><path class="d1a7a61a-1ffd-43b7-8205-7b0033206480" d="M475.14,353.84l0.19,7H462.79l0-7h12.38m1.06-.61H461.68l0,8.21h14.75l-0.24-8.21h0Z" transform="translate(-237.1 -132.94)"/><polygon class="0d615557-5592-4263-818e-7fbb44fabbfb" points="280.99 228.5 295.75 228.5 294.63 220.29 280.11 220.29 280.99 228.5"/><path class="d1a7a61a-1ffd-43b7-8205-7b0033206480" d="M530.73,353.84l0.93,7H519.12l-0.77-7h12.38m1-.61H517.2l0.89,8.21h14.75l-1.12-8.21h0Z" transform="translate(-237.1 -132.94)"/><polygon class="0d615557-5592-4263-818e-7fbb44fabbfb" points="282.56 239.58 297.62 239.58 296.5 231.37 281.67 231.37 282.56 239.58"/><path class="d1a7a61a-1ffd-43b7-8205-7b0033206480" d="M532.58,364.92l0.94,7h-12.8l-0.77-7h12.64m1-.61H518.76l0.89,8.21h15.06l-1.12-8.21h0Z" transform="translate(-237.1 -132.94)"/><polygon class="0d615557-5592-4263-818e-7fbb44fabbfb" points="301.46 239.58 316.51 239.58 315.11 231.37 300.27 231.37 301.46 239.58"/><path class="d1a7a61a-1ffd-43b7-8205-7b0033206480" d="M551.2,364.92l1.18,7h-12.8l-1-7H551.2m1-.61H537.37l1.18,8.21h15.06l-1.41-8.21h0Z" transform="translate(-237.1 -132.94)"/><polygon class="0d615557-5592-4263-818e-7fbb44fabbfb" points="320.64 239.58 335.7 239.58 334.01 231.37 319.17 231.37 320.64 239.58"/><path class="d1a7a61a-1ffd-43b7-8205-7b0033206480" d="M570.13,364.92l1.43,7H558.75l-1.27-7h12.64m1-.61H556.27l1.47,8.21H572.8l-1.7-8.21h0Z" transform="translate(-237.1 -132.94)"/><polygon class="0d615557-5592-4263-818e-7fbb44fabbfb" points="148.23 239.58 163.28 239.58 164.19 231.37 149.37 231.37 148.23 239.58"/><path class="d1a7a61a-1ffd-43b7-8205-7b0033206480" d="M400.12,364.92l-0.79,7h-12.8l1-7h12.64m1.17-.61H386.46l-1.14,8.21h15.05l0.91-8.21h0Z" transform="translate(-237.1 -132.94)"/><polygon class="0d615557-5592-4263-818e-7fbb44fabbfb" points="129.33 239.58 144.38 239.58 145.58 231.37 130.75 231.37 129.33 239.58"/><path class="d1a7a61a-1ffd-43b7-8205-7b0033206480" d="M381.49,364.92l-1,7H367.65l1.2-7h12.64m1.19-.61H367.85l-1.42,8.21h15.06l1.2-8.21h0Z" transform="translate(-237.1 -132.94)"/><polygon class="0d615557-5592-4263-818e-7fbb44fabbfb" points="131.18 228.5 183.52 228.5 184.14 220.29 132.6 220.29 131.18 228.5"/><path class="d1a7a61a-1ffd-43b7-8205-7b0033206480" d="M420.11,353.84l-0.54,7h-50.1l1.2-7h49.44m1.12-.61H369.7l-1.43,8.21h52.35l0.62-8.21h0Z" transform="translate(-237.1 -132.94)"/><polygon class="0d615557-5592-4263-818e-7fbb44fabbfb" points="299.94 228.5 333.2 228.5 331.5 220.29 298.75 220.29 299.94 228.5"/><path class="d1a7a61a-1ffd-43b7-8205-7b0033206480" d="M567.64,353.84l1.43,7H538l-1-7h30.62m1-.61H535.85l1.18,8.21h33.26l-1.69-8.21h0Z" transform="translate(-237.1 -132.94)"/><polygon class="0d615557-5592-4263-818e-7fbb44fabbfb" points="186.6 239.58 278.14 239.58 277.31 231.37 187.16 231.37 186.6 239.58"/><path class="d1a7a61a-1ffd-43b7-8205-7b0033206480" d="M513.36,364.92l0.69,7h-89.2l0.46-7h88m1-.61H424.25l-0.56,8.21h91.54l-0.83-8.21h0Z" transform="translate(-237.1 -132.94)"/><polygon class="4cab450f-62ef-403e-b59f-10f1da393a4b" points="135.38 204.33 149.46 204.33 150.65 196.12 136.8 196.12 135.38 204.33"/><path class="d1a7a61a-1ffd-43b7-8205-7b0033206480" d="M386.63,329.67l-1,7h-12l1.2-7h11.81m1.12-.61H373.9l-1.43,8.21h14.08l1.2-8.21h0Z" transform="translate(-237.1 -132.94)"/><polygon class="4cab450f-62ef-403e-b59f-10f1da393a4b" points="153.04 204.33 167.12 204.33 168.04 196.12 154.19 196.12 153.04 204.33"/><path class="d1a7a61a-1ffd-43b7-8205-7b0033206480" d="M404,329.67l-0.79,7h-12l1-7H404m1.1-.61H391.28l-1.14,8.21h14.08l0.91-8.21h0Z" transform="translate(-237.1 -132.94)"/><polygon class="4cab450f-62ef-403e-b59f-10f1da393a4b" points="171.26 204.33 185.34 204.33 185.96 196.12 172.11 196.12 171.26 204.33"/><path class="d1a7a61a-1ffd-43b7-8205-7b0033206480" d="M422,329.67l-0.54,7h-12l0.71-7H422m1.08-.61H409.21l-0.85,8.21h14.08l0.62-8.21h0Z" transform="translate(-237.1 -132.94)"/><polygon class="4cab450f-62ef-403e-b59f-10f1da393a4b" points="188.93 204.33 203.01 204.33 203.34 196.12 189.49 196.12 188.93 204.33"/><path class="d1a7a61a-1ffd-43b7-8205-7b0033206480" d="M439.38,329.67l-0.3,7h-12l0.46-7h11.81m1.06-.61H426.58L426,337.27H440.1l0.33-8.21h0Z" transform="translate(-237.1 -132.94)"/><polygon class="4cab450f-62ef-403e-b59f-10f1da393a4b" points="170.09 215.72 184.49 215.72 185.1 207.51 170.94 207.51 170.09 215.72"/><path class="d1a7a61a-1ffd-43b7-8205-7b0033206480" d="M421.1,341.06l-0.54,7H408.32l0.71-7H421.1m1.1-.61H408l-0.85,8.21h14.4l0.62-8.21h0Z" transform="translate(-237.1 -132.94)"/><polygon class="4cab450f-62ef-403e-b59f-10f1da393a4b" points="188.15 215.72 202.55 215.72 202.88 207.51 188.71 207.51 188.15 215.72"/><path class="d1a7a61a-1ffd-43b7-8205-7b0033206480" d="M438.9,341.06l-0.3,7H426.36l0.46-7H438.9m1.08-.61H425.81l-0.56,8.21h14.4l0.33-8.21h0Z" transform="translate(-237.1 -132.94)"/><polygon class="4cab450f-62ef-403e-b59f-10f1da393a4b" points="167.86 238.1 182.87 238.1 183.49 229.89 168.7 229.89 167.86 238.1"/><path class="d1a7a61a-1ffd-43b7-8205-7b0033206480" d="M419.44,363.44l-0.54,7H406.13l0.7-7h12.6m1.15-.61H405.8L405,371h15l0.62-8.21h0Z" transform="translate(-237.1 -132.94)"/><polygon class="4cab450f-62ef-403e-b59f-10f1da393a4b" points="187.38 227.03 202.09 227.03 202.42 218.81 187.94 218.81 187.38 227.03"/><path class="d1a7a61a-1ffd-43b7-8205-7b0033206480" d="M438.42,352.37l-0.3,7H425.61l0.46-7h12.35m1.1-.61H425L424.48,360h14.71l0.33-8.21h0Z" transform="translate(-237.1 -132.94)"/><polygon class="4cab450f-62ef-403e-b59f-10f1da393a4b" points="133.4 215.72 165.42 215.72 166.34 207.51 134.83 207.51 133.4 215.72"/><path class="d1a7a61a-1ffd-43b7-8205-7b0033206480" d="M402.32,341.06l-0.8,7H371.67l1.2-7h29.45m1.12-.61H371.92l-1.43,8.21h32l0.92-8.21h0Z" transform="translate(-237.1 -132.94)"/><polygon class="4cab450f-62ef-403e-b59f-10f1da393a4b" points="206.75 204.33 220.83 204.33 220.87 196.12 207.02 196.12 206.75 204.33"/><path class="d1a7a61a-1ffd-43b7-8205-7b0033206480" d="M456.93,329.67l-0.05,7h-12l0.22-7h11.81m1-.61H444.12l-0.27,8.21h14.08l0-8.21h0Z" transform="translate(-237.1 -132.94)"/><polygon class="4cab450f-62ef-403e-b59f-10f1da393a4b" points="224.41 204.33 238.5 204.33 238.25 196.12 224.4 196.12 224.41 204.33"/><path class="d1a7a61a-1ffd-43b7-8205-7b0033206480" d="M474.34,329.67l0.19,7h-12l0-7h11.81m1-.61H461.5v8.21h14.08l-0.24-8.21h0Z" transform="translate(-237.1 -132.94)"/><polygon class="4cab450f-62ef-403e-b59f-10f1da393a4b" points="242.63 204.33 256.71 204.33 256.18 196.12 242.32 196.12 242.63 204.33"/><path class="d1a7a61a-1ffd-43b7-8205-7b0033206480" d="M492.28,329.67l0.44,7h-12l-0.28-7h11.81m1-.61H479.42l0.31,8.21h14.08l-0.54-8.21h0Z" transform="translate(-237.1 -132.94)"/><polygon class="4cab450f-62ef-403e-b59f-10f1da393a4b" points="260.3 204.33 274.38 204.33 273.56 196.12 259.7 196.12 260.3 204.33"/><path class="d1a7a61a-1ffd-43b7-8205-7b0033206480" d="M509.68,329.67l0.69,7h-12l-0.52-7h11.81m1-.61H496.8l0.59,8.21h14.08l-0.82-8.21h0Z" transform="translate(-237.1 -132.94)"/><polygon class="4cab450f-62ef-403e-b59f-10f1da393a4b" points="243.06 215.72 257.46 215.72 256.92 207.51 242.75 207.51 243.06 215.72"/><path class="d1a7a61a-1ffd-43b7-8205-7b0033206480" d="M493,341.06l0.44,7H481.2l-0.28-7H493m1-.61H479.85l0.31,8.21h14.4L494,340.45h0Z" transform="translate(-237.1 -132.94)"/><polygon class="4cab450f-62ef-403e-b59f-10f1da393a4b" points="261.13 215.72 275.52 215.72 274.7 207.51 260.53 207.51 261.13 215.72"/><path class="d1a7a61a-1ffd-43b7-8205-7b0033206480" d="M510.8,341.06l0.69,7H499.24l-0.52-7H510.8m1-.61H497.63l0.6,8.21h14.4l-0.82-8.21h0Z" transform="translate(-237.1 -132.94)"/><polygon class="4cab450f-62ef-403e-b59f-10f1da393a4b" points="206.37 215.72 220.77 215.72 220.81 207.51 206.65 207.51 206.37 215.72"/><path class="d1a7a61a-1ffd-43b7-8205-7b0033206480" d="M456.85,341.06l-0.05,7H444.56l0.22-7h12.07m1.06-.61H443.74l-0.27,8.21h14.4l0-8.21h0Z" transform="translate(-237.1 -132.94)"/><polygon class="4cab450f-62ef-403e-b59f-10f1da393a4b" points="224.43 215.72 238.83 215.72 238.59 207.51 224.42 207.51 224.43 215.72"/><path class="d1a7a61a-1ffd-43b7-8205-7b0033206480" d="M474.65,341.06l0.19,7H462.6l0-7h12.08m1-.61H461.51l0,8.21h14.4l-0.24-8.21h0Z" transform="translate(-237.1 -132.94)"/><polygon class="4cab450f-62ef-403e-b59f-10f1da393a4b" points="278.24 204.33 292.32 204.33 291.21 196.12 277.35 196.12 278.24 204.33"/><path class="d1a7a61a-1ffd-43b7-8205-7b0033206480" d="M527.36,329.67l0.93,7h-12l-0.77-7h11.81m0.95-.61H514.45l0.89,8.21h14.08l-1.11-8.21h0Z" transform="translate(-237.1 -132.94)"/><polygon class="4cab450f-62ef-403e-b59f-10f1da393a4b" points="296.46 204.33 310.54 204.33 309.13 196.12 295.28 196.12 296.46 204.33"/><path class="d1a7a61a-1ffd-43b7-8205-7b0033206480" d="M545.3,329.67l1.19,7h-12l-1-7H545.3m0.93-.61H532.38l1.18,8.21h14.08l-1.41-8.21h0Z" transform="translate(-237.1 -132.94)"/><polygon class="4cab450f-62ef-403e-b59f-10f1da393a4b" points="314.13 204.33 328.21 204.33 326.51 196.12 312.66 196.12 314.13 204.33"/><path class="d1a7a61a-1ffd-43b7-8205-7b0033206480" d="M562.7,329.67l1.43,7h-12l-1.26-7H562.7m0.9-.61H549.76l1.47,8.21H565.3l-1.7-8.21h0Z" transform="translate(-237.1 -132.94)"/><polygon class="4cab450f-62ef-403e-b59f-10f1da393a4b" points="298.1 215.72 312.49 215.72 311.08 207.51 296.92 207.51 298.1 215.72"/><path class="d1a7a61a-1ffd-43b7-8205-7b0033206480" d="M547.23,341.06l1.19,7H536.18l-1-7h12.08m0.95-.61H534l1.18,8.21h14.39l-1.41-8.21h0Z" transform="translate(-237.1 -132.94)"/><polygon class="4cab450f-62ef-403e-b59f-10f1da393a4b" points="316.16 215.72 330.56 215.72 328.86 207.51 314.69 207.51 316.16 215.72"/><path class="d1a7a61a-1ffd-43b7-8205-7b0033206480" d="M565,341.06l1.43,7H554.22l-1.26-7H565m0.93-.61H551.79l1.47,8.21h14.4L566,340.45h0Z" transform="translate(-237.1 -132.94)"/><polygon class="4cab450f-62ef-403e-b59f-10f1da393a4b" points="279.47 215.72 293.87 215.72 292.75 207.51 278.58 207.51 279.47 215.72"/><path class="d1a7a61a-1ffd-43b7-8205-7b0033206480" d="M528.88,341.06l0.93,7H517.57l-0.77-7h12.08m1-.61H515.68l0.89,8.21H531l-1.11-8.21h0Z" transform="translate(-237.1 -132.94)"/><polygon class="4cab450f-62ef-403e-b59f-10f1da393a4b" points="243.63 227.03 258.34 227.03 257.8 218.81 243.32 218.81 243.63 227.03"/><path class="d1a7a61a-1ffd-43b7-8205-7b0033206480" d="M493.86,352.37l0.44,7H481.8l-0.28-7h12.34m1-.61H480.42l0.31,8.21h14.71l-0.54-8.21h0Z" transform="translate(-237.1 -132.94)"/><polygon class="4cab450f-62ef-403e-b59f-10f1da393a4b" points="262.09 227.03 276.8 227.03 275.97 218.81 261.49 218.81 262.09 227.03"/><path class="d1a7a61a-1ffd-43b7-8205-7b0033206480" d="M512.06,352.37l0.69,7H500.23l-0.52-7h12.35m1-.61H498.59l0.6,8.21H513.9l-0.83-8.21h0Z" transform="translate(-237.1 -132.94)"/><polygon class="4cab450f-62ef-403e-b59f-10f1da393a4b" points="206.14 227.03 220.85 227.03 220.89 218.81 206.41 218.81 206.14 227.03"/><path class="d1a7a61a-1ffd-43b7-8205-7b0033206480" d="M456.91,352.37l0,7H444.35l0.21-7h12.34m1.08-.61H443.51L443.24,360h14.71l0-8.21h0Z" transform="translate(-237.1 -132.94)"/><polygon class="4cab450f-62ef-403e-b59f-10f1da393a4b" points="224.6 227.03 239.31 227.03 239.07 218.81 224.58 218.81 224.6 227.03"/><path class="d1a7a61a-1ffd-43b7-8205-7b0033206480" d="M475.1,352.37l0.19,7H462.79l0-7H475.1m1.06-.61H461.68l0,8.21h14.71l-0.24-8.21h0Z" transform="translate(-237.1 -132.94)"/><polygon class="4cab450f-62ef-403e-b59f-10f1da393a4b" points="280.83 227.03 295.55 227.03 294.43 218.81 279.95 218.81 280.83 227.03"/><path class="d1a7a61a-1ffd-43b7-8205-7b0033206480" d="M530.53,352.37l0.93,7H519l-0.77-7h12.35m1-.61H517l0.89,8.21h14.71l-1.11-8.21h0Z" transform="translate(-237.1 -132.94)"/><polygon class="4cab450f-62ef-403e-b59f-10f1da393a4b" points="282.4 238.1 297.42 238.1 296.3 229.89 281.51 229.89 282.4 238.1"/><path class="d1a7a61a-1ffd-43b7-8205-7b0033206480" d="M532.37,363.44l0.94,7H520.55l-0.77-7h12.6m1-.61H518.6L519.5,371h15l-1.12-8.21h0Z" transform="translate(-237.1 -132.94)"/><polygon class="4cab450f-62ef-403e-b59f-10f1da393a4b" points="301.24 238.1 316.26 238.1 314.85 229.89 300.06 229.89 301.24 238.1"/><path class="d1a7a61a-1ffd-43b7-8205-7b0033206480" d="M551,363.44l1.19,7H539.37l-1-7H551m1-.61H537.16l1.18,8.21h15l-1.41-8.21h0Z" transform="translate(-237.1 -132.94)"/><polygon class="4cab450f-62ef-403e-b59f-10f1da393a4b" points="320.38 238.1 335.4 238.1 333.7 229.89 318.91 229.89 320.38 238.1"/><path class="d1a7a61a-1ffd-43b7-8205-7b0033206480" d="M569.82,363.44l1.43,7H558.48l-1.27-7h12.6m1-.61H556l1.47,8.21h15l-1.7-8.21h0Z" transform="translate(-237.1 -132.94)"/><polygon class="4cab450f-62ef-403e-b59f-10f1da393a4b" points="148.43 238.1 163.44 238.1 164.35 229.89 149.57 229.89 148.43 238.1"/><path class="d1a7a61a-1ffd-43b7-8205-7b0033206480" d="M400.28,363.44l-0.79,7H386.73l1-7h12.6m1.17-.61H386.67L385.53,371h15l0.91-8.21h0Z" transform="translate(-237.1 -132.94)"/><polygon class="4cab450f-62ef-403e-b59f-10f1da393a4b" points="129.58 238.1 144.6 238.1 145.8 229.89 131.01 229.89 129.58 238.1"/><path class="d1a7a61a-1ffd-43b7-8205-7b0033206480" d="M381.71,363.44l-1,7H367.9l1.2-7h12.61m1.19-.61H368.1L366.68,371h15l1.2-8.21h0Z" transform="translate(-237.1 -132.94)"/><polygon class="4cab450f-62ef-403e-b59f-10f1da393a4b" points="131.43 227.03 183.63 227.03 184.25 218.81 132.86 218.81 131.43 227.03"/><path class="d1a7a61a-1ffd-43b7-8205-7b0033206480" d="M420.23,352.37l-0.54,7h-50l1.2-7h49.3m1.12-.61H370L368.53,360h52.2l0.62-8.21h0Z" transform="translate(-237.1 -132.94)"/><polygon class="4cab450f-62ef-403e-b59f-10f1da393a4b" points="299.73 227.03 332.89 227.03 331.2 218.81 298.54 218.81 299.73 227.03"/><path class="d1a7a61a-1ffd-43b7-8205-7b0033206480" d="M567.34,352.37l1.43,7H537.82l-1-7h30.54m1-.61H535.64l1.18,8.21H570l-1.7-8.21h0Z" transform="translate(-237.1 -132.94)"/><polygon class="4cab450f-62ef-403e-b59f-10f1da393a4b" points="186.7 238.1 277.99 238.1 277.16 229.89 187.26 229.89 186.7 238.1"/><path class="d1a7a61a-1ffd-43b7-8205-7b0033206480" d="M513.22,363.44l0.69,7H425l0.46-7h87.8m1-.61h-89.9L423.8,371h91.29l-0.83-8.21h0Z" transform="translate(-237.1 -132.94)"/><polygon class="4cab450f-62ef-403e-b59f-10f1da393a4b" points="135.27 204.94 149.37 204.94 150.57 196.73 136.7 196.73 135.27 204.94"/><path class="d1a7a61a-1ffd-43b7-8205-7b0033206480" d="M386.54,330.28l-1,7h-12l1.2-7h11.82m1.12-.61H373.79l-1.42,8.21h14.1l1.2-8.21h0Z" transform="translate(-237.1 -132.94)"/><polygon class="4cab450f-62ef-403e-b59f-10f1da393a4b" points="152.96 204.94 167.05 204.94 167.97 196.73 154.1 196.73 152.96 204.94"/><path class="d1a7a61a-1ffd-43b7-8205-7b0033206480" d="M404,330.28l-0.79,7h-12l1-7H404m1.1-.61H391.2l-1.14,8.21h14.09l0.91-8.21h0Z" transform="translate(-237.1 -132.94)"/><polygon class="4cab450f-62ef-403e-b59f-10f1da393a4b" points="171.2 204.94 185.3 204.94 185.91 196.73 172.05 196.73 171.2 204.94"/><path class="d1a7a61a-1ffd-43b7-8205-7b0033206480" d="M421.93,330.28l-0.54,7h-12l0.7-7h11.82m1.08-.61H409.14l-0.85,8.21h14.1l0.62-8.21h0Z" transform="translate(-237.1 -132.94)"/><polygon class="4cab450f-62ef-403e-b59f-10f1da393a4b" points="188.89 204.94 202.99 204.94 203.31 196.73 189.45 196.73 188.89 204.94"/><path class="d1a7a61a-1ffd-43b7-8205-7b0033206480" d="M439.36,330.28l-0.3,7h-12l0.46-7h11.82m1.05-.61H426.54L426,337.88h14.1l0.33-8.21h0Z" transform="translate(-237.1 -132.94)"/><polygon class="4cab450f-62ef-403e-b59f-10f1da393a4b" points="170.03 216.32 184.44 216.32 185.06 208.11 170.87 208.11 170.03 216.32"/><path class="d1a7a61a-1ffd-43b7-8205-7b0033206480" d="M421.05,341.66l-0.54,7H408.26l0.71-7h12.09m1.1-.61H408l-0.85,8.21h14.41l0.62-8.21h0Z" transform="translate(-237.1 -132.94)"/><polygon class="4cab450f-62ef-403e-b59f-10f1da393a4b" points="188.11 216.32 202.53 216.32 202.86 208.11 188.67 208.11 188.11 216.32"/><path class="d1a7a61a-1ffd-43b7-8205-7b0033206480" d="M438.87,341.66l-0.3,7H426.32l0.46-7h12.09m1.08-.61H425.77l-0.56,8.21h14.42l0.33-8.21h0Z" transform="translate(-237.1 -132.94)"/><polygon class="4cab450f-62ef-403e-b59f-10f1da393a4b" points="167.8 238.71 182.83 238.71 183.44 230.5 168.64 230.5 167.8 238.71"/><path class="d1a7a61a-1ffd-43b7-8205-7b0033206480" d="M419.39,364l-0.54,7H406.07l0.7-7h12.61m1.15-.61h-14.8l-0.84,8.21h15l0.62-8.21h0Z" transform="translate(-237.1 -132.94)"/><polygon class="4cab450f-62ef-403e-b59f-10f1da393a4b" points="187.34 227.63 202.06 227.63 202.4 219.42 187.9 219.42 187.34 227.63"/><path class="d1a7a61a-1ffd-43b7-8205-7b0033206480" d="M438.39,353l-0.3,7H425.57l0.46-7h12.36m1.1-.61H425l-0.56,8.21h14.72l0.33-8.21h0Z" transform="translate(-237.1 -132.94)"/><polygon class="4cab450f-62ef-403e-b59f-10f1da393a4b" points="133.29 216.32 165.35 216.32 166.27 208.11 134.72 208.11 133.29 216.32"/><path class="d1a7a61a-1ffd-43b7-8205-7b0033206480" d="M402.25,341.66l-0.8,7H371.57l1.2-7h29.48m1.12-.61H371.82l-1.42,8.21h32.06l0.92-8.21h0Z" transform="translate(-237.1 -132.94)"/><polygon class="4cab450f-62ef-403e-b59f-10f1da393a4b" points="206.73 204.94 220.82 204.94 220.87 196.73 207 196.73 206.73 204.94"/><path class="d1a7a61a-1ffd-43b7-8205-7b0033206480" d="M456.93,330.28l-0.05,7h-12l0.22-7h11.82m1-.61H444.1l-0.27,8.21h14.1l0-8.21h0Z" transform="translate(-237.1 -132.94)"/><polygon class="4cab450f-62ef-403e-b59f-10f1da393a4b" points="224.41 204.94 238.51 204.94 238.27 196.73 224.4 196.73 224.41 204.94"/><path class="d1a7a61a-1ffd-43b7-8205-7b0033206480" d="M474.35,330.28l0.2,7h-12l0-7h11.82m1-.61H461.5v8.21h14.1l-0.24-8.21h0Z" transform="translate(-237.1 -132.94)"/><polygon class="4cab450f-62ef-403e-b59f-10f1da393a4b" points="242.66 204.94 256.75 204.94 256.21 196.73 242.35 196.73 242.66 204.94"/><path class="d1a7a61a-1ffd-43b7-8205-7b0033206480" d="M492.32,330.28l0.44,7h-12l-0.28-7h11.83m1-.61H479.44l0.31,8.21h14.1l-0.54-8.21h0Z" transform="translate(-237.1 -132.94)"/><polygon class="4cab450f-62ef-403e-b59f-10f1da393a4b" points="260.34 204.94 274.44 204.94 273.62 196.73 259.75 196.73 260.34 204.94"/><path class="d1a7a61a-1ffd-43b7-8205-7b0033206480" d="M509.74,330.28l0.69,7h-12l-0.52-7h11.82m1-.61H496.85l0.6,8.21h14.1l-0.83-8.21h0Z" transform="translate(-237.1 -132.94)"/><polygon class="4cab450f-62ef-403e-b59f-10f1da393a4b" points="243.09 216.32 257.5 216.32 256.96 208.11 242.78 208.11 243.09 216.32"/><path class="d1a7a61a-1ffd-43b7-8205-7b0033206480" d="M493,341.66l0.44,7H481.23l-0.28-7H493m1-.61H479.87l0.31,8.21h14.41l-0.54-8.21h0Z" transform="translate(-237.1 -132.94)"/><polygon class="2f0f3db8-8b68-4359-95c3-83974d12edd2" points="261.17 216.32 275.58 216.32 274.76 208.11 260.57 208.11 261.17 216.32"/><path class="d1a7a61a-1ffd-43b7-8205-7b0033206480" d="M510.86,341.66l0.69,7H499.29l-0.52-7h12.09m1-.61H497.67l0.6,8.21h14.41l-0.83-8.21h0Z" transform="translate(-237.1 -132.94)"/><polygon class="4cab450f-62ef-403e-b59f-10f1da393a4b" points="206.35 216.32 220.76 216.32 220.81 208.11 206.63 208.11 206.35 216.32"/><path class="d1a7a61a-1ffd-43b7-8205-7b0033206480" d="M456.84,341.66l-0.05,7H444.54l0.22-7h12.09m1.06-.61H443.72l-0.27,8.21h14.41l0-8.21h0Z" transform="translate(-237.1 -132.94)"/><polygon class="4cab450f-62ef-403e-b59f-10f1da393a4b" points="224.43 216.32 238.85 216.32 238.61 208.11 224.42 208.11 224.43 216.32"/><path class="d1a7a61a-1ffd-43b7-8205-7b0033206480" d="M474.67,341.66l0.19,7H462.6l0-7h12.09m1-.61H461.52v8.21h14.41l-0.24-8.21h0Z" transform="translate(-237.1 -132.94)"/><polygon class="4cab450f-62ef-403e-b59f-10f1da393a4b" points="278.31 204.94 292.4 204.94 291.29 196.73 277.42 196.73 278.31 204.94"/><path class="d1a7a61a-1ffd-43b7-8205-7b0033206480" d="M527.44,330.28l0.94,7h-12l-0.76-7h11.82m0.95-.61H514.52l0.89,8.21h14.1l-1.12-8.21h0Z" transform="translate(-237.1 -132.94)"/><polygon class="4cab450f-62ef-403e-b59f-10f1da393a4b" points="296.55 204.94 310.64 204.94 309.23 196.73 295.37 196.73 296.55 204.94"/><path class="d1a7a61a-1ffd-43b7-8205-7b0033206480" d="M545.4,330.28l1.19,7h-12l-1-7H545.4m0.93-.61H532.46l1.18,8.21h14.09l-1.41-8.21h0Z" transform="translate(-237.1 -132.94)"/><polygon class="4cab450f-62ef-403e-b59f-10f1da393a4b" points="314.23 204.94 328.33 204.94 326.64 196.73 312.77 196.73 314.23 204.94"/><path class="d1a7a61a-1ffd-43b7-8205-7b0033206480" d="M562.83,330.28l1.43,7h-12l-1.26-7h11.82m0.91-.61H549.86l1.47,8.21h14.1l-1.69-8.21h0Z" transform="translate(-237.1 -132.94)"/><polygon class="0d615557-5592-4263-818e-7fbb44fabbfb" points="137.24 193.62 151.02 193.62 151.6 189.62 137.93 189.62 137.24 193.62"/><path class="d1a7a61a-1ffd-43b7-8205-7b0033206480" d="M387.6,323.17l-0.41,2.77H375.46l0.48-2.77H387.6m1.1-.61H375l-0.69,4h13.78l0.58-4h0Z" transform="translate(-237.1 -132.94)"/><polygon class="0d615557-5592-4263-818e-7fbb44fabbfb" points="154.53 193.62 168.31 193.62 168.76 189.62 155.09 189.62 154.53 193.62"/><path class="d1a7a61a-1ffd-43b7-8205-7b0033206480" d="M404.77,323.17l-0.32,2.77H392.74l0.38-2.77h11.66m1.08-.61H392.18l-0.56,4h13.78l0.44-4h0Z" transform="translate(-237.1 -132.94)"/><polygon class="0d615557-5592-4263-818e-7fbb44fabbfb" points="172.37 193.62 186.15 193.62 186.45 189.62 172.78 189.62 172.37 193.62"/><path class="d1a7a61a-1ffd-43b7-8205-7b0033206480" d="M422.48,323.17l-0.21,2.77H410.55l0.28-2.77h11.65m1.06-.61H409.87l-0.41,4h13.78l0.3-4h0Z" transform="translate(-237.1 -132.94)"/><polygon class="0d615557-5592-4263-818e-7fbb44fabbfb" points="189.66 193.62 203.44 193.62 203.6 189.62 189.93 189.62 189.66 193.62"/><path class="d1a7a61a-1ffd-43b7-8205-7b0033206480" d="M439.66,323.17l-0.12,2.77H427.82l0.18-2.77h11.65m1-.61H427l-0.27,4h13.78l0.16-4h0Z" transform="translate(-237.1 -132.94)"/><polygon class="0d615557-5592-4263-818e-7fbb44fabbfb" points="207.1 193.62 220.88 193.62 220.9 189.62 207.23 189.62 207.1 193.62"/><path class="d1a7a61a-1ffd-43b7-8205-7b0033206480" d="M457,323.17l0,2.77H445.24l0.08-2.77H457m1-.61H444.33l-0.13,4H458l0-4h0Z" transform="translate(-237.1 -132.94)"/><polygon class="0d615557-5592-4263-818e-7fbb44fabbfb" points="224.39 193.62 238.18 193.62 238.06 189.62 224.39 189.62 224.39 193.62"/><path class="d1a7a61a-1ffd-43b7-8205-7b0033206480" d="M474.16,323.17l0.08,2.77H462.51v-2.77h11.65m1-.61H461.48v4h13.78l-0.12-4h0Z" transform="translate(-237.1 -132.94)"/><polygon class="0d615557-5592-4263-818e-7fbb44fabbfb" points="242.23 193.62 256.01 193.62 255.75 189.62 242.08 189.62 242.23 193.62"/><path class="d1a7a61a-1ffd-43b7-8205-7b0033206480" d="M491.87,323.17l0.18,2.77H480.32l-0.11-2.77h11.65m1-.61H479.17l0.15,4h13.78l-0.26-4h0Z" transform="translate(-237.1 -132.94)"/><polygon class="0d615557-5592-4263-818e-7fbb44fabbfb" points="259.52 193.62 273.31 193.62 272.9 189.62 259.23 189.62 259.52 193.62"/><path class="d1a7a61a-1ffd-43b7-8205-7b0033206480" d="M509,323.17l0.27,2.77H497.6l-0.21-2.77H509m1-.61H496.33l0.29,4H510.4l-0.4-4h0Z" transform="translate(-237.1 -132.94)"/><polygon class="0d615557-5592-4263-818e-7fbb44fabbfb" points="277.08 193.62 290.87 193.62 290.32 189.62 276.65 189.62 277.08 193.62"/><path class="d1a7a61a-1ffd-43b7-8205-7b0033206480" d="M526.49,323.17l0.37,2.77H515.14l-0.31-2.77h11.66m0.93-.61H513.75l0.43,4H528l-0.54-4h0Z" transform="translate(-237.1 -132.94)"/><polygon class="0d615557-5592-4263-818e-7fbb44fabbfb" points="294.92 193.62 308.7 193.62 308.01 189.62 294.34 189.62 294.92 193.62"/><path class="d1a7a61a-1ffd-43b7-8205-7b0033206480" d="M544.2,323.17l0.47,2.77H532.95l-0.41-2.77H544.2m0.91-.61H531.44l0.57,4H545.8l-0.69-4h0Z" transform="translate(-237.1 -132.94)"/><polygon class="0d615557-5592-4263-818e-7fbb44fabbfb" points="312.21 193.62 325.99 193.62 325.17 189.62 311.5 189.62 312.21 193.62"/><path class="d1a7a61a-1ffd-43b7-8205-7b0033206480" d="M561.37,323.17l0.57,2.77H550.22l-0.5-2.77h11.65m0.89-.61H548.59l0.71,4h13.78l-0.82-4h0Z" transform="translate(-237.1 -132.94)"/><polygon class="4cab450f-62ef-403e-b59f-10f1da393a4b" points="137.36 192.9 151.13 192.9 151.71 188.9 138.06 188.9 137.36 192.9"/><path class="d1a7a61a-1ffd-43b7-8205-7b0033206480" d="M387.7,322.46l-0.41,2.77h-11.7l0.47-2.77H387.7m1.1-.61H375.16l-0.69,4h13.76l0.58-4h0Z" transform="translate(-237.1 -132.94)"/><polygon class="4cab450f-62ef-403e-b59f-10f1da393a4b" points="154.63 192.9 168.39 192.9 168.84 188.9 155.19 188.9 154.63 192.9"/><path class="d1a7a61a-1ffd-43b7-8205-7b0033206480" d="M404.85,322.46l-0.31,2.77h-11.7l0.38-2.77h11.64m1.08-.61H392.28l-0.55,4h13.76l0.44-4h0Z" transform="translate(-237.1 -132.94)"/><polygon class="4cab450f-62ef-403e-b59f-10f1da393a4b" points="172.44 192.9 186.2 192.9 186.5 188.9 172.85 188.9 172.44 192.9"/><path class="d1a7a61a-1ffd-43b7-8205-7b0033206480" d="M422.54,322.46l-0.21,2.77h-11.7l0.28-2.77h11.64m1.06-.61H409.95l-0.41,4H423.3l0.3-4h0Z" transform="translate(-237.1 -132.94)"/><polygon class="4cab450f-62ef-403e-b59f-10f1da393a4b" points="189.71 192.9 203.47 192.9 203.63 188.9 189.98 188.9 189.71 192.9"/><path class="d1a7a61a-1ffd-43b7-8205-7b0033206480" d="M439.69,322.46l-0.12,2.77h-11.7l0.18-2.77h11.64m1-.61H427.08l-0.27,4h13.76l0.16-4h0Z" transform="translate(-237.1 -132.94)"/><polygon class="4cab450f-62ef-403e-b59f-10f1da393a4b" points="207.13 192.9 220.89 192.9 220.91 188.9 207.26 188.9 207.13 192.9"/><path class="d1a7a61a-1ffd-43b7-8205-7b0033206480" d="M457,322.46l0,2.77h-11.7l0.09-2.77H457m1-.61H444.36l-0.13,4H458l0-4h0Z" transform="translate(-237.1 -132.94)"/><polygon class="4cab450f-62ef-403e-b59f-10f1da393a4b" points="224.39 192.9 238.16 192.9 238.04 188.9 224.39 188.9 224.39 192.9"/><path class="d1a7a61a-1ffd-43b7-8205-7b0033206480" d="M474.14,322.46l0.08,2.77h-11.7v-2.77h11.64m1-.61H461.48v4h13.76l-0.12-4h0Z" transform="translate(-237.1 -132.94)"/><polygon class="4cab450f-62ef-403e-b59f-10f1da393a4b" points="242.2 192.9 255.96 192.9 255.7 188.9 242.05 188.9 242.2 192.9"/><path class="d1a7a61a-1ffd-43b7-8205-7b0033206480" d="M491.82,322.46l0.18,2.77H480.3l-0.11-2.77h11.64m1-.61H479.15l0.15,4h13.76l-0.26-4h0Z" transform="translate(-237.1 -132.94)"/><polygon class="4cab450f-62ef-403e-b59f-10f1da393a4b" points="259.47 192.9 273.23 192.9 272.83 188.9 259.18 188.9 259.47 192.9"/><path class="d1a7a61a-1ffd-43b7-8205-7b0033206480" d="M509,322.46l0.27,2.77h-11.7l-0.21-2.77H509m1-.61H496.28l0.29,4h13.76l-0.4-4h0Z" transform="translate(-237.1 -132.94)"/><polygon class="4cab450f-62ef-403e-b59f-10f1da393a4b" points="277.01 192.9 290.77 192.9 290.23 188.9 276.58 188.9 277.01 192.9"/><path class="d1a7a61a-1ffd-43b7-8205-7b0033206480" d="M526.39,322.46l0.37,2.77h-11.7l-0.31-2.77h11.64m0.93-.61H513.67l0.43,4h13.76l-0.54-4h0Z" transform="translate(-237.1 -132.94)"/><polygon class="4cab450f-62ef-403e-b59f-10f1da393a4b" points="294.81 192.9 308.58 192.9 307.89 188.9 294.24 188.9 294.81 192.9"/><path class="d1a7a61a-1ffd-43b7-8205-7b0033206480" d="M544.08,322.46l0.47,2.77h-11.7l-0.4-2.77h11.63m0.91-.61H531.34l0.58,4h13.76l-0.69-4h0Z" transform="translate(-237.1 -132.94)"/><polygon class="4cab450f-62ef-403e-b59f-10f1da393a4b" points="312.08 192.9 325.85 192.9 325.02 188.9 311.37 188.9 312.08 192.9"/><path class="d1a7a61a-1ffd-43b7-8205-7b0033206480" d="M561.23,322.46l0.57,2.77h-11.7l-0.5-2.77h11.64m0.89-.61H548.47l0.71,4h13.76l-0.83-4h0Z" transform="translate(-237.1 -132.94)"/><polygon class="4cab450f-62ef-403e-b59f-10f1da393a4b" points="137.31 193.19 151.08 193.19 151.67 189.2 138.01 189.2 137.31 193.19"/><path class="d1a7a61a-1ffd-43b7-8205-7b0033206480" d="M387.66,322.75l-0.41,2.77H375.54l0.48-2.77h11.64m1.11-.61H375.1l-0.69,4h13.77l0.58-4h0Z" transform="translate(-237.1 -132.94)"/><polygon class="4cab450f-62ef-403e-b59f-10f1da393a4b" points="154.59 193.19 168.36 193.19 168.8 189.2 155.15 189.2 154.59 193.19"/><path class="d1a7a61a-1ffd-43b7-8205-7b0033206480" d="M404.82,322.75l-0.31,2.77H392.79l0.38-2.77h11.64m1.08-.61H392.24l-0.55,4h13.77l0.44-4h0Z" transform="translate(-237.1 -132.94)"/><polygon class="4cab450f-62ef-403e-b59f-10f1da393a4b" points="172.41 193.19 186.18 193.19 186.48 189.2 172.82 189.2 172.41 193.19"/><path class="d1a7a61a-1ffd-43b7-8205-7b0033206480" d="M422.52,322.75l-0.21,2.77H410.59l0.28-2.77h11.64m1.06-.61H409.92l-0.41,4h13.77l0.3-4h0Z" transform="translate(-237.1 -132.94)"/><polygon class="4cab450f-62ef-403e-b59f-10f1da393a4b" points="189.69 193.19 203.46 193.19 203.62 189.2 189.96 189.2 189.69 193.19"/><path class="d1a7a61a-1ffd-43b7-8205-7b0033206480" d="M439.67,322.75l-0.12,2.77H427.85l0.18-2.77h11.64m1-.61H427.06l-0.27,4h13.77l0.16-4h0Z" transform="translate(-237.1 -132.94)"/><polygon class="4cab450f-62ef-403e-b59f-10f1da393a4b" points="207.12 193.19 220.88 193.19 220.91 189.2 207.25 189.2 207.12 193.19"/><path class="d1a7a61a-1ffd-43b7-8205-7b0033206480" d="M457,322.75l0,2.77H445.26l0.09-2.77H457m1-.61H444.35l-0.13,4H458l0-4h0Z" transform="translate(-237.1 -132.94)"/><polygon class="4cab450f-62ef-403e-b59f-10f1da393a4b" points="224.39 193.19 238.16 193.19 238.05 189.2 224.39 189.2 224.39 193.19"/><path class="d1a7a61a-1ffd-43b7-8205-7b0033206480" d="M474.15,322.75l0.07,2.77H462.51v-2.77h11.64m1-.61H461.48v4h13.77l-0.12-4h0Z" transform="translate(-237.1 -132.94)"/><polygon class="4cab450f-62ef-403e-b59f-10f1da393a4b" points="242.21 193.19 255.98 193.19 255.72 189.2 242.06 189.2 242.21 193.19"/><path class="d1a7a61a-1ffd-43b7-8205-7b0033206480" d="M491.84,322.75l0.18,2.77H480.31l-0.11-2.77h11.65m1-.61H479.16l0.15,4h13.77l-0.26-4h0Z" transform="translate(-237.1 -132.94)"/><polygon class="4cab450f-62ef-403e-b59f-10f1da393a4b" points="259.49 193.19 273.26 193.19 272.86 189.2 259.2 189.2 259.49 193.19"/><path class="d1a7a61a-1ffd-43b7-8205-7b0033206480" d="M509,322.75l0.27,2.77H497.57l-0.21-2.77H509m1-.61H496.3l0.29,4h13.77l-0.4-4h0Z" transform="translate(-237.1 -132.94)"/><polygon class="4cab450f-62ef-403e-b59f-10f1da393a4b" points="277.04 193.19 290.81 193.19 290.27 189.2 276.61 189.2 277.04 193.19"/><path class="d1a7a61a-1ffd-43b7-8205-7b0033206480" d="M526.43,322.75l0.37,2.77H515.09l-0.3-2.77h11.64m0.93-.61H513.7l0.43,4h13.77l-0.54-4h0Z" transform="translate(-237.1 -132.94)"/><polygon class="4cab450f-62ef-403e-b59f-10f1da393a4b" points="294.86 193.19 308.63 193.19 307.94 189.2 294.28 189.2 294.86 193.19"/><path class="d1a7a61a-1ffd-43b7-8205-7b0033206480" d="M544.13,322.75l0.47,2.77H532.89l-0.41-2.77h11.64m0.91-.61H531.38l0.57,4h13.77l-0.69-4h0Z" transform="translate(-237.1 -132.94)"/><polygon class="4cab450f-62ef-403e-b59f-10f1da393a4b" points="312.14 193.19 325.91 193.19 325.08 189.2 311.42 189.2 312.14 193.19"/><path class="d1a7a61a-1ffd-43b7-8205-7b0033206480" d="M561.29,322.75l0.57,2.77H550.14l-0.5-2.77h11.65m0.89-.61H548.52l0.71,4H563l-0.82-4h0Z" transform="translate(-237.1 -132.94)"/><polygon class="4cab450f-62ef-403e-b59f-10f1da393a4b" points="298.19 216.32 312.6 216.32 311.19 208.11 297 208.11 298.19 216.32"/><path class="d1a7a61a-1ffd-43b7-8205-7b0033206480" d="M547.33,341.66l1.19,7H536.27l-1-7h12.09m0.95-.61H534.1l1.18,8.21h14.41l-1.41-8.21h0Z" transform="translate(-237.1 -132.94)"/><polygon class="4cab450f-62ef-403e-b59f-10f1da393a4b" points="316.27 216.32 330.68 216.32 328.99 208.11 314.8 208.11 316.27 216.32"/><path class="d1a7a61a-1ffd-43b7-8205-7b0033206480" d="M565.16,341.66l1.43,7H554.33l-1.27-7h12.09m0.93-.61H551.9l1.47,8.21h14.41l-1.69-8.21h0Z" transform="translate(-237.1 -132.94)"/><polygon class="4cab450f-62ef-403e-b59f-10f1da393a4b" points="279.54 216.32 293.95 216.32 292.84 208.11 278.65 208.11 279.54 216.32"/><path class="d1a7a61a-1ffd-43b7-8205-7b0033206480" d="M529,341.66l0.93,7H517.64l-0.77-7H529m1-.61H515.75l0.89,8.21H531l-1.11-8.21h0Z" transform="translate(-237.1 -132.94)"/><polygon class="4cab450f-62ef-403e-b59f-10f1da393a4b" points="243.66 227.63 258.38 227.63 257.84 219.42 243.34 219.42 243.66 227.63"/><path class="d1a7a61a-1ffd-43b7-8205-7b0033206480" d="M493.9,353l0.44,7H481.82l-0.28-7H493.9m1-.61h-14.5l0.31,8.21h14.72l-0.54-8.21h0Z" transform="translate(-237.1 -132.94)"/><polygon class="4cab450f-62ef-403e-b59f-10f1da393a4b" points="262.13 227.63 276.86 227.63 276.04 219.42 261.54 219.42 262.13 227.63"/><path class="d1a7a61a-1ffd-43b7-8205-7b0033206480" d="M512.11,353l0.69,7H500.28l-0.52-7h12.36m1-.61h-14.5l0.6,8.21H514l-0.83-8.21h0Z" transform="translate(-237.1 -132.94)"/><polygon class="4cab450f-62ef-403e-b59f-10f1da393a4b" points="206.13 227.63 220.85 227.63 220.89 219.42 206.39 219.42 206.13 227.63"/><path class="d1a7a61a-1ffd-43b7-8205-7b0033206480" d="M456.9,353l0,7H444.33l0.21-7H456.9m1.08-.61H443.49l-0.27,8.21h14.72l0-8.21h0Z" transform="translate(-237.1 -132.94)"/><polygon class="4cab450f-62ef-403e-b59f-10f1da393a4b" points="224.6 227.63 239.33 227.63 239.08 219.42 224.58 219.42 224.6 227.63"/><path class="d1a7a61a-1ffd-43b7-8205-7b0033206480" d="M475.12,353l0.19,7H462.79l0-7h12.36m1.06-.61h-14.5l0,8.21h14.73l-0.25-8.21h0Z" transform="translate(-237.1 -132.94)"/><polygon class="4cab450f-62ef-403e-b59f-10f1da393a4b" points="280.9 227.63 295.63 227.63 294.51 219.42 280.01 219.42 280.9 227.63"/><path class="d1a7a61a-1ffd-43b7-8205-7b0033206480" d="M530.61,353l0.94,7H519l-0.77-7h12.36m1-.61h-14.5l0.89,8.21h14.73l-1.12-8.21h0Z" transform="translate(-237.1 -132.94)"/><polygon class="4cab450f-62ef-403e-b59f-10f1da393a4b" points="282.46 238.71 297.5 238.71 296.38 230.5 281.57 230.5 282.46 238.71"/><path class="d1a7a61a-1ffd-43b7-8205-7b0033206480" d="M532.45,364l0.94,7H520.61l-0.77-7h12.62m1-.61H518.67l0.89,8.21h15l-1.12-8.21h0Z" transform="translate(-237.1 -132.94)"/><polygon class="4cab450f-62ef-403e-b59f-10f1da393a4b" points="301.33 238.71 316.36 238.71 314.96 230.5 300.15 230.5 301.33 238.71"/><path class="d1a7a61a-1ffd-43b7-8205-7b0033206480" d="M551.06,364l1.18,7H539.46l-1-7h12.62m1-.61H537.25l1.18,8.21h15l-1.41-8.21h0Z" transform="translate(-237.1 -132.94)"/><polygon class="4cab450f-62ef-403e-b59f-10f1da393a4b" points="320.49 238.71 335.52 238.71 333.82 230.5 319.02 230.5 320.49 238.71"/><path class="d1a7a61a-1ffd-43b7-8205-7b0033206480" d="M569.95,364l1.43,7H558.59l-1.27-7h12.62m1-.61H556.11l1.47,8.21h15l-1.7-8.21h0Z" transform="translate(-237.1 -132.94)"/><polygon class="4cab450f-62ef-403e-b59f-10f1da393a4b" points="148.35 238.71 163.38 238.71 164.29 230.5 149.48 230.5 148.35 238.71"/><path class="d1a7a61a-1ffd-43b7-8205-7b0033206480" d="M400.22,364l-0.79,7H386.64l1-7h12.62m1.17-.61h-14.8l-1.14,8.21h15l0.91-8.21h0Z" transform="translate(-237.1 -132.94)"/><polygon class="4cab450f-62ef-403e-b59f-10f1da393a4b" points="129.48 238.71 144.51 238.71 145.71 230.5 130.9 230.5 129.48 238.71"/><path class="d1a7a61a-1ffd-43b7-8205-7b0033206480" d="M381.61,364l-1,7H367.8l1.2-7h12.62m1.19-.61H368l-1.43,8.21h15l1.2-8.21h0Z" transform="translate(-237.1 -132.94)"/><polygon class="4cab450f-62ef-403e-b59f-10f1da393a4b" points="131.33 227.63 183.59 227.63 184.21 219.42 132.76 219.42 131.33 227.63"/><path class="d1a7a61a-1ffd-43b7-8205-7b0033206480" d="M420.18,353l-0.54,7h-50l1.2-7h49.35m1.12-.61H369.85l-1.43,8.21h52.26l0.62-8.21h0Z" transform="translate(-237.1 -132.94)"/><polygon class="4cab450f-62ef-403e-b59f-10f1da393a4b" points="299.81 227.63 333.02 227.63 331.32 219.42 298.63 219.42 299.81 227.63"/><path class="d1a7a61a-1ffd-43b7-8205-7b0033206480" d="M567.47,353l1.43,7h-31l-1-7h30.57m1-.61H535.73l1.18,8.21h33.21l-1.7-8.21h0Z" transform="translate(-237.1 -132.94)"/><polygon class="4cab450f-62ef-403e-b59f-10f1da393a4b" points="186.66 238.71 278.05 238.71 277.22 230.5 187.22 230.5 186.66 238.71"/><path class="d1a7a61a-1ffd-43b7-8205-7b0033206480" d="M513.28,364l0.69,7H424.91l0.46-7h87.91m1-.61h-90l-0.56,8.21h91.39l-0.83-8.21h0Z" transform="translate(-237.1 -132.94)"/><polygon class="0c66e9c4-c5bd-4b8a-91bb-a9a52055f8d3" points="264.95 262.07 199.76 262.07 200.56 243.05 263.56 243.05 264.95 262.07"/><path class="d1a7a61a-1ffd-43b7-8205-7b0033206480" d="M499.57,376.6l1.27,17.8H438l0.71-17.8h60.81m1.08-.61h-63l-0.8,19h65.19l-1.39-19h0Z" transform="translate(-237.1 -132.94)"/><path class="5540d1d0-2dc5-4ed5-8a2e-482d4c82a62f" d="M388.82,313.87H366.24a1.28,1.28,0,0,0-1.3.71l-0.71,3.62c-0.08.39,0.39,0.71,1,.71h22.81a1.21,1.21,0,0,0,1.27-.71l0.53-3.62C389.93,314.18,389.46,313.87,388.82,313.87Z" transform="translate(-237.1 -132.94)"/><path class="d1a7a61a-1ffd-43b7-8205-7b0033206480" d="M388.72,314.48c0.09,0,.15,0,0.15.1l-0.54,3.62a0.17,0.17,0,0,1-.18.1H365.37c-0.09,0-.15,0-0.14-0.1l0.71-3.62a0.18,0.18,0,0,1,.18-0.1h22.61m0.09-.61H366.24a1.28,1.28,0,0,0-1.3.71l-0.71,3.62c-0.08.39,0.39,0.71,1,.71h22.81a1.21,1.21,0,0,0,1.27-.71l0.53-3.62c0.06-.39-0.41-0.71-1.05-0.71h0Z" transform="translate(-237.1 -132.94)"/><path class="5540d1d0-2dc5-4ed5-8a2e-482d4c82a62f" d="M575.78,313.87H553.2c-0.64,0-1.1.32-1,.71l0.68,3.62a1.28,1.28,0,0,0,1.3.71H577c0.65,0,1.1-.32,1-0.71l-0.87-3.62A1.34,1.34,0,0,0,575.78,313.87Z" transform="translate(-237.1 -132.94)"/><path class="d1a7a61a-1ffd-43b7-8205-7b0033206480" d="M575.92,314.48a0.19,0.19,0,0,1,.19.1l0.86,3.62c0,0.05-.05.1-0.14,0.1H554a0.18,0.18,0,0,1-.18-0.1l-0.69-3.62c0-.05.05-0.1,0.14-0.1h22.6m-0.15-.61H553.2c-0.64,0-1.1.32-1,.71l0.68,3.62a1.28,1.28,0,0,0,1.3.71H577c0.65,0,1.1-.32,1-0.71l-0.87-3.62a1.34,1.34,0,0,0-1.33-.71h0Z" transform="translate(-237.1 -132.94)"/><path class="4cab450f-62ef-403e-b59f-10f1da393a4b" d="M388.82,313.87H366.24a1.28,1.28,0,0,0-1.3.71l-0.36,1.81h25l0.26-1.81C389.93,314.18,389.46,313.87,388.82,313.87Z" transform="translate(-237.1 -132.94)"/><path class="d1a7a61a-1ffd-43b7-8205-7b0033206480" d="M388.72,314.48c0.09,0,.15,0,0.15.1l-0.18,1.2h-23l0.23-1.2a0.18,0.18,0,0,1,.18-0.1h22.61m0.09-.61H366.24a1.28,1.28,0,0,0-1.3.71l-0.36,1.81h25l0.26-1.81c0.06-.39-0.41-0.71-1.05-0.71h0Z" transform="translate(-237.1 -132.94)"/><path class="4cab450f-62ef-403e-b59f-10f1da393a4b" d="M575.78,313.87H553.2c-0.64,0-1.1.32-1,.71l0.34,1.81h25l-0.44-1.81A1.34,1.34,0,0,0,575.78,313.87Z" transform="translate(-237.1 -132.94)"/><path class="d1a7a61a-1ffd-43b7-8205-7b0033206480" d="M575.92,314.48a0.19,0.19,0,0,1,.18.1l0.28,1.2h-23l-0.23-1.2c0-.05.05-0.1,0.14-0.1h22.6m-0.15-.61H553.2c-0.64,0-1.1.32-1,.71l0.34,1.81h25l-0.44-1.81a1.34,1.34,0,0,0-1.33-.71h0Z" transform="translate(-237.1 -132.94)"/><path class="4cab450f-62ef-403e-b59f-10f1da393a4b" d="M473.32,177.19a3.59,3.59,0,0,1-3.59,3.59h0a3.59,3.59,0,0,1-3.59-3.59h0a3.59,3.59,0,0,1,3.59-3.59h0a3.59,3.59,0,0,1,3.59,3.59h0Z" transform="translate(-237.1 -132.94)"/><path class="d1a7a61a-1ffd-43b7-8205-7b0033206480" d="M469.73,174.6a2.59,2.59,0,1,1-2.59,2.59,2.59,2.59,0,0,1,2.59-2.59m0-1a3.59,3.59,0,1,0,3.59,3.59,3.59,3.59,0,0,0-3.59-3.59h0Z" transform="translate(-237.1 -132.94)"/><polygon class="4cab450f-62ef-403e-b59f-10f1da393a4b" points="381.54 71.09 381.54 63.43 389.2 63.43 389.2 61.68 381.54 61.68 381.54 54.02 379.78 54.02 379.78 61.68 372.13 61.68 372.13 63.43 379.78 63.43 379.78 71.09 381.54 71.09"/><polygon class="4cab450f-62ef-403e-b59f-10f1da393a4b" points="87.06 199.24 92.47 193.83 97.89 199.24 99.13 198 93.72 192.59 99.13 187.17 97.89 185.93 92.47 191.34 87.06 185.93 85.82 187.17 91.23 192.59 85.82 198 87.06 199.24"/><polygon class="3d4a1dcb-8cc9-4a79-8578-32ac3386b1ab" points="338.91 50.01 126.35 50.01 126.35 50.01 126.35 60 338.91 60 338.91 50.01"/><path class="4cab450f-62ef-403e-b59f-10f1da393a4b" d="M381.78,190.05h0a2.11,2.11,0,0,1-2.11-2.11h0a2.11,2.11,0,0,1,2.11-2.11h0a2.11,2.11,0,0,1,2.11,2.11h0A2.11,2.11,0,0,1,381.78,190.05Z" transform="translate(-237.1 -132.94)"/><path class="4cab450f-62ef-403e-b59f-10f1da393a4b" d="M375,190.05h0a2.11,2.11,0,0,1-2.11-2.11h0a2.11,2.11,0,0,1,2.11-2.11h0a2.11,2.11,0,0,1,2.11,2.11h0A2.11,2.11,0,0,1,375,190.05Z" transform="translate(-237.1 -132.94)"/><path class="4cab450f-62ef-403e-b59f-10f1da393a4b" d="M367.87,190.05h0a2.11,2.11,0,0,1-2.11-2.11h0a2.11,2.11,0,0,1,2.11-2.11h0a2.11,2.11,0,0,1,2.11,2.11h0A2.11,2.11,0,0,1,367.87,190.05Z" transform="translate(-237.1 -132.94)"/><path class="145b5bc4-be40-42eb-ba6d-3ba12fa12e4f" d="M371,291.82h3.67V145.37h0a12.92,12.92,0,0,1,10.85-12.22,12.78,12.78,0,0,0-1.81-.21h0a13,13,0,0,0-12.7,12.43h0V291.82Z" transform="translate(-237.1 -132.94)"/><rect class="456fdc44-79a4-4f8e-8c84-d25459007ef7" x="145.6" y="72.65" width="78.5" height="3.71"/><rect class="456fdc44-79a4-4f8e-8c84-d25459007ef7" x="145.6" y="84.35" width="78.5" height="3.71"/><rect class="456fdc44-79a4-4f8e-8c84-d25459007ef7" x="145.6" y="97.12" width="78.5" height="3.71"/><rect class="456fdc44-79a4-4f8e-8c84-d25459007ef7" x="145.6" y="107.99" width="78.5" height="3.71"/><rect class="456fdc44-79a4-4f8e-8c84-d25459007ef7" x="145.6" y="119.7" width="78.5" height="3.7"/><rect class="456fdc44-79a4-4f8e-8c84-d25459007ef7" x="145.6" y="132.47" width="78.5" height="3.71"/><rect class="456fdc44-79a4-4f8e-8c84-d25459007ef7" x="145.6" y="144.75" width="78.5" height="3.7"/><rect class="456fdc44-79a4-4f8e-8c84-d25459007ef7" x="145.6" y="157.52" width="78.5" height="3.71"/><rect class="456fdc44-79a4-4f8e-8c84-d25459007ef7" x="243.36" y="72.65" width="78.5" height="3.71"/><rect class="456fdc44-79a4-4f8e-8c84-d25459007ef7" x="243.36" y="84.35" width="78.5" height="3.71"/><rect class="456fdc44-79a4-4f8e-8c84-d25459007ef7" x="243.36" y="97.12" width="78.5" height="3.71"/><rect class="456fdc44-79a4-4f8e-8c84-d25459007ef7" x="243.36" y="107.99" width="78.5" height="3.71"/><rect class="456fdc44-79a4-4f8e-8c84-d25459007ef7" x="243.36" y="119.7" width="78.5" height="3.7"/><rect class="456fdc44-79a4-4f8e-8c84-d25459007ef7" x="243.36" y="132.47" width="78.5" height="3.71"/><rect class="456fdc44-79a4-4f8e-8c84-d25459007ef7" x="243.36" y="144.75" width="78.5" height="3.7"/><rect class="456fdc44-79a4-4f8e-8c84-d25459007ef7" x="243.36" y="157.52" width="78.5" height="3.71"/><path class="4cab450f-62ef-403e-b59f-10f1da393a4b" d="M358.42,246.34H395.8a13,13,0,0,0,13,12.81l0.23,0a13,13,0,0,0,12.76-13v-73H358.42v73.19Z" transform="translate(-237.1 -132.94)"/><path class="4cab450f-62ef-403e-b59f-10f1da393a4b" d="M439.41,156.37a17.63,17.63,0,0,0-17.62,17.41h-86.2a17.63,17.63,0,0,1,17.62-17.41c0.34,0,.65.08,1,0.1v-0.1h85.22Z" transform="translate(-237.1 -132.94)"/><path class="f86c6021-888e-4a4e-9b12-2b14e4e80f7e" d="M409.27,259.15a12.94,12.94,0,0,1-12.94-12.78H318.51a12.94,12.94,0,0,0,12.94,12.78c0.25,0,.48-0.06.72-0.07v0.07h77.1Z" transform="translate(-237.1 -132.94)"/><path class="f86c6021-888e-4a4e-9b12-2b14e4e80f7e" d="M318.51,145.88h51.91a13,13,0,0,1,13-12.81l0.23,0a13,13,0,0,1,12.76,13V246.37H318.51V145.88Z" transform="translate(-237.1 -132.94)"/><path class="4cab450f-62ef-403e-b59f-10f1da393a4b" d="M383.83,133.15a13,13,0,0,0-13,12.8H290a13,13,0,0,1,13-12.8c0.25,0,.48.06,0.72,0.07v-0.07h80.2Z" transform="translate(-237.1 -132.94)"/><rect class="456fdc44-79a4-4f8e-8c84-d25459007ef7" x="159.1" y="51.04" width="17.3" height="2.54"/><rect class="456fdc44-79a4-4f8e-8c84-d25459007ef7" x="159.1" y="59.81" width="17.3" height="2.54"/><rect class="456fdc44-79a4-4f8e-8c84-d25459007ef7" x="159.1" y="67.7" width="17.3" height="2.54"/><rect class="456fdc44-79a4-4f8e-8c84-d25459007ef7" x="159.1" y="75.72" width="17.3" height="2.54"/><rect class="456fdc44-79a4-4f8e-8c84-d25459007ef7" x="159.1" y="84.49" width="17.3" height="2.54"/><rect class="456fdc44-79a4-4f8e-8c84-d25459007ef7" x="159.1" y="91.94" width="17.3" height="2.55"/><rect class="456fdc44-79a4-4f8e-8c84-d25459007ef7" x="159.1" y="99.97" width="17.3" height="2.54"/><rect class="456fdc44-79a4-4f8e-8c84-d25459007ef7" x="159.1" y="108.74" width="17.3" height="2.54"/><polygon class="720d846e-adb6-4152-836c-f76bf747de60" points="43.34 107.35 141.61 107.05 141.61 107.06 92.58 142.19 43.34 107.35"/><polygon class="720d846e-adb6-4152-836c-f76bf747de60" points="141.8 107.05 43.52 107.35 43.52 107.35 92.57 76.65 141.8 107.05"/><rect class="4cab450f-62ef-403e-b59f-10f1da393a4b" x="52.86" y="12.58" width="80.9" height="138.94"/><rect class="456fdc44-79a4-4f8e-8c84-d25459007ef7" x="61.33" y="25.31" width="26.73" height="2.54"/><rect class="456fdc44-79a4-4f8e-8c84-d25459007ef7" x="61.33" y="34.08" width="63.67" height="2.54"/><rect class="456fdc44-79a4-4f8e-8c84-d25459007ef7" x="61.33" y="41.97" width="63.67" height="2.54"/><rect class="456fdc44-79a4-4f8e-8c84-d25459007ef7" x="61.33" y="49.99" width="63.67" height="2.54"/><rect class="456fdc44-79a4-4f8e-8c84-d25459007ef7" x="61.33" y="58.76" width="63.67" height="2.54"/><rect class="456fdc44-79a4-4f8e-8c84-d25459007ef7" x="61.33" y="66.21" width="63.67" height="2.55"/><rect class="456fdc44-79a4-4f8e-8c84-d25459007ef7" x="61.33" y="74.24" width="63.67" height="2.54"/><rect class="456fdc44-79a4-4f8e-8c84-d25459007ef7" x="61.33" y="83" width="63.67" height="2.54"/><rect class="456fdc44-79a4-4f8e-8c84-d25459007ef7" x="61.33" y="91.24" width="63.67" height="2.54"/><rect class="456fdc44-79a4-4f8e-8c84-d25459007ef7" x="61.33" y="100.01" width="63.67" height="2.54"/><rect class="456fdc44-79a4-4f8e-8c84-d25459007ef7" x="61.33" y="107.9" width="63.67" height="2.55"/><rect class="456fdc44-79a4-4f8e-8c84-d25459007ef7" x="61.33" y="115.92" width="63.67" height="2.54"/><rect class="456fdc44-79a4-4f8e-8c84-d25459007ef7" x="61.33" y="124.69" width="63.67" height="2.54"/><rect class="456fdc44-79a4-4f8e-8c84-d25459007ef7" x="61.33" y="132.14" width="63.67" height="2.55"/><rect class="456fdc44-79a4-4f8e-8c84-d25459007ef7" x="61.33" y="140.17" width="63.67" height="2.54"/><rect class="456fdc44-79a4-4f8e-8c84-d25459007ef7" x="61.33" y="148.93" width="63.67" height="2.54"/><polygon class="3d4a1dcb-8cc9-4a79-8578-32ac3386b1ab" points="92.89 137.71 43.52 168.37 43.34 107.35 92.89 137.71"/><polygon class="720d846e-adb6-4152-836c-f76bf747de60" points="141.8 168.16 141.8 168.16 43.52 168.46 43.52 168.46 92.57 137.76 141.8 168.16"/><polygon class="3d4a1dcb-8cc9-4a79-8578-32ac3386b1ab" points="141.61 107.06 141.8 168.16 92.57 137.76 141.61 107.06"/><path class="f86c6021-888e-4a4e-9b12-2b14e4e80f7e" d="M629.66,224.28H547A16.77,16.77,0,0,0,530.28,241v33.72A16.77,16.77,0,0,0,547,291.54H594.4a8.65,8.65,0,0,1,6.12,2.54l17.7,17.7a1.63,1.63,0,0,0,2.77-1.15V300.2a8.66,8.66,0,0,1,8.66-8.66h0a16.77,16.77,0,0,0,16.77-16.77V241A16.77,16.77,0,0,0,629.66,224.28Z" transform="translate(-237.1 -132.94)"/><rect class="4cab450f-62ef-403e-b59f-10f1da393a4b" x="321.86" y="110.73" width="58.8" height="4.93"/><rect class="4cab450f-62ef-403e-b59f-10f1da393a4b" x="321.86" y="123.65" width="58.8" height="4.93"/><rect class="4cab450f-62ef-403e-b59f-10f1da393a4b" x="321.86" y="136.73" width="58.8" height="4.93"/><path class="52d1b0d7-7ee3-4380-bcb8-209c7db7d42c" d="M530.28,274.77a16.77,16.77,0,0,0,16.77,16.77H594.4a8.65,8.65,0,0,1,6.12,2.54l17.7,17.7a1.63,1.63,0,0,0,2.77-1.15V300.2a8.66,8.66,0,0,1,8.66-8.66,16.77,16.77,0,0,0,16.77-16.77V259.05H530.28v15.71Z" transform="translate(-237.1 -132.94)"/><path class="3d4a1dcb-8cc9-4a79-8578-32ac3386b1ab" d="M505.37,204.61H588a16.77,16.77,0,0,1,16.77,16.77V255.1A16.77,16.77,0,0,1,588,271.87H540.63a8.66,8.66,0,0,0-6.13,2.54l-17.7,17.7A1.62,1.62,0,0,1,514,291V280.53a8.66,8.66,0,0,0-8.66-8.66h0A16.77,16.77,0,0,1,488.6,255.1V221.38A16.77,16.77,0,0,1,505.37,204.61Z" transform="translate(-237.1 -132.94)"/><rect class="4cab450f-62ef-403e-b59f-10f1da393a4b" x="517.27" y="224.01" width="58.81" height="4.93" transform="translate(856.26 320) rotate(180)"/><rect class="4cab450f-62ef-403e-b59f-10f1da393a4b" x="517.27" y="236.93" width="58.81" height="4.93" transform="translate(856.26 345.84) rotate(180)"/><rect class="4cab450f-62ef-403e-b59f-10f1da393a4b" x="517.27" y="250.01" width="58.81" height="4.93" transform="translate(856.26 372.01) rotate(180)"/><path class="d65431b8-63c7-4700-b8cc-0deb85ac6250" d="M604.75,255.1A16.77,16.77,0,0,1,588,271.87H540.63a8.66,8.66,0,0,0-6.13,2.54l-17.7,17.7A1.62,1.62,0,0,1,514,291V280.53a8.66,8.66,0,0,0-8.66-8.66A16.77,16.77,0,0,1,488.6,255.1V239.39H604.75V255.1Z" transform="translate(-237.1 -132.94)"/></g></g></g></svg>