<svg id="96aa9d8a-99d4-4e66-92c8-27faf1dc989a" data-name="Ebene 1" xmlns="http://www.w3.org/2000/svg" viewBox="0 0 295.9 325.28"><defs><style>.\31 d4cc240-e9e4-47eb-8747-fac473443696{fill:#0d72b9;}.\37 694b272-46e1-4231-b87e-1dca12e2dca8{fill:#28a8e0;}.\36 df30946-cd51-4c21-b64f-738cf8bbdc8b,.\37 22fa0fd-a6dc-43b0-ac77-c92a76686275{fill:#fff;}.\37 22fa0fd-a6dc-43b0-ac77-c92a76686275{opacity:0.33;}</style></defs><title>xcode</title><polygon class="1d4cc240-e9e4-47eb-8747-fac473443696" points="0 0 295.9 0 270.23 291.04 147.95 325.28 26.89 293.48 0 0"/><polygon class="7694b272-46e1-4231-b87e-1dca12e2dca8" points="143.86 22.82 264.52 22.82 243.32 267.38 143.86 295.1 143.86 22.82"/><path class="722fa0fd-a6dc-43b0-ac77-c92a76686275" d="M430.06,259.45l14.37-25a4,4,0,0,0-1.45-5.37l-10.22-5.85a3.93,3.93,0,0,0-5.35,1.44l-47.34,82.44a3.91,3.91,0,0,0,1.45,5.34l10.22,5.88a4,4,0,0,0,5.37-1.44Zm96.34-7.51H491.91c4.05,7.61,7.82,14.76,10.47,19.83,1.83,3.5,3.28,6.27,3.8,7.19a12.78,12.78,0,0,1,1.18,3h19a3.55,3.55,0,0,0,3.55-3.54v-23A3.55,3.55,0,0,0,526.4,252h0Zm-83.84,0L425.3,282h46.83c-3.4-6.71-7.9-16.31-14-30.06H442.56Zm-39,0H363.85a3.55,3.55,0,0,0-3.54,3.54v23a3.55,3.55,0,0,0,3.54,3.54H386.3ZM388.4,322.81L378.18,317a2.4,2.4,0,0,0-3.85,1.95l-1.77,15.39c-0.25,2.14,1,2.91,2.8,1.69l13.2-9C390.35,325.77,390.27,323.89,388.4,322.81ZM500,282.39c-0.06-.1-0.13-0.24-0.21-0.38h0c-1-1.75-3.33-6.33-6.45-12.25l-0.11-.22c-0.23-.46-0.48-0.91-0.73-1.39l-0.55-1c-0.15-.3-0.31-0.59-0.46-0.89-0.28-.52-0.56-1-0.84-1.59l-0.26-.5c-0.31-.61-0.64-1.21-1-1.83l-0.28-.53c-7.19-13.61-16.23-30.37-21.81-39.17-9.77-15.44-22.81-41.17-26.45-39.34-5.1,2.54,10.69,35.2,15.9,47.48s25.61,59.3,29.69,61.36,5.67,0.91,8.4-.22,7.62-4.92,5.13-9.47v0Zm11.65,24.23-4.86-9.34a4.34,4.34,0,0,0-5.76-1.92l-5.87,3a3.86,3.86,0,0,0-1.45,5.59l6.16,9.73a4.42,4.42,0,0,0,6,1.46l4.19-2.52a4.64,4.64,0,0,0,1.65-6h0Zm-1.5,13.53c-1.54,1.47-5.18,4.65-.76,10.84s14.22,6.48,15.51,10.6c0,0,3.08-31.51-14.75-21.45h0Z" transform="translate(-301.27 -112.06)"/><path class="6df30946-cd51-4c21-b64f-738cf8bbdc8b" d="M387.11,359.87c0-1.17.81-2.48,2.3-4.65a10.12,10.12,0,0,0,1.72-3.43s2.85-8.27,17.21-39.56,27-55.08,28.15-57.52,3.49-1.8,4.84-1.46,11.25,4.51,12.4,5.08,2.54,1.73,2.54,3.08-0.81,2.3-1.46,4.83c-6.23,23.94-20.37,63.37-21.54,66.84s-11,28.69-12,32.18a36.21,36.21,0,0,0-1.17,4.91,4.27,4.27,0,0,1-1.83,2.83,2.51,2.51,0,0,1-1.81.58,4.23,4.23,0,0,1-1.44-.25L390,363.23C387.68,362.28,387.15,361,387.11,359.87ZM528.52,197.68c-0.86-.32-8.13-3.21-8.74-3.48a6,6,0,0,0-2-.17,12.31,12.31,0,0,1-3,.24c-7.11,0-11.69-2.37-15.07-5.35a12.19,12.19,0,0,1-4.17-7.35,1.83,1.83,0,0,0-1.15-1.5C483.44,175,463.84,168.6,447,168.6a74.11,74.11,0,0,0-34.1,8.4,69.45,69.45,0,0,0-9.69,5.89c-0.64.44-.14,0.81,0.27,1a1.46,1.46,0,0,0,1.06-.14s9.57-4.7,29.36-4.52,23.12,7.68,24.3,11.2,1.35,9.76.45,12.83c-2,8.94-20.07,49.68-20.07,49.68a6.55,6.55,0,0,1,2.7.28c1.35,0.34,11.25,4.51,12.4,5.08a5.63,5.63,0,0,1,2.07,1.7h0s9.86-25.65,15.21-39.14,17.21-16.5,20.09-16.5c8.77,0,17,9,17.63,10.15a4.33,4.33,0,0,0,1.85,1.81c0.29,0.16,7.77,3.25,8.45,3.57a1.05,1.05,0,0,0,1.29-.07c7.32-7.5,9.08-19.15,9.21-20.14A1.65,1.65,0,0,0,528.52,197.68Z" transform="translate(-301.27 -112.06)"/></svg>